M48
; DRILL file {KiCad (5.1.5)-3} date 03/15/20 15:33:11
; FORMAT={-:-/ absolute / inch / decimal}
; #@! TF.CreationDate,2020-03-15T15:33:11+08:00
; #@! TF.GenerationSoftware,Kicad,Pcbnew,(5.1.5)-3
; #@! TF.FileFunction,Plated,1,2,PTH
FMAT,2
INCH
T1C0.0157
T2C0.0236
T3C0.0335
T4C0.0394
T5C0.0591
T6C0.0866
%
G90
G05
T1
X1.4405Y-1.9603
X1.4691Y-1.9332
X1.471Y-2.0528
X1.6172Y-1.9316
X1.6174Y-2.0376
X1.6214Y-1.818
X1.7962Y-2.0386
X1.8841Y-2.6049
X1.9468Y-2.6474
X2.2832Y-1.6722
X2.5361Y-2.4067
X2.8562Y-2.1748
X3.0008Y-1.9408
X3.0516Y-2.0584
X3.1296Y-1.9092
X3.139Y-2.017
X3.2518Y-2.0838
X3.4544Y-2.6624
X3.5424Y-2.375
X3.8896Y-3.858
X4.0108Y-2.3814
X4.1974Y-2.6426
X4.4048Y-1.9772
X4.5956Y-1.9538
X4.7662Y-1.9036
X4.7736Y-1.6814
X4.8479Y-2.3269
X4.9044Y-1.8142
X5.001Y-4.0304
X5.052Y-1.7296
X5.2222Y-1.8902
X5.32Y-1.8238
X5.4474Y-1.8488
X5.5224Y-1.7768
X5.5444Y-1.823
X5.5838Y-2.3308
X5.7214Y-1.7354
X5.807Y-2.1554
X6.2106Y-2.0876
X6.2248Y-2.1588
X6.2589Y-2.3425
X6.2652Y-1.9618
X6.4218Y-2.0764
X6.4218Y-2.0764
X6.9875Y-2.3581
T3
X6.7776Y-1.7756
X6.9744Y-1.7756
T4
X2.656Y-1.7462
X2.756Y-1.7462
X2.856Y-1.7462
X2.956Y-1.7462
X3.056Y-1.7462
X3.156Y-1.7462
X3.256Y-1.7462
X3.356Y-1.7462
X3.456Y-1.7462
X3.556Y-1.7462
X3.656Y-1.7462
X3.756Y-1.7462
X3.856Y-1.7462
X3.956Y-1.7462
X4.056Y-1.7462
X4.156Y-1.7462
X4.256Y-1.7462
X4.356Y-1.7462
X4.456Y-1.7462
X4.556Y-1.7462
X1.471Y-1.6544
X1.571Y-1.6544
X1.671Y-1.6544
X1.771Y-1.6544
X1.871Y-1.6544
T5
X1.529Y-4.218
X1.779Y-4.118
X2.279Y-4.968
X2.529Y-4.868
X3.029Y-3.468
X3.279Y-3.368
X2.279Y-2.718
X2.529Y-2.618
X1.529Y-5.718
X1.779Y-5.618
X2.279Y-4.218
X2.529Y-4.118
X1.529Y-3.468
X1.779Y-3.368
X6.779Y-2.718
X7.029Y-2.618
X6.029Y-2.718
X6.279Y-2.618
X3.029Y-5.718
X3.279Y-5.618
X3.779Y-5.718
X4.029Y-5.618
X4.529Y-4.218
X4.779Y-4.118
X5.279Y-4.218
X5.529Y-4.118
X6.779Y-3.468
X7.029Y-3.368
X3.029Y-2.718
X3.279Y-2.618
X4.529Y-3.468
X4.779Y-3.368
X1.529Y-4.968
X1.779Y-4.868
X4.529Y-4.968
X4.779Y-4.868
X6.029Y-4.968
X6.279Y-4.868
X1.529Y-2.718
X1.779Y-2.618
X5.279Y-2.718
X5.529Y-2.618
X2.279Y-3.468
X2.529Y-3.368
X6.779Y-5.718
X7.029Y-5.618
X6.029Y-5.718
X6.279Y-5.618
X6.029Y-4.218
X6.279Y-4.118
X6.779Y-4.968
X7.029Y-4.868
X3.029Y-4.968
X3.279Y-4.868
X4.529Y-2.718
X4.779Y-2.618
X3.779Y-2.718
X4.029Y-2.618
X5.279Y-5.718
X5.529Y-5.618
X4.529Y-5.718
X4.779Y-5.618
X3.779Y-4.218
X4.029Y-4.118
X5.279Y-4.968
X5.529Y-4.868
X6.779Y-4.218
X7.029Y-4.118
X6.029Y-3.468
X6.279Y-3.368
X3.029Y-4.218
X3.279Y-4.118
X3.779Y-4.968
X4.029Y-4.868
X3.779Y-3.468
X4.029Y-3.368
X5.279Y-3.468
X5.529Y-3.368
X2.279Y-5.718
X2.529Y-5.618
T6
X1.2205Y-1.6929
X1.2205Y-5.7874
X7.2835Y-1.6929
X7.2835Y-5.7874
T2
G00X6.7382Y-1.6831
M15
G01X6.7382Y-1.6555
M16
G05
G00X7.0138Y-1.6555
M15
G01X7.0138Y-1.6831
M16
G05
T0
M30
