G04 #@! TF.GenerationSoftware,KiCad,Pcbnew,(5.1.5)-3*
G04 #@! TF.CreationDate,2020-03-15T15:33:01+08:00*
G04 #@! TF.ProjectId,XS40,58533430-2e6b-4696-9361-645f70636258,rev?*
G04 #@! TF.SameCoordinates,Original*
G04 #@! TF.FileFunction,Paste,Bot*
G04 #@! TF.FilePolarity,Positive*
%FSLAX46Y46*%
G04 Gerber Fmt 4.6, Leading zero omitted, Abs format (unit mm)*
G04 Created by KiCad (PCBNEW (5.1.5)-3) date 2020-03-15 15:33:01*
%MOMM*%
%LPD*%
G04 APERTURE LIST*
%ADD10R,1.500000X1.900000*%
%ADD11R,0.400000X1.350000*%
%ADD12C,0.100000*%
%ADD13R,0.900000X1.200000*%
%ADD14R,0.450000X1.450000*%
G04 APERTURE END LIST*
D10*
X173650400Y-42399700D03*
D11*
X174650400Y-45099700D03*
X175300400Y-45099700D03*
X175950400Y-45099700D03*
X173350400Y-45099700D03*
X174000400Y-45099700D03*
D10*
X175650400Y-42399700D03*
D12*
G36*
X165619591Y-55421293D02*
G01*
X165640826Y-55424443D01*
X165661650Y-55429659D01*
X165681862Y-55436891D01*
X165701268Y-55446070D01*
X165719681Y-55457106D01*
X165736924Y-55469894D01*
X165752830Y-55484310D01*
X165767246Y-55500216D01*
X165780034Y-55517459D01*
X165791070Y-55535872D01*
X165800249Y-55555278D01*
X165807481Y-55575490D01*
X165812697Y-55596314D01*
X165815847Y-55617549D01*
X165816900Y-55638990D01*
X165816900Y-56151490D01*
X165815847Y-56172931D01*
X165812697Y-56194166D01*
X165807481Y-56214990D01*
X165800249Y-56235202D01*
X165791070Y-56254608D01*
X165780034Y-56273021D01*
X165767246Y-56290264D01*
X165752830Y-56306170D01*
X165736924Y-56320586D01*
X165719681Y-56333374D01*
X165701268Y-56344410D01*
X165681862Y-56353589D01*
X165661650Y-56360821D01*
X165640826Y-56366037D01*
X165619591Y-56369187D01*
X165598150Y-56370240D01*
X165160650Y-56370240D01*
X165139209Y-56369187D01*
X165117974Y-56366037D01*
X165097150Y-56360821D01*
X165076938Y-56353589D01*
X165057532Y-56344410D01*
X165039119Y-56333374D01*
X165021876Y-56320586D01*
X165005970Y-56306170D01*
X164991554Y-56290264D01*
X164978766Y-56273021D01*
X164967730Y-56254608D01*
X164958551Y-56235202D01*
X164951319Y-56214990D01*
X164946103Y-56194166D01*
X164942953Y-56172931D01*
X164941900Y-56151490D01*
X164941900Y-55638990D01*
X164942953Y-55617549D01*
X164946103Y-55596314D01*
X164951319Y-55575490D01*
X164958551Y-55555278D01*
X164967730Y-55535872D01*
X164978766Y-55517459D01*
X164991554Y-55500216D01*
X165005970Y-55484310D01*
X165021876Y-55469894D01*
X165039119Y-55457106D01*
X165057532Y-55446070D01*
X165076938Y-55436891D01*
X165097150Y-55429659D01*
X165117974Y-55424443D01*
X165139209Y-55421293D01*
X165160650Y-55420240D01*
X165598150Y-55420240D01*
X165619591Y-55421293D01*
G37*
G36*
X164044591Y-55421293D02*
G01*
X164065826Y-55424443D01*
X164086650Y-55429659D01*
X164106862Y-55436891D01*
X164126268Y-55446070D01*
X164144681Y-55457106D01*
X164161924Y-55469894D01*
X164177830Y-55484310D01*
X164192246Y-55500216D01*
X164205034Y-55517459D01*
X164216070Y-55535872D01*
X164225249Y-55555278D01*
X164232481Y-55575490D01*
X164237697Y-55596314D01*
X164240847Y-55617549D01*
X164241900Y-55638990D01*
X164241900Y-56151490D01*
X164240847Y-56172931D01*
X164237697Y-56194166D01*
X164232481Y-56214990D01*
X164225249Y-56235202D01*
X164216070Y-56254608D01*
X164205034Y-56273021D01*
X164192246Y-56290264D01*
X164177830Y-56306170D01*
X164161924Y-56320586D01*
X164144681Y-56333374D01*
X164126268Y-56344410D01*
X164106862Y-56353589D01*
X164086650Y-56360821D01*
X164065826Y-56366037D01*
X164044591Y-56369187D01*
X164023150Y-56370240D01*
X163585650Y-56370240D01*
X163564209Y-56369187D01*
X163542974Y-56366037D01*
X163522150Y-56360821D01*
X163501938Y-56353589D01*
X163482532Y-56344410D01*
X163464119Y-56333374D01*
X163446876Y-56320586D01*
X163430970Y-56306170D01*
X163416554Y-56290264D01*
X163403766Y-56273021D01*
X163392730Y-56254608D01*
X163383551Y-56235202D01*
X163376319Y-56214990D01*
X163371103Y-56194166D01*
X163367953Y-56172931D01*
X163366900Y-56151490D01*
X163366900Y-55638990D01*
X163367953Y-55617549D01*
X163371103Y-55596314D01*
X163376319Y-55575490D01*
X163383551Y-55555278D01*
X163392730Y-55535872D01*
X163403766Y-55517459D01*
X163416554Y-55500216D01*
X163430970Y-55484310D01*
X163446876Y-55469894D01*
X163464119Y-55457106D01*
X163482532Y-55446070D01*
X163501938Y-55436891D01*
X163522150Y-55429659D01*
X163542974Y-55424443D01*
X163564209Y-55421293D01*
X163585650Y-55420240D01*
X164023150Y-55420240D01*
X164044591Y-55421293D01*
G37*
G36*
X165629851Y-53958253D02*
G01*
X165651086Y-53961403D01*
X165671910Y-53966619D01*
X165692122Y-53973851D01*
X165711528Y-53983030D01*
X165729941Y-53994066D01*
X165747184Y-54006854D01*
X165763090Y-54021270D01*
X165777506Y-54037176D01*
X165790294Y-54054419D01*
X165801330Y-54072832D01*
X165810509Y-54092238D01*
X165817741Y-54112450D01*
X165822957Y-54133274D01*
X165826107Y-54154509D01*
X165827160Y-54175950D01*
X165827160Y-54688450D01*
X165826107Y-54709891D01*
X165822957Y-54731126D01*
X165817741Y-54751950D01*
X165810509Y-54772162D01*
X165801330Y-54791568D01*
X165790294Y-54809981D01*
X165777506Y-54827224D01*
X165763090Y-54843130D01*
X165747184Y-54857546D01*
X165729941Y-54870334D01*
X165711528Y-54881370D01*
X165692122Y-54890549D01*
X165671910Y-54897781D01*
X165651086Y-54902997D01*
X165629851Y-54906147D01*
X165608410Y-54907200D01*
X165170910Y-54907200D01*
X165149469Y-54906147D01*
X165128234Y-54902997D01*
X165107410Y-54897781D01*
X165087198Y-54890549D01*
X165067792Y-54881370D01*
X165049379Y-54870334D01*
X165032136Y-54857546D01*
X165016230Y-54843130D01*
X165001814Y-54827224D01*
X164989026Y-54809981D01*
X164977990Y-54791568D01*
X164968811Y-54772162D01*
X164961579Y-54751950D01*
X164956363Y-54731126D01*
X164953213Y-54709891D01*
X164952160Y-54688450D01*
X164952160Y-54175950D01*
X164953213Y-54154509D01*
X164956363Y-54133274D01*
X164961579Y-54112450D01*
X164968811Y-54092238D01*
X164977990Y-54072832D01*
X164989026Y-54054419D01*
X165001814Y-54037176D01*
X165016230Y-54021270D01*
X165032136Y-54006854D01*
X165049379Y-53994066D01*
X165067792Y-53983030D01*
X165087198Y-53973851D01*
X165107410Y-53966619D01*
X165128234Y-53961403D01*
X165149469Y-53958253D01*
X165170910Y-53957200D01*
X165608410Y-53957200D01*
X165629851Y-53958253D01*
G37*
G36*
X164054851Y-53958253D02*
G01*
X164076086Y-53961403D01*
X164096910Y-53966619D01*
X164117122Y-53973851D01*
X164136528Y-53983030D01*
X164154941Y-53994066D01*
X164172184Y-54006854D01*
X164188090Y-54021270D01*
X164202506Y-54037176D01*
X164215294Y-54054419D01*
X164226330Y-54072832D01*
X164235509Y-54092238D01*
X164242741Y-54112450D01*
X164247957Y-54133274D01*
X164251107Y-54154509D01*
X164252160Y-54175950D01*
X164252160Y-54688450D01*
X164251107Y-54709891D01*
X164247957Y-54731126D01*
X164242741Y-54751950D01*
X164235509Y-54772162D01*
X164226330Y-54791568D01*
X164215294Y-54809981D01*
X164202506Y-54827224D01*
X164188090Y-54843130D01*
X164172184Y-54857546D01*
X164154941Y-54870334D01*
X164136528Y-54881370D01*
X164117122Y-54890549D01*
X164096910Y-54897781D01*
X164076086Y-54902997D01*
X164054851Y-54906147D01*
X164033410Y-54907200D01*
X163595910Y-54907200D01*
X163574469Y-54906147D01*
X163553234Y-54902997D01*
X163532410Y-54897781D01*
X163512198Y-54890549D01*
X163492792Y-54881370D01*
X163474379Y-54870334D01*
X163457136Y-54857546D01*
X163441230Y-54843130D01*
X163426814Y-54827224D01*
X163414026Y-54809981D01*
X163402990Y-54791568D01*
X163393811Y-54772162D01*
X163386579Y-54751950D01*
X163381363Y-54731126D01*
X163378213Y-54709891D01*
X163377160Y-54688450D01*
X163377160Y-54175950D01*
X163378213Y-54154509D01*
X163381363Y-54133274D01*
X163386579Y-54112450D01*
X163393811Y-54092238D01*
X163402990Y-54072832D01*
X163414026Y-54054419D01*
X163426814Y-54037176D01*
X163441230Y-54021270D01*
X163457136Y-54006854D01*
X163474379Y-53994066D01*
X163492792Y-53983030D01*
X163512198Y-53973851D01*
X163532410Y-53966619D01*
X163553234Y-53961403D01*
X163574469Y-53958253D01*
X163595910Y-53957200D01*
X164033410Y-53957200D01*
X164054851Y-53958253D01*
G37*
G36*
X34250691Y-44915853D02*
G01*
X34271926Y-44919003D01*
X34292750Y-44924219D01*
X34312962Y-44931451D01*
X34332368Y-44940630D01*
X34350781Y-44951666D01*
X34368024Y-44964454D01*
X34383930Y-44978870D01*
X34398346Y-44994776D01*
X34411134Y-45012019D01*
X34422170Y-45030432D01*
X34431349Y-45049838D01*
X34438581Y-45070050D01*
X34443797Y-45090874D01*
X34446947Y-45112109D01*
X34448000Y-45133550D01*
X34448000Y-45646050D01*
X34446947Y-45667491D01*
X34443797Y-45688726D01*
X34438581Y-45709550D01*
X34431349Y-45729762D01*
X34422170Y-45749168D01*
X34411134Y-45767581D01*
X34398346Y-45784824D01*
X34383930Y-45800730D01*
X34368024Y-45815146D01*
X34350781Y-45827934D01*
X34332368Y-45838970D01*
X34312962Y-45848149D01*
X34292750Y-45855381D01*
X34271926Y-45860597D01*
X34250691Y-45863747D01*
X34229250Y-45864800D01*
X33791750Y-45864800D01*
X33770309Y-45863747D01*
X33749074Y-45860597D01*
X33728250Y-45855381D01*
X33708038Y-45848149D01*
X33688632Y-45838970D01*
X33670219Y-45827934D01*
X33652976Y-45815146D01*
X33637070Y-45800730D01*
X33622654Y-45784824D01*
X33609866Y-45767581D01*
X33598830Y-45749168D01*
X33589651Y-45729762D01*
X33582419Y-45709550D01*
X33577203Y-45688726D01*
X33574053Y-45667491D01*
X33573000Y-45646050D01*
X33573000Y-45133550D01*
X33574053Y-45112109D01*
X33577203Y-45090874D01*
X33582419Y-45070050D01*
X33589651Y-45049838D01*
X33598830Y-45030432D01*
X33609866Y-45012019D01*
X33622654Y-44994776D01*
X33637070Y-44978870D01*
X33652976Y-44964454D01*
X33670219Y-44951666D01*
X33688632Y-44940630D01*
X33708038Y-44931451D01*
X33728250Y-44924219D01*
X33749074Y-44919003D01*
X33770309Y-44915853D01*
X33791750Y-44914800D01*
X34229250Y-44914800D01*
X34250691Y-44915853D01*
G37*
G36*
X35825691Y-44915853D02*
G01*
X35846926Y-44919003D01*
X35867750Y-44924219D01*
X35887962Y-44931451D01*
X35907368Y-44940630D01*
X35925781Y-44951666D01*
X35943024Y-44964454D01*
X35958930Y-44978870D01*
X35973346Y-44994776D01*
X35986134Y-45012019D01*
X35997170Y-45030432D01*
X36006349Y-45049838D01*
X36013581Y-45070050D01*
X36018797Y-45090874D01*
X36021947Y-45112109D01*
X36023000Y-45133550D01*
X36023000Y-45646050D01*
X36021947Y-45667491D01*
X36018797Y-45688726D01*
X36013581Y-45709550D01*
X36006349Y-45729762D01*
X35997170Y-45749168D01*
X35986134Y-45767581D01*
X35973346Y-45784824D01*
X35958930Y-45800730D01*
X35943024Y-45815146D01*
X35925781Y-45827934D01*
X35907368Y-45838970D01*
X35887962Y-45848149D01*
X35867750Y-45855381D01*
X35846926Y-45860597D01*
X35825691Y-45863747D01*
X35804250Y-45864800D01*
X35366750Y-45864800D01*
X35345309Y-45863747D01*
X35324074Y-45860597D01*
X35303250Y-45855381D01*
X35283038Y-45848149D01*
X35263632Y-45838970D01*
X35245219Y-45827934D01*
X35227976Y-45815146D01*
X35212070Y-45800730D01*
X35197654Y-45784824D01*
X35184866Y-45767581D01*
X35173830Y-45749168D01*
X35164651Y-45729762D01*
X35157419Y-45709550D01*
X35152203Y-45688726D01*
X35149053Y-45667491D01*
X35148000Y-45646050D01*
X35148000Y-45133550D01*
X35149053Y-45112109D01*
X35152203Y-45090874D01*
X35157419Y-45070050D01*
X35164651Y-45049838D01*
X35173830Y-45030432D01*
X35184866Y-45012019D01*
X35197654Y-44994776D01*
X35212070Y-44978870D01*
X35227976Y-44964454D01*
X35245219Y-44951666D01*
X35263632Y-44940630D01*
X35283038Y-44931451D01*
X35303250Y-44924219D01*
X35324074Y-44919003D01*
X35345309Y-44915853D01*
X35366750Y-44914800D01*
X35804250Y-44914800D01*
X35825691Y-44915853D01*
G37*
G36*
X45456104Y-70703404D02*
G01*
X45480373Y-70707004D01*
X45504171Y-70712965D01*
X45527271Y-70721230D01*
X45549449Y-70731720D01*
X45570493Y-70744333D01*
X45590198Y-70758947D01*
X45608377Y-70775423D01*
X45624853Y-70793602D01*
X45639467Y-70813307D01*
X45652080Y-70834351D01*
X45662570Y-70856529D01*
X45670835Y-70879629D01*
X45676796Y-70903427D01*
X45680396Y-70927696D01*
X45681600Y-70952200D01*
X45681600Y-72202200D01*
X45680396Y-72226704D01*
X45676796Y-72250973D01*
X45670835Y-72274771D01*
X45662570Y-72297871D01*
X45652080Y-72320049D01*
X45639467Y-72341093D01*
X45624853Y-72360798D01*
X45608377Y-72378977D01*
X45590198Y-72395453D01*
X45570493Y-72410067D01*
X45549449Y-72422680D01*
X45527271Y-72433170D01*
X45504171Y-72441435D01*
X45480373Y-72447396D01*
X45456104Y-72450996D01*
X45431600Y-72452200D01*
X44681600Y-72452200D01*
X44657096Y-72450996D01*
X44632827Y-72447396D01*
X44609029Y-72441435D01*
X44585929Y-72433170D01*
X44563751Y-72422680D01*
X44542707Y-72410067D01*
X44523002Y-72395453D01*
X44504823Y-72378977D01*
X44488347Y-72360798D01*
X44473733Y-72341093D01*
X44461120Y-72320049D01*
X44450630Y-72297871D01*
X44442365Y-72274771D01*
X44436404Y-72250973D01*
X44432804Y-72226704D01*
X44431600Y-72202200D01*
X44431600Y-70952200D01*
X44432804Y-70927696D01*
X44436404Y-70903427D01*
X44442365Y-70879629D01*
X44450630Y-70856529D01*
X44461120Y-70834351D01*
X44473733Y-70813307D01*
X44488347Y-70793602D01*
X44504823Y-70775423D01*
X44523002Y-70758947D01*
X44542707Y-70744333D01*
X44563751Y-70731720D01*
X44585929Y-70721230D01*
X44609029Y-70712965D01*
X44632827Y-70707004D01*
X44657096Y-70703404D01*
X44681600Y-70702200D01*
X45431600Y-70702200D01*
X45456104Y-70703404D01*
G37*
G36*
X48256104Y-70703404D02*
G01*
X48280373Y-70707004D01*
X48304171Y-70712965D01*
X48327271Y-70721230D01*
X48349449Y-70731720D01*
X48370493Y-70744333D01*
X48390198Y-70758947D01*
X48408377Y-70775423D01*
X48424853Y-70793602D01*
X48439467Y-70813307D01*
X48452080Y-70834351D01*
X48462570Y-70856529D01*
X48470835Y-70879629D01*
X48476796Y-70903427D01*
X48480396Y-70927696D01*
X48481600Y-70952200D01*
X48481600Y-72202200D01*
X48480396Y-72226704D01*
X48476796Y-72250973D01*
X48470835Y-72274771D01*
X48462570Y-72297871D01*
X48452080Y-72320049D01*
X48439467Y-72341093D01*
X48424853Y-72360798D01*
X48408377Y-72378977D01*
X48390198Y-72395453D01*
X48370493Y-72410067D01*
X48349449Y-72422680D01*
X48327271Y-72433170D01*
X48304171Y-72441435D01*
X48280373Y-72447396D01*
X48256104Y-72450996D01*
X48231600Y-72452200D01*
X47481600Y-72452200D01*
X47457096Y-72450996D01*
X47432827Y-72447396D01*
X47409029Y-72441435D01*
X47385929Y-72433170D01*
X47363751Y-72422680D01*
X47342707Y-72410067D01*
X47323002Y-72395453D01*
X47304823Y-72378977D01*
X47288347Y-72360798D01*
X47273733Y-72341093D01*
X47261120Y-72320049D01*
X47250630Y-72297871D01*
X47242365Y-72274771D01*
X47236404Y-72250973D01*
X47232804Y-72226704D01*
X47231600Y-72202200D01*
X47231600Y-70952200D01*
X47232804Y-70927696D01*
X47236404Y-70903427D01*
X47242365Y-70879629D01*
X47250630Y-70856529D01*
X47261120Y-70834351D01*
X47273733Y-70813307D01*
X47288347Y-70793602D01*
X47304823Y-70775423D01*
X47323002Y-70758947D01*
X47342707Y-70744333D01*
X47363751Y-70731720D01*
X47385929Y-70721230D01*
X47409029Y-70712965D01*
X47432827Y-70707004D01*
X47457096Y-70703404D01*
X47481600Y-70702200D01*
X48231600Y-70702200D01*
X48256104Y-70703404D01*
G37*
G36*
X67306104Y-70703404D02*
G01*
X67330373Y-70707004D01*
X67354171Y-70712965D01*
X67377271Y-70721230D01*
X67399449Y-70731720D01*
X67420493Y-70744333D01*
X67440198Y-70758947D01*
X67458377Y-70775423D01*
X67474853Y-70793602D01*
X67489467Y-70813307D01*
X67502080Y-70834351D01*
X67512570Y-70856529D01*
X67520835Y-70879629D01*
X67526796Y-70903427D01*
X67530396Y-70927696D01*
X67531600Y-70952200D01*
X67531600Y-72202200D01*
X67530396Y-72226704D01*
X67526796Y-72250973D01*
X67520835Y-72274771D01*
X67512570Y-72297871D01*
X67502080Y-72320049D01*
X67489467Y-72341093D01*
X67474853Y-72360798D01*
X67458377Y-72378977D01*
X67440198Y-72395453D01*
X67420493Y-72410067D01*
X67399449Y-72422680D01*
X67377271Y-72433170D01*
X67354171Y-72441435D01*
X67330373Y-72447396D01*
X67306104Y-72450996D01*
X67281600Y-72452200D01*
X66531600Y-72452200D01*
X66507096Y-72450996D01*
X66482827Y-72447396D01*
X66459029Y-72441435D01*
X66435929Y-72433170D01*
X66413751Y-72422680D01*
X66392707Y-72410067D01*
X66373002Y-72395453D01*
X66354823Y-72378977D01*
X66338347Y-72360798D01*
X66323733Y-72341093D01*
X66311120Y-72320049D01*
X66300630Y-72297871D01*
X66292365Y-72274771D01*
X66286404Y-72250973D01*
X66282804Y-72226704D01*
X66281600Y-72202200D01*
X66281600Y-70952200D01*
X66282804Y-70927696D01*
X66286404Y-70903427D01*
X66292365Y-70879629D01*
X66300630Y-70856529D01*
X66311120Y-70834351D01*
X66323733Y-70813307D01*
X66338347Y-70793602D01*
X66354823Y-70775423D01*
X66373002Y-70758947D01*
X66392707Y-70744333D01*
X66413751Y-70731720D01*
X66435929Y-70721230D01*
X66459029Y-70712965D01*
X66482827Y-70707004D01*
X66507096Y-70703404D01*
X66531600Y-70702200D01*
X67281600Y-70702200D01*
X67306104Y-70703404D01*
G37*
G36*
X64506104Y-70703404D02*
G01*
X64530373Y-70707004D01*
X64554171Y-70712965D01*
X64577271Y-70721230D01*
X64599449Y-70731720D01*
X64620493Y-70744333D01*
X64640198Y-70758947D01*
X64658377Y-70775423D01*
X64674853Y-70793602D01*
X64689467Y-70813307D01*
X64702080Y-70834351D01*
X64712570Y-70856529D01*
X64720835Y-70879629D01*
X64726796Y-70903427D01*
X64730396Y-70927696D01*
X64731600Y-70952200D01*
X64731600Y-72202200D01*
X64730396Y-72226704D01*
X64726796Y-72250973D01*
X64720835Y-72274771D01*
X64712570Y-72297871D01*
X64702080Y-72320049D01*
X64689467Y-72341093D01*
X64674853Y-72360798D01*
X64658377Y-72378977D01*
X64640198Y-72395453D01*
X64620493Y-72410067D01*
X64599449Y-72422680D01*
X64577271Y-72433170D01*
X64554171Y-72441435D01*
X64530373Y-72447396D01*
X64506104Y-72450996D01*
X64481600Y-72452200D01*
X63731600Y-72452200D01*
X63707096Y-72450996D01*
X63682827Y-72447396D01*
X63659029Y-72441435D01*
X63635929Y-72433170D01*
X63613751Y-72422680D01*
X63592707Y-72410067D01*
X63573002Y-72395453D01*
X63554823Y-72378977D01*
X63538347Y-72360798D01*
X63523733Y-72341093D01*
X63511120Y-72320049D01*
X63500630Y-72297871D01*
X63492365Y-72274771D01*
X63486404Y-72250973D01*
X63482804Y-72226704D01*
X63481600Y-72202200D01*
X63481600Y-70952200D01*
X63482804Y-70927696D01*
X63486404Y-70903427D01*
X63492365Y-70879629D01*
X63500630Y-70856529D01*
X63511120Y-70834351D01*
X63523733Y-70813307D01*
X63538347Y-70793602D01*
X63554823Y-70775423D01*
X63573002Y-70758947D01*
X63592707Y-70744333D01*
X63613751Y-70731720D01*
X63635929Y-70721230D01*
X63659029Y-70712965D01*
X63682827Y-70707004D01*
X63707096Y-70703404D01*
X63731600Y-70702200D01*
X64481600Y-70702200D01*
X64506104Y-70703404D01*
G37*
G36*
X86356104Y-70703404D02*
G01*
X86380373Y-70707004D01*
X86404171Y-70712965D01*
X86427271Y-70721230D01*
X86449449Y-70731720D01*
X86470493Y-70744333D01*
X86490198Y-70758947D01*
X86508377Y-70775423D01*
X86524853Y-70793602D01*
X86539467Y-70813307D01*
X86552080Y-70834351D01*
X86562570Y-70856529D01*
X86570835Y-70879629D01*
X86576796Y-70903427D01*
X86580396Y-70927696D01*
X86581600Y-70952200D01*
X86581600Y-72202200D01*
X86580396Y-72226704D01*
X86576796Y-72250973D01*
X86570835Y-72274771D01*
X86562570Y-72297871D01*
X86552080Y-72320049D01*
X86539467Y-72341093D01*
X86524853Y-72360798D01*
X86508377Y-72378977D01*
X86490198Y-72395453D01*
X86470493Y-72410067D01*
X86449449Y-72422680D01*
X86427271Y-72433170D01*
X86404171Y-72441435D01*
X86380373Y-72447396D01*
X86356104Y-72450996D01*
X86331600Y-72452200D01*
X85581600Y-72452200D01*
X85557096Y-72450996D01*
X85532827Y-72447396D01*
X85509029Y-72441435D01*
X85485929Y-72433170D01*
X85463751Y-72422680D01*
X85442707Y-72410067D01*
X85423002Y-72395453D01*
X85404823Y-72378977D01*
X85388347Y-72360798D01*
X85373733Y-72341093D01*
X85361120Y-72320049D01*
X85350630Y-72297871D01*
X85342365Y-72274771D01*
X85336404Y-72250973D01*
X85332804Y-72226704D01*
X85331600Y-72202200D01*
X85331600Y-70952200D01*
X85332804Y-70927696D01*
X85336404Y-70903427D01*
X85342365Y-70879629D01*
X85350630Y-70856529D01*
X85361120Y-70834351D01*
X85373733Y-70813307D01*
X85388347Y-70793602D01*
X85404823Y-70775423D01*
X85423002Y-70758947D01*
X85442707Y-70744333D01*
X85463751Y-70731720D01*
X85485929Y-70721230D01*
X85509029Y-70712965D01*
X85532827Y-70707004D01*
X85557096Y-70703404D01*
X85581600Y-70702200D01*
X86331600Y-70702200D01*
X86356104Y-70703404D01*
G37*
G36*
X83556104Y-70703404D02*
G01*
X83580373Y-70707004D01*
X83604171Y-70712965D01*
X83627271Y-70721230D01*
X83649449Y-70731720D01*
X83670493Y-70744333D01*
X83690198Y-70758947D01*
X83708377Y-70775423D01*
X83724853Y-70793602D01*
X83739467Y-70813307D01*
X83752080Y-70834351D01*
X83762570Y-70856529D01*
X83770835Y-70879629D01*
X83776796Y-70903427D01*
X83780396Y-70927696D01*
X83781600Y-70952200D01*
X83781600Y-72202200D01*
X83780396Y-72226704D01*
X83776796Y-72250973D01*
X83770835Y-72274771D01*
X83762570Y-72297871D01*
X83752080Y-72320049D01*
X83739467Y-72341093D01*
X83724853Y-72360798D01*
X83708377Y-72378977D01*
X83690198Y-72395453D01*
X83670493Y-72410067D01*
X83649449Y-72422680D01*
X83627271Y-72433170D01*
X83604171Y-72441435D01*
X83580373Y-72447396D01*
X83556104Y-72450996D01*
X83531600Y-72452200D01*
X82781600Y-72452200D01*
X82757096Y-72450996D01*
X82732827Y-72447396D01*
X82709029Y-72441435D01*
X82685929Y-72433170D01*
X82663751Y-72422680D01*
X82642707Y-72410067D01*
X82623002Y-72395453D01*
X82604823Y-72378977D01*
X82588347Y-72360798D01*
X82573733Y-72341093D01*
X82561120Y-72320049D01*
X82550630Y-72297871D01*
X82542365Y-72274771D01*
X82536404Y-72250973D01*
X82532804Y-72226704D01*
X82531600Y-72202200D01*
X82531600Y-70952200D01*
X82532804Y-70927696D01*
X82536404Y-70903427D01*
X82542365Y-70879629D01*
X82550630Y-70856529D01*
X82561120Y-70834351D01*
X82573733Y-70813307D01*
X82588347Y-70793602D01*
X82604823Y-70775423D01*
X82623002Y-70758947D01*
X82642707Y-70744333D01*
X82663751Y-70731720D01*
X82685929Y-70721230D01*
X82709029Y-70712965D01*
X82732827Y-70707004D01*
X82757096Y-70703404D01*
X82781600Y-70702200D01*
X83531600Y-70702200D01*
X83556104Y-70703404D01*
G37*
G36*
X105406104Y-70703404D02*
G01*
X105430373Y-70707004D01*
X105454171Y-70712965D01*
X105477271Y-70721230D01*
X105499449Y-70731720D01*
X105520493Y-70744333D01*
X105540198Y-70758947D01*
X105558377Y-70775423D01*
X105574853Y-70793602D01*
X105589467Y-70813307D01*
X105602080Y-70834351D01*
X105612570Y-70856529D01*
X105620835Y-70879629D01*
X105626796Y-70903427D01*
X105630396Y-70927696D01*
X105631600Y-70952200D01*
X105631600Y-72202200D01*
X105630396Y-72226704D01*
X105626796Y-72250973D01*
X105620835Y-72274771D01*
X105612570Y-72297871D01*
X105602080Y-72320049D01*
X105589467Y-72341093D01*
X105574853Y-72360798D01*
X105558377Y-72378977D01*
X105540198Y-72395453D01*
X105520493Y-72410067D01*
X105499449Y-72422680D01*
X105477271Y-72433170D01*
X105454171Y-72441435D01*
X105430373Y-72447396D01*
X105406104Y-72450996D01*
X105381600Y-72452200D01*
X104631600Y-72452200D01*
X104607096Y-72450996D01*
X104582827Y-72447396D01*
X104559029Y-72441435D01*
X104535929Y-72433170D01*
X104513751Y-72422680D01*
X104492707Y-72410067D01*
X104473002Y-72395453D01*
X104454823Y-72378977D01*
X104438347Y-72360798D01*
X104423733Y-72341093D01*
X104411120Y-72320049D01*
X104400630Y-72297871D01*
X104392365Y-72274771D01*
X104386404Y-72250973D01*
X104382804Y-72226704D01*
X104381600Y-72202200D01*
X104381600Y-70952200D01*
X104382804Y-70927696D01*
X104386404Y-70903427D01*
X104392365Y-70879629D01*
X104400630Y-70856529D01*
X104411120Y-70834351D01*
X104423733Y-70813307D01*
X104438347Y-70793602D01*
X104454823Y-70775423D01*
X104473002Y-70758947D01*
X104492707Y-70744333D01*
X104513751Y-70731720D01*
X104535929Y-70721230D01*
X104559029Y-70712965D01*
X104582827Y-70707004D01*
X104607096Y-70703404D01*
X104631600Y-70702200D01*
X105381600Y-70702200D01*
X105406104Y-70703404D01*
G37*
G36*
X102606104Y-70703404D02*
G01*
X102630373Y-70707004D01*
X102654171Y-70712965D01*
X102677271Y-70721230D01*
X102699449Y-70731720D01*
X102720493Y-70744333D01*
X102740198Y-70758947D01*
X102758377Y-70775423D01*
X102774853Y-70793602D01*
X102789467Y-70813307D01*
X102802080Y-70834351D01*
X102812570Y-70856529D01*
X102820835Y-70879629D01*
X102826796Y-70903427D01*
X102830396Y-70927696D01*
X102831600Y-70952200D01*
X102831600Y-72202200D01*
X102830396Y-72226704D01*
X102826796Y-72250973D01*
X102820835Y-72274771D01*
X102812570Y-72297871D01*
X102802080Y-72320049D01*
X102789467Y-72341093D01*
X102774853Y-72360798D01*
X102758377Y-72378977D01*
X102740198Y-72395453D01*
X102720493Y-72410067D01*
X102699449Y-72422680D01*
X102677271Y-72433170D01*
X102654171Y-72441435D01*
X102630373Y-72447396D01*
X102606104Y-72450996D01*
X102581600Y-72452200D01*
X101831600Y-72452200D01*
X101807096Y-72450996D01*
X101782827Y-72447396D01*
X101759029Y-72441435D01*
X101735929Y-72433170D01*
X101713751Y-72422680D01*
X101692707Y-72410067D01*
X101673002Y-72395453D01*
X101654823Y-72378977D01*
X101638347Y-72360798D01*
X101623733Y-72341093D01*
X101611120Y-72320049D01*
X101600630Y-72297871D01*
X101592365Y-72274771D01*
X101586404Y-72250973D01*
X101582804Y-72226704D01*
X101581600Y-72202200D01*
X101581600Y-70952200D01*
X101582804Y-70927696D01*
X101586404Y-70903427D01*
X101592365Y-70879629D01*
X101600630Y-70856529D01*
X101611120Y-70834351D01*
X101623733Y-70813307D01*
X101638347Y-70793602D01*
X101654823Y-70775423D01*
X101673002Y-70758947D01*
X101692707Y-70744333D01*
X101713751Y-70731720D01*
X101735929Y-70721230D01*
X101759029Y-70712965D01*
X101782827Y-70707004D01*
X101807096Y-70703404D01*
X101831600Y-70702200D01*
X102581600Y-70702200D01*
X102606104Y-70703404D01*
G37*
G36*
X124456104Y-70703404D02*
G01*
X124480373Y-70707004D01*
X124504171Y-70712965D01*
X124527271Y-70721230D01*
X124549449Y-70731720D01*
X124570493Y-70744333D01*
X124590198Y-70758947D01*
X124608377Y-70775423D01*
X124624853Y-70793602D01*
X124639467Y-70813307D01*
X124652080Y-70834351D01*
X124662570Y-70856529D01*
X124670835Y-70879629D01*
X124676796Y-70903427D01*
X124680396Y-70927696D01*
X124681600Y-70952200D01*
X124681600Y-72202200D01*
X124680396Y-72226704D01*
X124676796Y-72250973D01*
X124670835Y-72274771D01*
X124662570Y-72297871D01*
X124652080Y-72320049D01*
X124639467Y-72341093D01*
X124624853Y-72360798D01*
X124608377Y-72378977D01*
X124590198Y-72395453D01*
X124570493Y-72410067D01*
X124549449Y-72422680D01*
X124527271Y-72433170D01*
X124504171Y-72441435D01*
X124480373Y-72447396D01*
X124456104Y-72450996D01*
X124431600Y-72452200D01*
X123681600Y-72452200D01*
X123657096Y-72450996D01*
X123632827Y-72447396D01*
X123609029Y-72441435D01*
X123585929Y-72433170D01*
X123563751Y-72422680D01*
X123542707Y-72410067D01*
X123523002Y-72395453D01*
X123504823Y-72378977D01*
X123488347Y-72360798D01*
X123473733Y-72341093D01*
X123461120Y-72320049D01*
X123450630Y-72297871D01*
X123442365Y-72274771D01*
X123436404Y-72250973D01*
X123432804Y-72226704D01*
X123431600Y-72202200D01*
X123431600Y-70952200D01*
X123432804Y-70927696D01*
X123436404Y-70903427D01*
X123442365Y-70879629D01*
X123450630Y-70856529D01*
X123461120Y-70834351D01*
X123473733Y-70813307D01*
X123488347Y-70793602D01*
X123504823Y-70775423D01*
X123523002Y-70758947D01*
X123542707Y-70744333D01*
X123563751Y-70731720D01*
X123585929Y-70721230D01*
X123609029Y-70712965D01*
X123632827Y-70707004D01*
X123657096Y-70703404D01*
X123681600Y-70702200D01*
X124431600Y-70702200D01*
X124456104Y-70703404D01*
G37*
G36*
X121656104Y-70703404D02*
G01*
X121680373Y-70707004D01*
X121704171Y-70712965D01*
X121727271Y-70721230D01*
X121749449Y-70731720D01*
X121770493Y-70744333D01*
X121790198Y-70758947D01*
X121808377Y-70775423D01*
X121824853Y-70793602D01*
X121839467Y-70813307D01*
X121852080Y-70834351D01*
X121862570Y-70856529D01*
X121870835Y-70879629D01*
X121876796Y-70903427D01*
X121880396Y-70927696D01*
X121881600Y-70952200D01*
X121881600Y-72202200D01*
X121880396Y-72226704D01*
X121876796Y-72250973D01*
X121870835Y-72274771D01*
X121862570Y-72297871D01*
X121852080Y-72320049D01*
X121839467Y-72341093D01*
X121824853Y-72360798D01*
X121808377Y-72378977D01*
X121790198Y-72395453D01*
X121770493Y-72410067D01*
X121749449Y-72422680D01*
X121727271Y-72433170D01*
X121704171Y-72441435D01*
X121680373Y-72447396D01*
X121656104Y-72450996D01*
X121631600Y-72452200D01*
X120881600Y-72452200D01*
X120857096Y-72450996D01*
X120832827Y-72447396D01*
X120809029Y-72441435D01*
X120785929Y-72433170D01*
X120763751Y-72422680D01*
X120742707Y-72410067D01*
X120723002Y-72395453D01*
X120704823Y-72378977D01*
X120688347Y-72360798D01*
X120673733Y-72341093D01*
X120661120Y-72320049D01*
X120650630Y-72297871D01*
X120642365Y-72274771D01*
X120636404Y-72250973D01*
X120632804Y-72226704D01*
X120631600Y-72202200D01*
X120631600Y-70952200D01*
X120632804Y-70927696D01*
X120636404Y-70903427D01*
X120642365Y-70879629D01*
X120650630Y-70856529D01*
X120661120Y-70834351D01*
X120673733Y-70813307D01*
X120688347Y-70793602D01*
X120704823Y-70775423D01*
X120723002Y-70758947D01*
X120742707Y-70744333D01*
X120763751Y-70731720D01*
X120785929Y-70721230D01*
X120809029Y-70712965D01*
X120832827Y-70707004D01*
X120857096Y-70703404D01*
X120881600Y-70702200D01*
X121631600Y-70702200D01*
X121656104Y-70703404D01*
G37*
G36*
X143506104Y-70703404D02*
G01*
X143530373Y-70707004D01*
X143554171Y-70712965D01*
X143577271Y-70721230D01*
X143599449Y-70731720D01*
X143620493Y-70744333D01*
X143640198Y-70758947D01*
X143658377Y-70775423D01*
X143674853Y-70793602D01*
X143689467Y-70813307D01*
X143702080Y-70834351D01*
X143712570Y-70856529D01*
X143720835Y-70879629D01*
X143726796Y-70903427D01*
X143730396Y-70927696D01*
X143731600Y-70952200D01*
X143731600Y-72202200D01*
X143730396Y-72226704D01*
X143726796Y-72250973D01*
X143720835Y-72274771D01*
X143712570Y-72297871D01*
X143702080Y-72320049D01*
X143689467Y-72341093D01*
X143674853Y-72360798D01*
X143658377Y-72378977D01*
X143640198Y-72395453D01*
X143620493Y-72410067D01*
X143599449Y-72422680D01*
X143577271Y-72433170D01*
X143554171Y-72441435D01*
X143530373Y-72447396D01*
X143506104Y-72450996D01*
X143481600Y-72452200D01*
X142731600Y-72452200D01*
X142707096Y-72450996D01*
X142682827Y-72447396D01*
X142659029Y-72441435D01*
X142635929Y-72433170D01*
X142613751Y-72422680D01*
X142592707Y-72410067D01*
X142573002Y-72395453D01*
X142554823Y-72378977D01*
X142538347Y-72360798D01*
X142523733Y-72341093D01*
X142511120Y-72320049D01*
X142500630Y-72297871D01*
X142492365Y-72274771D01*
X142486404Y-72250973D01*
X142482804Y-72226704D01*
X142481600Y-72202200D01*
X142481600Y-70952200D01*
X142482804Y-70927696D01*
X142486404Y-70903427D01*
X142492365Y-70879629D01*
X142500630Y-70856529D01*
X142511120Y-70834351D01*
X142523733Y-70813307D01*
X142538347Y-70793602D01*
X142554823Y-70775423D01*
X142573002Y-70758947D01*
X142592707Y-70744333D01*
X142613751Y-70731720D01*
X142635929Y-70721230D01*
X142659029Y-70712965D01*
X142682827Y-70707004D01*
X142707096Y-70703404D01*
X142731600Y-70702200D01*
X143481600Y-70702200D01*
X143506104Y-70703404D01*
G37*
G36*
X140706104Y-70703404D02*
G01*
X140730373Y-70707004D01*
X140754171Y-70712965D01*
X140777271Y-70721230D01*
X140799449Y-70731720D01*
X140820493Y-70744333D01*
X140840198Y-70758947D01*
X140858377Y-70775423D01*
X140874853Y-70793602D01*
X140889467Y-70813307D01*
X140902080Y-70834351D01*
X140912570Y-70856529D01*
X140920835Y-70879629D01*
X140926796Y-70903427D01*
X140930396Y-70927696D01*
X140931600Y-70952200D01*
X140931600Y-72202200D01*
X140930396Y-72226704D01*
X140926796Y-72250973D01*
X140920835Y-72274771D01*
X140912570Y-72297871D01*
X140902080Y-72320049D01*
X140889467Y-72341093D01*
X140874853Y-72360798D01*
X140858377Y-72378977D01*
X140840198Y-72395453D01*
X140820493Y-72410067D01*
X140799449Y-72422680D01*
X140777271Y-72433170D01*
X140754171Y-72441435D01*
X140730373Y-72447396D01*
X140706104Y-72450996D01*
X140681600Y-72452200D01*
X139931600Y-72452200D01*
X139907096Y-72450996D01*
X139882827Y-72447396D01*
X139859029Y-72441435D01*
X139835929Y-72433170D01*
X139813751Y-72422680D01*
X139792707Y-72410067D01*
X139773002Y-72395453D01*
X139754823Y-72378977D01*
X139738347Y-72360798D01*
X139723733Y-72341093D01*
X139711120Y-72320049D01*
X139700630Y-72297871D01*
X139692365Y-72274771D01*
X139686404Y-72250973D01*
X139682804Y-72226704D01*
X139681600Y-72202200D01*
X139681600Y-70952200D01*
X139682804Y-70927696D01*
X139686404Y-70903427D01*
X139692365Y-70879629D01*
X139700630Y-70856529D01*
X139711120Y-70834351D01*
X139723733Y-70813307D01*
X139738347Y-70793602D01*
X139754823Y-70775423D01*
X139773002Y-70758947D01*
X139792707Y-70744333D01*
X139813751Y-70731720D01*
X139835929Y-70721230D01*
X139859029Y-70712965D01*
X139882827Y-70707004D01*
X139907096Y-70703404D01*
X139931600Y-70702200D01*
X140681600Y-70702200D01*
X140706104Y-70703404D01*
G37*
G36*
X159756104Y-70703404D02*
G01*
X159780373Y-70707004D01*
X159804171Y-70712965D01*
X159827271Y-70721230D01*
X159849449Y-70731720D01*
X159870493Y-70744333D01*
X159890198Y-70758947D01*
X159908377Y-70775423D01*
X159924853Y-70793602D01*
X159939467Y-70813307D01*
X159952080Y-70834351D01*
X159962570Y-70856529D01*
X159970835Y-70879629D01*
X159976796Y-70903427D01*
X159980396Y-70927696D01*
X159981600Y-70952200D01*
X159981600Y-72202200D01*
X159980396Y-72226704D01*
X159976796Y-72250973D01*
X159970835Y-72274771D01*
X159962570Y-72297871D01*
X159952080Y-72320049D01*
X159939467Y-72341093D01*
X159924853Y-72360798D01*
X159908377Y-72378977D01*
X159890198Y-72395453D01*
X159870493Y-72410067D01*
X159849449Y-72422680D01*
X159827271Y-72433170D01*
X159804171Y-72441435D01*
X159780373Y-72447396D01*
X159756104Y-72450996D01*
X159731600Y-72452200D01*
X158981600Y-72452200D01*
X158957096Y-72450996D01*
X158932827Y-72447396D01*
X158909029Y-72441435D01*
X158885929Y-72433170D01*
X158863751Y-72422680D01*
X158842707Y-72410067D01*
X158823002Y-72395453D01*
X158804823Y-72378977D01*
X158788347Y-72360798D01*
X158773733Y-72341093D01*
X158761120Y-72320049D01*
X158750630Y-72297871D01*
X158742365Y-72274771D01*
X158736404Y-72250973D01*
X158732804Y-72226704D01*
X158731600Y-72202200D01*
X158731600Y-70952200D01*
X158732804Y-70927696D01*
X158736404Y-70903427D01*
X158742365Y-70879629D01*
X158750630Y-70856529D01*
X158761120Y-70834351D01*
X158773733Y-70813307D01*
X158788347Y-70793602D01*
X158804823Y-70775423D01*
X158823002Y-70758947D01*
X158842707Y-70744333D01*
X158863751Y-70731720D01*
X158885929Y-70721230D01*
X158909029Y-70712965D01*
X158932827Y-70707004D01*
X158957096Y-70703404D01*
X158981600Y-70702200D01*
X159731600Y-70702200D01*
X159756104Y-70703404D01*
G37*
G36*
X162556104Y-70703404D02*
G01*
X162580373Y-70707004D01*
X162604171Y-70712965D01*
X162627271Y-70721230D01*
X162649449Y-70731720D01*
X162670493Y-70744333D01*
X162690198Y-70758947D01*
X162708377Y-70775423D01*
X162724853Y-70793602D01*
X162739467Y-70813307D01*
X162752080Y-70834351D01*
X162762570Y-70856529D01*
X162770835Y-70879629D01*
X162776796Y-70903427D01*
X162780396Y-70927696D01*
X162781600Y-70952200D01*
X162781600Y-72202200D01*
X162780396Y-72226704D01*
X162776796Y-72250973D01*
X162770835Y-72274771D01*
X162762570Y-72297871D01*
X162752080Y-72320049D01*
X162739467Y-72341093D01*
X162724853Y-72360798D01*
X162708377Y-72378977D01*
X162690198Y-72395453D01*
X162670493Y-72410067D01*
X162649449Y-72422680D01*
X162627271Y-72433170D01*
X162604171Y-72441435D01*
X162580373Y-72447396D01*
X162556104Y-72450996D01*
X162531600Y-72452200D01*
X161781600Y-72452200D01*
X161757096Y-72450996D01*
X161732827Y-72447396D01*
X161709029Y-72441435D01*
X161685929Y-72433170D01*
X161663751Y-72422680D01*
X161642707Y-72410067D01*
X161623002Y-72395453D01*
X161604823Y-72378977D01*
X161588347Y-72360798D01*
X161573733Y-72341093D01*
X161561120Y-72320049D01*
X161550630Y-72297871D01*
X161542365Y-72274771D01*
X161536404Y-72250973D01*
X161532804Y-72226704D01*
X161531600Y-72202200D01*
X161531600Y-70952200D01*
X161532804Y-70927696D01*
X161536404Y-70903427D01*
X161542365Y-70879629D01*
X161550630Y-70856529D01*
X161561120Y-70834351D01*
X161573733Y-70813307D01*
X161588347Y-70793602D01*
X161604823Y-70775423D01*
X161623002Y-70758947D01*
X161642707Y-70744333D01*
X161663751Y-70731720D01*
X161685929Y-70721230D01*
X161709029Y-70712965D01*
X161732827Y-70707004D01*
X161757096Y-70703404D01*
X161781600Y-70702200D01*
X162531600Y-70702200D01*
X162556104Y-70703404D01*
G37*
G36*
X178806104Y-70703404D02*
G01*
X178830373Y-70707004D01*
X178854171Y-70712965D01*
X178877271Y-70721230D01*
X178899449Y-70731720D01*
X178920493Y-70744333D01*
X178940198Y-70758947D01*
X178958377Y-70775423D01*
X178974853Y-70793602D01*
X178989467Y-70813307D01*
X179002080Y-70834351D01*
X179012570Y-70856529D01*
X179020835Y-70879629D01*
X179026796Y-70903427D01*
X179030396Y-70927696D01*
X179031600Y-70952200D01*
X179031600Y-72202200D01*
X179030396Y-72226704D01*
X179026796Y-72250973D01*
X179020835Y-72274771D01*
X179012570Y-72297871D01*
X179002080Y-72320049D01*
X178989467Y-72341093D01*
X178974853Y-72360798D01*
X178958377Y-72378977D01*
X178940198Y-72395453D01*
X178920493Y-72410067D01*
X178899449Y-72422680D01*
X178877271Y-72433170D01*
X178854171Y-72441435D01*
X178830373Y-72447396D01*
X178806104Y-72450996D01*
X178781600Y-72452200D01*
X178031600Y-72452200D01*
X178007096Y-72450996D01*
X177982827Y-72447396D01*
X177959029Y-72441435D01*
X177935929Y-72433170D01*
X177913751Y-72422680D01*
X177892707Y-72410067D01*
X177873002Y-72395453D01*
X177854823Y-72378977D01*
X177838347Y-72360798D01*
X177823733Y-72341093D01*
X177811120Y-72320049D01*
X177800630Y-72297871D01*
X177792365Y-72274771D01*
X177786404Y-72250973D01*
X177782804Y-72226704D01*
X177781600Y-72202200D01*
X177781600Y-70952200D01*
X177782804Y-70927696D01*
X177786404Y-70903427D01*
X177792365Y-70879629D01*
X177800630Y-70856529D01*
X177811120Y-70834351D01*
X177823733Y-70813307D01*
X177838347Y-70793602D01*
X177854823Y-70775423D01*
X177873002Y-70758947D01*
X177892707Y-70744333D01*
X177913751Y-70731720D01*
X177935929Y-70721230D01*
X177959029Y-70712965D01*
X177982827Y-70707004D01*
X178007096Y-70703404D01*
X178031600Y-70702200D01*
X178781600Y-70702200D01*
X178806104Y-70703404D01*
G37*
G36*
X181606104Y-70703404D02*
G01*
X181630373Y-70707004D01*
X181654171Y-70712965D01*
X181677271Y-70721230D01*
X181699449Y-70731720D01*
X181720493Y-70744333D01*
X181740198Y-70758947D01*
X181758377Y-70775423D01*
X181774853Y-70793602D01*
X181789467Y-70813307D01*
X181802080Y-70834351D01*
X181812570Y-70856529D01*
X181820835Y-70879629D01*
X181826796Y-70903427D01*
X181830396Y-70927696D01*
X181831600Y-70952200D01*
X181831600Y-72202200D01*
X181830396Y-72226704D01*
X181826796Y-72250973D01*
X181820835Y-72274771D01*
X181812570Y-72297871D01*
X181802080Y-72320049D01*
X181789467Y-72341093D01*
X181774853Y-72360798D01*
X181758377Y-72378977D01*
X181740198Y-72395453D01*
X181720493Y-72410067D01*
X181699449Y-72422680D01*
X181677271Y-72433170D01*
X181654171Y-72441435D01*
X181630373Y-72447396D01*
X181606104Y-72450996D01*
X181581600Y-72452200D01*
X180831600Y-72452200D01*
X180807096Y-72450996D01*
X180782827Y-72447396D01*
X180759029Y-72441435D01*
X180735929Y-72433170D01*
X180713751Y-72422680D01*
X180692707Y-72410067D01*
X180673002Y-72395453D01*
X180654823Y-72378977D01*
X180638347Y-72360798D01*
X180623733Y-72341093D01*
X180611120Y-72320049D01*
X180600630Y-72297871D01*
X180592365Y-72274771D01*
X180586404Y-72250973D01*
X180582804Y-72226704D01*
X180581600Y-72202200D01*
X180581600Y-70952200D01*
X180582804Y-70927696D01*
X180586404Y-70903427D01*
X180592365Y-70879629D01*
X180600630Y-70856529D01*
X180611120Y-70834351D01*
X180623733Y-70813307D01*
X180638347Y-70793602D01*
X180654823Y-70775423D01*
X180673002Y-70758947D01*
X180692707Y-70744333D01*
X180713751Y-70731720D01*
X180735929Y-70721230D01*
X180759029Y-70712965D01*
X180782827Y-70707004D01*
X180807096Y-70703404D01*
X180831600Y-70702200D01*
X181581600Y-70702200D01*
X181606104Y-70703404D01*
G37*
G36*
X45456104Y-89753404D02*
G01*
X45480373Y-89757004D01*
X45504171Y-89762965D01*
X45527271Y-89771230D01*
X45549449Y-89781720D01*
X45570493Y-89794333D01*
X45590198Y-89808947D01*
X45608377Y-89825423D01*
X45624853Y-89843602D01*
X45639467Y-89863307D01*
X45652080Y-89884351D01*
X45662570Y-89906529D01*
X45670835Y-89929629D01*
X45676796Y-89953427D01*
X45680396Y-89977696D01*
X45681600Y-90002200D01*
X45681600Y-91252200D01*
X45680396Y-91276704D01*
X45676796Y-91300973D01*
X45670835Y-91324771D01*
X45662570Y-91347871D01*
X45652080Y-91370049D01*
X45639467Y-91391093D01*
X45624853Y-91410798D01*
X45608377Y-91428977D01*
X45590198Y-91445453D01*
X45570493Y-91460067D01*
X45549449Y-91472680D01*
X45527271Y-91483170D01*
X45504171Y-91491435D01*
X45480373Y-91497396D01*
X45456104Y-91500996D01*
X45431600Y-91502200D01*
X44681600Y-91502200D01*
X44657096Y-91500996D01*
X44632827Y-91497396D01*
X44609029Y-91491435D01*
X44585929Y-91483170D01*
X44563751Y-91472680D01*
X44542707Y-91460067D01*
X44523002Y-91445453D01*
X44504823Y-91428977D01*
X44488347Y-91410798D01*
X44473733Y-91391093D01*
X44461120Y-91370049D01*
X44450630Y-91347871D01*
X44442365Y-91324771D01*
X44436404Y-91300973D01*
X44432804Y-91276704D01*
X44431600Y-91252200D01*
X44431600Y-90002200D01*
X44432804Y-89977696D01*
X44436404Y-89953427D01*
X44442365Y-89929629D01*
X44450630Y-89906529D01*
X44461120Y-89884351D01*
X44473733Y-89863307D01*
X44488347Y-89843602D01*
X44504823Y-89825423D01*
X44523002Y-89808947D01*
X44542707Y-89794333D01*
X44563751Y-89781720D01*
X44585929Y-89771230D01*
X44609029Y-89762965D01*
X44632827Y-89757004D01*
X44657096Y-89753404D01*
X44681600Y-89752200D01*
X45431600Y-89752200D01*
X45456104Y-89753404D01*
G37*
G36*
X48256104Y-89753404D02*
G01*
X48280373Y-89757004D01*
X48304171Y-89762965D01*
X48327271Y-89771230D01*
X48349449Y-89781720D01*
X48370493Y-89794333D01*
X48390198Y-89808947D01*
X48408377Y-89825423D01*
X48424853Y-89843602D01*
X48439467Y-89863307D01*
X48452080Y-89884351D01*
X48462570Y-89906529D01*
X48470835Y-89929629D01*
X48476796Y-89953427D01*
X48480396Y-89977696D01*
X48481600Y-90002200D01*
X48481600Y-91252200D01*
X48480396Y-91276704D01*
X48476796Y-91300973D01*
X48470835Y-91324771D01*
X48462570Y-91347871D01*
X48452080Y-91370049D01*
X48439467Y-91391093D01*
X48424853Y-91410798D01*
X48408377Y-91428977D01*
X48390198Y-91445453D01*
X48370493Y-91460067D01*
X48349449Y-91472680D01*
X48327271Y-91483170D01*
X48304171Y-91491435D01*
X48280373Y-91497396D01*
X48256104Y-91500996D01*
X48231600Y-91502200D01*
X47481600Y-91502200D01*
X47457096Y-91500996D01*
X47432827Y-91497396D01*
X47409029Y-91491435D01*
X47385929Y-91483170D01*
X47363751Y-91472680D01*
X47342707Y-91460067D01*
X47323002Y-91445453D01*
X47304823Y-91428977D01*
X47288347Y-91410798D01*
X47273733Y-91391093D01*
X47261120Y-91370049D01*
X47250630Y-91347871D01*
X47242365Y-91324771D01*
X47236404Y-91300973D01*
X47232804Y-91276704D01*
X47231600Y-91252200D01*
X47231600Y-90002200D01*
X47232804Y-89977696D01*
X47236404Y-89953427D01*
X47242365Y-89929629D01*
X47250630Y-89906529D01*
X47261120Y-89884351D01*
X47273733Y-89863307D01*
X47288347Y-89843602D01*
X47304823Y-89825423D01*
X47323002Y-89808947D01*
X47342707Y-89794333D01*
X47363751Y-89781720D01*
X47385929Y-89771230D01*
X47409029Y-89762965D01*
X47432827Y-89757004D01*
X47457096Y-89753404D01*
X47481600Y-89752200D01*
X48231600Y-89752200D01*
X48256104Y-89753404D01*
G37*
G36*
X67306104Y-89753404D02*
G01*
X67330373Y-89757004D01*
X67354171Y-89762965D01*
X67377271Y-89771230D01*
X67399449Y-89781720D01*
X67420493Y-89794333D01*
X67440198Y-89808947D01*
X67458377Y-89825423D01*
X67474853Y-89843602D01*
X67489467Y-89863307D01*
X67502080Y-89884351D01*
X67512570Y-89906529D01*
X67520835Y-89929629D01*
X67526796Y-89953427D01*
X67530396Y-89977696D01*
X67531600Y-90002200D01*
X67531600Y-91252200D01*
X67530396Y-91276704D01*
X67526796Y-91300973D01*
X67520835Y-91324771D01*
X67512570Y-91347871D01*
X67502080Y-91370049D01*
X67489467Y-91391093D01*
X67474853Y-91410798D01*
X67458377Y-91428977D01*
X67440198Y-91445453D01*
X67420493Y-91460067D01*
X67399449Y-91472680D01*
X67377271Y-91483170D01*
X67354171Y-91491435D01*
X67330373Y-91497396D01*
X67306104Y-91500996D01*
X67281600Y-91502200D01*
X66531600Y-91502200D01*
X66507096Y-91500996D01*
X66482827Y-91497396D01*
X66459029Y-91491435D01*
X66435929Y-91483170D01*
X66413751Y-91472680D01*
X66392707Y-91460067D01*
X66373002Y-91445453D01*
X66354823Y-91428977D01*
X66338347Y-91410798D01*
X66323733Y-91391093D01*
X66311120Y-91370049D01*
X66300630Y-91347871D01*
X66292365Y-91324771D01*
X66286404Y-91300973D01*
X66282804Y-91276704D01*
X66281600Y-91252200D01*
X66281600Y-90002200D01*
X66282804Y-89977696D01*
X66286404Y-89953427D01*
X66292365Y-89929629D01*
X66300630Y-89906529D01*
X66311120Y-89884351D01*
X66323733Y-89863307D01*
X66338347Y-89843602D01*
X66354823Y-89825423D01*
X66373002Y-89808947D01*
X66392707Y-89794333D01*
X66413751Y-89781720D01*
X66435929Y-89771230D01*
X66459029Y-89762965D01*
X66482827Y-89757004D01*
X66507096Y-89753404D01*
X66531600Y-89752200D01*
X67281600Y-89752200D01*
X67306104Y-89753404D01*
G37*
G36*
X64506104Y-89753404D02*
G01*
X64530373Y-89757004D01*
X64554171Y-89762965D01*
X64577271Y-89771230D01*
X64599449Y-89781720D01*
X64620493Y-89794333D01*
X64640198Y-89808947D01*
X64658377Y-89825423D01*
X64674853Y-89843602D01*
X64689467Y-89863307D01*
X64702080Y-89884351D01*
X64712570Y-89906529D01*
X64720835Y-89929629D01*
X64726796Y-89953427D01*
X64730396Y-89977696D01*
X64731600Y-90002200D01*
X64731600Y-91252200D01*
X64730396Y-91276704D01*
X64726796Y-91300973D01*
X64720835Y-91324771D01*
X64712570Y-91347871D01*
X64702080Y-91370049D01*
X64689467Y-91391093D01*
X64674853Y-91410798D01*
X64658377Y-91428977D01*
X64640198Y-91445453D01*
X64620493Y-91460067D01*
X64599449Y-91472680D01*
X64577271Y-91483170D01*
X64554171Y-91491435D01*
X64530373Y-91497396D01*
X64506104Y-91500996D01*
X64481600Y-91502200D01*
X63731600Y-91502200D01*
X63707096Y-91500996D01*
X63682827Y-91497396D01*
X63659029Y-91491435D01*
X63635929Y-91483170D01*
X63613751Y-91472680D01*
X63592707Y-91460067D01*
X63573002Y-91445453D01*
X63554823Y-91428977D01*
X63538347Y-91410798D01*
X63523733Y-91391093D01*
X63511120Y-91370049D01*
X63500630Y-91347871D01*
X63492365Y-91324771D01*
X63486404Y-91300973D01*
X63482804Y-91276704D01*
X63481600Y-91252200D01*
X63481600Y-90002200D01*
X63482804Y-89977696D01*
X63486404Y-89953427D01*
X63492365Y-89929629D01*
X63500630Y-89906529D01*
X63511120Y-89884351D01*
X63523733Y-89863307D01*
X63538347Y-89843602D01*
X63554823Y-89825423D01*
X63573002Y-89808947D01*
X63592707Y-89794333D01*
X63613751Y-89781720D01*
X63635929Y-89771230D01*
X63659029Y-89762965D01*
X63682827Y-89757004D01*
X63707096Y-89753404D01*
X63731600Y-89752200D01*
X64481600Y-89752200D01*
X64506104Y-89753404D01*
G37*
G36*
X86356104Y-89753404D02*
G01*
X86380373Y-89757004D01*
X86404171Y-89762965D01*
X86427271Y-89771230D01*
X86449449Y-89781720D01*
X86470493Y-89794333D01*
X86490198Y-89808947D01*
X86508377Y-89825423D01*
X86524853Y-89843602D01*
X86539467Y-89863307D01*
X86552080Y-89884351D01*
X86562570Y-89906529D01*
X86570835Y-89929629D01*
X86576796Y-89953427D01*
X86580396Y-89977696D01*
X86581600Y-90002200D01*
X86581600Y-91252200D01*
X86580396Y-91276704D01*
X86576796Y-91300973D01*
X86570835Y-91324771D01*
X86562570Y-91347871D01*
X86552080Y-91370049D01*
X86539467Y-91391093D01*
X86524853Y-91410798D01*
X86508377Y-91428977D01*
X86490198Y-91445453D01*
X86470493Y-91460067D01*
X86449449Y-91472680D01*
X86427271Y-91483170D01*
X86404171Y-91491435D01*
X86380373Y-91497396D01*
X86356104Y-91500996D01*
X86331600Y-91502200D01*
X85581600Y-91502200D01*
X85557096Y-91500996D01*
X85532827Y-91497396D01*
X85509029Y-91491435D01*
X85485929Y-91483170D01*
X85463751Y-91472680D01*
X85442707Y-91460067D01*
X85423002Y-91445453D01*
X85404823Y-91428977D01*
X85388347Y-91410798D01*
X85373733Y-91391093D01*
X85361120Y-91370049D01*
X85350630Y-91347871D01*
X85342365Y-91324771D01*
X85336404Y-91300973D01*
X85332804Y-91276704D01*
X85331600Y-91252200D01*
X85331600Y-90002200D01*
X85332804Y-89977696D01*
X85336404Y-89953427D01*
X85342365Y-89929629D01*
X85350630Y-89906529D01*
X85361120Y-89884351D01*
X85373733Y-89863307D01*
X85388347Y-89843602D01*
X85404823Y-89825423D01*
X85423002Y-89808947D01*
X85442707Y-89794333D01*
X85463751Y-89781720D01*
X85485929Y-89771230D01*
X85509029Y-89762965D01*
X85532827Y-89757004D01*
X85557096Y-89753404D01*
X85581600Y-89752200D01*
X86331600Y-89752200D01*
X86356104Y-89753404D01*
G37*
G36*
X83556104Y-89753404D02*
G01*
X83580373Y-89757004D01*
X83604171Y-89762965D01*
X83627271Y-89771230D01*
X83649449Y-89781720D01*
X83670493Y-89794333D01*
X83690198Y-89808947D01*
X83708377Y-89825423D01*
X83724853Y-89843602D01*
X83739467Y-89863307D01*
X83752080Y-89884351D01*
X83762570Y-89906529D01*
X83770835Y-89929629D01*
X83776796Y-89953427D01*
X83780396Y-89977696D01*
X83781600Y-90002200D01*
X83781600Y-91252200D01*
X83780396Y-91276704D01*
X83776796Y-91300973D01*
X83770835Y-91324771D01*
X83762570Y-91347871D01*
X83752080Y-91370049D01*
X83739467Y-91391093D01*
X83724853Y-91410798D01*
X83708377Y-91428977D01*
X83690198Y-91445453D01*
X83670493Y-91460067D01*
X83649449Y-91472680D01*
X83627271Y-91483170D01*
X83604171Y-91491435D01*
X83580373Y-91497396D01*
X83556104Y-91500996D01*
X83531600Y-91502200D01*
X82781600Y-91502200D01*
X82757096Y-91500996D01*
X82732827Y-91497396D01*
X82709029Y-91491435D01*
X82685929Y-91483170D01*
X82663751Y-91472680D01*
X82642707Y-91460067D01*
X82623002Y-91445453D01*
X82604823Y-91428977D01*
X82588347Y-91410798D01*
X82573733Y-91391093D01*
X82561120Y-91370049D01*
X82550630Y-91347871D01*
X82542365Y-91324771D01*
X82536404Y-91300973D01*
X82532804Y-91276704D01*
X82531600Y-91252200D01*
X82531600Y-90002200D01*
X82532804Y-89977696D01*
X82536404Y-89953427D01*
X82542365Y-89929629D01*
X82550630Y-89906529D01*
X82561120Y-89884351D01*
X82573733Y-89863307D01*
X82588347Y-89843602D01*
X82604823Y-89825423D01*
X82623002Y-89808947D01*
X82642707Y-89794333D01*
X82663751Y-89781720D01*
X82685929Y-89771230D01*
X82709029Y-89762965D01*
X82732827Y-89757004D01*
X82757096Y-89753404D01*
X82781600Y-89752200D01*
X83531600Y-89752200D01*
X83556104Y-89753404D01*
G37*
G36*
X105406104Y-89753404D02*
G01*
X105430373Y-89757004D01*
X105454171Y-89762965D01*
X105477271Y-89771230D01*
X105499449Y-89781720D01*
X105520493Y-89794333D01*
X105540198Y-89808947D01*
X105558377Y-89825423D01*
X105574853Y-89843602D01*
X105589467Y-89863307D01*
X105602080Y-89884351D01*
X105612570Y-89906529D01*
X105620835Y-89929629D01*
X105626796Y-89953427D01*
X105630396Y-89977696D01*
X105631600Y-90002200D01*
X105631600Y-91252200D01*
X105630396Y-91276704D01*
X105626796Y-91300973D01*
X105620835Y-91324771D01*
X105612570Y-91347871D01*
X105602080Y-91370049D01*
X105589467Y-91391093D01*
X105574853Y-91410798D01*
X105558377Y-91428977D01*
X105540198Y-91445453D01*
X105520493Y-91460067D01*
X105499449Y-91472680D01*
X105477271Y-91483170D01*
X105454171Y-91491435D01*
X105430373Y-91497396D01*
X105406104Y-91500996D01*
X105381600Y-91502200D01*
X104631600Y-91502200D01*
X104607096Y-91500996D01*
X104582827Y-91497396D01*
X104559029Y-91491435D01*
X104535929Y-91483170D01*
X104513751Y-91472680D01*
X104492707Y-91460067D01*
X104473002Y-91445453D01*
X104454823Y-91428977D01*
X104438347Y-91410798D01*
X104423733Y-91391093D01*
X104411120Y-91370049D01*
X104400630Y-91347871D01*
X104392365Y-91324771D01*
X104386404Y-91300973D01*
X104382804Y-91276704D01*
X104381600Y-91252200D01*
X104381600Y-90002200D01*
X104382804Y-89977696D01*
X104386404Y-89953427D01*
X104392365Y-89929629D01*
X104400630Y-89906529D01*
X104411120Y-89884351D01*
X104423733Y-89863307D01*
X104438347Y-89843602D01*
X104454823Y-89825423D01*
X104473002Y-89808947D01*
X104492707Y-89794333D01*
X104513751Y-89781720D01*
X104535929Y-89771230D01*
X104559029Y-89762965D01*
X104582827Y-89757004D01*
X104607096Y-89753404D01*
X104631600Y-89752200D01*
X105381600Y-89752200D01*
X105406104Y-89753404D01*
G37*
G36*
X102606104Y-89753404D02*
G01*
X102630373Y-89757004D01*
X102654171Y-89762965D01*
X102677271Y-89771230D01*
X102699449Y-89781720D01*
X102720493Y-89794333D01*
X102740198Y-89808947D01*
X102758377Y-89825423D01*
X102774853Y-89843602D01*
X102789467Y-89863307D01*
X102802080Y-89884351D01*
X102812570Y-89906529D01*
X102820835Y-89929629D01*
X102826796Y-89953427D01*
X102830396Y-89977696D01*
X102831600Y-90002200D01*
X102831600Y-91252200D01*
X102830396Y-91276704D01*
X102826796Y-91300973D01*
X102820835Y-91324771D01*
X102812570Y-91347871D01*
X102802080Y-91370049D01*
X102789467Y-91391093D01*
X102774853Y-91410798D01*
X102758377Y-91428977D01*
X102740198Y-91445453D01*
X102720493Y-91460067D01*
X102699449Y-91472680D01*
X102677271Y-91483170D01*
X102654171Y-91491435D01*
X102630373Y-91497396D01*
X102606104Y-91500996D01*
X102581600Y-91502200D01*
X101831600Y-91502200D01*
X101807096Y-91500996D01*
X101782827Y-91497396D01*
X101759029Y-91491435D01*
X101735929Y-91483170D01*
X101713751Y-91472680D01*
X101692707Y-91460067D01*
X101673002Y-91445453D01*
X101654823Y-91428977D01*
X101638347Y-91410798D01*
X101623733Y-91391093D01*
X101611120Y-91370049D01*
X101600630Y-91347871D01*
X101592365Y-91324771D01*
X101586404Y-91300973D01*
X101582804Y-91276704D01*
X101581600Y-91252200D01*
X101581600Y-90002200D01*
X101582804Y-89977696D01*
X101586404Y-89953427D01*
X101592365Y-89929629D01*
X101600630Y-89906529D01*
X101611120Y-89884351D01*
X101623733Y-89863307D01*
X101638347Y-89843602D01*
X101654823Y-89825423D01*
X101673002Y-89808947D01*
X101692707Y-89794333D01*
X101713751Y-89781720D01*
X101735929Y-89771230D01*
X101759029Y-89762965D01*
X101782827Y-89757004D01*
X101807096Y-89753404D01*
X101831600Y-89752200D01*
X102581600Y-89752200D01*
X102606104Y-89753404D01*
G37*
G36*
X124456104Y-89753404D02*
G01*
X124480373Y-89757004D01*
X124504171Y-89762965D01*
X124527271Y-89771230D01*
X124549449Y-89781720D01*
X124570493Y-89794333D01*
X124590198Y-89808947D01*
X124608377Y-89825423D01*
X124624853Y-89843602D01*
X124639467Y-89863307D01*
X124652080Y-89884351D01*
X124662570Y-89906529D01*
X124670835Y-89929629D01*
X124676796Y-89953427D01*
X124680396Y-89977696D01*
X124681600Y-90002200D01*
X124681600Y-91252200D01*
X124680396Y-91276704D01*
X124676796Y-91300973D01*
X124670835Y-91324771D01*
X124662570Y-91347871D01*
X124652080Y-91370049D01*
X124639467Y-91391093D01*
X124624853Y-91410798D01*
X124608377Y-91428977D01*
X124590198Y-91445453D01*
X124570493Y-91460067D01*
X124549449Y-91472680D01*
X124527271Y-91483170D01*
X124504171Y-91491435D01*
X124480373Y-91497396D01*
X124456104Y-91500996D01*
X124431600Y-91502200D01*
X123681600Y-91502200D01*
X123657096Y-91500996D01*
X123632827Y-91497396D01*
X123609029Y-91491435D01*
X123585929Y-91483170D01*
X123563751Y-91472680D01*
X123542707Y-91460067D01*
X123523002Y-91445453D01*
X123504823Y-91428977D01*
X123488347Y-91410798D01*
X123473733Y-91391093D01*
X123461120Y-91370049D01*
X123450630Y-91347871D01*
X123442365Y-91324771D01*
X123436404Y-91300973D01*
X123432804Y-91276704D01*
X123431600Y-91252200D01*
X123431600Y-90002200D01*
X123432804Y-89977696D01*
X123436404Y-89953427D01*
X123442365Y-89929629D01*
X123450630Y-89906529D01*
X123461120Y-89884351D01*
X123473733Y-89863307D01*
X123488347Y-89843602D01*
X123504823Y-89825423D01*
X123523002Y-89808947D01*
X123542707Y-89794333D01*
X123563751Y-89781720D01*
X123585929Y-89771230D01*
X123609029Y-89762965D01*
X123632827Y-89757004D01*
X123657096Y-89753404D01*
X123681600Y-89752200D01*
X124431600Y-89752200D01*
X124456104Y-89753404D01*
G37*
G36*
X121656104Y-89753404D02*
G01*
X121680373Y-89757004D01*
X121704171Y-89762965D01*
X121727271Y-89771230D01*
X121749449Y-89781720D01*
X121770493Y-89794333D01*
X121790198Y-89808947D01*
X121808377Y-89825423D01*
X121824853Y-89843602D01*
X121839467Y-89863307D01*
X121852080Y-89884351D01*
X121862570Y-89906529D01*
X121870835Y-89929629D01*
X121876796Y-89953427D01*
X121880396Y-89977696D01*
X121881600Y-90002200D01*
X121881600Y-91252200D01*
X121880396Y-91276704D01*
X121876796Y-91300973D01*
X121870835Y-91324771D01*
X121862570Y-91347871D01*
X121852080Y-91370049D01*
X121839467Y-91391093D01*
X121824853Y-91410798D01*
X121808377Y-91428977D01*
X121790198Y-91445453D01*
X121770493Y-91460067D01*
X121749449Y-91472680D01*
X121727271Y-91483170D01*
X121704171Y-91491435D01*
X121680373Y-91497396D01*
X121656104Y-91500996D01*
X121631600Y-91502200D01*
X120881600Y-91502200D01*
X120857096Y-91500996D01*
X120832827Y-91497396D01*
X120809029Y-91491435D01*
X120785929Y-91483170D01*
X120763751Y-91472680D01*
X120742707Y-91460067D01*
X120723002Y-91445453D01*
X120704823Y-91428977D01*
X120688347Y-91410798D01*
X120673733Y-91391093D01*
X120661120Y-91370049D01*
X120650630Y-91347871D01*
X120642365Y-91324771D01*
X120636404Y-91300973D01*
X120632804Y-91276704D01*
X120631600Y-91252200D01*
X120631600Y-90002200D01*
X120632804Y-89977696D01*
X120636404Y-89953427D01*
X120642365Y-89929629D01*
X120650630Y-89906529D01*
X120661120Y-89884351D01*
X120673733Y-89863307D01*
X120688347Y-89843602D01*
X120704823Y-89825423D01*
X120723002Y-89808947D01*
X120742707Y-89794333D01*
X120763751Y-89781720D01*
X120785929Y-89771230D01*
X120809029Y-89762965D01*
X120832827Y-89757004D01*
X120857096Y-89753404D01*
X120881600Y-89752200D01*
X121631600Y-89752200D01*
X121656104Y-89753404D01*
G37*
G36*
X140706104Y-89753404D02*
G01*
X140730373Y-89757004D01*
X140754171Y-89762965D01*
X140777271Y-89771230D01*
X140799449Y-89781720D01*
X140820493Y-89794333D01*
X140840198Y-89808947D01*
X140858377Y-89825423D01*
X140874853Y-89843602D01*
X140889467Y-89863307D01*
X140902080Y-89884351D01*
X140912570Y-89906529D01*
X140920835Y-89929629D01*
X140926796Y-89953427D01*
X140930396Y-89977696D01*
X140931600Y-90002200D01*
X140931600Y-91252200D01*
X140930396Y-91276704D01*
X140926796Y-91300973D01*
X140920835Y-91324771D01*
X140912570Y-91347871D01*
X140902080Y-91370049D01*
X140889467Y-91391093D01*
X140874853Y-91410798D01*
X140858377Y-91428977D01*
X140840198Y-91445453D01*
X140820493Y-91460067D01*
X140799449Y-91472680D01*
X140777271Y-91483170D01*
X140754171Y-91491435D01*
X140730373Y-91497396D01*
X140706104Y-91500996D01*
X140681600Y-91502200D01*
X139931600Y-91502200D01*
X139907096Y-91500996D01*
X139882827Y-91497396D01*
X139859029Y-91491435D01*
X139835929Y-91483170D01*
X139813751Y-91472680D01*
X139792707Y-91460067D01*
X139773002Y-91445453D01*
X139754823Y-91428977D01*
X139738347Y-91410798D01*
X139723733Y-91391093D01*
X139711120Y-91370049D01*
X139700630Y-91347871D01*
X139692365Y-91324771D01*
X139686404Y-91300973D01*
X139682804Y-91276704D01*
X139681600Y-91252200D01*
X139681600Y-90002200D01*
X139682804Y-89977696D01*
X139686404Y-89953427D01*
X139692365Y-89929629D01*
X139700630Y-89906529D01*
X139711120Y-89884351D01*
X139723733Y-89863307D01*
X139738347Y-89843602D01*
X139754823Y-89825423D01*
X139773002Y-89808947D01*
X139792707Y-89794333D01*
X139813751Y-89781720D01*
X139835929Y-89771230D01*
X139859029Y-89762965D01*
X139882827Y-89757004D01*
X139907096Y-89753404D01*
X139931600Y-89752200D01*
X140681600Y-89752200D01*
X140706104Y-89753404D01*
G37*
G36*
X143506104Y-89753404D02*
G01*
X143530373Y-89757004D01*
X143554171Y-89762965D01*
X143577271Y-89771230D01*
X143599449Y-89781720D01*
X143620493Y-89794333D01*
X143640198Y-89808947D01*
X143658377Y-89825423D01*
X143674853Y-89843602D01*
X143689467Y-89863307D01*
X143702080Y-89884351D01*
X143712570Y-89906529D01*
X143720835Y-89929629D01*
X143726796Y-89953427D01*
X143730396Y-89977696D01*
X143731600Y-90002200D01*
X143731600Y-91252200D01*
X143730396Y-91276704D01*
X143726796Y-91300973D01*
X143720835Y-91324771D01*
X143712570Y-91347871D01*
X143702080Y-91370049D01*
X143689467Y-91391093D01*
X143674853Y-91410798D01*
X143658377Y-91428977D01*
X143640198Y-91445453D01*
X143620493Y-91460067D01*
X143599449Y-91472680D01*
X143577271Y-91483170D01*
X143554171Y-91491435D01*
X143530373Y-91497396D01*
X143506104Y-91500996D01*
X143481600Y-91502200D01*
X142731600Y-91502200D01*
X142707096Y-91500996D01*
X142682827Y-91497396D01*
X142659029Y-91491435D01*
X142635929Y-91483170D01*
X142613751Y-91472680D01*
X142592707Y-91460067D01*
X142573002Y-91445453D01*
X142554823Y-91428977D01*
X142538347Y-91410798D01*
X142523733Y-91391093D01*
X142511120Y-91370049D01*
X142500630Y-91347871D01*
X142492365Y-91324771D01*
X142486404Y-91300973D01*
X142482804Y-91276704D01*
X142481600Y-91252200D01*
X142481600Y-90002200D01*
X142482804Y-89977696D01*
X142486404Y-89953427D01*
X142492365Y-89929629D01*
X142500630Y-89906529D01*
X142511120Y-89884351D01*
X142523733Y-89863307D01*
X142538347Y-89843602D01*
X142554823Y-89825423D01*
X142573002Y-89808947D01*
X142592707Y-89794333D01*
X142613751Y-89781720D01*
X142635929Y-89771230D01*
X142659029Y-89762965D01*
X142682827Y-89757004D01*
X142707096Y-89753404D01*
X142731600Y-89752200D01*
X143481600Y-89752200D01*
X143506104Y-89753404D01*
G37*
G36*
X159756104Y-89753404D02*
G01*
X159780373Y-89757004D01*
X159804171Y-89762965D01*
X159827271Y-89771230D01*
X159849449Y-89781720D01*
X159870493Y-89794333D01*
X159890198Y-89808947D01*
X159908377Y-89825423D01*
X159924853Y-89843602D01*
X159939467Y-89863307D01*
X159952080Y-89884351D01*
X159962570Y-89906529D01*
X159970835Y-89929629D01*
X159976796Y-89953427D01*
X159980396Y-89977696D01*
X159981600Y-90002200D01*
X159981600Y-91252200D01*
X159980396Y-91276704D01*
X159976796Y-91300973D01*
X159970835Y-91324771D01*
X159962570Y-91347871D01*
X159952080Y-91370049D01*
X159939467Y-91391093D01*
X159924853Y-91410798D01*
X159908377Y-91428977D01*
X159890198Y-91445453D01*
X159870493Y-91460067D01*
X159849449Y-91472680D01*
X159827271Y-91483170D01*
X159804171Y-91491435D01*
X159780373Y-91497396D01*
X159756104Y-91500996D01*
X159731600Y-91502200D01*
X158981600Y-91502200D01*
X158957096Y-91500996D01*
X158932827Y-91497396D01*
X158909029Y-91491435D01*
X158885929Y-91483170D01*
X158863751Y-91472680D01*
X158842707Y-91460067D01*
X158823002Y-91445453D01*
X158804823Y-91428977D01*
X158788347Y-91410798D01*
X158773733Y-91391093D01*
X158761120Y-91370049D01*
X158750630Y-91347871D01*
X158742365Y-91324771D01*
X158736404Y-91300973D01*
X158732804Y-91276704D01*
X158731600Y-91252200D01*
X158731600Y-90002200D01*
X158732804Y-89977696D01*
X158736404Y-89953427D01*
X158742365Y-89929629D01*
X158750630Y-89906529D01*
X158761120Y-89884351D01*
X158773733Y-89863307D01*
X158788347Y-89843602D01*
X158804823Y-89825423D01*
X158823002Y-89808947D01*
X158842707Y-89794333D01*
X158863751Y-89781720D01*
X158885929Y-89771230D01*
X158909029Y-89762965D01*
X158932827Y-89757004D01*
X158957096Y-89753404D01*
X158981600Y-89752200D01*
X159731600Y-89752200D01*
X159756104Y-89753404D01*
G37*
G36*
X162556104Y-89753404D02*
G01*
X162580373Y-89757004D01*
X162604171Y-89762965D01*
X162627271Y-89771230D01*
X162649449Y-89781720D01*
X162670493Y-89794333D01*
X162690198Y-89808947D01*
X162708377Y-89825423D01*
X162724853Y-89843602D01*
X162739467Y-89863307D01*
X162752080Y-89884351D01*
X162762570Y-89906529D01*
X162770835Y-89929629D01*
X162776796Y-89953427D01*
X162780396Y-89977696D01*
X162781600Y-90002200D01*
X162781600Y-91252200D01*
X162780396Y-91276704D01*
X162776796Y-91300973D01*
X162770835Y-91324771D01*
X162762570Y-91347871D01*
X162752080Y-91370049D01*
X162739467Y-91391093D01*
X162724853Y-91410798D01*
X162708377Y-91428977D01*
X162690198Y-91445453D01*
X162670493Y-91460067D01*
X162649449Y-91472680D01*
X162627271Y-91483170D01*
X162604171Y-91491435D01*
X162580373Y-91497396D01*
X162556104Y-91500996D01*
X162531600Y-91502200D01*
X161781600Y-91502200D01*
X161757096Y-91500996D01*
X161732827Y-91497396D01*
X161709029Y-91491435D01*
X161685929Y-91483170D01*
X161663751Y-91472680D01*
X161642707Y-91460067D01*
X161623002Y-91445453D01*
X161604823Y-91428977D01*
X161588347Y-91410798D01*
X161573733Y-91391093D01*
X161561120Y-91370049D01*
X161550630Y-91347871D01*
X161542365Y-91324771D01*
X161536404Y-91300973D01*
X161532804Y-91276704D01*
X161531600Y-91252200D01*
X161531600Y-90002200D01*
X161532804Y-89977696D01*
X161536404Y-89953427D01*
X161542365Y-89929629D01*
X161550630Y-89906529D01*
X161561120Y-89884351D01*
X161573733Y-89863307D01*
X161588347Y-89843602D01*
X161604823Y-89825423D01*
X161623002Y-89808947D01*
X161642707Y-89794333D01*
X161663751Y-89781720D01*
X161685929Y-89771230D01*
X161709029Y-89762965D01*
X161732827Y-89757004D01*
X161757096Y-89753404D01*
X161781600Y-89752200D01*
X162531600Y-89752200D01*
X162556104Y-89753404D01*
G37*
G36*
X178806104Y-89753404D02*
G01*
X178830373Y-89757004D01*
X178854171Y-89762965D01*
X178877271Y-89771230D01*
X178899449Y-89781720D01*
X178920493Y-89794333D01*
X178940198Y-89808947D01*
X178958377Y-89825423D01*
X178974853Y-89843602D01*
X178989467Y-89863307D01*
X179002080Y-89884351D01*
X179012570Y-89906529D01*
X179020835Y-89929629D01*
X179026796Y-89953427D01*
X179030396Y-89977696D01*
X179031600Y-90002200D01*
X179031600Y-91252200D01*
X179030396Y-91276704D01*
X179026796Y-91300973D01*
X179020835Y-91324771D01*
X179012570Y-91347871D01*
X179002080Y-91370049D01*
X178989467Y-91391093D01*
X178974853Y-91410798D01*
X178958377Y-91428977D01*
X178940198Y-91445453D01*
X178920493Y-91460067D01*
X178899449Y-91472680D01*
X178877271Y-91483170D01*
X178854171Y-91491435D01*
X178830373Y-91497396D01*
X178806104Y-91500996D01*
X178781600Y-91502200D01*
X178031600Y-91502200D01*
X178007096Y-91500996D01*
X177982827Y-91497396D01*
X177959029Y-91491435D01*
X177935929Y-91483170D01*
X177913751Y-91472680D01*
X177892707Y-91460067D01*
X177873002Y-91445453D01*
X177854823Y-91428977D01*
X177838347Y-91410798D01*
X177823733Y-91391093D01*
X177811120Y-91370049D01*
X177800630Y-91347871D01*
X177792365Y-91324771D01*
X177786404Y-91300973D01*
X177782804Y-91276704D01*
X177781600Y-91252200D01*
X177781600Y-90002200D01*
X177782804Y-89977696D01*
X177786404Y-89953427D01*
X177792365Y-89929629D01*
X177800630Y-89906529D01*
X177811120Y-89884351D01*
X177823733Y-89863307D01*
X177838347Y-89843602D01*
X177854823Y-89825423D01*
X177873002Y-89808947D01*
X177892707Y-89794333D01*
X177913751Y-89781720D01*
X177935929Y-89771230D01*
X177959029Y-89762965D01*
X177982827Y-89757004D01*
X178007096Y-89753404D01*
X178031600Y-89752200D01*
X178781600Y-89752200D01*
X178806104Y-89753404D01*
G37*
G36*
X181606104Y-89753404D02*
G01*
X181630373Y-89757004D01*
X181654171Y-89762965D01*
X181677271Y-89771230D01*
X181699449Y-89781720D01*
X181720493Y-89794333D01*
X181740198Y-89808947D01*
X181758377Y-89825423D01*
X181774853Y-89843602D01*
X181789467Y-89863307D01*
X181802080Y-89884351D01*
X181812570Y-89906529D01*
X181820835Y-89929629D01*
X181826796Y-89953427D01*
X181830396Y-89977696D01*
X181831600Y-90002200D01*
X181831600Y-91252200D01*
X181830396Y-91276704D01*
X181826796Y-91300973D01*
X181820835Y-91324771D01*
X181812570Y-91347871D01*
X181802080Y-91370049D01*
X181789467Y-91391093D01*
X181774853Y-91410798D01*
X181758377Y-91428977D01*
X181740198Y-91445453D01*
X181720493Y-91460067D01*
X181699449Y-91472680D01*
X181677271Y-91483170D01*
X181654171Y-91491435D01*
X181630373Y-91497396D01*
X181606104Y-91500996D01*
X181581600Y-91502200D01*
X180831600Y-91502200D01*
X180807096Y-91500996D01*
X180782827Y-91497396D01*
X180759029Y-91491435D01*
X180735929Y-91483170D01*
X180713751Y-91472680D01*
X180692707Y-91460067D01*
X180673002Y-91445453D01*
X180654823Y-91428977D01*
X180638347Y-91410798D01*
X180623733Y-91391093D01*
X180611120Y-91370049D01*
X180600630Y-91347871D01*
X180592365Y-91324771D01*
X180586404Y-91300973D01*
X180582804Y-91276704D01*
X180581600Y-91252200D01*
X180581600Y-90002200D01*
X180582804Y-89977696D01*
X180586404Y-89953427D01*
X180592365Y-89929629D01*
X180600630Y-89906529D01*
X180611120Y-89884351D01*
X180623733Y-89863307D01*
X180638347Y-89843602D01*
X180654823Y-89825423D01*
X180673002Y-89808947D01*
X180692707Y-89794333D01*
X180713751Y-89781720D01*
X180735929Y-89771230D01*
X180759029Y-89762965D01*
X180782827Y-89757004D01*
X180807096Y-89753404D01*
X180831600Y-89752200D01*
X181581600Y-89752200D01*
X181606104Y-89753404D01*
G37*
G36*
X45456104Y-108803404D02*
G01*
X45480373Y-108807004D01*
X45504171Y-108812965D01*
X45527271Y-108821230D01*
X45549449Y-108831720D01*
X45570493Y-108844333D01*
X45590198Y-108858947D01*
X45608377Y-108875423D01*
X45624853Y-108893602D01*
X45639467Y-108913307D01*
X45652080Y-108934351D01*
X45662570Y-108956529D01*
X45670835Y-108979629D01*
X45676796Y-109003427D01*
X45680396Y-109027696D01*
X45681600Y-109052200D01*
X45681600Y-110302200D01*
X45680396Y-110326704D01*
X45676796Y-110350973D01*
X45670835Y-110374771D01*
X45662570Y-110397871D01*
X45652080Y-110420049D01*
X45639467Y-110441093D01*
X45624853Y-110460798D01*
X45608377Y-110478977D01*
X45590198Y-110495453D01*
X45570493Y-110510067D01*
X45549449Y-110522680D01*
X45527271Y-110533170D01*
X45504171Y-110541435D01*
X45480373Y-110547396D01*
X45456104Y-110550996D01*
X45431600Y-110552200D01*
X44681600Y-110552200D01*
X44657096Y-110550996D01*
X44632827Y-110547396D01*
X44609029Y-110541435D01*
X44585929Y-110533170D01*
X44563751Y-110522680D01*
X44542707Y-110510067D01*
X44523002Y-110495453D01*
X44504823Y-110478977D01*
X44488347Y-110460798D01*
X44473733Y-110441093D01*
X44461120Y-110420049D01*
X44450630Y-110397871D01*
X44442365Y-110374771D01*
X44436404Y-110350973D01*
X44432804Y-110326704D01*
X44431600Y-110302200D01*
X44431600Y-109052200D01*
X44432804Y-109027696D01*
X44436404Y-109003427D01*
X44442365Y-108979629D01*
X44450630Y-108956529D01*
X44461120Y-108934351D01*
X44473733Y-108913307D01*
X44488347Y-108893602D01*
X44504823Y-108875423D01*
X44523002Y-108858947D01*
X44542707Y-108844333D01*
X44563751Y-108831720D01*
X44585929Y-108821230D01*
X44609029Y-108812965D01*
X44632827Y-108807004D01*
X44657096Y-108803404D01*
X44681600Y-108802200D01*
X45431600Y-108802200D01*
X45456104Y-108803404D01*
G37*
G36*
X48256104Y-108803404D02*
G01*
X48280373Y-108807004D01*
X48304171Y-108812965D01*
X48327271Y-108821230D01*
X48349449Y-108831720D01*
X48370493Y-108844333D01*
X48390198Y-108858947D01*
X48408377Y-108875423D01*
X48424853Y-108893602D01*
X48439467Y-108913307D01*
X48452080Y-108934351D01*
X48462570Y-108956529D01*
X48470835Y-108979629D01*
X48476796Y-109003427D01*
X48480396Y-109027696D01*
X48481600Y-109052200D01*
X48481600Y-110302200D01*
X48480396Y-110326704D01*
X48476796Y-110350973D01*
X48470835Y-110374771D01*
X48462570Y-110397871D01*
X48452080Y-110420049D01*
X48439467Y-110441093D01*
X48424853Y-110460798D01*
X48408377Y-110478977D01*
X48390198Y-110495453D01*
X48370493Y-110510067D01*
X48349449Y-110522680D01*
X48327271Y-110533170D01*
X48304171Y-110541435D01*
X48280373Y-110547396D01*
X48256104Y-110550996D01*
X48231600Y-110552200D01*
X47481600Y-110552200D01*
X47457096Y-110550996D01*
X47432827Y-110547396D01*
X47409029Y-110541435D01*
X47385929Y-110533170D01*
X47363751Y-110522680D01*
X47342707Y-110510067D01*
X47323002Y-110495453D01*
X47304823Y-110478977D01*
X47288347Y-110460798D01*
X47273733Y-110441093D01*
X47261120Y-110420049D01*
X47250630Y-110397871D01*
X47242365Y-110374771D01*
X47236404Y-110350973D01*
X47232804Y-110326704D01*
X47231600Y-110302200D01*
X47231600Y-109052200D01*
X47232804Y-109027696D01*
X47236404Y-109003427D01*
X47242365Y-108979629D01*
X47250630Y-108956529D01*
X47261120Y-108934351D01*
X47273733Y-108913307D01*
X47288347Y-108893602D01*
X47304823Y-108875423D01*
X47323002Y-108858947D01*
X47342707Y-108844333D01*
X47363751Y-108831720D01*
X47385929Y-108821230D01*
X47409029Y-108812965D01*
X47432827Y-108807004D01*
X47457096Y-108803404D01*
X47481600Y-108802200D01*
X48231600Y-108802200D01*
X48256104Y-108803404D01*
G37*
G36*
X67306104Y-108803404D02*
G01*
X67330373Y-108807004D01*
X67354171Y-108812965D01*
X67377271Y-108821230D01*
X67399449Y-108831720D01*
X67420493Y-108844333D01*
X67440198Y-108858947D01*
X67458377Y-108875423D01*
X67474853Y-108893602D01*
X67489467Y-108913307D01*
X67502080Y-108934351D01*
X67512570Y-108956529D01*
X67520835Y-108979629D01*
X67526796Y-109003427D01*
X67530396Y-109027696D01*
X67531600Y-109052200D01*
X67531600Y-110302200D01*
X67530396Y-110326704D01*
X67526796Y-110350973D01*
X67520835Y-110374771D01*
X67512570Y-110397871D01*
X67502080Y-110420049D01*
X67489467Y-110441093D01*
X67474853Y-110460798D01*
X67458377Y-110478977D01*
X67440198Y-110495453D01*
X67420493Y-110510067D01*
X67399449Y-110522680D01*
X67377271Y-110533170D01*
X67354171Y-110541435D01*
X67330373Y-110547396D01*
X67306104Y-110550996D01*
X67281600Y-110552200D01*
X66531600Y-110552200D01*
X66507096Y-110550996D01*
X66482827Y-110547396D01*
X66459029Y-110541435D01*
X66435929Y-110533170D01*
X66413751Y-110522680D01*
X66392707Y-110510067D01*
X66373002Y-110495453D01*
X66354823Y-110478977D01*
X66338347Y-110460798D01*
X66323733Y-110441093D01*
X66311120Y-110420049D01*
X66300630Y-110397871D01*
X66292365Y-110374771D01*
X66286404Y-110350973D01*
X66282804Y-110326704D01*
X66281600Y-110302200D01*
X66281600Y-109052200D01*
X66282804Y-109027696D01*
X66286404Y-109003427D01*
X66292365Y-108979629D01*
X66300630Y-108956529D01*
X66311120Y-108934351D01*
X66323733Y-108913307D01*
X66338347Y-108893602D01*
X66354823Y-108875423D01*
X66373002Y-108858947D01*
X66392707Y-108844333D01*
X66413751Y-108831720D01*
X66435929Y-108821230D01*
X66459029Y-108812965D01*
X66482827Y-108807004D01*
X66507096Y-108803404D01*
X66531600Y-108802200D01*
X67281600Y-108802200D01*
X67306104Y-108803404D01*
G37*
G36*
X64506104Y-108803404D02*
G01*
X64530373Y-108807004D01*
X64554171Y-108812965D01*
X64577271Y-108821230D01*
X64599449Y-108831720D01*
X64620493Y-108844333D01*
X64640198Y-108858947D01*
X64658377Y-108875423D01*
X64674853Y-108893602D01*
X64689467Y-108913307D01*
X64702080Y-108934351D01*
X64712570Y-108956529D01*
X64720835Y-108979629D01*
X64726796Y-109003427D01*
X64730396Y-109027696D01*
X64731600Y-109052200D01*
X64731600Y-110302200D01*
X64730396Y-110326704D01*
X64726796Y-110350973D01*
X64720835Y-110374771D01*
X64712570Y-110397871D01*
X64702080Y-110420049D01*
X64689467Y-110441093D01*
X64674853Y-110460798D01*
X64658377Y-110478977D01*
X64640198Y-110495453D01*
X64620493Y-110510067D01*
X64599449Y-110522680D01*
X64577271Y-110533170D01*
X64554171Y-110541435D01*
X64530373Y-110547396D01*
X64506104Y-110550996D01*
X64481600Y-110552200D01*
X63731600Y-110552200D01*
X63707096Y-110550996D01*
X63682827Y-110547396D01*
X63659029Y-110541435D01*
X63635929Y-110533170D01*
X63613751Y-110522680D01*
X63592707Y-110510067D01*
X63573002Y-110495453D01*
X63554823Y-110478977D01*
X63538347Y-110460798D01*
X63523733Y-110441093D01*
X63511120Y-110420049D01*
X63500630Y-110397871D01*
X63492365Y-110374771D01*
X63486404Y-110350973D01*
X63482804Y-110326704D01*
X63481600Y-110302200D01*
X63481600Y-109052200D01*
X63482804Y-109027696D01*
X63486404Y-109003427D01*
X63492365Y-108979629D01*
X63500630Y-108956529D01*
X63511120Y-108934351D01*
X63523733Y-108913307D01*
X63538347Y-108893602D01*
X63554823Y-108875423D01*
X63573002Y-108858947D01*
X63592707Y-108844333D01*
X63613751Y-108831720D01*
X63635929Y-108821230D01*
X63659029Y-108812965D01*
X63682827Y-108807004D01*
X63707096Y-108803404D01*
X63731600Y-108802200D01*
X64481600Y-108802200D01*
X64506104Y-108803404D01*
G37*
G36*
X86356104Y-108803404D02*
G01*
X86380373Y-108807004D01*
X86404171Y-108812965D01*
X86427271Y-108821230D01*
X86449449Y-108831720D01*
X86470493Y-108844333D01*
X86490198Y-108858947D01*
X86508377Y-108875423D01*
X86524853Y-108893602D01*
X86539467Y-108913307D01*
X86552080Y-108934351D01*
X86562570Y-108956529D01*
X86570835Y-108979629D01*
X86576796Y-109003427D01*
X86580396Y-109027696D01*
X86581600Y-109052200D01*
X86581600Y-110302200D01*
X86580396Y-110326704D01*
X86576796Y-110350973D01*
X86570835Y-110374771D01*
X86562570Y-110397871D01*
X86552080Y-110420049D01*
X86539467Y-110441093D01*
X86524853Y-110460798D01*
X86508377Y-110478977D01*
X86490198Y-110495453D01*
X86470493Y-110510067D01*
X86449449Y-110522680D01*
X86427271Y-110533170D01*
X86404171Y-110541435D01*
X86380373Y-110547396D01*
X86356104Y-110550996D01*
X86331600Y-110552200D01*
X85581600Y-110552200D01*
X85557096Y-110550996D01*
X85532827Y-110547396D01*
X85509029Y-110541435D01*
X85485929Y-110533170D01*
X85463751Y-110522680D01*
X85442707Y-110510067D01*
X85423002Y-110495453D01*
X85404823Y-110478977D01*
X85388347Y-110460798D01*
X85373733Y-110441093D01*
X85361120Y-110420049D01*
X85350630Y-110397871D01*
X85342365Y-110374771D01*
X85336404Y-110350973D01*
X85332804Y-110326704D01*
X85331600Y-110302200D01*
X85331600Y-109052200D01*
X85332804Y-109027696D01*
X85336404Y-109003427D01*
X85342365Y-108979629D01*
X85350630Y-108956529D01*
X85361120Y-108934351D01*
X85373733Y-108913307D01*
X85388347Y-108893602D01*
X85404823Y-108875423D01*
X85423002Y-108858947D01*
X85442707Y-108844333D01*
X85463751Y-108831720D01*
X85485929Y-108821230D01*
X85509029Y-108812965D01*
X85532827Y-108807004D01*
X85557096Y-108803404D01*
X85581600Y-108802200D01*
X86331600Y-108802200D01*
X86356104Y-108803404D01*
G37*
G36*
X83556104Y-108803404D02*
G01*
X83580373Y-108807004D01*
X83604171Y-108812965D01*
X83627271Y-108821230D01*
X83649449Y-108831720D01*
X83670493Y-108844333D01*
X83690198Y-108858947D01*
X83708377Y-108875423D01*
X83724853Y-108893602D01*
X83739467Y-108913307D01*
X83752080Y-108934351D01*
X83762570Y-108956529D01*
X83770835Y-108979629D01*
X83776796Y-109003427D01*
X83780396Y-109027696D01*
X83781600Y-109052200D01*
X83781600Y-110302200D01*
X83780396Y-110326704D01*
X83776796Y-110350973D01*
X83770835Y-110374771D01*
X83762570Y-110397871D01*
X83752080Y-110420049D01*
X83739467Y-110441093D01*
X83724853Y-110460798D01*
X83708377Y-110478977D01*
X83690198Y-110495453D01*
X83670493Y-110510067D01*
X83649449Y-110522680D01*
X83627271Y-110533170D01*
X83604171Y-110541435D01*
X83580373Y-110547396D01*
X83556104Y-110550996D01*
X83531600Y-110552200D01*
X82781600Y-110552200D01*
X82757096Y-110550996D01*
X82732827Y-110547396D01*
X82709029Y-110541435D01*
X82685929Y-110533170D01*
X82663751Y-110522680D01*
X82642707Y-110510067D01*
X82623002Y-110495453D01*
X82604823Y-110478977D01*
X82588347Y-110460798D01*
X82573733Y-110441093D01*
X82561120Y-110420049D01*
X82550630Y-110397871D01*
X82542365Y-110374771D01*
X82536404Y-110350973D01*
X82532804Y-110326704D01*
X82531600Y-110302200D01*
X82531600Y-109052200D01*
X82532804Y-109027696D01*
X82536404Y-109003427D01*
X82542365Y-108979629D01*
X82550630Y-108956529D01*
X82561120Y-108934351D01*
X82573733Y-108913307D01*
X82588347Y-108893602D01*
X82604823Y-108875423D01*
X82623002Y-108858947D01*
X82642707Y-108844333D01*
X82663751Y-108831720D01*
X82685929Y-108821230D01*
X82709029Y-108812965D01*
X82732827Y-108807004D01*
X82757096Y-108803404D01*
X82781600Y-108802200D01*
X83531600Y-108802200D01*
X83556104Y-108803404D01*
G37*
G36*
X105406104Y-108803404D02*
G01*
X105430373Y-108807004D01*
X105454171Y-108812965D01*
X105477271Y-108821230D01*
X105499449Y-108831720D01*
X105520493Y-108844333D01*
X105540198Y-108858947D01*
X105558377Y-108875423D01*
X105574853Y-108893602D01*
X105589467Y-108913307D01*
X105602080Y-108934351D01*
X105612570Y-108956529D01*
X105620835Y-108979629D01*
X105626796Y-109003427D01*
X105630396Y-109027696D01*
X105631600Y-109052200D01*
X105631600Y-110302200D01*
X105630396Y-110326704D01*
X105626796Y-110350973D01*
X105620835Y-110374771D01*
X105612570Y-110397871D01*
X105602080Y-110420049D01*
X105589467Y-110441093D01*
X105574853Y-110460798D01*
X105558377Y-110478977D01*
X105540198Y-110495453D01*
X105520493Y-110510067D01*
X105499449Y-110522680D01*
X105477271Y-110533170D01*
X105454171Y-110541435D01*
X105430373Y-110547396D01*
X105406104Y-110550996D01*
X105381600Y-110552200D01*
X104631600Y-110552200D01*
X104607096Y-110550996D01*
X104582827Y-110547396D01*
X104559029Y-110541435D01*
X104535929Y-110533170D01*
X104513751Y-110522680D01*
X104492707Y-110510067D01*
X104473002Y-110495453D01*
X104454823Y-110478977D01*
X104438347Y-110460798D01*
X104423733Y-110441093D01*
X104411120Y-110420049D01*
X104400630Y-110397871D01*
X104392365Y-110374771D01*
X104386404Y-110350973D01*
X104382804Y-110326704D01*
X104381600Y-110302200D01*
X104381600Y-109052200D01*
X104382804Y-109027696D01*
X104386404Y-109003427D01*
X104392365Y-108979629D01*
X104400630Y-108956529D01*
X104411120Y-108934351D01*
X104423733Y-108913307D01*
X104438347Y-108893602D01*
X104454823Y-108875423D01*
X104473002Y-108858947D01*
X104492707Y-108844333D01*
X104513751Y-108831720D01*
X104535929Y-108821230D01*
X104559029Y-108812965D01*
X104582827Y-108807004D01*
X104607096Y-108803404D01*
X104631600Y-108802200D01*
X105381600Y-108802200D01*
X105406104Y-108803404D01*
G37*
G36*
X102606104Y-108803404D02*
G01*
X102630373Y-108807004D01*
X102654171Y-108812965D01*
X102677271Y-108821230D01*
X102699449Y-108831720D01*
X102720493Y-108844333D01*
X102740198Y-108858947D01*
X102758377Y-108875423D01*
X102774853Y-108893602D01*
X102789467Y-108913307D01*
X102802080Y-108934351D01*
X102812570Y-108956529D01*
X102820835Y-108979629D01*
X102826796Y-109003427D01*
X102830396Y-109027696D01*
X102831600Y-109052200D01*
X102831600Y-110302200D01*
X102830396Y-110326704D01*
X102826796Y-110350973D01*
X102820835Y-110374771D01*
X102812570Y-110397871D01*
X102802080Y-110420049D01*
X102789467Y-110441093D01*
X102774853Y-110460798D01*
X102758377Y-110478977D01*
X102740198Y-110495453D01*
X102720493Y-110510067D01*
X102699449Y-110522680D01*
X102677271Y-110533170D01*
X102654171Y-110541435D01*
X102630373Y-110547396D01*
X102606104Y-110550996D01*
X102581600Y-110552200D01*
X101831600Y-110552200D01*
X101807096Y-110550996D01*
X101782827Y-110547396D01*
X101759029Y-110541435D01*
X101735929Y-110533170D01*
X101713751Y-110522680D01*
X101692707Y-110510067D01*
X101673002Y-110495453D01*
X101654823Y-110478977D01*
X101638347Y-110460798D01*
X101623733Y-110441093D01*
X101611120Y-110420049D01*
X101600630Y-110397871D01*
X101592365Y-110374771D01*
X101586404Y-110350973D01*
X101582804Y-110326704D01*
X101581600Y-110302200D01*
X101581600Y-109052200D01*
X101582804Y-109027696D01*
X101586404Y-109003427D01*
X101592365Y-108979629D01*
X101600630Y-108956529D01*
X101611120Y-108934351D01*
X101623733Y-108913307D01*
X101638347Y-108893602D01*
X101654823Y-108875423D01*
X101673002Y-108858947D01*
X101692707Y-108844333D01*
X101713751Y-108831720D01*
X101735929Y-108821230D01*
X101759029Y-108812965D01*
X101782827Y-108807004D01*
X101807096Y-108803404D01*
X101831600Y-108802200D01*
X102581600Y-108802200D01*
X102606104Y-108803404D01*
G37*
G36*
X124456104Y-108803404D02*
G01*
X124480373Y-108807004D01*
X124504171Y-108812965D01*
X124527271Y-108821230D01*
X124549449Y-108831720D01*
X124570493Y-108844333D01*
X124590198Y-108858947D01*
X124608377Y-108875423D01*
X124624853Y-108893602D01*
X124639467Y-108913307D01*
X124652080Y-108934351D01*
X124662570Y-108956529D01*
X124670835Y-108979629D01*
X124676796Y-109003427D01*
X124680396Y-109027696D01*
X124681600Y-109052200D01*
X124681600Y-110302200D01*
X124680396Y-110326704D01*
X124676796Y-110350973D01*
X124670835Y-110374771D01*
X124662570Y-110397871D01*
X124652080Y-110420049D01*
X124639467Y-110441093D01*
X124624853Y-110460798D01*
X124608377Y-110478977D01*
X124590198Y-110495453D01*
X124570493Y-110510067D01*
X124549449Y-110522680D01*
X124527271Y-110533170D01*
X124504171Y-110541435D01*
X124480373Y-110547396D01*
X124456104Y-110550996D01*
X124431600Y-110552200D01*
X123681600Y-110552200D01*
X123657096Y-110550996D01*
X123632827Y-110547396D01*
X123609029Y-110541435D01*
X123585929Y-110533170D01*
X123563751Y-110522680D01*
X123542707Y-110510067D01*
X123523002Y-110495453D01*
X123504823Y-110478977D01*
X123488347Y-110460798D01*
X123473733Y-110441093D01*
X123461120Y-110420049D01*
X123450630Y-110397871D01*
X123442365Y-110374771D01*
X123436404Y-110350973D01*
X123432804Y-110326704D01*
X123431600Y-110302200D01*
X123431600Y-109052200D01*
X123432804Y-109027696D01*
X123436404Y-109003427D01*
X123442365Y-108979629D01*
X123450630Y-108956529D01*
X123461120Y-108934351D01*
X123473733Y-108913307D01*
X123488347Y-108893602D01*
X123504823Y-108875423D01*
X123523002Y-108858947D01*
X123542707Y-108844333D01*
X123563751Y-108831720D01*
X123585929Y-108821230D01*
X123609029Y-108812965D01*
X123632827Y-108807004D01*
X123657096Y-108803404D01*
X123681600Y-108802200D01*
X124431600Y-108802200D01*
X124456104Y-108803404D01*
G37*
G36*
X121656104Y-108803404D02*
G01*
X121680373Y-108807004D01*
X121704171Y-108812965D01*
X121727271Y-108821230D01*
X121749449Y-108831720D01*
X121770493Y-108844333D01*
X121790198Y-108858947D01*
X121808377Y-108875423D01*
X121824853Y-108893602D01*
X121839467Y-108913307D01*
X121852080Y-108934351D01*
X121862570Y-108956529D01*
X121870835Y-108979629D01*
X121876796Y-109003427D01*
X121880396Y-109027696D01*
X121881600Y-109052200D01*
X121881600Y-110302200D01*
X121880396Y-110326704D01*
X121876796Y-110350973D01*
X121870835Y-110374771D01*
X121862570Y-110397871D01*
X121852080Y-110420049D01*
X121839467Y-110441093D01*
X121824853Y-110460798D01*
X121808377Y-110478977D01*
X121790198Y-110495453D01*
X121770493Y-110510067D01*
X121749449Y-110522680D01*
X121727271Y-110533170D01*
X121704171Y-110541435D01*
X121680373Y-110547396D01*
X121656104Y-110550996D01*
X121631600Y-110552200D01*
X120881600Y-110552200D01*
X120857096Y-110550996D01*
X120832827Y-110547396D01*
X120809029Y-110541435D01*
X120785929Y-110533170D01*
X120763751Y-110522680D01*
X120742707Y-110510067D01*
X120723002Y-110495453D01*
X120704823Y-110478977D01*
X120688347Y-110460798D01*
X120673733Y-110441093D01*
X120661120Y-110420049D01*
X120650630Y-110397871D01*
X120642365Y-110374771D01*
X120636404Y-110350973D01*
X120632804Y-110326704D01*
X120631600Y-110302200D01*
X120631600Y-109052200D01*
X120632804Y-109027696D01*
X120636404Y-109003427D01*
X120642365Y-108979629D01*
X120650630Y-108956529D01*
X120661120Y-108934351D01*
X120673733Y-108913307D01*
X120688347Y-108893602D01*
X120704823Y-108875423D01*
X120723002Y-108858947D01*
X120742707Y-108844333D01*
X120763751Y-108831720D01*
X120785929Y-108821230D01*
X120809029Y-108812965D01*
X120832827Y-108807004D01*
X120857096Y-108803404D01*
X120881600Y-108802200D01*
X121631600Y-108802200D01*
X121656104Y-108803404D01*
G37*
G36*
X140706104Y-108803404D02*
G01*
X140730373Y-108807004D01*
X140754171Y-108812965D01*
X140777271Y-108821230D01*
X140799449Y-108831720D01*
X140820493Y-108844333D01*
X140840198Y-108858947D01*
X140858377Y-108875423D01*
X140874853Y-108893602D01*
X140889467Y-108913307D01*
X140902080Y-108934351D01*
X140912570Y-108956529D01*
X140920835Y-108979629D01*
X140926796Y-109003427D01*
X140930396Y-109027696D01*
X140931600Y-109052200D01*
X140931600Y-110302200D01*
X140930396Y-110326704D01*
X140926796Y-110350973D01*
X140920835Y-110374771D01*
X140912570Y-110397871D01*
X140902080Y-110420049D01*
X140889467Y-110441093D01*
X140874853Y-110460798D01*
X140858377Y-110478977D01*
X140840198Y-110495453D01*
X140820493Y-110510067D01*
X140799449Y-110522680D01*
X140777271Y-110533170D01*
X140754171Y-110541435D01*
X140730373Y-110547396D01*
X140706104Y-110550996D01*
X140681600Y-110552200D01*
X139931600Y-110552200D01*
X139907096Y-110550996D01*
X139882827Y-110547396D01*
X139859029Y-110541435D01*
X139835929Y-110533170D01*
X139813751Y-110522680D01*
X139792707Y-110510067D01*
X139773002Y-110495453D01*
X139754823Y-110478977D01*
X139738347Y-110460798D01*
X139723733Y-110441093D01*
X139711120Y-110420049D01*
X139700630Y-110397871D01*
X139692365Y-110374771D01*
X139686404Y-110350973D01*
X139682804Y-110326704D01*
X139681600Y-110302200D01*
X139681600Y-109052200D01*
X139682804Y-109027696D01*
X139686404Y-109003427D01*
X139692365Y-108979629D01*
X139700630Y-108956529D01*
X139711120Y-108934351D01*
X139723733Y-108913307D01*
X139738347Y-108893602D01*
X139754823Y-108875423D01*
X139773002Y-108858947D01*
X139792707Y-108844333D01*
X139813751Y-108831720D01*
X139835929Y-108821230D01*
X139859029Y-108812965D01*
X139882827Y-108807004D01*
X139907096Y-108803404D01*
X139931600Y-108802200D01*
X140681600Y-108802200D01*
X140706104Y-108803404D01*
G37*
G36*
X143506104Y-108803404D02*
G01*
X143530373Y-108807004D01*
X143554171Y-108812965D01*
X143577271Y-108821230D01*
X143599449Y-108831720D01*
X143620493Y-108844333D01*
X143640198Y-108858947D01*
X143658377Y-108875423D01*
X143674853Y-108893602D01*
X143689467Y-108913307D01*
X143702080Y-108934351D01*
X143712570Y-108956529D01*
X143720835Y-108979629D01*
X143726796Y-109003427D01*
X143730396Y-109027696D01*
X143731600Y-109052200D01*
X143731600Y-110302200D01*
X143730396Y-110326704D01*
X143726796Y-110350973D01*
X143720835Y-110374771D01*
X143712570Y-110397871D01*
X143702080Y-110420049D01*
X143689467Y-110441093D01*
X143674853Y-110460798D01*
X143658377Y-110478977D01*
X143640198Y-110495453D01*
X143620493Y-110510067D01*
X143599449Y-110522680D01*
X143577271Y-110533170D01*
X143554171Y-110541435D01*
X143530373Y-110547396D01*
X143506104Y-110550996D01*
X143481600Y-110552200D01*
X142731600Y-110552200D01*
X142707096Y-110550996D01*
X142682827Y-110547396D01*
X142659029Y-110541435D01*
X142635929Y-110533170D01*
X142613751Y-110522680D01*
X142592707Y-110510067D01*
X142573002Y-110495453D01*
X142554823Y-110478977D01*
X142538347Y-110460798D01*
X142523733Y-110441093D01*
X142511120Y-110420049D01*
X142500630Y-110397871D01*
X142492365Y-110374771D01*
X142486404Y-110350973D01*
X142482804Y-110326704D01*
X142481600Y-110302200D01*
X142481600Y-109052200D01*
X142482804Y-109027696D01*
X142486404Y-109003427D01*
X142492365Y-108979629D01*
X142500630Y-108956529D01*
X142511120Y-108934351D01*
X142523733Y-108913307D01*
X142538347Y-108893602D01*
X142554823Y-108875423D01*
X142573002Y-108858947D01*
X142592707Y-108844333D01*
X142613751Y-108831720D01*
X142635929Y-108821230D01*
X142659029Y-108812965D01*
X142682827Y-108807004D01*
X142707096Y-108803404D01*
X142731600Y-108802200D01*
X143481600Y-108802200D01*
X143506104Y-108803404D01*
G37*
G36*
X159756104Y-108803404D02*
G01*
X159780373Y-108807004D01*
X159804171Y-108812965D01*
X159827271Y-108821230D01*
X159849449Y-108831720D01*
X159870493Y-108844333D01*
X159890198Y-108858947D01*
X159908377Y-108875423D01*
X159924853Y-108893602D01*
X159939467Y-108913307D01*
X159952080Y-108934351D01*
X159962570Y-108956529D01*
X159970835Y-108979629D01*
X159976796Y-109003427D01*
X159980396Y-109027696D01*
X159981600Y-109052200D01*
X159981600Y-110302200D01*
X159980396Y-110326704D01*
X159976796Y-110350973D01*
X159970835Y-110374771D01*
X159962570Y-110397871D01*
X159952080Y-110420049D01*
X159939467Y-110441093D01*
X159924853Y-110460798D01*
X159908377Y-110478977D01*
X159890198Y-110495453D01*
X159870493Y-110510067D01*
X159849449Y-110522680D01*
X159827271Y-110533170D01*
X159804171Y-110541435D01*
X159780373Y-110547396D01*
X159756104Y-110550996D01*
X159731600Y-110552200D01*
X158981600Y-110552200D01*
X158957096Y-110550996D01*
X158932827Y-110547396D01*
X158909029Y-110541435D01*
X158885929Y-110533170D01*
X158863751Y-110522680D01*
X158842707Y-110510067D01*
X158823002Y-110495453D01*
X158804823Y-110478977D01*
X158788347Y-110460798D01*
X158773733Y-110441093D01*
X158761120Y-110420049D01*
X158750630Y-110397871D01*
X158742365Y-110374771D01*
X158736404Y-110350973D01*
X158732804Y-110326704D01*
X158731600Y-110302200D01*
X158731600Y-109052200D01*
X158732804Y-109027696D01*
X158736404Y-109003427D01*
X158742365Y-108979629D01*
X158750630Y-108956529D01*
X158761120Y-108934351D01*
X158773733Y-108913307D01*
X158788347Y-108893602D01*
X158804823Y-108875423D01*
X158823002Y-108858947D01*
X158842707Y-108844333D01*
X158863751Y-108831720D01*
X158885929Y-108821230D01*
X158909029Y-108812965D01*
X158932827Y-108807004D01*
X158957096Y-108803404D01*
X158981600Y-108802200D01*
X159731600Y-108802200D01*
X159756104Y-108803404D01*
G37*
G36*
X162556104Y-108803404D02*
G01*
X162580373Y-108807004D01*
X162604171Y-108812965D01*
X162627271Y-108821230D01*
X162649449Y-108831720D01*
X162670493Y-108844333D01*
X162690198Y-108858947D01*
X162708377Y-108875423D01*
X162724853Y-108893602D01*
X162739467Y-108913307D01*
X162752080Y-108934351D01*
X162762570Y-108956529D01*
X162770835Y-108979629D01*
X162776796Y-109003427D01*
X162780396Y-109027696D01*
X162781600Y-109052200D01*
X162781600Y-110302200D01*
X162780396Y-110326704D01*
X162776796Y-110350973D01*
X162770835Y-110374771D01*
X162762570Y-110397871D01*
X162752080Y-110420049D01*
X162739467Y-110441093D01*
X162724853Y-110460798D01*
X162708377Y-110478977D01*
X162690198Y-110495453D01*
X162670493Y-110510067D01*
X162649449Y-110522680D01*
X162627271Y-110533170D01*
X162604171Y-110541435D01*
X162580373Y-110547396D01*
X162556104Y-110550996D01*
X162531600Y-110552200D01*
X161781600Y-110552200D01*
X161757096Y-110550996D01*
X161732827Y-110547396D01*
X161709029Y-110541435D01*
X161685929Y-110533170D01*
X161663751Y-110522680D01*
X161642707Y-110510067D01*
X161623002Y-110495453D01*
X161604823Y-110478977D01*
X161588347Y-110460798D01*
X161573733Y-110441093D01*
X161561120Y-110420049D01*
X161550630Y-110397871D01*
X161542365Y-110374771D01*
X161536404Y-110350973D01*
X161532804Y-110326704D01*
X161531600Y-110302200D01*
X161531600Y-109052200D01*
X161532804Y-109027696D01*
X161536404Y-109003427D01*
X161542365Y-108979629D01*
X161550630Y-108956529D01*
X161561120Y-108934351D01*
X161573733Y-108913307D01*
X161588347Y-108893602D01*
X161604823Y-108875423D01*
X161623002Y-108858947D01*
X161642707Y-108844333D01*
X161663751Y-108831720D01*
X161685929Y-108821230D01*
X161709029Y-108812965D01*
X161732827Y-108807004D01*
X161757096Y-108803404D01*
X161781600Y-108802200D01*
X162531600Y-108802200D01*
X162556104Y-108803404D01*
G37*
G36*
X178806104Y-108803404D02*
G01*
X178830373Y-108807004D01*
X178854171Y-108812965D01*
X178877271Y-108821230D01*
X178899449Y-108831720D01*
X178920493Y-108844333D01*
X178940198Y-108858947D01*
X178958377Y-108875423D01*
X178974853Y-108893602D01*
X178989467Y-108913307D01*
X179002080Y-108934351D01*
X179012570Y-108956529D01*
X179020835Y-108979629D01*
X179026796Y-109003427D01*
X179030396Y-109027696D01*
X179031600Y-109052200D01*
X179031600Y-110302200D01*
X179030396Y-110326704D01*
X179026796Y-110350973D01*
X179020835Y-110374771D01*
X179012570Y-110397871D01*
X179002080Y-110420049D01*
X178989467Y-110441093D01*
X178974853Y-110460798D01*
X178958377Y-110478977D01*
X178940198Y-110495453D01*
X178920493Y-110510067D01*
X178899449Y-110522680D01*
X178877271Y-110533170D01*
X178854171Y-110541435D01*
X178830373Y-110547396D01*
X178806104Y-110550996D01*
X178781600Y-110552200D01*
X178031600Y-110552200D01*
X178007096Y-110550996D01*
X177982827Y-110547396D01*
X177959029Y-110541435D01*
X177935929Y-110533170D01*
X177913751Y-110522680D01*
X177892707Y-110510067D01*
X177873002Y-110495453D01*
X177854823Y-110478977D01*
X177838347Y-110460798D01*
X177823733Y-110441093D01*
X177811120Y-110420049D01*
X177800630Y-110397871D01*
X177792365Y-110374771D01*
X177786404Y-110350973D01*
X177782804Y-110326704D01*
X177781600Y-110302200D01*
X177781600Y-109052200D01*
X177782804Y-109027696D01*
X177786404Y-109003427D01*
X177792365Y-108979629D01*
X177800630Y-108956529D01*
X177811120Y-108934351D01*
X177823733Y-108913307D01*
X177838347Y-108893602D01*
X177854823Y-108875423D01*
X177873002Y-108858947D01*
X177892707Y-108844333D01*
X177913751Y-108831720D01*
X177935929Y-108821230D01*
X177959029Y-108812965D01*
X177982827Y-108807004D01*
X178007096Y-108803404D01*
X178031600Y-108802200D01*
X178781600Y-108802200D01*
X178806104Y-108803404D01*
G37*
G36*
X181606104Y-108803404D02*
G01*
X181630373Y-108807004D01*
X181654171Y-108812965D01*
X181677271Y-108821230D01*
X181699449Y-108831720D01*
X181720493Y-108844333D01*
X181740198Y-108858947D01*
X181758377Y-108875423D01*
X181774853Y-108893602D01*
X181789467Y-108913307D01*
X181802080Y-108934351D01*
X181812570Y-108956529D01*
X181820835Y-108979629D01*
X181826796Y-109003427D01*
X181830396Y-109027696D01*
X181831600Y-109052200D01*
X181831600Y-110302200D01*
X181830396Y-110326704D01*
X181826796Y-110350973D01*
X181820835Y-110374771D01*
X181812570Y-110397871D01*
X181802080Y-110420049D01*
X181789467Y-110441093D01*
X181774853Y-110460798D01*
X181758377Y-110478977D01*
X181740198Y-110495453D01*
X181720493Y-110510067D01*
X181699449Y-110522680D01*
X181677271Y-110533170D01*
X181654171Y-110541435D01*
X181630373Y-110547396D01*
X181606104Y-110550996D01*
X181581600Y-110552200D01*
X180831600Y-110552200D01*
X180807096Y-110550996D01*
X180782827Y-110547396D01*
X180759029Y-110541435D01*
X180735929Y-110533170D01*
X180713751Y-110522680D01*
X180692707Y-110510067D01*
X180673002Y-110495453D01*
X180654823Y-110478977D01*
X180638347Y-110460798D01*
X180623733Y-110441093D01*
X180611120Y-110420049D01*
X180600630Y-110397871D01*
X180592365Y-110374771D01*
X180586404Y-110350973D01*
X180582804Y-110326704D01*
X180581600Y-110302200D01*
X180581600Y-109052200D01*
X180582804Y-109027696D01*
X180586404Y-109003427D01*
X180592365Y-108979629D01*
X180600630Y-108956529D01*
X180611120Y-108934351D01*
X180623733Y-108913307D01*
X180638347Y-108893602D01*
X180654823Y-108875423D01*
X180673002Y-108858947D01*
X180692707Y-108844333D01*
X180713751Y-108831720D01*
X180735929Y-108821230D01*
X180759029Y-108812965D01*
X180782827Y-108807004D01*
X180807096Y-108803404D01*
X180831600Y-108802200D01*
X181581600Y-108802200D01*
X181606104Y-108803404D01*
G37*
G36*
X45456104Y-127853404D02*
G01*
X45480373Y-127857004D01*
X45504171Y-127862965D01*
X45527271Y-127871230D01*
X45549449Y-127881720D01*
X45570493Y-127894333D01*
X45590198Y-127908947D01*
X45608377Y-127925423D01*
X45624853Y-127943602D01*
X45639467Y-127963307D01*
X45652080Y-127984351D01*
X45662570Y-128006529D01*
X45670835Y-128029629D01*
X45676796Y-128053427D01*
X45680396Y-128077696D01*
X45681600Y-128102200D01*
X45681600Y-129352200D01*
X45680396Y-129376704D01*
X45676796Y-129400973D01*
X45670835Y-129424771D01*
X45662570Y-129447871D01*
X45652080Y-129470049D01*
X45639467Y-129491093D01*
X45624853Y-129510798D01*
X45608377Y-129528977D01*
X45590198Y-129545453D01*
X45570493Y-129560067D01*
X45549449Y-129572680D01*
X45527271Y-129583170D01*
X45504171Y-129591435D01*
X45480373Y-129597396D01*
X45456104Y-129600996D01*
X45431600Y-129602200D01*
X44681600Y-129602200D01*
X44657096Y-129600996D01*
X44632827Y-129597396D01*
X44609029Y-129591435D01*
X44585929Y-129583170D01*
X44563751Y-129572680D01*
X44542707Y-129560067D01*
X44523002Y-129545453D01*
X44504823Y-129528977D01*
X44488347Y-129510798D01*
X44473733Y-129491093D01*
X44461120Y-129470049D01*
X44450630Y-129447871D01*
X44442365Y-129424771D01*
X44436404Y-129400973D01*
X44432804Y-129376704D01*
X44431600Y-129352200D01*
X44431600Y-128102200D01*
X44432804Y-128077696D01*
X44436404Y-128053427D01*
X44442365Y-128029629D01*
X44450630Y-128006529D01*
X44461120Y-127984351D01*
X44473733Y-127963307D01*
X44488347Y-127943602D01*
X44504823Y-127925423D01*
X44523002Y-127908947D01*
X44542707Y-127894333D01*
X44563751Y-127881720D01*
X44585929Y-127871230D01*
X44609029Y-127862965D01*
X44632827Y-127857004D01*
X44657096Y-127853404D01*
X44681600Y-127852200D01*
X45431600Y-127852200D01*
X45456104Y-127853404D01*
G37*
G36*
X48256104Y-127853404D02*
G01*
X48280373Y-127857004D01*
X48304171Y-127862965D01*
X48327271Y-127871230D01*
X48349449Y-127881720D01*
X48370493Y-127894333D01*
X48390198Y-127908947D01*
X48408377Y-127925423D01*
X48424853Y-127943602D01*
X48439467Y-127963307D01*
X48452080Y-127984351D01*
X48462570Y-128006529D01*
X48470835Y-128029629D01*
X48476796Y-128053427D01*
X48480396Y-128077696D01*
X48481600Y-128102200D01*
X48481600Y-129352200D01*
X48480396Y-129376704D01*
X48476796Y-129400973D01*
X48470835Y-129424771D01*
X48462570Y-129447871D01*
X48452080Y-129470049D01*
X48439467Y-129491093D01*
X48424853Y-129510798D01*
X48408377Y-129528977D01*
X48390198Y-129545453D01*
X48370493Y-129560067D01*
X48349449Y-129572680D01*
X48327271Y-129583170D01*
X48304171Y-129591435D01*
X48280373Y-129597396D01*
X48256104Y-129600996D01*
X48231600Y-129602200D01*
X47481600Y-129602200D01*
X47457096Y-129600996D01*
X47432827Y-129597396D01*
X47409029Y-129591435D01*
X47385929Y-129583170D01*
X47363751Y-129572680D01*
X47342707Y-129560067D01*
X47323002Y-129545453D01*
X47304823Y-129528977D01*
X47288347Y-129510798D01*
X47273733Y-129491093D01*
X47261120Y-129470049D01*
X47250630Y-129447871D01*
X47242365Y-129424771D01*
X47236404Y-129400973D01*
X47232804Y-129376704D01*
X47231600Y-129352200D01*
X47231600Y-128102200D01*
X47232804Y-128077696D01*
X47236404Y-128053427D01*
X47242365Y-128029629D01*
X47250630Y-128006529D01*
X47261120Y-127984351D01*
X47273733Y-127963307D01*
X47288347Y-127943602D01*
X47304823Y-127925423D01*
X47323002Y-127908947D01*
X47342707Y-127894333D01*
X47363751Y-127881720D01*
X47385929Y-127871230D01*
X47409029Y-127862965D01*
X47432827Y-127857004D01*
X47457096Y-127853404D01*
X47481600Y-127852200D01*
X48231600Y-127852200D01*
X48256104Y-127853404D01*
G37*
G36*
X67306104Y-127853404D02*
G01*
X67330373Y-127857004D01*
X67354171Y-127862965D01*
X67377271Y-127871230D01*
X67399449Y-127881720D01*
X67420493Y-127894333D01*
X67440198Y-127908947D01*
X67458377Y-127925423D01*
X67474853Y-127943602D01*
X67489467Y-127963307D01*
X67502080Y-127984351D01*
X67512570Y-128006529D01*
X67520835Y-128029629D01*
X67526796Y-128053427D01*
X67530396Y-128077696D01*
X67531600Y-128102200D01*
X67531600Y-129352200D01*
X67530396Y-129376704D01*
X67526796Y-129400973D01*
X67520835Y-129424771D01*
X67512570Y-129447871D01*
X67502080Y-129470049D01*
X67489467Y-129491093D01*
X67474853Y-129510798D01*
X67458377Y-129528977D01*
X67440198Y-129545453D01*
X67420493Y-129560067D01*
X67399449Y-129572680D01*
X67377271Y-129583170D01*
X67354171Y-129591435D01*
X67330373Y-129597396D01*
X67306104Y-129600996D01*
X67281600Y-129602200D01*
X66531600Y-129602200D01*
X66507096Y-129600996D01*
X66482827Y-129597396D01*
X66459029Y-129591435D01*
X66435929Y-129583170D01*
X66413751Y-129572680D01*
X66392707Y-129560067D01*
X66373002Y-129545453D01*
X66354823Y-129528977D01*
X66338347Y-129510798D01*
X66323733Y-129491093D01*
X66311120Y-129470049D01*
X66300630Y-129447871D01*
X66292365Y-129424771D01*
X66286404Y-129400973D01*
X66282804Y-129376704D01*
X66281600Y-129352200D01*
X66281600Y-128102200D01*
X66282804Y-128077696D01*
X66286404Y-128053427D01*
X66292365Y-128029629D01*
X66300630Y-128006529D01*
X66311120Y-127984351D01*
X66323733Y-127963307D01*
X66338347Y-127943602D01*
X66354823Y-127925423D01*
X66373002Y-127908947D01*
X66392707Y-127894333D01*
X66413751Y-127881720D01*
X66435929Y-127871230D01*
X66459029Y-127862965D01*
X66482827Y-127857004D01*
X66507096Y-127853404D01*
X66531600Y-127852200D01*
X67281600Y-127852200D01*
X67306104Y-127853404D01*
G37*
G36*
X64506104Y-127853404D02*
G01*
X64530373Y-127857004D01*
X64554171Y-127862965D01*
X64577271Y-127871230D01*
X64599449Y-127881720D01*
X64620493Y-127894333D01*
X64640198Y-127908947D01*
X64658377Y-127925423D01*
X64674853Y-127943602D01*
X64689467Y-127963307D01*
X64702080Y-127984351D01*
X64712570Y-128006529D01*
X64720835Y-128029629D01*
X64726796Y-128053427D01*
X64730396Y-128077696D01*
X64731600Y-128102200D01*
X64731600Y-129352200D01*
X64730396Y-129376704D01*
X64726796Y-129400973D01*
X64720835Y-129424771D01*
X64712570Y-129447871D01*
X64702080Y-129470049D01*
X64689467Y-129491093D01*
X64674853Y-129510798D01*
X64658377Y-129528977D01*
X64640198Y-129545453D01*
X64620493Y-129560067D01*
X64599449Y-129572680D01*
X64577271Y-129583170D01*
X64554171Y-129591435D01*
X64530373Y-129597396D01*
X64506104Y-129600996D01*
X64481600Y-129602200D01*
X63731600Y-129602200D01*
X63707096Y-129600996D01*
X63682827Y-129597396D01*
X63659029Y-129591435D01*
X63635929Y-129583170D01*
X63613751Y-129572680D01*
X63592707Y-129560067D01*
X63573002Y-129545453D01*
X63554823Y-129528977D01*
X63538347Y-129510798D01*
X63523733Y-129491093D01*
X63511120Y-129470049D01*
X63500630Y-129447871D01*
X63492365Y-129424771D01*
X63486404Y-129400973D01*
X63482804Y-129376704D01*
X63481600Y-129352200D01*
X63481600Y-128102200D01*
X63482804Y-128077696D01*
X63486404Y-128053427D01*
X63492365Y-128029629D01*
X63500630Y-128006529D01*
X63511120Y-127984351D01*
X63523733Y-127963307D01*
X63538347Y-127943602D01*
X63554823Y-127925423D01*
X63573002Y-127908947D01*
X63592707Y-127894333D01*
X63613751Y-127881720D01*
X63635929Y-127871230D01*
X63659029Y-127862965D01*
X63682827Y-127857004D01*
X63707096Y-127853404D01*
X63731600Y-127852200D01*
X64481600Y-127852200D01*
X64506104Y-127853404D01*
G37*
G36*
X86356104Y-127853404D02*
G01*
X86380373Y-127857004D01*
X86404171Y-127862965D01*
X86427271Y-127871230D01*
X86449449Y-127881720D01*
X86470493Y-127894333D01*
X86490198Y-127908947D01*
X86508377Y-127925423D01*
X86524853Y-127943602D01*
X86539467Y-127963307D01*
X86552080Y-127984351D01*
X86562570Y-128006529D01*
X86570835Y-128029629D01*
X86576796Y-128053427D01*
X86580396Y-128077696D01*
X86581600Y-128102200D01*
X86581600Y-129352200D01*
X86580396Y-129376704D01*
X86576796Y-129400973D01*
X86570835Y-129424771D01*
X86562570Y-129447871D01*
X86552080Y-129470049D01*
X86539467Y-129491093D01*
X86524853Y-129510798D01*
X86508377Y-129528977D01*
X86490198Y-129545453D01*
X86470493Y-129560067D01*
X86449449Y-129572680D01*
X86427271Y-129583170D01*
X86404171Y-129591435D01*
X86380373Y-129597396D01*
X86356104Y-129600996D01*
X86331600Y-129602200D01*
X85581600Y-129602200D01*
X85557096Y-129600996D01*
X85532827Y-129597396D01*
X85509029Y-129591435D01*
X85485929Y-129583170D01*
X85463751Y-129572680D01*
X85442707Y-129560067D01*
X85423002Y-129545453D01*
X85404823Y-129528977D01*
X85388347Y-129510798D01*
X85373733Y-129491093D01*
X85361120Y-129470049D01*
X85350630Y-129447871D01*
X85342365Y-129424771D01*
X85336404Y-129400973D01*
X85332804Y-129376704D01*
X85331600Y-129352200D01*
X85331600Y-128102200D01*
X85332804Y-128077696D01*
X85336404Y-128053427D01*
X85342365Y-128029629D01*
X85350630Y-128006529D01*
X85361120Y-127984351D01*
X85373733Y-127963307D01*
X85388347Y-127943602D01*
X85404823Y-127925423D01*
X85423002Y-127908947D01*
X85442707Y-127894333D01*
X85463751Y-127881720D01*
X85485929Y-127871230D01*
X85509029Y-127862965D01*
X85532827Y-127857004D01*
X85557096Y-127853404D01*
X85581600Y-127852200D01*
X86331600Y-127852200D01*
X86356104Y-127853404D01*
G37*
G36*
X83556104Y-127853404D02*
G01*
X83580373Y-127857004D01*
X83604171Y-127862965D01*
X83627271Y-127871230D01*
X83649449Y-127881720D01*
X83670493Y-127894333D01*
X83690198Y-127908947D01*
X83708377Y-127925423D01*
X83724853Y-127943602D01*
X83739467Y-127963307D01*
X83752080Y-127984351D01*
X83762570Y-128006529D01*
X83770835Y-128029629D01*
X83776796Y-128053427D01*
X83780396Y-128077696D01*
X83781600Y-128102200D01*
X83781600Y-129352200D01*
X83780396Y-129376704D01*
X83776796Y-129400973D01*
X83770835Y-129424771D01*
X83762570Y-129447871D01*
X83752080Y-129470049D01*
X83739467Y-129491093D01*
X83724853Y-129510798D01*
X83708377Y-129528977D01*
X83690198Y-129545453D01*
X83670493Y-129560067D01*
X83649449Y-129572680D01*
X83627271Y-129583170D01*
X83604171Y-129591435D01*
X83580373Y-129597396D01*
X83556104Y-129600996D01*
X83531600Y-129602200D01*
X82781600Y-129602200D01*
X82757096Y-129600996D01*
X82732827Y-129597396D01*
X82709029Y-129591435D01*
X82685929Y-129583170D01*
X82663751Y-129572680D01*
X82642707Y-129560067D01*
X82623002Y-129545453D01*
X82604823Y-129528977D01*
X82588347Y-129510798D01*
X82573733Y-129491093D01*
X82561120Y-129470049D01*
X82550630Y-129447871D01*
X82542365Y-129424771D01*
X82536404Y-129400973D01*
X82532804Y-129376704D01*
X82531600Y-129352200D01*
X82531600Y-128102200D01*
X82532804Y-128077696D01*
X82536404Y-128053427D01*
X82542365Y-128029629D01*
X82550630Y-128006529D01*
X82561120Y-127984351D01*
X82573733Y-127963307D01*
X82588347Y-127943602D01*
X82604823Y-127925423D01*
X82623002Y-127908947D01*
X82642707Y-127894333D01*
X82663751Y-127881720D01*
X82685929Y-127871230D01*
X82709029Y-127862965D01*
X82732827Y-127857004D01*
X82757096Y-127853404D01*
X82781600Y-127852200D01*
X83531600Y-127852200D01*
X83556104Y-127853404D01*
G37*
G36*
X105406104Y-127853404D02*
G01*
X105430373Y-127857004D01*
X105454171Y-127862965D01*
X105477271Y-127871230D01*
X105499449Y-127881720D01*
X105520493Y-127894333D01*
X105540198Y-127908947D01*
X105558377Y-127925423D01*
X105574853Y-127943602D01*
X105589467Y-127963307D01*
X105602080Y-127984351D01*
X105612570Y-128006529D01*
X105620835Y-128029629D01*
X105626796Y-128053427D01*
X105630396Y-128077696D01*
X105631600Y-128102200D01*
X105631600Y-129352200D01*
X105630396Y-129376704D01*
X105626796Y-129400973D01*
X105620835Y-129424771D01*
X105612570Y-129447871D01*
X105602080Y-129470049D01*
X105589467Y-129491093D01*
X105574853Y-129510798D01*
X105558377Y-129528977D01*
X105540198Y-129545453D01*
X105520493Y-129560067D01*
X105499449Y-129572680D01*
X105477271Y-129583170D01*
X105454171Y-129591435D01*
X105430373Y-129597396D01*
X105406104Y-129600996D01*
X105381600Y-129602200D01*
X104631600Y-129602200D01*
X104607096Y-129600996D01*
X104582827Y-129597396D01*
X104559029Y-129591435D01*
X104535929Y-129583170D01*
X104513751Y-129572680D01*
X104492707Y-129560067D01*
X104473002Y-129545453D01*
X104454823Y-129528977D01*
X104438347Y-129510798D01*
X104423733Y-129491093D01*
X104411120Y-129470049D01*
X104400630Y-129447871D01*
X104392365Y-129424771D01*
X104386404Y-129400973D01*
X104382804Y-129376704D01*
X104381600Y-129352200D01*
X104381600Y-128102200D01*
X104382804Y-128077696D01*
X104386404Y-128053427D01*
X104392365Y-128029629D01*
X104400630Y-128006529D01*
X104411120Y-127984351D01*
X104423733Y-127963307D01*
X104438347Y-127943602D01*
X104454823Y-127925423D01*
X104473002Y-127908947D01*
X104492707Y-127894333D01*
X104513751Y-127881720D01*
X104535929Y-127871230D01*
X104559029Y-127862965D01*
X104582827Y-127857004D01*
X104607096Y-127853404D01*
X104631600Y-127852200D01*
X105381600Y-127852200D01*
X105406104Y-127853404D01*
G37*
G36*
X102606104Y-127853404D02*
G01*
X102630373Y-127857004D01*
X102654171Y-127862965D01*
X102677271Y-127871230D01*
X102699449Y-127881720D01*
X102720493Y-127894333D01*
X102740198Y-127908947D01*
X102758377Y-127925423D01*
X102774853Y-127943602D01*
X102789467Y-127963307D01*
X102802080Y-127984351D01*
X102812570Y-128006529D01*
X102820835Y-128029629D01*
X102826796Y-128053427D01*
X102830396Y-128077696D01*
X102831600Y-128102200D01*
X102831600Y-129352200D01*
X102830396Y-129376704D01*
X102826796Y-129400973D01*
X102820835Y-129424771D01*
X102812570Y-129447871D01*
X102802080Y-129470049D01*
X102789467Y-129491093D01*
X102774853Y-129510798D01*
X102758377Y-129528977D01*
X102740198Y-129545453D01*
X102720493Y-129560067D01*
X102699449Y-129572680D01*
X102677271Y-129583170D01*
X102654171Y-129591435D01*
X102630373Y-129597396D01*
X102606104Y-129600996D01*
X102581600Y-129602200D01*
X101831600Y-129602200D01*
X101807096Y-129600996D01*
X101782827Y-129597396D01*
X101759029Y-129591435D01*
X101735929Y-129583170D01*
X101713751Y-129572680D01*
X101692707Y-129560067D01*
X101673002Y-129545453D01*
X101654823Y-129528977D01*
X101638347Y-129510798D01*
X101623733Y-129491093D01*
X101611120Y-129470049D01*
X101600630Y-129447871D01*
X101592365Y-129424771D01*
X101586404Y-129400973D01*
X101582804Y-129376704D01*
X101581600Y-129352200D01*
X101581600Y-128102200D01*
X101582804Y-128077696D01*
X101586404Y-128053427D01*
X101592365Y-128029629D01*
X101600630Y-128006529D01*
X101611120Y-127984351D01*
X101623733Y-127963307D01*
X101638347Y-127943602D01*
X101654823Y-127925423D01*
X101673002Y-127908947D01*
X101692707Y-127894333D01*
X101713751Y-127881720D01*
X101735929Y-127871230D01*
X101759029Y-127862965D01*
X101782827Y-127857004D01*
X101807096Y-127853404D01*
X101831600Y-127852200D01*
X102581600Y-127852200D01*
X102606104Y-127853404D01*
G37*
G36*
X121656104Y-127853404D02*
G01*
X121680373Y-127857004D01*
X121704171Y-127862965D01*
X121727271Y-127871230D01*
X121749449Y-127881720D01*
X121770493Y-127894333D01*
X121790198Y-127908947D01*
X121808377Y-127925423D01*
X121824853Y-127943602D01*
X121839467Y-127963307D01*
X121852080Y-127984351D01*
X121862570Y-128006529D01*
X121870835Y-128029629D01*
X121876796Y-128053427D01*
X121880396Y-128077696D01*
X121881600Y-128102200D01*
X121881600Y-129352200D01*
X121880396Y-129376704D01*
X121876796Y-129400973D01*
X121870835Y-129424771D01*
X121862570Y-129447871D01*
X121852080Y-129470049D01*
X121839467Y-129491093D01*
X121824853Y-129510798D01*
X121808377Y-129528977D01*
X121790198Y-129545453D01*
X121770493Y-129560067D01*
X121749449Y-129572680D01*
X121727271Y-129583170D01*
X121704171Y-129591435D01*
X121680373Y-129597396D01*
X121656104Y-129600996D01*
X121631600Y-129602200D01*
X120881600Y-129602200D01*
X120857096Y-129600996D01*
X120832827Y-129597396D01*
X120809029Y-129591435D01*
X120785929Y-129583170D01*
X120763751Y-129572680D01*
X120742707Y-129560067D01*
X120723002Y-129545453D01*
X120704823Y-129528977D01*
X120688347Y-129510798D01*
X120673733Y-129491093D01*
X120661120Y-129470049D01*
X120650630Y-129447871D01*
X120642365Y-129424771D01*
X120636404Y-129400973D01*
X120632804Y-129376704D01*
X120631600Y-129352200D01*
X120631600Y-128102200D01*
X120632804Y-128077696D01*
X120636404Y-128053427D01*
X120642365Y-128029629D01*
X120650630Y-128006529D01*
X120661120Y-127984351D01*
X120673733Y-127963307D01*
X120688347Y-127943602D01*
X120704823Y-127925423D01*
X120723002Y-127908947D01*
X120742707Y-127894333D01*
X120763751Y-127881720D01*
X120785929Y-127871230D01*
X120809029Y-127862965D01*
X120832827Y-127857004D01*
X120857096Y-127853404D01*
X120881600Y-127852200D01*
X121631600Y-127852200D01*
X121656104Y-127853404D01*
G37*
G36*
X124456104Y-127853404D02*
G01*
X124480373Y-127857004D01*
X124504171Y-127862965D01*
X124527271Y-127871230D01*
X124549449Y-127881720D01*
X124570493Y-127894333D01*
X124590198Y-127908947D01*
X124608377Y-127925423D01*
X124624853Y-127943602D01*
X124639467Y-127963307D01*
X124652080Y-127984351D01*
X124662570Y-128006529D01*
X124670835Y-128029629D01*
X124676796Y-128053427D01*
X124680396Y-128077696D01*
X124681600Y-128102200D01*
X124681600Y-129352200D01*
X124680396Y-129376704D01*
X124676796Y-129400973D01*
X124670835Y-129424771D01*
X124662570Y-129447871D01*
X124652080Y-129470049D01*
X124639467Y-129491093D01*
X124624853Y-129510798D01*
X124608377Y-129528977D01*
X124590198Y-129545453D01*
X124570493Y-129560067D01*
X124549449Y-129572680D01*
X124527271Y-129583170D01*
X124504171Y-129591435D01*
X124480373Y-129597396D01*
X124456104Y-129600996D01*
X124431600Y-129602200D01*
X123681600Y-129602200D01*
X123657096Y-129600996D01*
X123632827Y-129597396D01*
X123609029Y-129591435D01*
X123585929Y-129583170D01*
X123563751Y-129572680D01*
X123542707Y-129560067D01*
X123523002Y-129545453D01*
X123504823Y-129528977D01*
X123488347Y-129510798D01*
X123473733Y-129491093D01*
X123461120Y-129470049D01*
X123450630Y-129447871D01*
X123442365Y-129424771D01*
X123436404Y-129400973D01*
X123432804Y-129376704D01*
X123431600Y-129352200D01*
X123431600Y-128102200D01*
X123432804Y-128077696D01*
X123436404Y-128053427D01*
X123442365Y-128029629D01*
X123450630Y-128006529D01*
X123461120Y-127984351D01*
X123473733Y-127963307D01*
X123488347Y-127943602D01*
X123504823Y-127925423D01*
X123523002Y-127908947D01*
X123542707Y-127894333D01*
X123563751Y-127881720D01*
X123585929Y-127871230D01*
X123609029Y-127862965D01*
X123632827Y-127857004D01*
X123657096Y-127853404D01*
X123681600Y-127852200D01*
X124431600Y-127852200D01*
X124456104Y-127853404D01*
G37*
G36*
X140706104Y-127853404D02*
G01*
X140730373Y-127857004D01*
X140754171Y-127862965D01*
X140777271Y-127871230D01*
X140799449Y-127881720D01*
X140820493Y-127894333D01*
X140840198Y-127908947D01*
X140858377Y-127925423D01*
X140874853Y-127943602D01*
X140889467Y-127963307D01*
X140902080Y-127984351D01*
X140912570Y-128006529D01*
X140920835Y-128029629D01*
X140926796Y-128053427D01*
X140930396Y-128077696D01*
X140931600Y-128102200D01*
X140931600Y-129352200D01*
X140930396Y-129376704D01*
X140926796Y-129400973D01*
X140920835Y-129424771D01*
X140912570Y-129447871D01*
X140902080Y-129470049D01*
X140889467Y-129491093D01*
X140874853Y-129510798D01*
X140858377Y-129528977D01*
X140840198Y-129545453D01*
X140820493Y-129560067D01*
X140799449Y-129572680D01*
X140777271Y-129583170D01*
X140754171Y-129591435D01*
X140730373Y-129597396D01*
X140706104Y-129600996D01*
X140681600Y-129602200D01*
X139931600Y-129602200D01*
X139907096Y-129600996D01*
X139882827Y-129597396D01*
X139859029Y-129591435D01*
X139835929Y-129583170D01*
X139813751Y-129572680D01*
X139792707Y-129560067D01*
X139773002Y-129545453D01*
X139754823Y-129528977D01*
X139738347Y-129510798D01*
X139723733Y-129491093D01*
X139711120Y-129470049D01*
X139700630Y-129447871D01*
X139692365Y-129424771D01*
X139686404Y-129400973D01*
X139682804Y-129376704D01*
X139681600Y-129352200D01*
X139681600Y-128102200D01*
X139682804Y-128077696D01*
X139686404Y-128053427D01*
X139692365Y-128029629D01*
X139700630Y-128006529D01*
X139711120Y-127984351D01*
X139723733Y-127963307D01*
X139738347Y-127943602D01*
X139754823Y-127925423D01*
X139773002Y-127908947D01*
X139792707Y-127894333D01*
X139813751Y-127881720D01*
X139835929Y-127871230D01*
X139859029Y-127862965D01*
X139882827Y-127857004D01*
X139907096Y-127853404D01*
X139931600Y-127852200D01*
X140681600Y-127852200D01*
X140706104Y-127853404D01*
G37*
G36*
X143506104Y-127853404D02*
G01*
X143530373Y-127857004D01*
X143554171Y-127862965D01*
X143577271Y-127871230D01*
X143599449Y-127881720D01*
X143620493Y-127894333D01*
X143640198Y-127908947D01*
X143658377Y-127925423D01*
X143674853Y-127943602D01*
X143689467Y-127963307D01*
X143702080Y-127984351D01*
X143712570Y-128006529D01*
X143720835Y-128029629D01*
X143726796Y-128053427D01*
X143730396Y-128077696D01*
X143731600Y-128102200D01*
X143731600Y-129352200D01*
X143730396Y-129376704D01*
X143726796Y-129400973D01*
X143720835Y-129424771D01*
X143712570Y-129447871D01*
X143702080Y-129470049D01*
X143689467Y-129491093D01*
X143674853Y-129510798D01*
X143658377Y-129528977D01*
X143640198Y-129545453D01*
X143620493Y-129560067D01*
X143599449Y-129572680D01*
X143577271Y-129583170D01*
X143554171Y-129591435D01*
X143530373Y-129597396D01*
X143506104Y-129600996D01*
X143481600Y-129602200D01*
X142731600Y-129602200D01*
X142707096Y-129600996D01*
X142682827Y-129597396D01*
X142659029Y-129591435D01*
X142635929Y-129583170D01*
X142613751Y-129572680D01*
X142592707Y-129560067D01*
X142573002Y-129545453D01*
X142554823Y-129528977D01*
X142538347Y-129510798D01*
X142523733Y-129491093D01*
X142511120Y-129470049D01*
X142500630Y-129447871D01*
X142492365Y-129424771D01*
X142486404Y-129400973D01*
X142482804Y-129376704D01*
X142481600Y-129352200D01*
X142481600Y-128102200D01*
X142482804Y-128077696D01*
X142486404Y-128053427D01*
X142492365Y-128029629D01*
X142500630Y-128006529D01*
X142511120Y-127984351D01*
X142523733Y-127963307D01*
X142538347Y-127943602D01*
X142554823Y-127925423D01*
X142573002Y-127908947D01*
X142592707Y-127894333D01*
X142613751Y-127881720D01*
X142635929Y-127871230D01*
X142659029Y-127862965D01*
X142682827Y-127857004D01*
X142707096Y-127853404D01*
X142731600Y-127852200D01*
X143481600Y-127852200D01*
X143506104Y-127853404D01*
G37*
G36*
X159756104Y-127853404D02*
G01*
X159780373Y-127857004D01*
X159804171Y-127862965D01*
X159827271Y-127871230D01*
X159849449Y-127881720D01*
X159870493Y-127894333D01*
X159890198Y-127908947D01*
X159908377Y-127925423D01*
X159924853Y-127943602D01*
X159939467Y-127963307D01*
X159952080Y-127984351D01*
X159962570Y-128006529D01*
X159970835Y-128029629D01*
X159976796Y-128053427D01*
X159980396Y-128077696D01*
X159981600Y-128102200D01*
X159981600Y-129352200D01*
X159980396Y-129376704D01*
X159976796Y-129400973D01*
X159970835Y-129424771D01*
X159962570Y-129447871D01*
X159952080Y-129470049D01*
X159939467Y-129491093D01*
X159924853Y-129510798D01*
X159908377Y-129528977D01*
X159890198Y-129545453D01*
X159870493Y-129560067D01*
X159849449Y-129572680D01*
X159827271Y-129583170D01*
X159804171Y-129591435D01*
X159780373Y-129597396D01*
X159756104Y-129600996D01*
X159731600Y-129602200D01*
X158981600Y-129602200D01*
X158957096Y-129600996D01*
X158932827Y-129597396D01*
X158909029Y-129591435D01*
X158885929Y-129583170D01*
X158863751Y-129572680D01*
X158842707Y-129560067D01*
X158823002Y-129545453D01*
X158804823Y-129528977D01*
X158788347Y-129510798D01*
X158773733Y-129491093D01*
X158761120Y-129470049D01*
X158750630Y-129447871D01*
X158742365Y-129424771D01*
X158736404Y-129400973D01*
X158732804Y-129376704D01*
X158731600Y-129352200D01*
X158731600Y-128102200D01*
X158732804Y-128077696D01*
X158736404Y-128053427D01*
X158742365Y-128029629D01*
X158750630Y-128006529D01*
X158761120Y-127984351D01*
X158773733Y-127963307D01*
X158788347Y-127943602D01*
X158804823Y-127925423D01*
X158823002Y-127908947D01*
X158842707Y-127894333D01*
X158863751Y-127881720D01*
X158885929Y-127871230D01*
X158909029Y-127862965D01*
X158932827Y-127857004D01*
X158957096Y-127853404D01*
X158981600Y-127852200D01*
X159731600Y-127852200D01*
X159756104Y-127853404D01*
G37*
G36*
X162556104Y-127853404D02*
G01*
X162580373Y-127857004D01*
X162604171Y-127862965D01*
X162627271Y-127871230D01*
X162649449Y-127881720D01*
X162670493Y-127894333D01*
X162690198Y-127908947D01*
X162708377Y-127925423D01*
X162724853Y-127943602D01*
X162739467Y-127963307D01*
X162752080Y-127984351D01*
X162762570Y-128006529D01*
X162770835Y-128029629D01*
X162776796Y-128053427D01*
X162780396Y-128077696D01*
X162781600Y-128102200D01*
X162781600Y-129352200D01*
X162780396Y-129376704D01*
X162776796Y-129400973D01*
X162770835Y-129424771D01*
X162762570Y-129447871D01*
X162752080Y-129470049D01*
X162739467Y-129491093D01*
X162724853Y-129510798D01*
X162708377Y-129528977D01*
X162690198Y-129545453D01*
X162670493Y-129560067D01*
X162649449Y-129572680D01*
X162627271Y-129583170D01*
X162604171Y-129591435D01*
X162580373Y-129597396D01*
X162556104Y-129600996D01*
X162531600Y-129602200D01*
X161781600Y-129602200D01*
X161757096Y-129600996D01*
X161732827Y-129597396D01*
X161709029Y-129591435D01*
X161685929Y-129583170D01*
X161663751Y-129572680D01*
X161642707Y-129560067D01*
X161623002Y-129545453D01*
X161604823Y-129528977D01*
X161588347Y-129510798D01*
X161573733Y-129491093D01*
X161561120Y-129470049D01*
X161550630Y-129447871D01*
X161542365Y-129424771D01*
X161536404Y-129400973D01*
X161532804Y-129376704D01*
X161531600Y-129352200D01*
X161531600Y-128102200D01*
X161532804Y-128077696D01*
X161536404Y-128053427D01*
X161542365Y-128029629D01*
X161550630Y-128006529D01*
X161561120Y-127984351D01*
X161573733Y-127963307D01*
X161588347Y-127943602D01*
X161604823Y-127925423D01*
X161623002Y-127908947D01*
X161642707Y-127894333D01*
X161663751Y-127881720D01*
X161685929Y-127871230D01*
X161709029Y-127862965D01*
X161732827Y-127857004D01*
X161757096Y-127853404D01*
X161781600Y-127852200D01*
X162531600Y-127852200D01*
X162556104Y-127853404D01*
G37*
G36*
X178806104Y-127853404D02*
G01*
X178830373Y-127857004D01*
X178854171Y-127862965D01*
X178877271Y-127871230D01*
X178899449Y-127881720D01*
X178920493Y-127894333D01*
X178940198Y-127908947D01*
X178958377Y-127925423D01*
X178974853Y-127943602D01*
X178989467Y-127963307D01*
X179002080Y-127984351D01*
X179012570Y-128006529D01*
X179020835Y-128029629D01*
X179026796Y-128053427D01*
X179030396Y-128077696D01*
X179031600Y-128102200D01*
X179031600Y-129352200D01*
X179030396Y-129376704D01*
X179026796Y-129400973D01*
X179020835Y-129424771D01*
X179012570Y-129447871D01*
X179002080Y-129470049D01*
X178989467Y-129491093D01*
X178974853Y-129510798D01*
X178958377Y-129528977D01*
X178940198Y-129545453D01*
X178920493Y-129560067D01*
X178899449Y-129572680D01*
X178877271Y-129583170D01*
X178854171Y-129591435D01*
X178830373Y-129597396D01*
X178806104Y-129600996D01*
X178781600Y-129602200D01*
X178031600Y-129602200D01*
X178007096Y-129600996D01*
X177982827Y-129597396D01*
X177959029Y-129591435D01*
X177935929Y-129583170D01*
X177913751Y-129572680D01*
X177892707Y-129560067D01*
X177873002Y-129545453D01*
X177854823Y-129528977D01*
X177838347Y-129510798D01*
X177823733Y-129491093D01*
X177811120Y-129470049D01*
X177800630Y-129447871D01*
X177792365Y-129424771D01*
X177786404Y-129400973D01*
X177782804Y-129376704D01*
X177781600Y-129352200D01*
X177781600Y-128102200D01*
X177782804Y-128077696D01*
X177786404Y-128053427D01*
X177792365Y-128029629D01*
X177800630Y-128006529D01*
X177811120Y-127984351D01*
X177823733Y-127963307D01*
X177838347Y-127943602D01*
X177854823Y-127925423D01*
X177873002Y-127908947D01*
X177892707Y-127894333D01*
X177913751Y-127881720D01*
X177935929Y-127871230D01*
X177959029Y-127862965D01*
X177982827Y-127857004D01*
X178007096Y-127853404D01*
X178031600Y-127852200D01*
X178781600Y-127852200D01*
X178806104Y-127853404D01*
G37*
G36*
X181606104Y-127853404D02*
G01*
X181630373Y-127857004D01*
X181654171Y-127862965D01*
X181677271Y-127871230D01*
X181699449Y-127881720D01*
X181720493Y-127894333D01*
X181740198Y-127908947D01*
X181758377Y-127925423D01*
X181774853Y-127943602D01*
X181789467Y-127963307D01*
X181802080Y-127984351D01*
X181812570Y-128006529D01*
X181820835Y-128029629D01*
X181826796Y-128053427D01*
X181830396Y-128077696D01*
X181831600Y-128102200D01*
X181831600Y-129352200D01*
X181830396Y-129376704D01*
X181826796Y-129400973D01*
X181820835Y-129424771D01*
X181812570Y-129447871D01*
X181802080Y-129470049D01*
X181789467Y-129491093D01*
X181774853Y-129510798D01*
X181758377Y-129528977D01*
X181740198Y-129545453D01*
X181720493Y-129560067D01*
X181699449Y-129572680D01*
X181677271Y-129583170D01*
X181654171Y-129591435D01*
X181630373Y-129597396D01*
X181606104Y-129600996D01*
X181581600Y-129602200D01*
X180831600Y-129602200D01*
X180807096Y-129600996D01*
X180782827Y-129597396D01*
X180759029Y-129591435D01*
X180735929Y-129583170D01*
X180713751Y-129572680D01*
X180692707Y-129560067D01*
X180673002Y-129545453D01*
X180654823Y-129528977D01*
X180638347Y-129510798D01*
X180623733Y-129491093D01*
X180611120Y-129470049D01*
X180600630Y-129447871D01*
X180592365Y-129424771D01*
X180586404Y-129400973D01*
X180582804Y-129376704D01*
X180581600Y-129352200D01*
X180581600Y-128102200D01*
X180582804Y-128077696D01*
X180586404Y-128053427D01*
X180592365Y-128029629D01*
X180600630Y-128006529D01*
X180611120Y-127984351D01*
X180623733Y-127963307D01*
X180638347Y-127943602D01*
X180654823Y-127925423D01*
X180673002Y-127908947D01*
X180692707Y-127894333D01*
X180713751Y-127881720D01*
X180735929Y-127871230D01*
X180759029Y-127862965D01*
X180782827Y-127857004D01*
X180807096Y-127853404D01*
X180831600Y-127852200D01*
X181581600Y-127852200D01*
X181606104Y-127853404D01*
G37*
G36*
X48256104Y-146903404D02*
G01*
X48280373Y-146907004D01*
X48304171Y-146912965D01*
X48327271Y-146921230D01*
X48349449Y-146931720D01*
X48370493Y-146944333D01*
X48390198Y-146958947D01*
X48408377Y-146975423D01*
X48424853Y-146993602D01*
X48439467Y-147013307D01*
X48452080Y-147034351D01*
X48462570Y-147056529D01*
X48470835Y-147079629D01*
X48476796Y-147103427D01*
X48480396Y-147127696D01*
X48481600Y-147152200D01*
X48481600Y-148402200D01*
X48480396Y-148426704D01*
X48476796Y-148450973D01*
X48470835Y-148474771D01*
X48462570Y-148497871D01*
X48452080Y-148520049D01*
X48439467Y-148541093D01*
X48424853Y-148560798D01*
X48408377Y-148578977D01*
X48390198Y-148595453D01*
X48370493Y-148610067D01*
X48349449Y-148622680D01*
X48327271Y-148633170D01*
X48304171Y-148641435D01*
X48280373Y-148647396D01*
X48256104Y-148650996D01*
X48231600Y-148652200D01*
X47481600Y-148652200D01*
X47457096Y-148650996D01*
X47432827Y-148647396D01*
X47409029Y-148641435D01*
X47385929Y-148633170D01*
X47363751Y-148622680D01*
X47342707Y-148610067D01*
X47323002Y-148595453D01*
X47304823Y-148578977D01*
X47288347Y-148560798D01*
X47273733Y-148541093D01*
X47261120Y-148520049D01*
X47250630Y-148497871D01*
X47242365Y-148474771D01*
X47236404Y-148450973D01*
X47232804Y-148426704D01*
X47231600Y-148402200D01*
X47231600Y-147152200D01*
X47232804Y-147127696D01*
X47236404Y-147103427D01*
X47242365Y-147079629D01*
X47250630Y-147056529D01*
X47261120Y-147034351D01*
X47273733Y-147013307D01*
X47288347Y-146993602D01*
X47304823Y-146975423D01*
X47323002Y-146958947D01*
X47342707Y-146944333D01*
X47363751Y-146931720D01*
X47385929Y-146921230D01*
X47409029Y-146912965D01*
X47432827Y-146907004D01*
X47457096Y-146903404D01*
X47481600Y-146902200D01*
X48231600Y-146902200D01*
X48256104Y-146903404D01*
G37*
G36*
X45456104Y-146903404D02*
G01*
X45480373Y-146907004D01*
X45504171Y-146912965D01*
X45527271Y-146921230D01*
X45549449Y-146931720D01*
X45570493Y-146944333D01*
X45590198Y-146958947D01*
X45608377Y-146975423D01*
X45624853Y-146993602D01*
X45639467Y-147013307D01*
X45652080Y-147034351D01*
X45662570Y-147056529D01*
X45670835Y-147079629D01*
X45676796Y-147103427D01*
X45680396Y-147127696D01*
X45681600Y-147152200D01*
X45681600Y-148402200D01*
X45680396Y-148426704D01*
X45676796Y-148450973D01*
X45670835Y-148474771D01*
X45662570Y-148497871D01*
X45652080Y-148520049D01*
X45639467Y-148541093D01*
X45624853Y-148560798D01*
X45608377Y-148578977D01*
X45590198Y-148595453D01*
X45570493Y-148610067D01*
X45549449Y-148622680D01*
X45527271Y-148633170D01*
X45504171Y-148641435D01*
X45480373Y-148647396D01*
X45456104Y-148650996D01*
X45431600Y-148652200D01*
X44681600Y-148652200D01*
X44657096Y-148650996D01*
X44632827Y-148647396D01*
X44609029Y-148641435D01*
X44585929Y-148633170D01*
X44563751Y-148622680D01*
X44542707Y-148610067D01*
X44523002Y-148595453D01*
X44504823Y-148578977D01*
X44488347Y-148560798D01*
X44473733Y-148541093D01*
X44461120Y-148520049D01*
X44450630Y-148497871D01*
X44442365Y-148474771D01*
X44436404Y-148450973D01*
X44432804Y-148426704D01*
X44431600Y-148402200D01*
X44431600Y-147152200D01*
X44432804Y-147127696D01*
X44436404Y-147103427D01*
X44442365Y-147079629D01*
X44450630Y-147056529D01*
X44461120Y-147034351D01*
X44473733Y-147013307D01*
X44488347Y-146993602D01*
X44504823Y-146975423D01*
X44523002Y-146958947D01*
X44542707Y-146944333D01*
X44563751Y-146931720D01*
X44585929Y-146921230D01*
X44609029Y-146912965D01*
X44632827Y-146907004D01*
X44657096Y-146903404D01*
X44681600Y-146902200D01*
X45431600Y-146902200D01*
X45456104Y-146903404D01*
G37*
G36*
X67306104Y-146903404D02*
G01*
X67330373Y-146907004D01*
X67354171Y-146912965D01*
X67377271Y-146921230D01*
X67399449Y-146931720D01*
X67420493Y-146944333D01*
X67440198Y-146958947D01*
X67458377Y-146975423D01*
X67474853Y-146993602D01*
X67489467Y-147013307D01*
X67502080Y-147034351D01*
X67512570Y-147056529D01*
X67520835Y-147079629D01*
X67526796Y-147103427D01*
X67530396Y-147127696D01*
X67531600Y-147152200D01*
X67531600Y-148402200D01*
X67530396Y-148426704D01*
X67526796Y-148450973D01*
X67520835Y-148474771D01*
X67512570Y-148497871D01*
X67502080Y-148520049D01*
X67489467Y-148541093D01*
X67474853Y-148560798D01*
X67458377Y-148578977D01*
X67440198Y-148595453D01*
X67420493Y-148610067D01*
X67399449Y-148622680D01*
X67377271Y-148633170D01*
X67354171Y-148641435D01*
X67330373Y-148647396D01*
X67306104Y-148650996D01*
X67281600Y-148652200D01*
X66531600Y-148652200D01*
X66507096Y-148650996D01*
X66482827Y-148647396D01*
X66459029Y-148641435D01*
X66435929Y-148633170D01*
X66413751Y-148622680D01*
X66392707Y-148610067D01*
X66373002Y-148595453D01*
X66354823Y-148578977D01*
X66338347Y-148560798D01*
X66323733Y-148541093D01*
X66311120Y-148520049D01*
X66300630Y-148497871D01*
X66292365Y-148474771D01*
X66286404Y-148450973D01*
X66282804Y-148426704D01*
X66281600Y-148402200D01*
X66281600Y-147152200D01*
X66282804Y-147127696D01*
X66286404Y-147103427D01*
X66292365Y-147079629D01*
X66300630Y-147056529D01*
X66311120Y-147034351D01*
X66323733Y-147013307D01*
X66338347Y-146993602D01*
X66354823Y-146975423D01*
X66373002Y-146958947D01*
X66392707Y-146944333D01*
X66413751Y-146931720D01*
X66435929Y-146921230D01*
X66459029Y-146912965D01*
X66482827Y-146907004D01*
X66507096Y-146903404D01*
X66531600Y-146902200D01*
X67281600Y-146902200D01*
X67306104Y-146903404D01*
G37*
G36*
X64506104Y-146903404D02*
G01*
X64530373Y-146907004D01*
X64554171Y-146912965D01*
X64577271Y-146921230D01*
X64599449Y-146931720D01*
X64620493Y-146944333D01*
X64640198Y-146958947D01*
X64658377Y-146975423D01*
X64674853Y-146993602D01*
X64689467Y-147013307D01*
X64702080Y-147034351D01*
X64712570Y-147056529D01*
X64720835Y-147079629D01*
X64726796Y-147103427D01*
X64730396Y-147127696D01*
X64731600Y-147152200D01*
X64731600Y-148402200D01*
X64730396Y-148426704D01*
X64726796Y-148450973D01*
X64720835Y-148474771D01*
X64712570Y-148497871D01*
X64702080Y-148520049D01*
X64689467Y-148541093D01*
X64674853Y-148560798D01*
X64658377Y-148578977D01*
X64640198Y-148595453D01*
X64620493Y-148610067D01*
X64599449Y-148622680D01*
X64577271Y-148633170D01*
X64554171Y-148641435D01*
X64530373Y-148647396D01*
X64506104Y-148650996D01*
X64481600Y-148652200D01*
X63731600Y-148652200D01*
X63707096Y-148650996D01*
X63682827Y-148647396D01*
X63659029Y-148641435D01*
X63635929Y-148633170D01*
X63613751Y-148622680D01*
X63592707Y-148610067D01*
X63573002Y-148595453D01*
X63554823Y-148578977D01*
X63538347Y-148560798D01*
X63523733Y-148541093D01*
X63511120Y-148520049D01*
X63500630Y-148497871D01*
X63492365Y-148474771D01*
X63486404Y-148450973D01*
X63482804Y-148426704D01*
X63481600Y-148402200D01*
X63481600Y-147152200D01*
X63482804Y-147127696D01*
X63486404Y-147103427D01*
X63492365Y-147079629D01*
X63500630Y-147056529D01*
X63511120Y-147034351D01*
X63523733Y-147013307D01*
X63538347Y-146993602D01*
X63554823Y-146975423D01*
X63573002Y-146958947D01*
X63592707Y-146944333D01*
X63613751Y-146931720D01*
X63635929Y-146921230D01*
X63659029Y-146912965D01*
X63682827Y-146907004D01*
X63707096Y-146903404D01*
X63731600Y-146902200D01*
X64481600Y-146902200D01*
X64506104Y-146903404D01*
G37*
G36*
X86356104Y-146903404D02*
G01*
X86380373Y-146907004D01*
X86404171Y-146912965D01*
X86427271Y-146921230D01*
X86449449Y-146931720D01*
X86470493Y-146944333D01*
X86490198Y-146958947D01*
X86508377Y-146975423D01*
X86524853Y-146993602D01*
X86539467Y-147013307D01*
X86552080Y-147034351D01*
X86562570Y-147056529D01*
X86570835Y-147079629D01*
X86576796Y-147103427D01*
X86580396Y-147127696D01*
X86581600Y-147152200D01*
X86581600Y-148402200D01*
X86580396Y-148426704D01*
X86576796Y-148450973D01*
X86570835Y-148474771D01*
X86562570Y-148497871D01*
X86552080Y-148520049D01*
X86539467Y-148541093D01*
X86524853Y-148560798D01*
X86508377Y-148578977D01*
X86490198Y-148595453D01*
X86470493Y-148610067D01*
X86449449Y-148622680D01*
X86427271Y-148633170D01*
X86404171Y-148641435D01*
X86380373Y-148647396D01*
X86356104Y-148650996D01*
X86331600Y-148652200D01*
X85581600Y-148652200D01*
X85557096Y-148650996D01*
X85532827Y-148647396D01*
X85509029Y-148641435D01*
X85485929Y-148633170D01*
X85463751Y-148622680D01*
X85442707Y-148610067D01*
X85423002Y-148595453D01*
X85404823Y-148578977D01*
X85388347Y-148560798D01*
X85373733Y-148541093D01*
X85361120Y-148520049D01*
X85350630Y-148497871D01*
X85342365Y-148474771D01*
X85336404Y-148450973D01*
X85332804Y-148426704D01*
X85331600Y-148402200D01*
X85331600Y-147152200D01*
X85332804Y-147127696D01*
X85336404Y-147103427D01*
X85342365Y-147079629D01*
X85350630Y-147056529D01*
X85361120Y-147034351D01*
X85373733Y-147013307D01*
X85388347Y-146993602D01*
X85404823Y-146975423D01*
X85423002Y-146958947D01*
X85442707Y-146944333D01*
X85463751Y-146931720D01*
X85485929Y-146921230D01*
X85509029Y-146912965D01*
X85532827Y-146907004D01*
X85557096Y-146903404D01*
X85581600Y-146902200D01*
X86331600Y-146902200D01*
X86356104Y-146903404D01*
G37*
G36*
X83556104Y-146903404D02*
G01*
X83580373Y-146907004D01*
X83604171Y-146912965D01*
X83627271Y-146921230D01*
X83649449Y-146931720D01*
X83670493Y-146944333D01*
X83690198Y-146958947D01*
X83708377Y-146975423D01*
X83724853Y-146993602D01*
X83739467Y-147013307D01*
X83752080Y-147034351D01*
X83762570Y-147056529D01*
X83770835Y-147079629D01*
X83776796Y-147103427D01*
X83780396Y-147127696D01*
X83781600Y-147152200D01*
X83781600Y-148402200D01*
X83780396Y-148426704D01*
X83776796Y-148450973D01*
X83770835Y-148474771D01*
X83762570Y-148497871D01*
X83752080Y-148520049D01*
X83739467Y-148541093D01*
X83724853Y-148560798D01*
X83708377Y-148578977D01*
X83690198Y-148595453D01*
X83670493Y-148610067D01*
X83649449Y-148622680D01*
X83627271Y-148633170D01*
X83604171Y-148641435D01*
X83580373Y-148647396D01*
X83556104Y-148650996D01*
X83531600Y-148652200D01*
X82781600Y-148652200D01*
X82757096Y-148650996D01*
X82732827Y-148647396D01*
X82709029Y-148641435D01*
X82685929Y-148633170D01*
X82663751Y-148622680D01*
X82642707Y-148610067D01*
X82623002Y-148595453D01*
X82604823Y-148578977D01*
X82588347Y-148560798D01*
X82573733Y-148541093D01*
X82561120Y-148520049D01*
X82550630Y-148497871D01*
X82542365Y-148474771D01*
X82536404Y-148450973D01*
X82532804Y-148426704D01*
X82531600Y-148402200D01*
X82531600Y-147152200D01*
X82532804Y-147127696D01*
X82536404Y-147103427D01*
X82542365Y-147079629D01*
X82550630Y-147056529D01*
X82561120Y-147034351D01*
X82573733Y-147013307D01*
X82588347Y-146993602D01*
X82604823Y-146975423D01*
X82623002Y-146958947D01*
X82642707Y-146944333D01*
X82663751Y-146931720D01*
X82685929Y-146921230D01*
X82709029Y-146912965D01*
X82732827Y-146907004D01*
X82757096Y-146903404D01*
X82781600Y-146902200D01*
X83531600Y-146902200D01*
X83556104Y-146903404D01*
G37*
G36*
X105406104Y-146903404D02*
G01*
X105430373Y-146907004D01*
X105454171Y-146912965D01*
X105477271Y-146921230D01*
X105499449Y-146931720D01*
X105520493Y-146944333D01*
X105540198Y-146958947D01*
X105558377Y-146975423D01*
X105574853Y-146993602D01*
X105589467Y-147013307D01*
X105602080Y-147034351D01*
X105612570Y-147056529D01*
X105620835Y-147079629D01*
X105626796Y-147103427D01*
X105630396Y-147127696D01*
X105631600Y-147152200D01*
X105631600Y-148402200D01*
X105630396Y-148426704D01*
X105626796Y-148450973D01*
X105620835Y-148474771D01*
X105612570Y-148497871D01*
X105602080Y-148520049D01*
X105589467Y-148541093D01*
X105574853Y-148560798D01*
X105558377Y-148578977D01*
X105540198Y-148595453D01*
X105520493Y-148610067D01*
X105499449Y-148622680D01*
X105477271Y-148633170D01*
X105454171Y-148641435D01*
X105430373Y-148647396D01*
X105406104Y-148650996D01*
X105381600Y-148652200D01*
X104631600Y-148652200D01*
X104607096Y-148650996D01*
X104582827Y-148647396D01*
X104559029Y-148641435D01*
X104535929Y-148633170D01*
X104513751Y-148622680D01*
X104492707Y-148610067D01*
X104473002Y-148595453D01*
X104454823Y-148578977D01*
X104438347Y-148560798D01*
X104423733Y-148541093D01*
X104411120Y-148520049D01*
X104400630Y-148497871D01*
X104392365Y-148474771D01*
X104386404Y-148450973D01*
X104382804Y-148426704D01*
X104381600Y-148402200D01*
X104381600Y-147152200D01*
X104382804Y-147127696D01*
X104386404Y-147103427D01*
X104392365Y-147079629D01*
X104400630Y-147056529D01*
X104411120Y-147034351D01*
X104423733Y-147013307D01*
X104438347Y-146993602D01*
X104454823Y-146975423D01*
X104473002Y-146958947D01*
X104492707Y-146944333D01*
X104513751Y-146931720D01*
X104535929Y-146921230D01*
X104559029Y-146912965D01*
X104582827Y-146907004D01*
X104607096Y-146903404D01*
X104631600Y-146902200D01*
X105381600Y-146902200D01*
X105406104Y-146903404D01*
G37*
G36*
X102606104Y-146903404D02*
G01*
X102630373Y-146907004D01*
X102654171Y-146912965D01*
X102677271Y-146921230D01*
X102699449Y-146931720D01*
X102720493Y-146944333D01*
X102740198Y-146958947D01*
X102758377Y-146975423D01*
X102774853Y-146993602D01*
X102789467Y-147013307D01*
X102802080Y-147034351D01*
X102812570Y-147056529D01*
X102820835Y-147079629D01*
X102826796Y-147103427D01*
X102830396Y-147127696D01*
X102831600Y-147152200D01*
X102831600Y-148402200D01*
X102830396Y-148426704D01*
X102826796Y-148450973D01*
X102820835Y-148474771D01*
X102812570Y-148497871D01*
X102802080Y-148520049D01*
X102789467Y-148541093D01*
X102774853Y-148560798D01*
X102758377Y-148578977D01*
X102740198Y-148595453D01*
X102720493Y-148610067D01*
X102699449Y-148622680D01*
X102677271Y-148633170D01*
X102654171Y-148641435D01*
X102630373Y-148647396D01*
X102606104Y-148650996D01*
X102581600Y-148652200D01*
X101831600Y-148652200D01*
X101807096Y-148650996D01*
X101782827Y-148647396D01*
X101759029Y-148641435D01*
X101735929Y-148633170D01*
X101713751Y-148622680D01*
X101692707Y-148610067D01*
X101673002Y-148595453D01*
X101654823Y-148578977D01*
X101638347Y-148560798D01*
X101623733Y-148541093D01*
X101611120Y-148520049D01*
X101600630Y-148497871D01*
X101592365Y-148474771D01*
X101586404Y-148450973D01*
X101582804Y-148426704D01*
X101581600Y-148402200D01*
X101581600Y-147152200D01*
X101582804Y-147127696D01*
X101586404Y-147103427D01*
X101592365Y-147079629D01*
X101600630Y-147056529D01*
X101611120Y-147034351D01*
X101623733Y-147013307D01*
X101638347Y-146993602D01*
X101654823Y-146975423D01*
X101673002Y-146958947D01*
X101692707Y-146944333D01*
X101713751Y-146931720D01*
X101735929Y-146921230D01*
X101759029Y-146912965D01*
X101782827Y-146907004D01*
X101807096Y-146903404D01*
X101831600Y-146902200D01*
X102581600Y-146902200D01*
X102606104Y-146903404D01*
G37*
G36*
X121656104Y-146903404D02*
G01*
X121680373Y-146907004D01*
X121704171Y-146912965D01*
X121727271Y-146921230D01*
X121749449Y-146931720D01*
X121770493Y-146944333D01*
X121790198Y-146958947D01*
X121808377Y-146975423D01*
X121824853Y-146993602D01*
X121839467Y-147013307D01*
X121852080Y-147034351D01*
X121862570Y-147056529D01*
X121870835Y-147079629D01*
X121876796Y-147103427D01*
X121880396Y-147127696D01*
X121881600Y-147152200D01*
X121881600Y-148402200D01*
X121880396Y-148426704D01*
X121876796Y-148450973D01*
X121870835Y-148474771D01*
X121862570Y-148497871D01*
X121852080Y-148520049D01*
X121839467Y-148541093D01*
X121824853Y-148560798D01*
X121808377Y-148578977D01*
X121790198Y-148595453D01*
X121770493Y-148610067D01*
X121749449Y-148622680D01*
X121727271Y-148633170D01*
X121704171Y-148641435D01*
X121680373Y-148647396D01*
X121656104Y-148650996D01*
X121631600Y-148652200D01*
X120881600Y-148652200D01*
X120857096Y-148650996D01*
X120832827Y-148647396D01*
X120809029Y-148641435D01*
X120785929Y-148633170D01*
X120763751Y-148622680D01*
X120742707Y-148610067D01*
X120723002Y-148595453D01*
X120704823Y-148578977D01*
X120688347Y-148560798D01*
X120673733Y-148541093D01*
X120661120Y-148520049D01*
X120650630Y-148497871D01*
X120642365Y-148474771D01*
X120636404Y-148450973D01*
X120632804Y-148426704D01*
X120631600Y-148402200D01*
X120631600Y-147152200D01*
X120632804Y-147127696D01*
X120636404Y-147103427D01*
X120642365Y-147079629D01*
X120650630Y-147056529D01*
X120661120Y-147034351D01*
X120673733Y-147013307D01*
X120688347Y-146993602D01*
X120704823Y-146975423D01*
X120723002Y-146958947D01*
X120742707Y-146944333D01*
X120763751Y-146931720D01*
X120785929Y-146921230D01*
X120809029Y-146912965D01*
X120832827Y-146907004D01*
X120857096Y-146903404D01*
X120881600Y-146902200D01*
X121631600Y-146902200D01*
X121656104Y-146903404D01*
G37*
G36*
X124456104Y-146903404D02*
G01*
X124480373Y-146907004D01*
X124504171Y-146912965D01*
X124527271Y-146921230D01*
X124549449Y-146931720D01*
X124570493Y-146944333D01*
X124590198Y-146958947D01*
X124608377Y-146975423D01*
X124624853Y-146993602D01*
X124639467Y-147013307D01*
X124652080Y-147034351D01*
X124662570Y-147056529D01*
X124670835Y-147079629D01*
X124676796Y-147103427D01*
X124680396Y-147127696D01*
X124681600Y-147152200D01*
X124681600Y-148402200D01*
X124680396Y-148426704D01*
X124676796Y-148450973D01*
X124670835Y-148474771D01*
X124662570Y-148497871D01*
X124652080Y-148520049D01*
X124639467Y-148541093D01*
X124624853Y-148560798D01*
X124608377Y-148578977D01*
X124590198Y-148595453D01*
X124570493Y-148610067D01*
X124549449Y-148622680D01*
X124527271Y-148633170D01*
X124504171Y-148641435D01*
X124480373Y-148647396D01*
X124456104Y-148650996D01*
X124431600Y-148652200D01*
X123681600Y-148652200D01*
X123657096Y-148650996D01*
X123632827Y-148647396D01*
X123609029Y-148641435D01*
X123585929Y-148633170D01*
X123563751Y-148622680D01*
X123542707Y-148610067D01*
X123523002Y-148595453D01*
X123504823Y-148578977D01*
X123488347Y-148560798D01*
X123473733Y-148541093D01*
X123461120Y-148520049D01*
X123450630Y-148497871D01*
X123442365Y-148474771D01*
X123436404Y-148450973D01*
X123432804Y-148426704D01*
X123431600Y-148402200D01*
X123431600Y-147152200D01*
X123432804Y-147127696D01*
X123436404Y-147103427D01*
X123442365Y-147079629D01*
X123450630Y-147056529D01*
X123461120Y-147034351D01*
X123473733Y-147013307D01*
X123488347Y-146993602D01*
X123504823Y-146975423D01*
X123523002Y-146958947D01*
X123542707Y-146944333D01*
X123563751Y-146931720D01*
X123585929Y-146921230D01*
X123609029Y-146912965D01*
X123632827Y-146907004D01*
X123657096Y-146903404D01*
X123681600Y-146902200D01*
X124431600Y-146902200D01*
X124456104Y-146903404D01*
G37*
G36*
X140706104Y-146903404D02*
G01*
X140730373Y-146907004D01*
X140754171Y-146912965D01*
X140777271Y-146921230D01*
X140799449Y-146931720D01*
X140820493Y-146944333D01*
X140840198Y-146958947D01*
X140858377Y-146975423D01*
X140874853Y-146993602D01*
X140889467Y-147013307D01*
X140902080Y-147034351D01*
X140912570Y-147056529D01*
X140920835Y-147079629D01*
X140926796Y-147103427D01*
X140930396Y-147127696D01*
X140931600Y-147152200D01*
X140931600Y-148402200D01*
X140930396Y-148426704D01*
X140926796Y-148450973D01*
X140920835Y-148474771D01*
X140912570Y-148497871D01*
X140902080Y-148520049D01*
X140889467Y-148541093D01*
X140874853Y-148560798D01*
X140858377Y-148578977D01*
X140840198Y-148595453D01*
X140820493Y-148610067D01*
X140799449Y-148622680D01*
X140777271Y-148633170D01*
X140754171Y-148641435D01*
X140730373Y-148647396D01*
X140706104Y-148650996D01*
X140681600Y-148652200D01*
X139931600Y-148652200D01*
X139907096Y-148650996D01*
X139882827Y-148647396D01*
X139859029Y-148641435D01*
X139835929Y-148633170D01*
X139813751Y-148622680D01*
X139792707Y-148610067D01*
X139773002Y-148595453D01*
X139754823Y-148578977D01*
X139738347Y-148560798D01*
X139723733Y-148541093D01*
X139711120Y-148520049D01*
X139700630Y-148497871D01*
X139692365Y-148474771D01*
X139686404Y-148450973D01*
X139682804Y-148426704D01*
X139681600Y-148402200D01*
X139681600Y-147152200D01*
X139682804Y-147127696D01*
X139686404Y-147103427D01*
X139692365Y-147079629D01*
X139700630Y-147056529D01*
X139711120Y-147034351D01*
X139723733Y-147013307D01*
X139738347Y-146993602D01*
X139754823Y-146975423D01*
X139773002Y-146958947D01*
X139792707Y-146944333D01*
X139813751Y-146931720D01*
X139835929Y-146921230D01*
X139859029Y-146912965D01*
X139882827Y-146907004D01*
X139907096Y-146903404D01*
X139931600Y-146902200D01*
X140681600Y-146902200D01*
X140706104Y-146903404D01*
G37*
G36*
X143506104Y-146903404D02*
G01*
X143530373Y-146907004D01*
X143554171Y-146912965D01*
X143577271Y-146921230D01*
X143599449Y-146931720D01*
X143620493Y-146944333D01*
X143640198Y-146958947D01*
X143658377Y-146975423D01*
X143674853Y-146993602D01*
X143689467Y-147013307D01*
X143702080Y-147034351D01*
X143712570Y-147056529D01*
X143720835Y-147079629D01*
X143726796Y-147103427D01*
X143730396Y-147127696D01*
X143731600Y-147152200D01*
X143731600Y-148402200D01*
X143730396Y-148426704D01*
X143726796Y-148450973D01*
X143720835Y-148474771D01*
X143712570Y-148497871D01*
X143702080Y-148520049D01*
X143689467Y-148541093D01*
X143674853Y-148560798D01*
X143658377Y-148578977D01*
X143640198Y-148595453D01*
X143620493Y-148610067D01*
X143599449Y-148622680D01*
X143577271Y-148633170D01*
X143554171Y-148641435D01*
X143530373Y-148647396D01*
X143506104Y-148650996D01*
X143481600Y-148652200D01*
X142731600Y-148652200D01*
X142707096Y-148650996D01*
X142682827Y-148647396D01*
X142659029Y-148641435D01*
X142635929Y-148633170D01*
X142613751Y-148622680D01*
X142592707Y-148610067D01*
X142573002Y-148595453D01*
X142554823Y-148578977D01*
X142538347Y-148560798D01*
X142523733Y-148541093D01*
X142511120Y-148520049D01*
X142500630Y-148497871D01*
X142492365Y-148474771D01*
X142486404Y-148450973D01*
X142482804Y-148426704D01*
X142481600Y-148402200D01*
X142481600Y-147152200D01*
X142482804Y-147127696D01*
X142486404Y-147103427D01*
X142492365Y-147079629D01*
X142500630Y-147056529D01*
X142511120Y-147034351D01*
X142523733Y-147013307D01*
X142538347Y-146993602D01*
X142554823Y-146975423D01*
X142573002Y-146958947D01*
X142592707Y-146944333D01*
X142613751Y-146931720D01*
X142635929Y-146921230D01*
X142659029Y-146912965D01*
X142682827Y-146907004D01*
X142707096Y-146903404D01*
X142731600Y-146902200D01*
X143481600Y-146902200D01*
X143506104Y-146903404D01*
G37*
G36*
X159756104Y-146903404D02*
G01*
X159780373Y-146907004D01*
X159804171Y-146912965D01*
X159827271Y-146921230D01*
X159849449Y-146931720D01*
X159870493Y-146944333D01*
X159890198Y-146958947D01*
X159908377Y-146975423D01*
X159924853Y-146993602D01*
X159939467Y-147013307D01*
X159952080Y-147034351D01*
X159962570Y-147056529D01*
X159970835Y-147079629D01*
X159976796Y-147103427D01*
X159980396Y-147127696D01*
X159981600Y-147152200D01*
X159981600Y-148402200D01*
X159980396Y-148426704D01*
X159976796Y-148450973D01*
X159970835Y-148474771D01*
X159962570Y-148497871D01*
X159952080Y-148520049D01*
X159939467Y-148541093D01*
X159924853Y-148560798D01*
X159908377Y-148578977D01*
X159890198Y-148595453D01*
X159870493Y-148610067D01*
X159849449Y-148622680D01*
X159827271Y-148633170D01*
X159804171Y-148641435D01*
X159780373Y-148647396D01*
X159756104Y-148650996D01*
X159731600Y-148652200D01*
X158981600Y-148652200D01*
X158957096Y-148650996D01*
X158932827Y-148647396D01*
X158909029Y-148641435D01*
X158885929Y-148633170D01*
X158863751Y-148622680D01*
X158842707Y-148610067D01*
X158823002Y-148595453D01*
X158804823Y-148578977D01*
X158788347Y-148560798D01*
X158773733Y-148541093D01*
X158761120Y-148520049D01*
X158750630Y-148497871D01*
X158742365Y-148474771D01*
X158736404Y-148450973D01*
X158732804Y-148426704D01*
X158731600Y-148402200D01*
X158731600Y-147152200D01*
X158732804Y-147127696D01*
X158736404Y-147103427D01*
X158742365Y-147079629D01*
X158750630Y-147056529D01*
X158761120Y-147034351D01*
X158773733Y-147013307D01*
X158788347Y-146993602D01*
X158804823Y-146975423D01*
X158823002Y-146958947D01*
X158842707Y-146944333D01*
X158863751Y-146931720D01*
X158885929Y-146921230D01*
X158909029Y-146912965D01*
X158932827Y-146907004D01*
X158957096Y-146903404D01*
X158981600Y-146902200D01*
X159731600Y-146902200D01*
X159756104Y-146903404D01*
G37*
G36*
X162556104Y-146903404D02*
G01*
X162580373Y-146907004D01*
X162604171Y-146912965D01*
X162627271Y-146921230D01*
X162649449Y-146931720D01*
X162670493Y-146944333D01*
X162690198Y-146958947D01*
X162708377Y-146975423D01*
X162724853Y-146993602D01*
X162739467Y-147013307D01*
X162752080Y-147034351D01*
X162762570Y-147056529D01*
X162770835Y-147079629D01*
X162776796Y-147103427D01*
X162780396Y-147127696D01*
X162781600Y-147152200D01*
X162781600Y-148402200D01*
X162780396Y-148426704D01*
X162776796Y-148450973D01*
X162770835Y-148474771D01*
X162762570Y-148497871D01*
X162752080Y-148520049D01*
X162739467Y-148541093D01*
X162724853Y-148560798D01*
X162708377Y-148578977D01*
X162690198Y-148595453D01*
X162670493Y-148610067D01*
X162649449Y-148622680D01*
X162627271Y-148633170D01*
X162604171Y-148641435D01*
X162580373Y-148647396D01*
X162556104Y-148650996D01*
X162531600Y-148652200D01*
X161781600Y-148652200D01*
X161757096Y-148650996D01*
X161732827Y-148647396D01*
X161709029Y-148641435D01*
X161685929Y-148633170D01*
X161663751Y-148622680D01*
X161642707Y-148610067D01*
X161623002Y-148595453D01*
X161604823Y-148578977D01*
X161588347Y-148560798D01*
X161573733Y-148541093D01*
X161561120Y-148520049D01*
X161550630Y-148497871D01*
X161542365Y-148474771D01*
X161536404Y-148450973D01*
X161532804Y-148426704D01*
X161531600Y-148402200D01*
X161531600Y-147152200D01*
X161532804Y-147127696D01*
X161536404Y-147103427D01*
X161542365Y-147079629D01*
X161550630Y-147056529D01*
X161561120Y-147034351D01*
X161573733Y-147013307D01*
X161588347Y-146993602D01*
X161604823Y-146975423D01*
X161623002Y-146958947D01*
X161642707Y-146944333D01*
X161663751Y-146931720D01*
X161685929Y-146921230D01*
X161709029Y-146912965D01*
X161732827Y-146907004D01*
X161757096Y-146903404D01*
X161781600Y-146902200D01*
X162531600Y-146902200D01*
X162556104Y-146903404D01*
G37*
G36*
X178806104Y-146903404D02*
G01*
X178830373Y-146907004D01*
X178854171Y-146912965D01*
X178877271Y-146921230D01*
X178899449Y-146931720D01*
X178920493Y-146944333D01*
X178940198Y-146958947D01*
X178958377Y-146975423D01*
X178974853Y-146993602D01*
X178989467Y-147013307D01*
X179002080Y-147034351D01*
X179012570Y-147056529D01*
X179020835Y-147079629D01*
X179026796Y-147103427D01*
X179030396Y-147127696D01*
X179031600Y-147152200D01*
X179031600Y-148402200D01*
X179030396Y-148426704D01*
X179026796Y-148450973D01*
X179020835Y-148474771D01*
X179012570Y-148497871D01*
X179002080Y-148520049D01*
X178989467Y-148541093D01*
X178974853Y-148560798D01*
X178958377Y-148578977D01*
X178940198Y-148595453D01*
X178920493Y-148610067D01*
X178899449Y-148622680D01*
X178877271Y-148633170D01*
X178854171Y-148641435D01*
X178830373Y-148647396D01*
X178806104Y-148650996D01*
X178781600Y-148652200D01*
X178031600Y-148652200D01*
X178007096Y-148650996D01*
X177982827Y-148647396D01*
X177959029Y-148641435D01*
X177935929Y-148633170D01*
X177913751Y-148622680D01*
X177892707Y-148610067D01*
X177873002Y-148595453D01*
X177854823Y-148578977D01*
X177838347Y-148560798D01*
X177823733Y-148541093D01*
X177811120Y-148520049D01*
X177800630Y-148497871D01*
X177792365Y-148474771D01*
X177786404Y-148450973D01*
X177782804Y-148426704D01*
X177781600Y-148402200D01*
X177781600Y-147152200D01*
X177782804Y-147127696D01*
X177786404Y-147103427D01*
X177792365Y-147079629D01*
X177800630Y-147056529D01*
X177811120Y-147034351D01*
X177823733Y-147013307D01*
X177838347Y-146993602D01*
X177854823Y-146975423D01*
X177873002Y-146958947D01*
X177892707Y-146944333D01*
X177913751Y-146931720D01*
X177935929Y-146921230D01*
X177959029Y-146912965D01*
X177982827Y-146907004D01*
X178007096Y-146903404D01*
X178031600Y-146902200D01*
X178781600Y-146902200D01*
X178806104Y-146903404D01*
G37*
G36*
X181606104Y-146903404D02*
G01*
X181630373Y-146907004D01*
X181654171Y-146912965D01*
X181677271Y-146921230D01*
X181699449Y-146931720D01*
X181720493Y-146944333D01*
X181740198Y-146958947D01*
X181758377Y-146975423D01*
X181774853Y-146993602D01*
X181789467Y-147013307D01*
X181802080Y-147034351D01*
X181812570Y-147056529D01*
X181820835Y-147079629D01*
X181826796Y-147103427D01*
X181830396Y-147127696D01*
X181831600Y-147152200D01*
X181831600Y-148402200D01*
X181830396Y-148426704D01*
X181826796Y-148450973D01*
X181820835Y-148474771D01*
X181812570Y-148497871D01*
X181802080Y-148520049D01*
X181789467Y-148541093D01*
X181774853Y-148560798D01*
X181758377Y-148578977D01*
X181740198Y-148595453D01*
X181720493Y-148610067D01*
X181699449Y-148622680D01*
X181677271Y-148633170D01*
X181654171Y-148641435D01*
X181630373Y-148647396D01*
X181606104Y-148650996D01*
X181581600Y-148652200D01*
X180831600Y-148652200D01*
X180807096Y-148650996D01*
X180782827Y-148647396D01*
X180759029Y-148641435D01*
X180735929Y-148633170D01*
X180713751Y-148622680D01*
X180692707Y-148610067D01*
X180673002Y-148595453D01*
X180654823Y-148578977D01*
X180638347Y-148560798D01*
X180623733Y-148541093D01*
X180611120Y-148520049D01*
X180600630Y-148497871D01*
X180592365Y-148474771D01*
X180586404Y-148450973D01*
X180582804Y-148426704D01*
X180581600Y-148402200D01*
X180581600Y-147152200D01*
X180582804Y-147127696D01*
X180586404Y-147103427D01*
X180592365Y-147079629D01*
X180600630Y-147056529D01*
X180611120Y-147034351D01*
X180623733Y-147013307D01*
X180638347Y-146993602D01*
X180654823Y-146975423D01*
X180673002Y-146958947D01*
X180692707Y-146944333D01*
X180713751Y-146931720D01*
X180735929Y-146921230D01*
X180759029Y-146912965D01*
X180782827Y-146907004D01*
X180807096Y-146903404D01*
X180831600Y-146902200D01*
X181581600Y-146902200D01*
X181606104Y-146903404D01*
G37*
D13*
X154828240Y-54742080D03*
X158128240Y-54742080D03*
X149769560Y-54742080D03*
X153069560Y-54742080D03*
D14*
X36089400Y-47697600D03*
X36739400Y-47697600D03*
X37389400Y-47697600D03*
X38039400Y-47697600D03*
X38689400Y-47697600D03*
X39339400Y-47697600D03*
X39989400Y-47697600D03*
X40639400Y-47697600D03*
X41289400Y-47697600D03*
X41939400Y-47697600D03*
X41939400Y-53597600D03*
X41289400Y-53597600D03*
X40639400Y-53597600D03*
X39989400Y-53597600D03*
X39339400Y-53597600D03*
X38689400Y-53597600D03*
X38039400Y-53597600D03*
X37389400Y-53597600D03*
X36739400Y-53597600D03*
X36089400Y-53597600D03*
D12*
G36*
X161124503Y-50634522D02*
G01*
X161139064Y-50636682D01*
X161153343Y-50640259D01*
X161167203Y-50645218D01*
X161180510Y-50651512D01*
X161193136Y-50659080D01*
X161204959Y-50667848D01*
X161215866Y-50677734D01*
X161225752Y-50688641D01*
X161234520Y-50700464D01*
X161242088Y-50713090D01*
X161248382Y-50726397D01*
X161253341Y-50740257D01*
X161256918Y-50754536D01*
X161259078Y-50769097D01*
X161259800Y-50783800D01*
X161259800Y-52083800D01*
X161259078Y-52098503D01*
X161256918Y-52113064D01*
X161253341Y-52127343D01*
X161248382Y-52141203D01*
X161242088Y-52154510D01*
X161234520Y-52167136D01*
X161225752Y-52178959D01*
X161215866Y-52189866D01*
X161204959Y-52199752D01*
X161193136Y-52208520D01*
X161180510Y-52216088D01*
X161167203Y-52222382D01*
X161153343Y-52227341D01*
X161139064Y-52230918D01*
X161124503Y-52233078D01*
X161109800Y-52233800D01*
X160809800Y-52233800D01*
X160795097Y-52233078D01*
X160780536Y-52230918D01*
X160766257Y-52227341D01*
X160752397Y-52222382D01*
X160739090Y-52216088D01*
X160726464Y-52208520D01*
X160714641Y-52199752D01*
X160703734Y-52189866D01*
X160693848Y-52178959D01*
X160685080Y-52167136D01*
X160677512Y-52154510D01*
X160671218Y-52141203D01*
X160666259Y-52127343D01*
X160662682Y-52113064D01*
X160660522Y-52098503D01*
X160659800Y-52083800D01*
X160659800Y-50783800D01*
X160660522Y-50769097D01*
X160662682Y-50754536D01*
X160666259Y-50740257D01*
X160671218Y-50726397D01*
X160677512Y-50713090D01*
X160685080Y-50700464D01*
X160693848Y-50688641D01*
X160703734Y-50677734D01*
X160714641Y-50667848D01*
X160726464Y-50659080D01*
X160739090Y-50651512D01*
X160752397Y-50645218D01*
X160766257Y-50640259D01*
X160780536Y-50636682D01*
X160795097Y-50634522D01*
X160809800Y-50633800D01*
X161109800Y-50633800D01*
X161124503Y-50634522D01*
G37*
G36*
X159854503Y-50634522D02*
G01*
X159869064Y-50636682D01*
X159883343Y-50640259D01*
X159897203Y-50645218D01*
X159910510Y-50651512D01*
X159923136Y-50659080D01*
X159934959Y-50667848D01*
X159945866Y-50677734D01*
X159955752Y-50688641D01*
X159964520Y-50700464D01*
X159972088Y-50713090D01*
X159978382Y-50726397D01*
X159983341Y-50740257D01*
X159986918Y-50754536D01*
X159989078Y-50769097D01*
X159989800Y-50783800D01*
X159989800Y-52083800D01*
X159989078Y-52098503D01*
X159986918Y-52113064D01*
X159983341Y-52127343D01*
X159978382Y-52141203D01*
X159972088Y-52154510D01*
X159964520Y-52167136D01*
X159955752Y-52178959D01*
X159945866Y-52189866D01*
X159934959Y-52199752D01*
X159923136Y-52208520D01*
X159910510Y-52216088D01*
X159897203Y-52222382D01*
X159883343Y-52227341D01*
X159869064Y-52230918D01*
X159854503Y-52233078D01*
X159839800Y-52233800D01*
X159539800Y-52233800D01*
X159525097Y-52233078D01*
X159510536Y-52230918D01*
X159496257Y-52227341D01*
X159482397Y-52222382D01*
X159469090Y-52216088D01*
X159456464Y-52208520D01*
X159444641Y-52199752D01*
X159433734Y-52189866D01*
X159423848Y-52178959D01*
X159415080Y-52167136D01*
X159407512Y-52154510D01*
X159401218Y-52141203D01*
X159396259Y-52127343D01*
X159392682Y-52113064D01*
X159390522Y-52098503D01*
X159389800Y-52083800D01*
X159389800Y-50783800D01*
X159390522Y-50769097D01*
X159392682Y-50754536D01*
X159396259Y-50740257D01*
X159401218Y-50726397D01*
X159407512Y-50713090D01*
X159415080Y-50700464D01*
X159423848Y-50688641D01*
X159433734Y-50677734D01*
X159444641Y-50667848D01*
X159456464Y-50659080D01*
X159469090Y-50651512D01*
X159482397Y-50645218D01*
X159496257Y-50640259D01*
X159510536Y-50636682D01*
X159525097Y-50634522D01*
X159539800Y-50633800D01*
X159839800Y-50633800D01*
X159854503Y-50634522D01*
G37*
G36*
X158584503Y-50634522D02*
G01*
X158599064Y-50636682D01*
X158613343Y-50640259D01*
X158627203Y-50645218D01*
X158640510Y-50651512D01*
X158653136Y-50659080D01*
X158664959Y-50667848D01*
X158675866Y-50677734D01*
X158685752Y-50688641D01*
X158694520Y-50700464D01*
X158702088Y-50713090D01*
X158708382Y-50726397D01*
X158713341Y-50740257D01*
X158716918Y-50754536D01*
X158719078Y-50769097D01*
X158719800Y-50783800D01*
X158719800Y-52083800D01*
X158719078Y-52098503D01*
X158716918Y-52113064D01*
X158713341Y-52127343D01*
X158708382Y-52141203D01*
X158702088Y-52154510D01*
X158694520Y-52167136D01*
X158685752Y-52178959D01*
X158675866Y-52189866D01*
X158664959Y-52199752D01*
X158653136Y-52208520D01*
X158640510Y-52216088D01*
X158627203Y-52222382D01*
X158613343Y-52227341D01*
X158599064Y-52230918D01*
X158584503Y-52233078D01*
X158569800Y-52233800D01*
X158269800Y-52233800D01*
X158255097Y-52233078D01*
X158240536Y-52230918D01*
X158226257Y-52227341D01*
X158212397Y-52222382D01*
X158199090Y-52216088D01*
X158186464Y-52208520D01*
X158174641Y-52199752D01*
X158163734Y-52189866D01*
X158153848Y-52178959D01*
X158145080Y-52167136D01*
X158137512Y-52154510D01*
X158131218Y-52141203D01*
X158126259Y-52127343D01*
X158122682Y-52113064D01*
X158120522Y-52098503D01*
X158119800Y-52083800D01*
X158119800Y-50783800D01*
X158120522Y-50769097D01*
X158122682Y-50754536D01*
X158126259Y-50740257D01*
X158131218Y-50726397D01*
X158137512Y-50713090D01*
X158145080Y-50700464D01*
X158153848Y-50688641D01*
X158163734Y-50677734D01*
X158174641Y-50667848D01*
X158186464Y-50659080D01*
X158199090Y-50651512D01*
X158212397Y-50645218D01*
X158226257Y-50640259D01*
X158240536Y-50636682D01*
X158255097Y-50634522D01*
X158269800Y-50633800D01*
X158569800Y-50633800D01*
X158584503Y-50634522D01*
G37*
G36*
X157314503Y-50634522D02*
G01*
X157329064Y-50636682D01*
X157343343Y-50640259D01*
X157357203Y-50645218D01*
X157370510Y-50651512D01*
X157383136Y-50659080D01*
X157394959Y-50667848D01*
X157405866Y-50677734D01*
X157415752Y-50688641D01*
X157424520Y-50700464D01*
X157432088Y-50713090D01*
X157438382Y-50726397D01*
X157443341Y-50740257D01*
X157446918Y-50754536D01*
X157449078Y-50769097D01*
X157449800Y-50783800D01*
X157449800Y-52083800D01*
X157449078Y-52098503D01*
X157446918Y-52113064D01*
X157443341Y-52127343D01*
X157438382Y-52141203D01*
X157432088Y-52154510D01*
X157424520Y-52167136D01*
X157415752Y-52178959D01*
X157405866Y-52189866D01*
X157394959Y-52199752D01*
X157383136Y-52208520D01*
X157370510Y-52216088D01*
X157357203Y-52222382D01*
X157343343Y-52227341D01*
X157329064Y-52230918D01*
X157314503Y-52233078D01*
X157299800Y-52233800D01*
X156999800Y-52233800D01*
X156985097Y-52233078D01*
X156970536Y-52230918D01*
X156956257Y-52227341D01*
X156942397Y-52222382D01*
X156929090Y-52216088D01*
X156916464Y-52208520D01*
X156904641Y-52199752D01*
X156893734Y-52189866D01*
X156883848Y-52178959D01*
X156875080Y-52167136D01*
X156867512Y-52154510D01*
X156861218Y-52141203D01*
X156856259Y-52127343D01*
X156852682Y-52113064D01*
X156850522Y-52098503D01*
X156849800Y-52083800D01*
X156849800Y-50783800D01*
X156850522Y-50769097D01*
X156852682Y-50754536D01*
X156856259Y-50740257D01*
X156861218Y-50726397D01*
X156867512Y-50713090D01*
X156875080Y-50700464D01*
X156883848Y-50688641D01*
X156893734Y-50677734D01*
X156904641Y-50667848D01*
X156916464Y-50659080D01*
X156929090Y-50651512D01*
X156942397Y-50645218D01*
X156956257Y-50640259D01*
X156970536Y-50636682D01*
X156985097Y-50634522D01*
X156999800Y-50633800D01*
X157299800Y-50633800D01*
X157314503Y-50634522D01*
G37*
G36*
X156044503Y-50634522D02*
G01*
X156059064Y-50636682D01*
X156073343Y-50640259D01*
X156087203Y-50645218D01*
X156100510Y-50651512D01*
X156113136Y-50659080D01*
X156124959Y-50667848D01*
X156135866Y-50677734D01*
X156145752Y-50688641D01*
X156154520Y-50700464D01*
X156162088Y-50713090D01*
X156168382Y-50726397D01*
X156173341Y-50740257D01*
X156176918Y-50754536D01*
X156179078Y-50769097D01*
X156179800Y-50783800D01*
X156179800Y-52083800D01*
X156179078Y-52098503D01*
X156176918Y-52113064D01*
X156173341Y-52127343D01*
X156168382Y-52141203D01*
X156162088Y-52154510D01*
X156154520Y-52167136D01*
X156145752Y-52178959D01*
X156135866Y-52189866D01*
X156124959Y-52199752D01*
X156113136Y-52208520D01*
X156100510Y-52216088D01*
X156087203Y-52222382D01*
X156073343Y-52227341D01*
X156059064Y-52230918D01*
X156044503Y-52233078D01*
X156029800Y-52233800D01*
X155729800Y-52233800D01*
X155715097Y-52233078D01*
X155700536Y-52230918D01*
X155686257Y-52227341D01*
X155672397Y-52222382D01*
X155659090Y-52216088D01*
X155646464Y-52208520D01*
X155634641Y-52199752D01*
X155623734Y-52189866D01*
X155613848Y-52178959D01*
X155605080Y-52167136D01*
X155597512Y-52154510D01*
X155591218Y-52141203D01*
X155586259Y-52127343D01*
X155582682Y-52113064D01*
X155580522Y-52098503D01*
X155579800Y-52083800D01*
X155579800Y-50783800D01*
X155580522Y-50769097D01*
X155582682Y-50754536D01*
X155586259Y-50740257D01*
X155591218Y-50726397D01*
X155597512Y-50713090D01*
X155605080Y-50700464D01*
X155613848Y-50688641D01*
X155623734Y-50677734D01*
X155634641Y-50667848D01*
X155646464Y-50659080D01*
X155659090Y-50651512D01*
X155672397Y-50645218D01*
X155686257Y-50640259D01*
X155700536Y-50636682D01*
X155715097Y-50634522D01*
X155729800Y-50633800D01*
X156029800Y-50633800D01*
X156044503Y-50634522D01*
G37*
G36*
X154774503Y-50634522D02*
G01*
X154789064Y-50636682D01*
X154803343Y-50640259D01*
X154817203Y-50645218D01*
X154830510Y-50651512D01*
X154843136Y-50659080D01*
X154854959Y-50667848D01*
X154865866Y-50677734D01*
X154875752Y-50688641D01*
X154884520Y-50700464D01*
X154892088Y-50713090D01*
X154898382Y-50726397D01*
X154903341Y-50740257D01*
X154906918Y-50754536D01*
X154909078Y-50769097D01*
X154909800Y-50783800D01*
X154909800Y-52083800D01*
X154909078Y-52098503D01*
X154906918Y-52113064D01*
X154903341Y-52127343D01*
X154898382Y-52141203D01*
X154892088Y-52154510D01*
X154884520Y-52167136D01*
X154875752Y-52178959D01*
X154865866Y-52189866D01*
X154854959Y-52199752D01*
X154843136Y-52208520D01*
X154830510Y-52216088D01*
X154817203Y-52222382D01*
X154803343Y-52227341D01*
X154789064Y-52230918D01*
X154774503Y-52233078D01*
X154759800Y-52233800D01*
X154459800Y-52233800D01*
X154445097Y-52233078D01*
X154430536Y-52230918D01*
X154416257Y-52227341D01*
X154402397Y-52222382D01*
X154389090Y-52216088D01*
X154376464Y-52208520D01*
X154364641Y-52199752D01*
X154353734Y-52189866D01*
X154343848Y-52178959D01*
X154335080Y-52167136D01*
X154327512Y-52154510D01*
X154321218Y-52141203D01*
X154316259Y-52127343D01*
X154312682Y-52113064D01*
X154310522Y-52098503D01*
X154309800Y-52083800D01*
X154309800Y-50783800D01*
X154310522Y-50769097D01*
X154312682Y-50754536D01*
X154316259Y-50740257D01*
X154321218Y-50726397D01*
X154327512Y-50713090D01*
X154335080Y-50700464D01*
X154343848Y-50688641D01*
X154353734Y-50677734D01*
X154364641Y-50667848D01*
X154376464Y-50659080D01*
X154389090Y-50651512D01*
X154402397Y-50645218D01*
X154416257Y-50640259D01*
X154430536Y-50636682D01*
X154445097Y-50634522D01*
X154459800Y-50633800D01*
X154759800Y-50633800D01*
X154774503Y-50634522D01*
G37*
G36*
X153504503Y-50634522D02*
G01*
X153519064Y-50636682D01*
X153533343Y-50640259D01*
X153547203Y-50645218D01*
X153560510Y-50651512D01*
X153573136Y-50659080D01*
X153584959Y-50667848D01*
X153595866Y-50677734D01*
X153605752Y-50688641D01*
X153614520Y-50700464D01*
X153622088Y-50713090D01*
X153628382Y-50726397D01*
X153633341Y-50740257D01*
X153636918Y-50754536D01*
X153639078Y-50769097D01*
X153639800Y-50783800D01*
X153639800Y-52083800D01*
X153639078Y-52098503D01*
X153636918Y-52113064D01*
X153633341Y-52127343D01*
X153628382Y-52141203D01*
X153622088Y-52154510D01*
X153614520Y-52167136D01*
X153605752Y-52178959D01*
X153595866Y-52189866D01*
X153584959Y-52199752D01*
X153573136Y-52208520D01*
X153560510Y-52216088D01*
X153547203Y-52222382D01*
X153533343Y-52227341D01*
X153519064Y-52230918D01*
X153504503Y-52233078D01*
X153489800Y-52233800D01*
X153189800Y-52233800D01*
X153175097Y-52233078D01*
X153160536Y-52230918D01*
X153146257Y-52227341D01*
X153132397Y-52222382D01*
X153119090Y-52216088D01*
X153106464Y-52208520D01*
X153094641Y-52199752D01*
X153083734Y-52189866D01*
X153073848Y-52178959D01*
X153065080Y-52167136D01*
X153057512Y-52154510D01*
X153051218Y-52141203D01*
X153046259Y-52127343D01*
X153042682Y-52113064D01*
X153040522Y-52098503D01*
X153039800Y-52083800D01*
X153039800Y-50783800D01*
X153040522Y-50769097D01*
X153042682Y-50754536D01*
X153046259Y-50740257D01*
X153051218Y-50726397D01*
X153057512Y-50713090D01*
X153065080Y-50700464D01*
X153073848Y-50688641D01*
X153083734Y-50677734D01*
X153094641Y-50667848D01*
X153106464Y-50659080D01*
X153119090Y-50651512D01*
X153132397Y-50645218D01*
X153146257Y-50640259D01*
X153160536Y-50636682D01*
X153175097Y-50634522D01*
X153189800Y-50633800D01*
X153489800Y-50633800D01*
X153504503Y-50634522D01*
G37*
G36*
X152234503Y-50634522D02*
G01*
X152249064Y-50636682D01*
X152263343Y-50640259D01*
X152277203Y-50645218D01*
X152290510Y-50651512D01*
X152303136Y-50659080D01*
X152314959Y-50667848D01*
X152325866Y-50677734D01*
X152335752Y-50688641D01*
X152344520Y-50700464D01*
X152352088Y-50713090D01*
X152358382Y-50726397D01*
X152363341Y-50740257D01*
X152366918Y-50754536D01*
X152369078Y-50769097D01*
X152369800Y-50783800D01*
X152369800Y-52083800D01*
X152369078Y-52098503D01*
X152366918Y-52113064D01*
X152363341Y-52127343D01*
X152358382Y-52141203D01*
X152352088Y-52154510D01*
X152344520Y-52167136D01*
X152335752Y-52178959D01*
X152325866Y-52189866D01*
X152314959Y-52199752D01*
X152303136Y-52208520D01*
X152290510Y-52216088D01*
X152277203Y-52222382D01*
X152263343Y-52227341D01*
X152249064Y-52230918D01*
X152234503Y-52233078D01*
X152219800Y-52233800D01*
X151919800Y-52233800D01*
X151905097Y-52233078D01*
X151890536Y-52230918D01*
X151876257Y-52227341D01*
X151862397Y-52222382D01*
X151849090Y-52216088D01*
X151836464Y-52208520D01*
X151824641Y-52199752D01*
X151813734Y-52189866D01*
X151803848Y-52178959D01*
X151795080Y-52167136D01*
X151787512Y-52154510D01*
X151781218Y-52141203D01*
X151776259Y-52127343D01*
X151772682Y-52113064D01*
X151770522Y-52098503D01*
X151769800Y-52083800D01*
X151769800Y-50783800D01*
X151770522Y-50769097D01*
X151772682Y-50754536D01*
X151776259Y-50740257D01*
X151781218Y-50726397D01*
X151787512Y-50713090D01*
X151795080Y-50700464D01*
X151803848Y-50688641D01*
X151813734Y-50677734D01*
X151824641Y-50667848D01*
X151836464Y-50659080D01*
X151849090Y-50651512D01*
X151862397Y-50645218D01*
X151876257Y-50640259D01*
X151890536Y-50636682D01*
X151905097Y-50634522D01*
X151919800Y-50633800D01*
X152219800Y-50633800D01*
X152234503Y-50634522D01*
G37*
G36*
X152234503Y-44134522D02*
G01*
X152249064Y-44136682D01*
X152263343Y-44140259D01*
X152277203Y-44145218D01*
X152290510Y-44151512D01*
X152303136Y-44159080D01*
X152314959Y-44167848D01*
X152325866Y-44177734D01*
X152335752Y-44188641D01*
X152344520Y-44200464D01*
X152352088Y-44213090D01*
X152358382Y-44226397D01*
X152363341Y-44240257D01*
X152366918Y-44254536D01*
X152369078Y-44269097D01*
X152369800Y-44283800D01*
X152369800Y-45583800D01*
X152369078Y-45598503D01*
X152366918Y-45613064D01*
X152363341Y-45627343D01*
X152358382Y-45641203D01*
X152352088Y-45654510D01*
X152344520Y-45667136D01*
X152335752Y-45678959D01*
X152325866Y-45689866D01*
X152314959Y-45699752D01*
X152303136Y-45708520D01*
X152290510Y-45716088D01*
X152277203Y-45722382D01*
X152263343Y-45727341D01*
X152249064Y-45730918D01*
X152234503Y-45733078D01*
X152219800Y-45733800D01*
X151919800Y-45733800D01*
X151905097Y-45733078D01*
X151890536Y-45730918D01*
X151876257Y-45727341D01*
X151862397Y-45722382D01*
X151849090Y-45716088D01*
X151836464Y-45708520D01*
X151824641Y-45699752D01*
X151813734Y-45689866D01*
X151803848Y-45678959D01*
X151795080Y-45667136D01*
X151787512Y-45654510D01*
X151781218Y-45641203D01*
X151776259Y-45627343D01*
X151772682Y-45613064D01*
X151770522Y-45598503D01*
X151769800Y-45583800D01*
X151769800Y-44283800D01*
X151770522Y-44269097D01*
X151772682Y-44254536D01*
X151776259Y-44240257D01*
X151781218Y-44226397D01*
X151787512Y-44213090D01*
X151795080Y-44200464D01*
X151803848Y-44188641D01*
X151813734Y-44177734D01*
X151824641Y-44167848D01*
X151836464Y-44159080D01*
X151849090Y-44151512D01*
X151862397Y-44145218D01*
X151876257Y-44140259D01*
X151890536Y-44136682D01*
X151905097Y-44134522D01*
X151919800Y-44133800D01*
X152219800Y-44133800D01*
X152234503Y-44134522D01*
G37*
G36*
X153504503Y-44134522D02*
G01*
X153519064Y-44136682D01*
X153533343Y-44140259D01*
X153547203Y-44145218D01*
X153560510Y-44151512D01*
X153573136Y-44159080D01*
X153584959Y-44167848D01*
X153595866Y-44177734D01*
X153605752Y-44188641D01*
X153614520Y-44200464D01*
X153622088Y-44213090D01*
X153628382Y-44226397D01*
X153633341Y-44240257D01*
X153636918Y-44254536D01*
X153639078Y-44269097D01*
X153639800Y-44283800D01*
X153639800Y-45583800D01*
X153639078Y-45598503D01*
X153636918Y-45613064D01*
X153633341Y-45627343D01*
X153628382Y-45641203D01*
X153622088Y-45654510D01*
X153614520Y-45667136D01*
X153605752Y-45678959D01*
X153595866Y-45689866D01*
X153584959Y-45699752D01*
X153573136Y-45708520D01*
X153560510Y-45716088D01*
X153547203Y-45722382D01*
X153533343Y-45727341D01*
X153519064Y-45730918D01*
X153504503Y-45733078D01*
X153489800Y-45733800D01*
X153189800Y-45733800D01*
X153175097Y-45733078D01*
X153160536Y-45730918D01*
X153146257Y-45727341D01*
X153132397Y-45722382D01*
X153119090Y-45716088D01*
X153106464Y-45708520D01*
X153094641Y-45699752D01*
X153083734Y-45689866D01*
X153073848Y-45678959D01*
X153065080Y-45667136D01*
X153057512Y-45654510D01*
X153051218Y-45641203D01*
X153046259Y-45627343D01*
X153042682Y-45613064D01*
X153040522Y-45598503D01*
X153039800Y-45583800D01*
X153039800Y-44283800D01*
X153040522Y-44269097D01*
X153042682Y-44254536D01*
X153046259Y-44240257D01*
X153051218Y-44226397D01*
X153057512Y-44213090D01*
X153065080Y-44200464D01*
X153073848Y-44188641D01*
X153083734Y-44177734D01*
X153094641Y-44167848D01*
X153106464Y-44159080D01*
X153119090Y-44151512D01*
X153132397Y-44145218D01*
X153146257Y-44140259D01*
X153160536Y-44136682D01*
X153175097Y-44134522D01*
X153189800Y-44133800D01*
X153489800Y-44133800D01*
X153504503Y-44134522D01*
G37*
G36*
X154774503Y-44134522D02*
G01*
X154789064Y-44136682D01*
X154803343Y-44140259D01*
X154817203Y-44145218D01*
X154830510Y-44151512D01*
X154843136Y-44159080D01*
X154854959Y-44167848D01*
X154865866Y-44177734D01*
X154875752Y-44188641D01*
X154884520Y-44200464D01*
X154892088Y-44213090D01*
X154898382Y-44226397D01*
X154903341Y-44240257D01*
X154906918Y-44254536D01*
X154909078Y-44269097D01*
X154909800Y-44283800D01*
X154909800Y-45583800D01*
X154909078Y-45598503D01*
X154906918Y-45613064D01*
X154903341Y-45627343D01*
X154898382Y-45641203D01*
X154892088Y-45654510D01*
X154884520Y-45667136D01*
X154875752Y-45678959D01*
X154865866Y-45689866D01*
X154854959Y-45699752D01*
X154843136Y-45708520D01*
X154830510Y-45716088D01*
X154817203Y-45722382D01*
X154803343Y-45727341D01*
X154789064Y-45730918D01*
X154774503Y-45733078D01*
X154759800Y-45733800D01*
X154459800Y-45733800D01*
X154445097Y-45733078D01*
X154430536Y-45730918D01*
X154416257Y-45727341D01*
X154402397Y-45722382D01*
X154389090Y-45716088D01*
X154376464Y-45708520D01*
X154364641Y-45699752D01*
X154353734Y-45689866D01*
X154343848Y-45678959D01*
X154335080Y-45667136D01*
X154327512Y-45654510D01*
X154321218Y-45641203D01*
X154316259Y-45627343D01*
X154312682Y-45613064D01*
X154310522Y-45598503D01*
X154309800Y-45583800D01*
X154309800Y-44283800D01*
X154310522Y-44269097D01*
X154312682Y-44254536D01*
X154316259Y-44240257D01*
X154321218Y-44226397D01*
X154327512Y-44213090D01*
X154335080Y-44200464D01*
X154343848Y-44188641D01*
X154353734Y-44177734D01*
X154364641Y-44167848D01*
X154376464Y-44159080D01*
X154389090Y-44151512D01*
X154402397Y-44145218D01*
X154416257Y-44140259D01*
X154430536Y-44136682D01*
X154445097Y-44134522D01*
X154459800Y-44133800D01*
X154759800Y-44133800D01*
X154774503Y-44134522D01*
G37*
G36*
X156044503Y-44134522D02*
G01*
X156059064Y-44136682D01*
X156073343Y-44140259D01*
X156087203Y-44145218D01*
X156100510Y-44151512D01*
X156113136Y-44159080D01*
X156124959Y-44167848D01*
X156135866Y-44177734D01*
X156145752Y-44188641D01*
X156154520Y-44200464D01*
X156162088Y-44213090D01*
X156168382Y-44226397D01*
X156173341Y-44240257D01*
X156176918Y-44254536D01*
X156179078Y-44269097D01*
X156179800Y-44283800D01*
X156179800Y-45583800D01*
X156179078Y-45598503D01*
X156176918Y-45613064D01*
X156173341Y-45627343D01*
X156168382Y-45641203D01*
X156162088Y-45654510D01*
X156154520Y-45667136D01*
X156145752Y-45678959D01*
X156135866Y-45689866D01*
X156124959Y-45699752D01*
X156113136Y-45708520D01*
X156100510Y-45716088D01*
X156087203Y-45722382D01*
X156073343Y-45727341D01*
X156059064Y-45730918D01*
X156044503Y-45733078D01*
X156029800Y-45733800D01*
X155729800Y-45733800D01*
X155715097Y-45733078D01*
X155700536Y-45730918D01*
X155686257Y-45727341D01*
X155672397Y-45722382D01*
X155659090Y-45716088D01*
X155646464Y-45708520D01*
X155634641Y-45699752D01*
X155623734Y-45689866D01*
X155613848Y-45678959D01*
X155605080Y-45667136D01*
X155597512Y-45654510D01*
X155591218Y-45641203D01*
X155586259Y-45627343D01*
X155582682Y-45613064D01*
X155580522Y-45598503D01*
X155579800Y-45583800D01*
X155579800Y-44283800D01*
X155580522Y-44269097D01*
X155582682Y-44254536D01*
X155586259Y-44240257D01*
X155591218Y-44226397D01*
X155597512Y-44213090D01*
X155605080Y-44200464D01*
X155613848Y-44188641D01*
X155623734Y-44177734D01*
X155634641Y-44167848D01*
X155646464Y-44159080D01*
X155659090Y-44151512D01*
X155672397Y-44145218D01*
X155686257Y-44140259D01*
X155700536Y-44136682D01*
X155715097Y-44134522D01*
X155729800Y-44133800D01*
X156029800Y-44133800D01*
X156044503Y-44134522D01*
G37*
G36*
X157314503Y-44134522D02*
G01*
X157329064Y-44136682D01*
X157343343Y-44140259D01*
X157357203Y-44145218D01*
X157370510Y-44151512D01*
X157383136Y-44159080D01*
X157394959Y-44167848D01*
X157405866Y-44177734D01*
X157415752Y-44188641D01*
X157424520Y-44200464D01*
X157432088Y-44213090D01*
X157438382Y-44226397D01*
X157443341Y-44240257D01*
X157446918Y-44254536D01*
X157449078Y-44269097D01*
X157449800Y-44283800D01*
X157449800Y-45583800D01*
X157449078Y-45598503D01*
X157446918Y-45613064D01*
X157443341Y-45627343D01*
X157438382Y-45641203D01*
X157432088Y-45654510D01*
X157424520Y-45667136D01*
X157415752Y-45678959D01*
X157405866Y-45689866D01*
X157394959Y-45699752D01*
X157383136Y-45708520D01*
X157370510Y-45716088D01*
X157357203Y-45722382D01*
X157343343Y-45727341D01*
X157329064Y-45730918D01*
X157314503Y-45733078D01*
X157299800Y-45733800D01*
X156999800Y-45733800D01*
X156985097Y-45733078D01*
X156970536Y-45730918D01*
X156956257Y-45727341D01*
X156942397Y-45722382D01*
X156929090Y-45716088D01*
X156916464Y-45708520D01*
X156904641Y-45699752D01*
X156893734Y-45689866D01*
X156883848Y-45678959D01*
X156875080Y-45667136D01*
X156867512Y-45654510D01*
X156861218Y-45641203D01*
X156856259Y-45627343D01*
X156852682Y-45613064D01*
X156850522Y-45598503D01*
X156849800Y-45583800D01*
X156849800Y-44283800D01*
X156850522Y-44269097D01*
X156852682Y-44254536D01*
X156856259Y-44240257D01*
X156861218Y-44226397D01*
X156867512Y-44213090D01*
X156875080Y-44200464D01*
X156883848Y-44188641D01*
X156893734Y-44177734D01*
X156904641Y-44167848D01*
X156916464Y-44159080D01*
X156929090Y-44151512D01*
X156942397Y-44145218D01*
X156956257Y-44140259D01*
X156970536Y-44136682D01*
X156985097Y-44134522D01*
X156999800Y-44133800D01*
X157299800Y-44133800D01*
X157314503Y-44134522D01*
G37*
G36*
X158584503Y-44134522D02*
G01*
X158599064Y-44136682D01*
X158613343Y-44140259D01*
X158627203Y-44145218D01*
X158640510Y-44151512D01*
X158653136Y-44159080D01*
X158664959Y-44167848D01*
X158675866Y-44177734D01*
X158685752Y-44188641D01*
X158694520Y-44200464D01*
X158702088Y-44213090D01*
X158708382Y-44226397D01*
X158713341Y-44240257D01*
X158716918Y-44254536D01*
X158719078Y-44269097D01*
X158719800Y-44283800D01*
X158719800Y-45583800D01*
X158719078Y-45598503D01*
X158716918Y-45613064D01*
X158713341Y-45627343D01*
X158708382Y-45641203D01*
X158702088Y-45654510D01*
X158694520Y-45667136D01*
X158685752Y-45678959D01*
X158675866Y-45689866D01*
X158664959Y-45699752D01*
X158653136Y-45708520D01*
X158640510Y-45716088D01*
X158627203Y-45722382D01*
X158613343Y-45727341D01*
X158599064Y-45730918D01*
X158584503Y-45733078D01*
X158569800Y-45733800D01*
X158269800Y-45733800D01*
X158255097Y-45733078D01*
X158240536Y-45730918D01*
X158226257Y-45727341D01*
X158212397Y-45722382D01*
X158199090Y-45716088D01*
X158186464Y-45708520D01*
X158174641Y-45699752D01*
X158163734Y-45689866D01*
X158153848Y-45678959D01*
X158145080Y-45667136D01*
X158137512Y-45654510D01*
X158131218Y-45641203D01*
X158126259Y-45627343D01*
X158122682Y-45613064D01*
X158120522Y-45598503D01*
X158119800Y-45583800D01*
X158119800Y-44283800D01*
X158120522Y-44269097D01*
X158122682Y-44254536D01*
X158126259Y-44240257D01*
X158131218Y-44226397D01*
X158137512Y-44213090D01*
X158145080Y-44200464D01*
X158153848Y-44188641D01*
X158163734Y-44177734D01*
X158174641Y-44167848D01*
X158186464Y-44159080D01*
X158199090Y-44151512D01*
X158212397Y-44145218D01*
X158226257Y-44140259D01*
X158240536Y-44136682D01*
X158255097Y-44134522D01*
X158269800Y-44133800D01*
X158569800Y-44133800D01*
X158584503Y-44134522D01*
G37*
G36*
X159854503Y-44134522D02*
G01*
X159869064Y-44136682D01*
X159883343Y-44140259D01*
X159897203Y-44145218D01*
X159910510Y-44151512D01*
X159923136Y-44159080D01*
X159934959Y-44167848D01*
X159945866Y-44177734D01*
X159955752Y-44188641D01*
X159964520Y-44200464D01*
X159972088Y-44213090D01*
X159978382Y-44226397D01*
X159983341Y-44240257D01*
X159986918Y-44254536D01*
X159989078Y-44269097D01*
X159989800Y-44283800D01*
X159989800Y-45583800D01*
X159989078Y-45598503D01*
X159986918Y-45613064D01*
X159983341Y-45627343D01*
X159978382Y-45641203D01*
X159972088Y-45654510D01*
X159964520Y-45667136D01*
X159955752Y-45678959D01*
X159945866Y-45689866D01*
X159934959Y-45699752D01*
X159923136Y-45708520D01*
X159910510Y-45716088D01*
X159897203Y-45722382D01*
X159883343Y-45727341D01*
X159869064Y-45730918D01*
X159854503Y-45733078D01*
X159839800Y-45733800D01*
X159539800Y-45733800D01*
X159525097Y-45733078D01*
X159510536Y-45730918D01*
X159496257Y-45727341D01*
X159482397Y-45722382D01*
X159469090Y-45716088D01*
X159456464Y-45708520D01*
X159444641Y-45699752D01*
X159433734Y-45689866D01*
X159423848Y-45678959D01*
X159415080Y-45667136D01*
X159407512Y-45654510D01*
X159401218Y-45641203D01*
X159396259Y-45627343D01*
X159392682Y-45613064D01*
X159390522Y-45598503D01*
X159389800Y-45583800D01*
X159389800Y-44283800D01*
X159390522Y-44269097D01*
X159392682Y-44254536D01*
X159396259Y-44240257D01*
X159401218Y-44226397D01*
X159407512Y-44213090D01*
X159415080Y-44200464D01*
X159423848Y-44188641D01*
X159433734Y-44177734D01*
X159444641Y-44167848D01*
X159456464Y-44159080D01*
X159469090Y-44151512D01*
X159482397Y-44145218D01*
X159496257Y-44140259D01*
X159510536Y-44136682D01*
X159525097Y-44134522D01*
X159539800Y-44133800D01*
X159839800Y-44133800D01*
X159854503Y-44134522D01*
G37*
G36*
X161124503Y-44134522D02*
G01*
X161139064Y-44136682D01*
X161153343Y-44140259D01*
X161167203Y-44145218D01*
X161180510Y-44151512D01*
X161193136Y-44159080D01*
X161204959Y-44167848D01*
X161215866Y-44177734D01*
X161225752Y-44188641D01*
X161234520Y-44200464D01*
X161242088Y-44213090D01*
X161248382Y-44226397D01*
X161253341Y-44240257D01*
X161256918Y-44254536D01*
X161259078Y-44269097D01*
X161259800Y-44283800D01*
X161259800Y-45583800D01*
X161259078Y-45598503D01*
X161256918Y-45613064D01*
X161253341Y-45627343D01*
X161248382Y-45641203D01*
X161242088Y-45654510D01*
X161234520Y-45667136D01*
X161225752Y-45678959D01*
X161215866Y-45689866D01*
X161204959Y-45699752D01*
X161193136Y-45708520D01*
X161180510Y-45716088D01*
X161167203Y-45722382D01*
X161153343Y-45727341D01*
X161139064Y-45730918D01*
X161124503Y-45733078D01*
X161109800Y-45733800D01*
X160809800Y-45733800D01*
X160795097Y-45733078D01*
X160780536Y-45730918D01*
X160766257Y-45727341D01*
X160752397Y-45722382D01*
X160739090Y-45716088D01*
X160726464Y-45708520D01*
X160714641Y-45699752D01*
X160703734Y-45689866D01*
X160693848Y-45678959D01*
X160685080Y-45667136D01*
X160677512Y-45654510D01*
X160671218Y-45641203D01*
X160666259Y-45627343D01*
X160662682Y-45613064D01*
X160660522Y-45598503D01*
X160659800Y-45583800D01*
X160659800Y-44283800D01*
X160660522Y-44269097D01*
X160662682Y-44254536D01*
X160666259Y-44240257D01*
X160671218Y-44226397D01*
X160677512Y-44213090D01*
X160685080Y-44200464D01*
X160693848Y-44188641D01*
X160703734Y-44177734D01*
X160714641Y-44167848D01*
X160726464Y-44159080D01*
X160739090Y-44151512D01*
X160752397Y-44145218D01*
X160766257Y-44140259D01*
X160780536Y-44136682D01*
X160795097Y-44134522D01*
X160809800Y-44133800D01*
X161109800Y-44133800D01*
X161124503Y-44134522D01*
G37*
M02*
