M48
; DRILL file {KiCad (5.1.5)-3} date 03/15/20 15:33:11
; FORMAT={-:-/ absolute / inch / decimal}
; #@! TF.CreationDate,2020-03-15T15:33:11+08:00
; #@! TF.GenerationSoftware,Kicad,Pcbnew,(5.1.5)-3
; #@! TF.FileFunction,NonPlated,1,2,NPTH
FMAT,2
INCH
T1C0.0669
T2C0.1575
%
G90
G05
T1
X1.429Y-4.018
X1.829Y-4.018
X2.179Y-4.768
X2.579Y-4.768
X2.929Y-3.268
X3.329Y-3.268
X2.179Y-2.518
X2.579Y-2.518
X1.429Y-5.518
X1.829Y-5.518
X2.179Y-4.018
X2.579Y-4.018
X1.429Y-3.268
X1.829Y-3.268
X6.679Y-2.518
X7.079Y-2.518
X5.929Y-2.518
X6.329Y-2.518
X2.929Y-5.518
X3.329Y-5.518
X3.679Y-5.518
X4.079Y-5.518
X4.429Y-4.018
X4.829Y-4.018
X5.179Y-4.018
X5.579Y-4.018
X6.679Y-3.268
X7.079Y-3.268
X2.929Y-2.518
X3.329Y-2.518
X4.429Y-3.268
X4.829Y-3.268
X1.429Y-4.768
X1.829Y-4.768
X4.429Y-4.768
X4.829Y-4.768
X5.929Y-4.768
X6.329Y-4.768
X1.429Y-2.518
X1.829Y-2.518
X5.179Y-2.518
X5.579Y-2.518
X2.179Y-3.268
X2.579Y-3.268
X6.679Y-5.518
X7.079Y-5.518
X5.929Y-5.518
X6.329Y-5.518
X5.929Y-4.018
X6.329Y-4.018
X6.679Y-4.768
X7.079Y-4.768
X2.929Y-4.768
X3.329Y-4.768
X4.429Y-2.518
X4.829Y-2.518
X3.679Y-2.518
X4.079Y-2.518
X5.179Y-5.518
X5.579Y-5.518
X4.429Y-5.518
X4.829Y-5.518
X3.679Y-4.018
X4.079Y-4.018
X5.179Y-4.768
X5.579Y-4.768
X6.679Y-4.018
X7.079Y-4.018
X5.929Y-3.268
X6.329Y-3.268
X2.929Y-4.018
X3.329Y-4.018
X3.679Y-4.768
X4.079Y-4.768
X3.679Y-3.268
X4.079Y-3.268
X5.179Y-3.268
X5.579Y-3.268
X2.179Y-5.518
X2.579Y-5.518
T2
X3.879Y-4.018
X5.379Y-4.768
X6.879Y-4.018
X6.129Y-3.268
X3.129Y-4.018
X3.879Y-4.768
X3.879Y-3.268
X5.379Y-3.268
X2.379Y-5.518
X1.629Y-4.018
X2.379Y-4.768
X3.129Y-3.268
X2.379Y-2.518
X1.629Y-5.518
X2.379Y-4.018
X1.629Y-3.268
X6.879Y-2.518
X6.129Y-2.518
X3.129Y-5.518
X3.879Y-5.518
X4.629Y-4.018
X5.379Y-4.018
X6.879Y-3.268
X3.129Y-2.518
X4.629Y-3.268
X1.629Y-4.768
X4.629Y-4.768
X6.129Y-4.768
X1.629Y-2.518
X5.379Y-2.518
X2.379Y-3.268
X6.879Y-5.518
X6.129Y-5.518
X6.129Y-4.018
X6.879Y-4.768
X3.129Y-4.768
X4.629Y-2.518
X3.879Y-2.518
X5.379Y-5.518
X4.629Y-5.518
T0
M30
