G04 #@! TF.GenerationSoftware,KiCad,Pcbnew,(5.1.5)-3*
G04 #@! TF.CreationDate,2020-03-22T20:56:45+08:00*
G04 #@! TF.ProjectId,XS40,58533430-2e6b-4696-9361-645f70636258,rev?*
G04 #@! TF.SameCoordinates,Original*
G04 #@! TF.FileFunction,Legend,Bot*
G04 #@! TF.FilePolarity,Positive*
%FSLAX45Y45*%
G04 Gerber Fmt 4.5, Leading zero omitted, Abs format (unit mm)*
G04 Created by KiCad (PCBNEW (5.1.5)-3) date 2020-03-22 20:56:45*
%MOMM*%
%LPD*%
G04 APERTURE LIST*
%ADD10C,0.300000*%
%ADD11C,0.120000*%
%ADD12C,0.150000*%
G04 APERTURE END LIST*
D10*
X4772876Y-4397909D02*
X4722876Y-4547909D01*
X4672876Y-4397909D01*
X4509178Y-4549941D02*
X4509178Y-4399941D01*
X4473463Y-4399941D01*
X4452035Y-4407084D01*
X4437749Y-4421370D01*
X4430606Y-4435655D01*
X4423463Y-4464227D01*
X4423463Y-4485655D01*
X4430606Y-4514227D01*
X4437749Y-4528513D01*
X4452035Y-4542798D01*
X4473463Y-4549941D01*
X4509178Y-4549941D01*
X4167939Y-4535655D02*
X4175082Y-4542798D01*
X4196511Y-4549941D01*
X4210797Y-4549941D01*
X4232225Y-4542798D01*
X4246511Y-4528513D01*
X4253654Y-4514227D01*
X4260797Y-4485655D01*
X4260797Y-4464227D01*
X4253654Y-4435655D01*
X4246511Y-4421370D01*
X4232225Y-4407084D01*
X4210797Y-4399941D01*
X4196511Y-4399941D01*
X4175082Y-4407084D01*
X4167939Y-4414227D01*
X3916479Y-4549941D02*
X3966479Y-4478513D01*
X4002194Y-4549941D02*
X4002194Y-4399941D01*
X3945051Y-4399941D01*
X3930765Y-4407084D01*
X3923622Y-4414227D01*
X3916479Y-4428513D01*
X3916479Y-4449941D01*
X3923622Y-4464227D01*
X3930765Y-4471370D01*
X3945051Y-4478513D01*
X4002194Y-4478513D01*
X3695530Y-4409116D02*
X3709816Y-4401973D01*
X3731244Y-4401973D01*
X3752673Y-4409116D01*
X3766959Y-4423402D01*
X3774102Y-4437687D01*
X3781244Y-4466259D01*
X3781244Y-4487687D01*
X3774102Y-4516259D01*
X3766959Y-4530545D01*
X3752673Y-4544830D01*
X3731244Y-4551973D01*
X3716959Y-4551973D01*
X3695530Y-4544830D01*
X3688387Y-4537687D01*
X3688387Y-4487687D01*
X3716959Y-4487687D01*
D11*
X17295040Y-4594970D02*
X17295040Y-4549970D01*
X17295040Y-4594970D02*
X17340040Y-4594970D01*
X17855040Y-4539970D02*
X17810040Y-4539970D01*
X17855040Y-4354970D02*
X17855040Y-4539970D01*
X17075040Y-4099970D02*
X17075040Y-4124970D01*
X17855040Y-4099970D02*
X17855040Y-4124970D01*
X17075040Y-4354970D02*
X17075040Y-4539970D01*
X17075040Y-4539970D02*
X17120040Y-4539970D01*
X3603340Y-4202176D02*
X3603340Y-4335176D01*
X3603340Y-4335176D02*
X3736340Y-4335176D01*
X3863340Y-4335176D02*
X4885340Y-4335176D01*
X4885340Y-4069176D02*
X4885340Y-4335176D01*
X3863340Y-4069176D02*
X4885340Y-4069176D01*
X3863340Y-4069176D02*
X3863340Y-4335176D01*
X11705240Y-4435348D02*
X11705240Y-4302348D01*
X11705240Y-4302348D02*
X11572240Y-4302348D01*
X11445240Y-4302348D02*
X6613240Y-4302348D01*
X6613240Y-4568348D02*
X6613240Y-4302348D01*
X11445240Y-4568348D02*
X6613240Y-4568348D01*
X11445240Y-4568348D02*
X11445240Y-4302348D01*
X16475468Y-5538524D02*
X16442912Y-5538524D01*
X16475468Y-5640524D02*
X16442912Y-5640524D01*
X16443938Y-5392220D02*
X16476494Y-5392220D01*
X16443938Y-5494220D02*
X16476494Y-5494220D01*
X3463522Y-4589980D02*
X3496078Y-4589980D01*
X3463522Y-4487980D02*
X3496078Y-4487980D01*
X4805660Y-7271220D02*
X4417160Y-7271220D01*
X4417160Y-7271220D02*
X4417160Y-7044220D01*
X4417160Y-7044220D02*
X4805660Y-7044220D01*
X6322160Y-7044220D02*
X6710660Y-7044220D01*
X6322160Y-7271220D02*
X6322160Y-7044220D01*
X6710660Y-7271220D02*
X6322160Y-7271220D01*
X8227160Y-7044220D02*
X8615660Y-7044220D01*
X8227160Y-7271220D02*
X8227160Y-7044220D01*
X8615660Y-7271220D02*
X8227160Y-7271220D01*
X10132160Y-7044220D02*
X10520660Y-7044220D01*
X10132160Y-7271220D02*
X10132160Y-7044220D01*
X10520660Y-7271220D02*
X10132160Y-7271220D01*
X12037160Y-7044220D02*
X12425660Y-7044220D01*
X12037160Y-7271220D02*
X12037160Y-7044220D01*
X12425660Y-7271220D02*
X12037160Y-7271220D01*
X13942160Y-7044220D02*
X14330660Y-7044220D01*
X13942160Y-7271220D02*
X13942160Y-7044220D01*
X14330660Y-7271220D02*
X13942160Y-7271220D01*
X16235660Y-7271220D02*
X15847160Y-7271220D01*
X15847160Y-7271220D02*
X15847160Y-7044220D01*
X15847160Y-7044220D02*
X16235660Y-7044220D01*
X18140660Y-7271220D02*
X17752160Y-7271220D01*
X17752160Y-7271220D02*
X17752160Y-7044220D01*
X17752160Y-7044220D02*
X18140660Y-7044220D01*
X4805660Y-9176220D02*
X4417160Y-9176220D01*
X4417160Y-9176220D02*
X4417160Y-8949220D01*
X4417160Y-8949220D02*
X4805660Y-8949220D01*
X6322160Y-8949220D02*
X6710660Y-8949220D01*
X6322160Y-9176220D02*
X6322160Y-8949220D01*
X6710660Y-9176220D02*
X6322160Y-9176220D01*
X8227160Y-8949220D02*
X8615660Y-8949220D01*
X8227160Y-9176220D02*
X8227160Y-8949220D01*
X8615660Y-9176220D02*
X8227160Y-9176220D01*
X10132160Y-8949220D02*
X10520660Y-8949220D01*
X10132160Y-9176220D02*
X10132160Y-8949220D01*
X10520660Y-9176220D02*
X10132160Y-9176220D01*
X12037160Y-8949220D02*
X12425660Y-8949220D01*
X12037160Y-9176220D02*
X12037160Y-8949220D01*
X12425660Y-9176220D02*
X12037160Y-9176220D01*
X14330660Y-9176220D02*
X13942160Y-9176220D01*
X13942160Y-9176220D02*
X13942160Y-8949220D01*
X13942160Y-8949220D02*
X14330660Y-8949220D01*
X16235660Y-9176220D02*
X15847160Y-9176220D01*
X15847160Y-9176220D02*
X15847160Y-8949220D01*
X15847160Y-8949220D02*
X16235660Y-8949220D01*
X18140660Y-9176220D02*
X17752160Y-9176220D01*
X17752160Y-9176220D02*
X17752160Y-8949220D01*
X17752160Y-8949220D02*
X18140660Y-8949220D01*
X4805660Y-11081220D02*
X4417160Y-11081220D01*
X4417160Y-11081220D02*
X4417160Y-10854220D01*
X4417160Y-10854220D02*
X4805660Y-10854220D01*
X6322160Y-10854220D02*
X6710660Y-10854220D01*
X6322160Y-11081220D02*
X6322160Y-10854220D01*
X6710660Y-11081220D02*
X6322160Y-11081220D01*
X8227160Y-10854220D02*
X8615660Y-10854220D01*
X8227160Y-11081220D02*
X8227160Y-10854220D01*
X8615660Y-11081220D02*
X8227160Y-11081220D01*
X10132160Y-10854220D02*
X10520660Y-10854220D01*
X10132160Y-11081220D02*
X10132160Y-10854220D01*
X10520660Y-11081220D02*
X10132160Y-11081220D01*
X12037160Y-10854220D02*
X12425660Y-10854220D01*
X12037160Y-11081220D02*
X12037160Y-10854220D01*
X12425660Y-11081220D02*
X12037160Y-11081220D01*
X14330660Y-11081220D02*
X13942160Y-11081220D01*
X13942160Y-11081220D02*
X13942160Y-10854220D01*
X13942160Y-10854220D02*
X14330660Y-10854220D01*
X16235660Y-11081220D02*
X15847160Y-11081220D01*
X15847160Y-11081220D02*
X15847160Y-10854220D01*
X15847160Y-10854220D02*
X16235660Y-10854220D01*
X18140660Y-11081220D02*
X17752160Y-11081220D01*
X17752160Y-11081220D02*
X17752160Y-10854220D01*
X17752160Y-10854220D02*
X18140660Y-10854220D01*
X4805660Y-12986220D02*
X4417160Y-12986220D01*
X4417160Y-12986220D02*
X4417160Y-12759220D01*
X4417160Y-12759220D02*
X4805660Y-12759220D01*
X6322160Y-12759220D02*
X6710660Y-12759220D01*
X6322160Y-12986220D02*
X6322160Y-12759220D01*
X6710660Y-12986220D02*
X6322160Y-12986220D01*
X8227160Y-12759220D02*
X8615660Y-12759220D01*
X8227160Y-12986220D02*
X8227160Y-12759220D01*
X8615660Y-12986220D02*
X8227160Y-12986220D01*
X10132160Y-12759220D02*
X10520660Y-12759220D01*
X10132160Y-12986220D02*
X10132160Y-12759220D01*
X10520660Y-12986220D02*
X10132160Y-12986220D01*
X12425660Y-12986220D02*
X12037160Y-12986220D01*
X12037160Y-12986220D02*
X12037160Y-12759220D01*
X12037160Y-12759220D02*
X12425660Y-12759220D01*
X14330660Y-12986220D02*
X13942160Y-12986220D01*
X13942160Y-12986220D02*
X13942160Y-12759220D01*
X13942160Y-12759220D02*
X14330660Y-12759220D01*
X16235660Y-12986220D02*
X15847160Y-12986220D01*
X15847160Y-12986220D02*
X15847160Y-12759220D01*
X15847160Y-12759220D02*
X16235660Y-12759220D01*
X18140660Y-12986220D02*
X17752160Y-12986220D01*
X17752160Y-12986220D02*
X17752160Y-12759220D01*
X17752160Y-12759220D02*
X18140660Y-12759220D01*
X4417160Y-14664220D02*
X4805660Y-14664220D01*
X4417160Y-14891220D02*
X4417160Y-14664220D01*
X4805660Y-14891220D02*
X4417160Y-14891220D01*
X6322160Y-14664220D02*
X6710660Y-14664220D01*
X6322160Y-14891220D02*
X6322160Y-14664220D01*
X6710660Y-14891220D02*
X6322160Y-14891220D01*
X8227160Y-14664220D02*
X8615660Y-14664220D01*
X8227160Y-14891220D02*
X8227160Y-14664220D01*
X8615660Y-14891220D02*
X8227160Y-14891220D01*
X10132160Y-14664220D02*
X10520660Y-14664220D01*
X10132160Y-14891220D02*
X10132160Y-14664220D01*
X10520660Y-14891220D02*
X10132160Y-14891220D01*
X12425660Y-14891220D02*
X12037160Y-14891220D01*
X12037160Y-14891220D02*
X12037160Y-14664220D01*
X12037160Y-14664220D02*
X12425660Y-14664220D01*
X14330660Y-14891220D02*
X13942160Y-14891220D01*
X13942160Y-14891220D02*
X13942160Y-14664220D01*
X13942160Y-14664220D02*
X14330660Y-14664220D01*
X16235660Y-14891220D02*
X15847160Y-14891220D01*
X15847160Y-14891220D02*
X15847160Y-14664220D01*
X15847160Y-14664220D02*
X16235660Y-14664220D01*
X18140660Y-14891220D02*
X17752160Y-14891220D01*
X17752160Y-14891220D02*
X17752160Y-14664220D01*
X17752160Y-14664220D02*
X18140660Y-14664220D01*
X15422824Y-5574208D02*
X15422824Y-5374208D01*
X15422824Y-5374208D02*
X15812824Y-5374208D01*
X15422824Y-5574208D02*
X15812824Y-5574208D01*
X15366956Y-5374208D02*
X14976956Y-5374208D01*
X15366956Y-5574208D02*
X14976956Y-5574208D01*
X15366956Y-5374208D02*
X15366956Y-5574208D01*
X14222279Y-4299944D02*
G75*
G03X14152279Y-4369944I0J-70000D01*
G01*
X14352279Y-4369944D02*
G75*
G03X14282279Y-4299944I-70000J0D01*
G01*
X14282279Y-4709944D02*
G75*
G03X14352279Y-4639944I0J70000D01*
G01*
X14152279Y-4639944D02*
G75*
G03X14222279Y-4709944I70000J0D01*
G01*
X14152279Y-4364944D02*
X14152279Y-4644944D01*
X14222279Y-4709944D02*
X14282279Y-4709944D01*
X14352279Y-4644944D02*
X14352279Y-4364944D01*
X14282279Y-4299944D02*
X14222279Y-4299944D01*
X14835152Y-4299944D02*
X14775152Y-4299944D01*
X14905152Y-4644944D02*
X14905152Y-4364944D01*
X14775152Y-4709944D02*
X14835152Y-4709944D01*
X14705152Y-4364944D02*
X14705152Y-4644944D01*
X14705152Y-4639944D02*
G75*
G03X14775152Y-4709944I70000J0D01*
G01*
X14835152Y-4709944D02*
G75*
G03X14905152Y-4639944I0J70000D01*
G01*
X14905152Y-4369944D02*
G75*
G03X14835152Y-4299944I-70000J0D01*
G01*
X14775152Y-4299944D02*
G75*
G03X14705152Y-4369944I0J-70000D01*
G01*
X13116532Y-4299944D02*
G75*
G03X13046532Y-4369944I0J-70000D01*
G01*
X13246532Y-4369944D02*
G75*
G03X13176532Y-4299944I-70000J0D01*
G01*
X13176532Y-4709944D02*
G75*
G03X13246532Y-4639944I0J70000D01*
G01*
X13046532Y-4639944D02*
G75*
G03X13116532Y-4709944I70000J0D01*
G01*
X13046532Y-4364944D02*
X13046532Y-4644944D01*
X13116532Y-4709944D02*
X13176532Y-4709944D01*
X13246532Y-4644944D02*
X13246532Y-4364944D01*
X13176532Y-4299944D02*
X13116532Y-4299944D01*
X13729405Y-4299944D02*
X13669405Y-4299944D01*
X13799405Y-4644944D02*
X13799405Y-4364944D01*
X13669405Y-4709944D02*
X13729405Y-4709944D01*
X13599405Y-4364944D02*
X13599405Y-4644944D01*
X13599405Y-4639944D02*
G75*
G03X13669405Y-4709944I70000J0D01*
G01*
X13729405Y-4709944D02*
G75*
G03X13799405Y-4639944I0J70000D01*
G01*
X13799405Y-4369944D02*
G75*
G03X13729405Y-4299944I-70000J0D01*
G01*
X13669405Y-4299944D02*
G75*
G03X13599405Y-4369944I0J-70000D01*
G01*
D12*
X4246440Y-4842260D02*
X4246440Y-5287260D01*
X3556440Y-4689760D02*
X3556440Y-5287260D01*
D11*
X15125480Y-4818380D02*
X15125480Y-4579880D01*
X15125480Y-4579880D02*
X15150980Y-4579880D01*
X15125480Y-4818380D02*
X15125480Y-5056880D01*
X15125480Y-5056880D02*
X15150980Y-5056880D01*
X16177480Y-4818380D02*
X16177480Y-4579880D01*
X16177480Y-4579880D02*
X16151980Y-4579880D01*
X16177480Y-4818380D02*
X16177480Y-5056880D01*
X16177480Y-5056880D02*
X16151980Y-5056880D01*
X16151980Y-5056880D02*
X16151980Y-5223380D01*
D12*
X17498373Y-4620208D02*
X17498373Y-4691637D01*
X17503135Y-4705922D01*
X17512659Y-4715446D01*
X17526945Y-4720208D01*
X17536469Y-4720208D01*
X17398373Y-4720208D02*
X17455516Y-4720208D01*
X17426945Y-4720208D02*
X17426945Y-4620208D01*
X17436469Y-4634494D01*
X17445992Y-4644018D01*
X17455516Y-4648780D01*
X3404578Y-4168843D02*
X3476007Y-4168843D01*
X3490292Y-4164081D01*
X3499816Y-4154557D01*
X3504578Y-4140271D01*
X3504578Y-4130747D01*
X3404578Y-4206938D02*
X3404578Y-4268843D01*
X3442673Y-4235509D01*
X3442673Y-4249795D01*
X3447435Y-4259319D01*
X3452197Y-4264081D01*
X3461721Y-4268843D01*
X3485530Y-4268843D01*
X3495054Y-4264081D01*
X3499816Y-4259319D01*
X3504578Y-4249795D01*
X3504578Y-4221224D01*
X3499816Y-4211700D01*
X3495054Y-4206938D01*
X11794478Y-4402015D02*
X11865907Y-4402015D01*
X11880192Y-4397253D01*
X11889716Y-4387729D01*
X11894478Y-4373443D01*
X11894478Y-4363919D01*
X11804002Y-4444872D02*
X11799240Y-4449634D01*
X11794478Y-4459158D01*
X11794478Y-4482967D01*
X11799240Y-4492491D01*
X11804002Y-4497253D01*
X11813526Y-4502015D01*
X11823049Y-4502015D01*
X11837335Y-4497253D01*
X11894478Y-4440110D01*
X11894478Y-4502015D01*
X16756283Y-5622190D02*
X16761044Y-5626952D01*
X16775330Y-5631714D01*
X16784854Y-5631714D01*
X16799140Y-5626952D01*
X16808664Y-5617428D01*
X16813426Y-5607904D01*
X16818187Y-5588857D01*
X16818187Y-5574571D01*
X16813426Y-5555524D01*
X16808664Y-5546000D01*
X16799140Y-5536476D01*
X16784854Y-5531714D01*
X16775330Y-5531714D01*
X16761044Y-5536476D01*
X16756283Y-5541238D01*
X16661044Y-5631714D02*
X16718187Y-5631714D01*
X16689616Y-5631714D02*
X16689616Y-5531714D01*
X16699140Y-5546000D01*
X16708664Y-5555524D01*
X16718187Y-5560286D01*
X16757807Y-5478426D02*
X16762568Y-5483188D01*
X16776854Y-5487950D01*
X16786378Y-5487950D01*
X16800664Y-5483188D01*
X16810188Y-5473664D01*
X16814950Y-5464141D01*
X16819711Y-5445093D01*
X16819711Y-5430807D01*
X16814950Y-5411760D01*
X16810188Y-5402236D01*
X16800664Y-5392712D01*
X16786378Y-5387950D01*
X16776854Y-5387950D01*
X16762568Y-5392712D01*
X16757807Y-5397474D01*
X16719711Y-5397474D02*
X16714949Y-5392712D01*
X16705426Y-5387950D01*
X16681616Y-5387950D01*
X16672092Y-5392712D01*
X16667330Y-5397474D01*
X16662568Y-5406998D01*
X16662568Y-5416522D01*
X16667330Y-5430807D01*
X16724473Y-5487950D01*
X16662568Y-5487950D01*
X3444651Y-4725570D02*
X3449412Y-4730332D01*
X3463698Y-4735094D01*
X3473222Y-4735094D01*
X3487508Y-4730332D01*
X3497032Y-4720808D01*
X3501793Y-4711285D01*
X3506555Y-4692237D01*
X3506555Y-4677951D01*
X3501793Y-4658904D01*
X3497032Y-4649380D01*
X3487508Y-4639856D01*
X3473222Y-4635094D01*
X3463698Y-4635094D01*
X3449412Y-4639856D01*
X3444651Y-4644618D01*
X3411317Y-4635094D02*
X3349412Y-4635094D01*
X3382746Y-4673189D01*
X3368460Y-4673189D01*
X3358936Y-4677951D01*
X3354174Y-4682713D01*
X3349412Y-4692237D01*
X3349412Y-4716046D01*
X3354174Y-4725570D01*
X3358936Y-4730332D01*
X3368460Y-4735094D01*
X3397032Y-4735094D01*
X3406555Y-4730332D01*
X3411317Y-4725570D01*
X4719470Y-7384958D02*
X4719470Y-7284958D01*
X4695660Y-7284958D01*
X4681374Y-7289720D01*
X4671850Y-7299244D01*
X4667089Y-7308768D01*
X4662327Y-7327815D01*
X4662327Y-7342101D01*
X4667089Y-7361148D01*
X4671850Y-7370672D01*
X4681374Y-7380196D01*
X4695660Y-7384958D01*
X4719470Y-7384958D01*
X4567089Y-7384958D02*
X4624231Y-7384958D01*
X4595660Y-7384958D02*
X4595660Y-7284958D01*
X4605184Y-7299244D01*
X4614708Y-7308768D01*
X4624231Y-7313529D01*
X6624469Y-7384958D02*
X6624469Y-7284958D01*
X6600660Y-7284958D01*
X6586374Y-7289720D01*
X6576850Y-7299244D01*
X6572088Y-7308768D01*
X6567327Y-7327815D01*
X6567327Y-7342101D01*
X6572088Y-7361148D01*
X6576850Y-7370672D01*
X6586374Y-7380196D01*
X6600660Y-7384958D01*
X6624469Y-7384958D01*
X6529231Y-7294482D02*
X6524469Y-7289720D01*
X6514946Y-7284958D01*
X6491136Y-7284958D01*
X6481612Y-7289720D01*
X6476850Y-7294482D01*
X6472088Y-7304006D01*
X6472088Y-7313529D01*
X6476850Y-7327815D01*
X6533993Y-7384958D01*
X6472088Y-7384958D01*
X8529470Y-7384958D02*
X8529470Y-7284958D01*
X8505660Y-7284958D01*
X8491374Y-7289720D01*
X8481850Y-7299244D01*
X8477089Y-7308768D01*
X8472327Y-7327815D01*
X8472327Y-7342101D01*
X8477089Y-7361148D01*
X8481850Y-7370672D01*
X8491374Y-7380196D01*
X8505660Y-7384958D01*
X8529470Y-7384958D01*
X8438993Y-7284958D02*
X8377088Y-7284958D01*
X8410422Y-7323053D01*
X8396136Y-7323053D01*
X8386612Y-7327815D01*
X8381850Y-7332577D01*
X8377088Y-7342101D01*
X8377088Y-7365910D01*
X8381850Y-7375434D01*
X8386612Y-7380196D01*
X8396136Y-7384958D01*
X8424708Y-7384958D01*
X8434231Y-7380196D01*
X8438993Y-7375434D01*
X10434470Y-7384958D02*
X10434470Y-7284958D01*
X10410660Y-7284958D01*
X10396374Y-7289720D01*
X10386850Y-7299244D01*
X10382089Y-7308768D01*
X10377327Y-7327815D01*
X10377327Y-7342101D01*
X10382089Y-7361148D01*
X10386850Y-7370672D01*
X10396374Y-7380196D01*
X10410660Y-7384958D01*
X10434470Y-7384958D01*
X10291612Y-7318291D02*
X10291612Y-7384958D01*
X10315422Y-7280196D02*
X10339231Y-7351625D01*
X10277327Y-7351625D01*
X12339469Y-7384958D02*
X12339469Y-7284958D01*
X12315660Y-7284958D01*
X12301374Y-7289720D01*
X12291850Y-7299244D01*
X12287088Y-7308768D01*
X12282327Y-7327815D01*
X12282327Y-7342101D01*
X12287088Y-7361148D01*
X12291850Y-7370672D01*
X12301374Y-7380196D01*
X12315660Y-7384958D01*
X12339469Y-7384958D01*
X12191850Y-7284958D02*
X12239469Y-7284958D01*
X12244231Y-7332577D01*
X12239469Y-7327815D01*
X12229946Y-7323053D01*
X12206136Y-7323053D01*
X12196612Y-7327815D01*
X12191850Y-7332577D01*
X12187088Y-7342101D01*
X12187088Y-7365910D01*
X12191850Y-7375434D01*
X12196612Y-7380196D01*
X12206136Y-7384958D01*
X12229946Y-7384958D01*
X12239469Y-7380196D01*
X12244231Y-7375434D01*
X14244469Y-7384958D02*
X14244469Y-7284958D01*
X14220660Y-7284958D01*
X14206374Y-7289720D01*
X14196850Y-7299244D01*
X14192088Y-7308768D01*
X14187327Y-7327815D01*
X14187327Y-7342101D01*
X14192088Y-7361148D01*
X14196850Y-7370672D01*
X14206374Y-7380196D01*
X14220660Y-7384958D01*
X14244469Y-7384958D01*
X14101612Y-7284958D02*
X14120660Y-7284958D01*
X14130184Y-7289720D01*
X14134946Y-7294482D01*
X14144469Y-7308768D01*
X14149231Y-7327815D01*
X14149231Y-7365910D01*
X14144469Y-7375434D01*
X14139708Y-7380196D01*
X14130184Y-7384958D01*
X14111136Y-7384958D01*
X14101612Y-7380196D01*
X14096850Y-7375434D01*
X14092088Y-7365910D01*
X14092088Y-7342101D01*
X14096850Y-7332577D01*
X14101612Y-7327815D01*
X14111136Y-7323053D01*
X14130184Y-7323053D01*
X14139708Y-7327815D01*
X14144469Y-7332577D01*
X14149231Y-7342101D01*
X16149469Y-7384958D02*
X16149469Y-7284958D01*
X16125660Y-7284958D01*
X16111374Y-7289720D01*
X16101850Y-7299244D01*
X16097088Y-7308768D01*
X16092327Y-7327815D01*
X16092327Y-7342101D01*
X16097088Y-7361148D01*
X16101850Y-7370672D01*
X16111374Y-7380196D01*
X16125660Y-7384958D01*
X16149469Y-7384958D01*
X16058993Y-7284958D02*
X15992327Y-7284958D01*
X16035184Y-7384958D01*
X18054470Y-7384958D02*
X18054470Y-7284958D01*
X18030660Y-7284958D01*
X18016374Y-7289720D01*
X18006850Y-7299244D01*
X18002089Y-7308768D01*
X17997327Y-7327815D01*
X17997327Y-7342101D01*
X18002089Y-7361148D01*
X18006850Y-7370672D01*
X18016374Y-7380196D01*
X18030660Y-7384958D01*
X18054470Y-7384958D01*
X17940184Y-7327815D02*
X17949708Y-7323053D01*
X17954470Y-7318291D01*
X17959231Y-7308768D01*
X17959231Y-7304006D01*
X17954470Y-7294482D01*
X17949708Y-7289720D01*
X17940184Y-7284958D01*
X17921136Y-7284958D01*
X17911612Y-7289720D01*
X17906850Y-7294482D01*
X17902089Y-7304006D01*
X17902089Y-7308768D01*
X17906850Y-7318291D01*
X17911612Y-7323053D01*
X17921136Y-7327815D01*
X17940184Y-7327815D01*
X17949708Y-7332577D01*
X17954470Y-7337339D01*
X17959231Y-7346863D01*
X17959231Y-7365910D01*
X17954470Y-7375434D01*
X17949708Y-7380196D01*
X17940184Y-7384958D01*
X17921136Y-7384958D01*
X17911612Y-7380196D01*
X17906850Y-7375434D01*
X17902089Y-7365910D01*
X17902089Y-7346863D01*
X17906850Y-7337339D01*
X17911612Y-7332577D01*
X17921136Y-7327815D01*
X4719470Y-9289958D02*
X4719470Y-9189958D01*
X4695660Y-9189958D01*
X4681374Y-9194720D01*
X4671850Y-9204244D01*
X4667089Y-9213768D01*
X4662327Y-9232815D01*
X4662327Y-9247101D01*
X4667089Y-9266149D01*
X4671850Y-9275672D01*
X4681374Y-9285196D01*
X4695660Y-9289958D01*
X4719470Y-9289958D01*
X4614708Y-9289958D02*
X4595660Y-9289958D01*
X4586136Y-9285196D01*
X4581374Y-9280434D01*
X4571850Y-9266149D01*
X4567089Y-9247101D01*
X4567089Y-9209006D01*
X4571850Y-9199482D01*
X4576612Y-9194720D01*
X4586136Y-9189958D01*
X4605184Y-9189958D01*
X4614708Y-9194720D01*
X4619470Y-9199482D01*
X4624231Y-9209006D01*
X4624231Y-9232815D01*
X4619470Y-9242339D01*
X4614708Y-9247101D01*
X4605184Y-9251863D01*
X4586136Y-9251863D01*
X4576612Y-9247101D01*
X4571850Y-9242339D01*
X4567089Y-9232815D01*
X6672088Y-9289958D02*
X6672088Y-9189958D01*
X6648279Y-9189958D01*
X6633993Y-9194720D01*
X6624469Y-9204244D01*
X6619708Y-9213768D01*
X6614946Y-9232815D01*
X6614946Y-9247101D01*
X6619708Y-9266149D01*
X6624469Y-9275672D01*
X6633993Y-9285196D01*
X6648279Y-9289958D01*
X6672088Y-9289958D01*
X6519708Y-9289958D02*
X6576850Y-9289958D01*
X6548279Y-9289958D02*
X6548279Y-9189958D01*
X6557803Y-9204244D01*
X6567327Y-9213768D01*
X6576850Y-9218530D01*
X6457803Y-9189958D02*
X6448279Y-9189958D01*
X6438755Y-9194720D01*
X6433993Y-9199482D01*
X6429231Y-9209006D01*
X6424469Y-9228053D01*
X6424469Y-9251863D01*
X6429231Y-9270910D01*
X6433993Y-9280434D01*
X6438755Y-9285196D01*
X6448279Y-9289958D01*
X6457803Y-9289958D01*
X6467327Y-9285196D01*
X6472088Y-9280434D01*
X6476850Y-9270910D01*
X6481612Y-9251863D01*
X6481612Y-9228053D01*
X6476850Y-9209006D01*
X6472088Y-9199482D01*
X6467327Y-9194720D01*
X6457803Y-9189958D01*
X8577089Y-9289958D02*
X8577089Y-9189958D01*
X8553279Y-9189958D01*
X8538993Y-9194720D01*
X8529470Y-9204244D01*
X8524708Y-9213768D01*
X8519946Y-9232815D01*
X8519946Y-9247101D01*
X8524708Y-9266149D01*
X8529470Y-9275672D01*
X8538993Y-9285196D01*
X8553279Y-9289958D01*
X8577089Y-9289958D01*
X8424708Y-9289958D02*
X8481850Y-9289958D01*
X8453279Y-9289958D02*
X8453279Y-9189958D01*
X8462803Y-9204244D01*
X8472327Y-9213768D01*
X8481850Y-9218530D01*
X8329469Y-9289958D02*
X8386612Y-9289958D01*
X8358041Y-9289958D02*
X8358041Y-9189958D01*
X8367565Y-9204244D01*
X8377088Y-9213768D01*
X8386612Y-9218530D01*
X10482089Y-9289958D02*
X10482089Y-9189958D01*
X10458279Y-9189958D01*
X10443993Y-9194720D01*
X10434470Y-9204244D01*
X10429708Y-9213768D01*
X10424946Y-9232815D01*
X10424946Y-9247101D01*
X10429708Y-9266149D01*
X10434470Y-9275672D01*
X10443993Y-9285196D01*
X10458279Y-9289958D01*
X10482089Y-9289958D01*
X10329708Y-9289958D02*
X10386850Y-9289958D01*
X10358279Y-9289958D02*
X10358279Y-9189958D01*
X10367803Y-9204244D01*
X10377327Y-9213768D01*
X10386850Y-9218530D01*
X10291612Y-9199482D02*
X10286850Y-9194720D01*
X10277327Y-9189958D01*
X10253517Y-9189958D01*
X10243993Y-9194720D01*
X10239231Y-9199482D01*
X10234470Y-9209006D01*
X10234470Y-9218530D01*
X10239231Y-9232815D01*
X10296374Y-9289958D01*
X10234470Y-9289958D01*
X12387088Y-9289958D02*
X12387088Y-9189958D01*
X12363279Y-9189958D01*
X12348993Y-9194720D01*
X12339469Y-9204244D01*
X12334708Y-9213768D01*
X12329946Y-9232815D01*
X12329946Y-9247101D01*
X12334708Y-9266149D01*
X12339469Y-9275672D01*
X12348993Y-9285196D01*
X12363279Y-9289958D01*
X12387088Y-9289958D01*
X12234708Y-9289958D02*
X12291850Y-9289958D01*
X12263279Y-9289958D02*
X12263279Y-9189958D01*
X12272803Y-9204244D01*
X12282327Y-9213768D01*
X12291850Y-9218530D01*
X12201374Y-9189958D02*
X12139469Y-9189958D01*
X12172803Y-9228053D01*
X12158517Y-9228053D01*
X12148993Y-9232815D01*
X12144231Y-9237577D01*
X12139469Y-9247101D01*
X12139469Y-9270910D01*
X12144231Y-9280434D01*
X12148993Y-9285196D01*
X12158517Y-9289958D01*
X12187088Y-9289958D01*
X12196612Y-9285196D01*
X12201374Y-9280434D01*
X14292088Y-9289958D02*
X14292088Y-9189958D01*
X14268279Y-9189958D01*
X14253993Y-9194720D01*
X14244469Y-9204244D01*
X14239708Y-9213768D01*
X14234946Y-9232815D01*
X14234946Y-9247101D01*
X14239708Y-9266149D01*
X14244469Y-9275672D01*
X14253993Y-9285196D01*
X14268279Y-9289958D01*
X14292088Y-9289958D01*
X14139708Y-9289958D02*
X14196850Y-9289958D01*
X14168279Y-9289958D02*
X14168279Y-9189958D01*
X14177803Y-9204244D01*
X14187327Y-9213768D01*
X14196850Y-9218530D01*
X14053993Y-9223291D02*
X14053993Y-9289958D01*
X14077803Y-9185196D02*
X14101612Y-9256625D01*
X14039708Y-9256625D01*
X16197088Y-9289958D02*
X16197088Y-9189958D01*
X16173279Y-9189958D01*
X16158993Y-9194720D01*
X16149469Y-9204244D01*
X16144708Y-9213768D01*
X16139946Y-9232815D01*
X16139946Y-9247101D01*
X16144708Y-9266149D01*
X16149469Y-9275672D01*
X16158993Y-9285196D01*
X16173279Y-9289958D01*
X16197088Y-9289958D01*
X16044708Y-9289958D02*
X16101850Y-9289958D01*
X16073279Y-9289958D02*
X16073279Y-9189958D01*
X16082803Y-9204244D01*
X16092327Y-9213768D01*
X16101850Y-9218530D01*
X15954231Y-9189958D02*
X16001850Y-9189958D01*
X16006612Y-9237577D01*
X16001850Y-9232815D01*
X15992327Y-9228053D01*
X15968517Y-9228053D01*
X15958993Y-9232815D01*
X15954231Y-9237577D01*
X15949469Y-9247101D01*
X15949469Y-9270910D01*
X15954231Y-9280434D01*
X15958993Y-9285196D01*
X15968517Y-9289958D01*
X15992327Y-9289958D01*
X16001850Y-9285196D01*
X16006612Y-9280434D01*
X18102089Y-9289958D02*
X18102089Y-9189958D01*
X18078279Y-9189958D01*
X18063993Y-9194720D01*
X18054470Y-9204244D01*
X18049708Y-9213768D01*
X18044946Y-9232815D01*
X18044946Y-9247101D01*
X18049708Y-9266149D01*
X18054470Y-9275672D01*
X18063993Y-9285196D01*
X18078279Y-9289958D01*
X18102089Y-9289958D01*
X17949708Y-9289958D02*
X18006850Y-9289958D01*
X17978279Y-9289958D02*
X17978279Y-9189958D01*
X17987803Y-9204244D01*
X17997327Y-9213768D01*
X18006850Y-9218530D01*
X17863993Y-9189958D02*
X17883041Y-9189958D01*
X17892565Y-9194720D01*
X17897327Y-9199482D01*
X17906850Y-9213768D01*
X17911612Y-9232815D01*
X17911612Y-9270910D01*
X17906850Y-9280434D01*
X17902089Y-9285196D01*
X17892565Y-9289958D01*
X17873517Y-9289958D01*
X17863993Y-9285196D01*
X17859231Y-9280434D01*
X17854470Y-9270910D01*
X17854470Y-9247101D01*
X17859231Y-9237577D01*
X17863993Y-9232815D01*
X17873517Y-9228053D01*
X17892565Y-9228053D01*
X17902089Y-9232815D01*
X17906850Y-9237577D01*
X17911612Y-9247101D01*
X4767089Y-11194958D02*
X4767089Y-11094958D01*
X4743279Y-11094958D01*
X4728993Y-11099720D01*
X4719470Y-11109244D01*
X4714708Y-11118768D01*
X4709946Y-11137815D01*
X4709946Y-11152101D01*
X4714708Y-11171149D01*
X4719470Y-11180672D01*
X4728993Y-11190196D01*
X4743279Y-11194958D01*
X4767089Y-11194958D01*
X4614708Y-11194958D02*
X4671850Y-11194958D01*
X4643279Y-11194958D02*
X4643279Y-11094958D01*
X4652803Y-11109244D01*
X4662327Y-11118768D01*
X4671850Y-11123530D01*
X4581374Y-11094958D02*
X4514708Y-11094958D01*
X4557565Y-11194958D01*
X6672088Y-11194958D02*
X6672088Y-11094958D01*
X6648279Y-11094958D01*
X6633993Y-11099720D01*
X6624469Y-11109244D01*
X6619708Y-11118768D01*
X6614946Y-11137815D01*
X6614946Y-11152101D01*
X6619708Y-11171149D01*
X6624469Y-11180672D01*
X6633993Y-11190196D01*
X6648279Y-11194958D01*
X6672088Y-11194958D01*
X6519708Y-11194958D02*
X6576850Y-11194958D01*
X6548279Y-11194958D02*
X6548279Y-11094958D01*
X6557803Y-11109244D01*
X6567327Y-11118768D01*
X6576850Y-11123530D01*
X6462565Y-11137815D02*
X6472088Y-11133053D01*
X6476850Y-11128291D01*
X6481612Y-11118768D01*
X6481612Y-11114006D01*
X6476850Y-11104482D01*
X6472088Y-11099720D01*
X6462565Y-11094958D01*
X6443517Y-11094958D01*
X6433993Y-11099720D01*
X6429231Y-11104482D01*
X6424469Y-11114006D01*
X6424469Y-11118768D01*
X6429231Y-11128291D01*
X6433993Y-11133053D01*
X6443517Y-11137815D01*
X6462565Y-11137815D01*
X6472088Y-11142577D01*
X6476850Y-11147339D01*
X6481612Y-11156863D01*
X6481612Y-11175910D01*
X6476850Y-11185434D01*
X6472088Y-11190196D01*
X6462565Y-11194958D01*
X6443517Y-11194958D01*
X6433993Y-11190196D01*
X6429231Y-11185434D01*
X6424469Y-11175910D01*
X6424469Y-11156863D01*
X6429231Y-11147339D01*
X6433993Y-11142577D01*
X6443517Y-11137815D01*
X8577089Y-11194958D02*
X8577089Y-11094958D01*
X8553279Y-11094958D01*
X8538993Y-11099720D01*
X8529470Y-11109244D01*
X8524708Y-11118768D01*
X8519946Y-11137815D01*
X8519946Y-11152101D01*
X8524708Y-11171149D01*
X8529470Y-11180672D01*
X8538993Y-11190196D01*
X8553279Y-11194958D01*
X8577089Y-11194958D01*
X8424708Y-11194958D02*
X8481850Y-11194958D01*
X8453279Y-11194958D02*
X8453279Y-11094958D01*
X8462803Y-11109244D01*
X8472327Y-11118768D01*
X8481850Y-11123530D01*
X8377088Y-11194958D02*
X8358041Y-11194958D01*
X8348517Y-11190196D01*
X8343755Y-11185434D01*
X8334231Y-11171149D01*
X8329469Y-11152101D01*
X8329469Y-11114006D01*
X8334231Y-11104482D01*
X8338993Y-11099720D01*
X8348517Y-11094958D01*
X8367565Y-11094958D01*
X8377088Y-11099720D01*
X8381850Y-11104482D01*
X8386612Y-11114006D01*
X8386612Y-11137815D01*
X8381850Y-11147339D01*
X8377088Y-11152101D01*
X8367565Y-11156863D01*
X8348517Y-11156863D01*
X8338993Y-11152101D01*
X8334231Y-11147339D01*
X8329469Y-11137815D01*
X10482089Y-11194958D02*
X10482089Y-11094958D01*
X10458279Y-11094958D01*
X10443993Y-11099720D01*
X10434470Y-11109244D01*
X10429708Y-11118768D01*
X10424946Y-11137815D01*
X10424946Y-11152101D01*
X10429708Y-11171149D01*
X10434470Y-11180672D01*
X10443993Y-11190196D01*
X10458279Y-11194958D01*
X10482089Y-11194958D01*
X10386850Y-11104482D02*
X10382089Y-11099720D01*
X10372565Y-11094958D01*
X10348755Y-11094958D01*
X10339231Y-11099720D01*
X10334470Y-11104482D01*
X10329708Y-11114006D01*
X10329708Y-11123530D01*
X10334470Y-11137815D01*
X10391612Y-11194958D01*
X10329708Y-11194958D01*
X10267803Y-11094958D02*
X10258279Y-11094958D01*
X10248755Y-11099720D01*
X10243993Y-11104482D01*
X10239231Y-11114006D01*
X10234470Y-11133053D01*
X10234470Y-11156863D01*
X10239231Y-11175910D01*
X10243993Y-11185434D01*
X10248755Y-11190196D01*
X10258279Y-11194958D01*
X10267803Y-11194958D01*
X10277327Y-11190196D01*
X10282089Y-11185434D01*
X10286850Y-11175910D01*
X10291612Y-11156863D01*
X10291612Y-11133053D01*
X10286850Y-11114006D01*
X10282089Y-11104482D01*
X10277327Y-11099720D01*
X10267803Y-11094958D01*
X12387088Y-11194958D02*
X12387088Y-11094958D01*
X12363279Y-11094958D01*
X12348993Y-11099720D01*
X12339469Y-11109244D01*
X12334708Y-11118768D01*
X12329946Y-11137815D01*
X12329946Y-11152101D01*
X12334708Y-11171149D01*
X12339469Y-11180672D01*
X12348993Y-11190196D01*
X12363279Y-11194958D01*
X12387088Y-11194958D01*
X12291850Y-11104482D02*
X12287088Y-11099720D01*
X12277565Y-11094958D01*
X12253755Y-11094958D01*
X12244231Y-11099720D01*
X12239469Y-11104482D01*
X12234708Y-11114006D01*
X12234708Y-11123530D01*
X12239469Y-11137815D01*
X12296612Y-11194958D01*
X12234708Y-11194958D01*
X12139469Y-11194958D02*
X12196612Y-11194958D01*
X12168041Y-11194958D02*
X12168041Y-11094958D01*
X12177565Y-11109244D01*
X12187088Y-11118768D01*
X12196612Y-11123530D01*
X14292088Y-11194958D02*
X14292088Y-11094958D01*
X14268279Y-11094958D01*
X14253993Y-11099720D01*
X14244469Y-11109244D01*
X14239708Y-11118768D01*
X14234946Y-11137815D01*
X14234946Y-11152101D01*
X14239708Y-11171149D01*
X14244469Y-11180672D01*
X14253993Y-11190196D01*
X14268279Y-11194958D01*
X14292088Y-11194958D01*
X14196850Y-11104482D02*
X14192088Y-11099720D01*
X14182565Y-11094958D01*
X14158755Y-11094958D01*
X14149231Y-11099720D01*
X14144469Y-11104482D01*
X14139708Y-11114006D01*
X14139708Y-11123530D01*
X14144469Y-11137815D01*
X14201612Y-11194958D01*
X14139708Y-11194958D01*
X14101612Y-11104482D02*
X14096850Y-11099720D01*
X14087327Y-11094958D01*
X14063517Y-11094958D01*
X14053993Y-11099720D01*
X14049231Y-11104482D01*
X14044469Y-11114006D01*
X14044469Y-11123530D01*
X14049231Y-11137815D01*
X14106374Y-11194958D01*
X14044469Y-11194958D01*
X16197088Y-11194958D02*
X16197088Y-11094958D01*
X16173279Y-11094958D01*
X16158993Y-11099720D01*
X16149469Y-11109244D01*
X16144708Y-11118768D01*
X16139946Y-11137815D01*
X16139946Y-11152101D01*
X16144708Y-11171149D01*
X16149469Y-11180672D01*
X16158993Y-11190196D01*
X16173279Y-11194958D01*
X16197088Y-11194958D01*
X16101850Y-11104482D02*
X16097088Y-11099720D01*
X16087565Y-11094958D01*
X16063755Y-11094958D01*
X16054231Y-11099720D01*
X16049469Y-11104482D01*
X16044708Y-11114006D01*
X16044708Y-11123530D01*
X16049469Y-11137815D01*
X16106612Y-11194958D01*
X16044708Y-11194958D01*
X16011374Y-11094958D02*
X15949469Y-11094958D01*
X15982803Y-11133053D01*
X15968517Y-11133053D01*
X15958993Y-11137815D01*
X15954231Y-11142577D01*
X15949469Y-11152101D01*
X15949469Y-11175910D01*
X15954231Y-11185434D01*
X15958993Y-11190196D01*
X15968517Y-11194958D01*
X15997088Y-11194958D01*
X16006612Y-11190196D01*
X16011374Y-11185434D01*
X18102089Y-11194958D02*
X18102089Y-11094958D01*
X18078279Y-11094958D01*
X18063993Y-11099720D01*
X18054470Y-11109244D01*
X18049708Y-11118768D01*
X18044946Y-11137815D01*
X18044946Y-11152101D01*
X18049708Y-11171149D01*
X18054470Y-11180672D01*
X18063993Y-11190196D01*
X18078279Y-11194958D01*
X18102089Y-11194958D01*
X18006850Y-11104482D02*
X18002089Y-11099720D01*
X17992565Y-11094958D01*
X17968755Y-11094958D01*
X17959231Y-11099720D01*
X17954470Y-11104482D01*
X17949708Y-11114006D01*
X17949708Y-11123530D01*
X17954470Y-11137815D01*
X18011612Y-11194958D01*
X17949708Y-11194958D01*
X17863993Y-11128291D02*
X17863993Y-11194958D01*
X17887803Y-11090196D02*
X17911612Y-11161625D01*
X17849708Y-11161625D01*
X4767089Y-13099958D02*
X4767089Y-12999958D01*
X4743279Y-12999958D01*
X4728993Y-13004720D01*
X4719470Y-13014244D01*
X4714708Y-13023768D01*
X4709946Y-13042815D01*
X4709946Y-13057101D01*
X4714708Y-13076148D01*
X4719470Y-13085672D01*
X4728993Y-13095196D01*
X4743279Y-13099958D01*
X4767089Y-13099958D01*
X4671850Y-13009482D02*
X4667089Y-13004720D01*
X4657565Y-12999958D01*
X4633755Y-12999958D01*
X4624231Y-13004720D01*
X4619470Y-13009482D01*
X4614708Y-13019006D01*
X4614708Y-13028529D01*
X4619470Y-13042815D01*
X4676612Y-13099958D01*
X4614708Y-13099958D01*
X4524231Y-12999958D02*
X4571850Y-12999958D01*
X4576612Y-13047577D01*
X4571850Y-13042815D01*
X4562327Y-13038053D01*
X4538517Y-13038053D01*
X4528993Y-13042815D01*
X4524231Y-13047577D01*
X4519470Y-13057101D01*
X4519470Y-13080910D01*
X4524231Y-13090434D01*
X4528993Y-13095196D01*
X4538517Y-13099958D01*
X4562327Y-13099958D01*
X4571850Y-13095196D01*
X4576612Y-13090434D01*
X6672088Y-13099958D02*
X6672088Y-12999958D01*
X6648279Y-12999958D01*
X6633993Y-13004720D01*
X6624469Y-13014244D01*
X6619708Y-13023768D01*
X6614946Y-13042815D01*
X6614946Y-13057101D01*
X6619708Y-13076148D01*
X6624469Y-13085672D01*
X6633993Y-13095196D01*
X6648279Y-13099958D01*
X6672088Y-13099958D01*
X6576850Y-13009482D02*
X6572088Y-13004720D01*
X6562565Y-12999958D01*
X6538755Y-12999958D01*
X6529231Y-13004720D01*
X6524469Y-13009482D01*
X6519708Y-13019006D01*
X6519708Y-13028529D01*
X6524469Y-13042815D01*
X6581612Y-13099958D01*
X6519708Y-13099958D01*
X6433993Y-12999958D02*
X6453041Y-12999958D01*
X6462565Y-13004720D01*
X6467327Y-13009482D01*
X6476850Y-13023768D01*
X6481612Y-13042815D01*
X6481612Y-13080910D01*
X6476850Y-13090434D01*
X6472088Y-13095196D01*
X6462565Y-13099958D01*
X6443517Y-13099958D01*
X6433993Y-13095196D01*
X6429231Y-13090434D01*
X6424469Y-13080910D01*
X6424469Y-13057101D01*
X6429231Y-13047577D01*
X6433993Y-13042815D01*
X6443517Y-13038053D01*
X6462565Y-13038053D01*
X6472088Y-13042815D01*
X6476850Y-13047577D01*
X6481612Y-13057101D01*
X8577089Y-13099958D02*
X8577089Y-12999958D01*
X8553279Y-12999958D01*
X8538993Y-13004720D01*
X8529470Y-13014244D01*
X8524708Y-13023768D01*
X8519946Y-13042815D01*
X8519946Y-13057101D01*
X8524708Y-13076148D01*
X8529470Y-13085672D01*
X8538993Y-13095196D01*
X8553279Y-13099958D01*
X8577089Y-13099958D01*
X8481850Y-13009482D02*
X8477089Y-13004720D01*
X8467565Y-12999958D01*
X8443755Y-12999958D01*
X8434231Y-13004720D01*
X8429470Y-13009482D01*
X8424708Y-13019006D01*
X8424708Y-13028529D01*
X8429470Y-13042815D01*
X8486612Y-13099958D01*
X8424708Y-13099958D01*
X8391374Y-12999958D02*
X8324708Y-12999958D01*
X8367565Y-13099958D01*
X10482089Y-13099958D02*
X10482089Y-12999958D01*
X10458279Y-12999958D01*
X10443993Y-13004720D01*
X10434470Y-13014244D01*
X10429708Y-13023768D01*
X10424946Y-13042815D01*
X10424946Y-13057101D01*
X10429708Y-13076148D01*
X10434470Y-13085672D01*
X10443993Y-13095196D01*
X10458279Y-13099958D01*
X10482089Y-13099958D01*
X10386850Y-13009482D02*
X10382089Y-13004720D01*
X10372565Y-12999958D01*
X10348755Y-12999958D01*
X10339231Y-13004720D01*
X10334470Y-13009482D01*
X10329708Y-13019006D01*
X10329708Y-13028529D01*
X10334470Y-13042815D01*
X10391612Y-13099958D01*
X10329708Y-13099958D01*
X10272565Y-13042815D02*
X10282089Y-13038053D01*
X10286850Y-13033291D01*
X10291612Y-13023768D01*
X10291612Y-13019006D01*
X10286850Y-13009482D01*
X10282089Y-13004720D01*
X10272565Y-12999958D01*
X10253517Y-12999958D01*
X10243993Y-13004720D01*
X10239231Y-13009482D01*
X10234470Y-13019006D01*
X10234470Y-13023768D01*
X10239231Y-13033291D01*
X10243993Y-13038053D01*
X10253517Y-13042815D01*
X10272565Y-13042815D01*
X10282089Y-13047577D01*
X10286850Y-13052339D01*
X10291612Y-13061863D01*
X10291612Y-13080910D01*
X10286850Y-13090434D01*
X10282089Y-13095196D01*
X10272565Y-13099958D01*
X10253517Y-13099958D01*
X10243993Y-13095196D01*
X10239231Y-13090434D01*
X10234470Y-13080910D01*
X10234470Y-13061863D01*
X10239231Y-13052339D01*
X10243993Y-13047577D01*
X10253517Y-13042815D01*
X12387088Y-13099958D02*
X12387088Y-12999958D01*
X12363279Y-12999958D01*
X12348993Y-13004720D01*
X12339469Y-13014244D01*
X12334708Y-13023768D01*
X12329946Y-13042815D01*
X12329946Y-13057101D01*
X12334708Y-13076148D01*
X12339469Y-13085672D01*
X12348993Y-13095196D01*
X12363279Y-13099958D01*
X12387088Y-13099958D01*
X12291850Y-13009482D02*
X12287088Y-13004720D01*
X12277565Y-12999958D01*
X12253755Y-12999958D01*
X12244231Y-13004720D01*
X12239469Y-13009482D01*
X12234708Y-13019006D01*
X12234708Y-13028529D01*
X12239469Y-13042815D01*
X12296612Y-13099958D01*
X12234708Y-13099958D01*
X12187088Y-13099958D02*
X12168041Y-13099958D01*
X12158517Y-13095196D01*
X12153755Y-13090434D01*
X12144231Y-13076148D01*
X12139469Y-13057101D01*
X12139469Y-13019006D01*
X12144231Y-13009482D01*
X12148993Y-13004720D01*
X12158517Y-12999958D01*
X12177565Y-12999958D01*
X12187088Y-13004720D01*
X12191850Y-13009482D01*
X12196612Y-13019006D01*
X12196612Y-13042815D01*
X12191850Y-13052339D01*
X12187088Y-13057101D01*
X12177565Y-13061863D01*
X12158517Y-13061863D01*
X12148993Y-13057101D01*
X12144231Y-13052339D01*
X12139469Y-13042815D01*
X14292088Y-13099958D02*
X14292088Y-12999958D01*
X14268279Y-12999958D01*
X14253993Y-13004720D01*
X14244469Y-13014244D01*
X14239708Y-13023768D01*
X14234946Y-13042815D01*
X14234946Y-13057101D01*
X14239708Y-13076148D01*
X14244469Y-13085672D01*
X14253993Y-13095196D01*
X14268279Y-13099958D01*
X14292088Y-13099958D01*
X14201612Y-12999958D02*
X14139708Y-12999958D01*
X14173041Y-13038053D01*
X14158755Y-13038053D01*
X14149231Y-13042815D01*
X14144469Y-13047577D01*
X14139708Y-13057101D01*
X14139708Y-13080910D01*
X14144469Y-13090434D01*
X14149231Y-13095196D01*
X14158755Y-13099958D01*
X14187327Y-13099958D01*
X14196850Y-13095196D01*
X14201612Y-13090434D01*
X14077803Y-12999958D02*
X14068279Y-12999958D01*
X14058755Y-13004720D01*
X14053993Y-13009482D01*
X14049231Y-13019006D01*
X14044469Y-13038053D01*
X14044469Y-13061863D01*
X14049231Y-13080910D01*
X14053993Y-13090434D01*
X14058755Y-13095196D01*
X14068279Y-13099958D01*
X14077803Y-13099958D01*
X14087327Y-13095196D01*
X14092088Y-13090434D01*
X14096850Y-13080910D01*
X14101612Y-13061863D01*
X14101612Y-13038053D01*
X14096850Y-13019006D01*
X14092088Y-13009482D01*
X14087327Y-13004720D01*
X14077803Y-12999958D01*
X16197088Y-13099958D02*
X16197088Y-12999958D01*
X16173279Y-12999958D01*
X16158993Y-13004720D01*
X16149469Y-13014244D01*
X16144708Y-13023768D01*
X16139946Y-13042815D01*
X16139946Y-13057101D01*
X16144708Y-13076148D01*
X16149469Y-13085672D01*
X16158993Y-13095196D01*
X16173279Y-13099958D01*
X16197088Y-13099958D01*
X16106612Y-12999958D02*
X16044708Y-12999958D01*
X16078041Y-13038053D01*
X16063755Y-13038053D01*
X16054231Y-13042815D01*
X16049469Y-13047577D01*
X16044708Y-13057101D01*
X16044708Y-13080910D01*
X16049469Y-13090434D01*
X16054231Y-13095196D01*
X16063755Y-13099958D01*
X16092327Y-13099958D01*
X16101850Y-13095196D01*
X16106612Y-13090434D01*
X15949469Y-13099958D02*
X16006612Y-13099958D01*
X15978041Y-13099958D02*
X15978041Y-12999958D01*
X15987565Y-13014244D01*
X15997088Y-13023768D01*
X16006612Y-13028529D01*
X18102089Y-13099958D02*
X18102089Y-12999958D01*
X18078279Y-12999958D01*
X18063993Y-13004720D01*
X18054470Y-13014244D01*
X18049708Y-13023768D01*
X18044946Y-13042815D01*
X18044946Y-13057101D01*
X18049708Y-13076148D01*
X18054470Y-13085672D01*
X18063993Y-13095196D01*
X18078279Y-13099958D01*
X18102089Y-13099958D01*
X18011612Y-12999958D02*
X17949708Y-12999958D01*
X17983041Y-13038053D01*
X17968755Y-13038053D01*
X17959231Y-13042815D01*
X17954470Y-13047577D01*
X17949708Y-13057101D01*
X17949708Y-13080910D01*
X17954470Y-13090434D01*
X17959231Y-13095196D01*
X17968755Y-13099958D01*
X17997327Y-13099958D01*
X18006850Y-13095196D01*
X18011612Y-13090434D01*
X17911612Y-13009482D02*
X17906850Y-13004720D01*
X17897327Y-12999958D01*
X17873517Y-12999958D01*
X17863993Y-13004720D01*
X17859231Y-13009482D01*
X17854470Y-13019006D01*
X17854470Y-13028529D01*
X17859231Y-13042815D01*
X17916374Y-13099958D01*
X17854470Y-13099958D01*
X4767089Y-15004958D02*
X4767089Y-14904958D01*
X4743279Y-14904958D01*
X4728993Y-14909720D01*
X4719470Y-14919244D01*
X4714708Y-14928768D01*
X4709946Y-14947815D01*
X4709946Y-14962101D01*
X4714708Y-14981148D01*
X4719470Y-14990672D01*
X4728993Y-15000196D01*
X4743279Y-15004958D01*
X4767089Y-15004958D01*
X4676612Y-14904958D02*
X4614708Y-14904958D01*
X4648041Y-14943053D01*
X4633755Y-14943053D01*
X4624231Y-14947815D01*
X4619470Y-14952577D01*
X4614708Y-14962101D01*
X4614708Y-14985910D01*
X4619470Y-14995434D01*
X4624231Y-15000196D01*
X4633755Y-15004958D01*
X4662327Y-15004958D01*
X4671850Y-15000196D01*
X4676612Y-14995434D01*
X4581374Y-14904958D02*
X4519470Y-14904958D01*
X4552803Y-14943053D01*
X4538517Y-14943053D01*
X4528993Y-14947815D01*
X4524231Y-14952577D01*
X4519470Y-14962101D01*
X4519470Y-14985910D01*
X4524231Y-14995434D01*
X4528993Y-15000196D01*
X4538517Y-15004958D01*
X4567089Y-15004958D01*
X4576612Y-15000196D01*
X4581374Y-14995434D01*
X6672088Y-15004958D02*
X6672088Y-14904958D01*
X6648279Y-14904958D01*
X6633993Y-14909720D01*
X6624469Y-14919244D01*
X6619708Y-14928768D01*
X6614946Y-14947815D01*
X6614946Y-14962101D01*
X6619708Y-14981148D01*
X6624469Y-14990672D01*
X6633993Y-15000196D01*
X6648279Y-15004958D01*
X6672088Y-15004958D01*
X6581612Y-14904958D02*
X6519708Y-14904958D01*
X6553041Y-14943053D01*
X6538755Y-14943053D01*
X6529231Y-14947815D01*
X6524469Y-14952577D01*
X6519708Y-14962101D01*
X6519708Y-14985910D01*
X6524469Y-14995434D01*
X6529231Y-15000196D01*
X6538755Y-15004958D01*
X6567327Y-15004958D01*
X6576850Y-15000196D01*
X6581612Y-14995434D01*
X6433993Y-14938291D02*
X6433993Y-15004958D01*
X6457803Y-14900196D02*
X6481612Y-14971625D01*
X6419708Y-14971625D01*
X8577089Y-15004958D02*
X8577089Y-14904958D01*
X8553279Y-14904958D01*
X8538993Y-14909720D01*
X8529470Y-14919244D01*
X8524708Y-14928768D01*
X8519946Y-14947815D01*
X8519946Y-14962101D01*
X8524708Y-14981148D01*
X8529470Y-14990672D01*
X8538993Y-15000196D01*
X8553279Y-15004958D01*
X8577089Y-15004958D01*
X8486612Y-14904958D02*
X8424708Y-14904958D01*
X8458041Y-14943053D01*
X8443755Y-14943053D01*
X8434231Y-14947815D01*
X8429470Y-14952577D01*
X8424708Y-14962101D01*
X8424708Y-14985910D01*
X8429470Y-14995434D01*
X8434231Y-15000196D01*
X8443755Y-15004958D01*
X8472327Y-15004958D01*
X8481850Y-15000196D01*
X8486612Y-14995434D01*
X8334231Y-14904958D02*
X8381850Y-14904958D01*
X8386612Y-14952577D01*
X8381850Y-14947815D01*
X8372327Y-14943053D01*
X8348517Y-14943053D01*
X8338993Y-14947815D01*
X8334231Y-14952577D01*
X8329469Y-14962101D01*
X8329469Y-14985910D01*
X8334231Y-14995434D01*
X8338993Y-15000196D01*
X8348517Y-15004958D01*
X8372327Y-15004958D01*
X8381850Y-15000196D01*
X8386612Y-14995434D01*
X10482089Y-15004958D02*
X10482089Y-14904958D01*
X10458279Y-14904958D01*
X10443993Y-14909720D01*
X10434470Y-14919244D01*
X10429708Y-14928768D01*
X10424946Y-14947815D01*
X10424946Y-14962101D01*
X10429708Y-14981148D01*
X10434470Y-14990672D01*
X10443993Y-15000196D01*
X10458279Y-15004958D01*
X10482089Y-15004958D01*
X10391612Y-14904958D02*
X10329708Y-14904958D01*
X10363041Y-14943053D01*
X10348755Y-14943053D01*
X10339231Y-14947815D01*
X10334470Y-14952577D01*
X10329708Y-14962101D01*
X10329708Y-14985910D01*
X10334470Y-14995434D01*
X10339231Y-15000196D01*
X10348755Y-15004958D01*
X10377327Y-15004958D01*
X10386850Y-15000196D01*
X10391612Y-14995434D01*
X10243993Y-14904958D02*
X10263041Y-14904958D01*
X10272565Y-14909720D01*
X10277327Y-14914482D01*
X10286850Y-14928768D01*
X10291612Y-14947815D01*
X10291612Y-14985910D01*
X10286850Y-14995434D01*
X10282089Y-15000196D01*
X10272565Y-15004958D01*
X10253517Y-15004958D01*
X10243993Y-15000196D01*
X10239231Y-14995434D01*
X10234470Y-14985910D01*
X10234470Y-14962101D01*
X10239231Y-14952577D01*
X10243993Y-14947815D01*
X10253517Y-14943053D01*
X10272565Y-14943053D01*
X10282089Y-14947815D01*
X10286850Y-14952577D01*
X10291612Y-14962101D01*
X12387088Y-15004958D02*
X12387088Y-14904958D01*
X12363279Y-14904958D01*
X12348993Y-14909720D01*
X12339469Y-14919244D01*
X12334708Y-14928768D01*
X12329946Y-14947815D01*
X12329946Y-14962101D01*
X12334708Y-14981148D01*
X12339469Y-14990672D01*
X12348993Y-15000196D01*
X12363279Y-15004958D01*
X12387088Y-15004958D01*
X12296612Y-14904958D02*
X12234708Y-14904958D01*
X12268041Y-14943053D01*
X12253755Y-14943053D01*
X12244231Y-14947815D01*
X12239469Y-14952577D01*
X12234708Y-14962101D01*
X12234708Y-14985910D01*
X12239469Y-14995434D01*
X12244231Y-15000196D01*
X12253755Y-15004958D01*
X12282327Y-15004958D01*
X12291850Y-15000196D01*
X12296612Y-14995434D01*
X12201374Y-14904958D02*
X12134708Y-14904958D01*
X12177565Y-15004958D01*
X14292088Y-15004958D02*
X14292088Y-14904958D01*
X14268279Y-14904958D01*
X14253993Y-14909720D01*
X14244469Y-14919244D01*
X14239708Y-14928768D01*
X14234946Y-14947815D01*
X14234946Y-14962101D01*
X14239708Y-14981148D01*
X14244469Y-14990672D01*
X14253993Y-15000196D01*
X14268279Y-15004958D01*
X14292088Y-15004958D01*
X14201612Y-14904958D02*
X14139708Y-14904958D01*
X14173041Y-14943053D01*
X14158755Y-14943053D01*
X14149231Y-14947815D01*
X14144469Y-14952577D01*
X14139708Y-14962101D01*
X14139708Y-14985910D01*
X14144469Y-14995434D01*
X14149231Y-15000196D01*
X14158755Y-15004958D01*
X14187327Y-15004958D01*
X14196850Y-15000196D01*
X14201612Y-14995434D01*
X14082565Y-14947815D02*
X14092088Y-14943053D01*
X14096850Y-14938291D01*
X14101612Y-14928768D01*
X14101612Y-14924006D01*
X14096850Y-14914482D01*
X14092088Y-14909720D01*
X14082565Y-14904958D01*
X14063517Y-14904958D01*
X14053993Y-14909720D01*
X14049231Y-14914482D01*
X14044469Y-14924006D01*
X14044469Y-14928768D01*
X14049231Y-14938291D01*
X14053993Y-14943053D01*
X14063517Y-14947815D01*
X14082565Y-14947815D01*
X14092088Y-14952577D01*
X14096850Y-14957339D01*
X14101612Y-14966863D01*
X14101612Y-14985910D01*
X14096850Y-14995434D01*
X14092088Y-15000196D01*
X14082565Y-15004958D01*
X14063517Y-15004958D01*
X14053993Y-15000196D01*
X14049231Y-14995434D01*
X14044469Y-14985910D01*
X14044469Y-14966863D01*
X14049231Y-14957339D01*
X14053993Y-14952577D01*
X14063517Y-14947815D01*
X16197088Y-15004958D02*
X16197088Y-14904958D01*
X16173279Y-14904958D01*
X16158993Y-14909720D01*
X16149469Y-14919244D01*
X16144708Y-14928768D01*
X16139946Y-14947815D01*
X16139946Y-14962101D01*
X16144708Y-14981148D01*
X16149469Y-14990672D01*
X16158993Y-15000196D01*
X16173279Y-15004958D01*
X16197088Y-15004958D01*
X16106612Y-14904958D02*
X16044708Y-14904958D01*
X16078041Y-14943053D01*
X16063755Y-14943053D01*
X16054231Y-14947815D01*
X16049469Y-14952577D01*
X16044708Y-14962101D01*
X16044708Y-14985910D01*
X16049469Y-14995434D01*
X16054231Y-15000196D01*
X16063755Y-15004958D01*
X16092327Y-15004958D01*
X16101850Y-15000196D01*
X16106612Y-14995434D01*
X15997088Y-15004958D02*
X15978041Y-15004958D01*
X15968517Y-15000196D01*
X15963755Y-14995434D01*
X15954231Y-14981148D01*
X15949469Y-14962101D01*
X15949469Y-14924006D01*
X15954231Y-14914482D01*
X15958993Y-14909720D01*
X15968517Y-14904958D01*
X15987565Y-14904958D01*
X15997088Y-14909720D01*
X16001850Y-14914482D01*
X16006612Y-14924006D01*
X16006612Y-14947815D01*
X16001850Y-14957339D01*
X15997088Y-14962101D01*
X15987565Y-14966863D01*
X15968517Y-14966863D01*
X15958993Y-14962101D01*
X15954231Y-14957339D01*
X15949469Y-14947815D01*
X18102089Y-15004958D02*
X18102089Y-14904958D01*
X18078279Y-14904958D01*
X18063993Y-14909720D01*
X18054470Y-14919244D01*
X18049708Y-14928768D01*
X18044946Y-14947815D01*
X18044946Y-14962101D01*
X18049708Y-14981148D01*
X18054470Y-14990672D01*
X18063993Y-15000196D01*
X18078279Y-15004958D01*
X18102089Y-15004958D01*
X17959231Y-14938291D02*
X17959231Y-15004958D01*
X17983041Y-14900196D02*
X18006850Y-14971625D01*
X17944946Y-14971625D01*
X17887803Y-14904958D02*
X17878279Y-14904958D01*
X17868755Y-14909720D01*
X17863993Y-14914482D01*
X17859231Y-14924006D01*
X17854470Y-14943053D01*
X17854470Y-14966863D01*
X17859231Y-14985910D01*
X17863993Y-14995434D01*
X17868755Y-15000196D01*
X17878279Y-15004958D01*
X17887803Y-15004958D01*
X17897327Y-15000196D01*
X17902089Y-14995434D01*
X17906850Y-14985910D01*
X17911612Y-14966863D01*
X17911612Y-14943053D01*
X17906850Y-14924006D01*
X17902089Y-14914482D01*
X17897327Y-14909720D01*
X17887803Y-14904958D01*
X15769252Y-5719446D02*
X15769252Y-5619446D01*
X15745443Y-5619446D01*
X15731157Y-5624208D01*
X15721633Y-5633732D01*
X15716872Y-5643256D01*
X15712110Y-5662303D01*
X15712110Y-5676589D01*
X15716872Y-5695636D01*
X15721633Y-5705160D01*
X15731157Y-5714684D01*
X15745443Y-5719446D01*
X15769252Y-5719446D01*
X15626395Y-5652779D02*
X15626395Y-5719446D01*
X15650205Y-5614684D02*
X15674014Y-5686113D01*
X15612110Y-5686113D01*
X15521633Y-5719446D02*
X15578776Y-5719446D01*
X15550205Y-5719446D02*
X15550205Y-5619446D01*
X15559729Y-5633732D01*
X15569252Y-5643256D01*
X15578776Y-5648017D01*
X15293864Y-5728234D02*
X15293864Y-5628234D01*
X15270055Y-5628234D01*
X15255769Y-5632996D01*
X15246245Y-5642520D01*
X15241484Y-5652044D01*
X15236722Y-5671091D01*
X15236722Y-5685377D01*
X15241484Y-5704424D01*
X15246245Y-5713948D01*
X15255769Y-5723472D01*
X15270055Y-5728234D01*
X15293864Y-5728234D01*
X15151007Y-5661567D02*
X15151007Y-5728234D01*
X15174817Y-5623472D02*
X15198626Y-5694901D01*
X15136722Y-5694901D01*
X15103388Y-5637758D02*
X15098626Y-5632996D01*
X15089103Y-5628234D01*
X15065293Y-5628234D01*
X15055769Y-5632996D01*
X15051007Y-5637758D01*
X15046245Y-5647282D01*
X15046245Y-5656805D01*
X15051007Y-5671091D01*
X15108150Y-5728234D01*
X15046245Y-5728234D01*
X14017517Y-4421611D02*
X14088945Y-4421611D01*
X14103231Y-4416849D01*
X14112755Y-4407325D01*
X14117517Y-4393039D01*
X14117517Y-4383515D01*
X14117517Y-4469230D02*
X14017517Y-4469230D01*
X14017517Y-4507325D01*
X14022279Y-4516849D01*
X14027040Y-4521611D01*
X14036564Y-4526373D01*
X14050850Y-4526373D01*
X14060374Y-4521611D01*
X14065136Y-4516849D01*
X14069898Y-4507325D01*
X14069898Y-4469230D01*
X14117517Y-4621611D02*
X14117517Y-4564468D01*
X14117517Y-4593039D02*
X14017517Y-4593039D01*
X14031802Y-4583515D01*
X14041326Y-4573992D01*
X14046088Y-4564468D01*
X14297517Y-4273515D02*
X14297517Y-4216373D01*
X14297517Y-4244944D02*
X14197517Y-4244944D01*
X14211802Y-4235420D01*
X14221326Y-4225896D01*
X14226088Y-4216373D01*
X14197517Y-4731611D02*
X14197517Y-4793515D01*
X14235612Y-4760182D01*
X14235612Y-4774468D01*
X14240374Y-4783992D01*
X14245136Y-4788754D01*
X14254659Y-4793515D01*
X14278469Y-4793515D01*
X14287993Y-4788754D01*
X14292755Y-4783992D01*
X14297517Y-4774468D01*
X14297517Y-4745896D01*
X14292755Y-4736373D01*
X14287993Y-4731611D01*
X14570390Y-4421611D02*
X14641819Y-4421611D01*
X14656104Y-4416849D01*
X14665628Y-4407325D01*
X14670390Y-4393039D01*
X14670390Y-4383515D01*
X14670390Y-4469230D02*
X14570390Y-4469230D01*
X14570390Y-4507325D01*
X14575152Y-4516849D01*
X14579914Y-4521611D01*
X14589438Y-4526373D01*
X14603723Y-4526373D01*
X14613247Y-4521611D01*
X14618009Y-4516849D01*
X14622771Y-4507325D01*
X14622771Y-4469230D01*
X14579914Y-4564468D02*
X14575152Y-4569230D01*
X14570390Y-4578754D01*
X14570390Y-4602563D01*
X14575152Y-4612087D01*
X14579914Y-4616849D01*
X14589438Y-4621611D01*
X14598961Y-4621611D01*
X14613247Y-4616849D01*
X14670390Y-4559706D01*
X14670390Y-4621611D01*
X14750390Y-4731611D02*
X14750390Y-4793515D01*
X14788485Y-4760182D01*
X14788485Y-4774468D01*
X14793247Y-4783992D01*
X14798009Y-4788754D01*
X14807533Y-4793515D01*
X14831342Y-4793515D01*
X14840866Y-4788754D01*
X14845628Y-4783992D01*
X14850390Y-4774468D01*
X14850390Y-4745896D01*
X14845628Y-4736373D01*
X14840866Y-4731611D01*
X14850390Y-4273515D02*
X14850390Y-4216373D01*
X14850390Y-4244944D02*
X14750390Y-4244944D01*
X14764676Y-4235420D01*
X14774200Y-4225896D01*
X14778961Y-4216373D01*
X12911770Y-4421611D02*
X12983199Y-4421611D01*
X12997484Y-4416849D01*
X13007008Y-4407325D01*
X13011770Y-4393039D01*
X13011770Y-4383515D01*
X13011770Y-4469230D02*
X12911770Y-4469230D01*
X12911770Y-4507325D01*
X12916532Y-4516849D01*
X12921294Y-4521611D01*
X12930818Y-4526373D01*
X12945103Y-4526373D01*
X12954627Y-4521611D01*
X12959389Y-4516849D01*
X12964151Y-4507325D01*
X12964151Y-4469230D01*
X12911770Y-4559706D02*
X12911770Y-4621611D01*
X12949865Y-4588277D01*
X12949865Y-4602563D01*
X12954627Y-4612087D01*
X12959389Y-4616849D01*
X12968913Y-4621611D01*
X12992722Y-4621611D01*
X13002246Y-4616849D01*
X13007008Y-4612087D01*
X13011770Y-4602563D01*
X13011770Y-4573992D01*
X13007008Y-4564468D01*
X13002246Y-4559706D01*
X13191770Y-4273515D02*
X13191770Y-4216373D01*
X13191770Y-4244944D02*
X13091770Y-4244944D01*
X13106056Y-4235420D01*
X13115580Y-4225896D01*
X13120341Y-4216373D01*
X13091770Y-4731611D02*
X13091770Y-4793515D01*
X13129865Y-4760182D01*
X13129865Y-4774468D01*
X13134627Y-4783992D01*
X13139389Y-4788754D01*
X13148913Y-4793515D01*
X13172722Y-4793515D01*
X13182246Y-4788754D01*
X13187008Y-4783992D01*
X13191770Y-4774468D01*
X13191770Y-4745896D01*
X13187008Y-4736373D01*
X13182246Y-4731611D01*
X13464643Y-4421611D02*
X13536072Y-4421611D01*
X13550358Y-4416849D01*
X13559881Y-4407325D01*
X13564643Y-4393039D01*
X13564643Y-4383515D01*
X13564643Y-4469230D02*
X13464643Y-4469230D01*
X13464643Y-4507325D01*
X13469405Y-4516849D01*
X13474167Y-4521611D01*
X13483691Y-4526373D01*
X13497977Y-4526373D01*
X13507500Y-4521611D01*
X13512262Y-4516849D01*
X13517024Y-4507325D01*
X13517024Y-4469230D01*
X13497977Y-4612087D02*
X13564643Y-4612087D01*
X13459881Y-4588277D02*
X13531310Y-4564468D01*
X13531310Y-4626373D01*
X13644643Y-4731611D02*
X13644643Y-4793515D01*
X13682739Y-4760182D01*
X13682739Y-4774468D01*
X13687500Y-4783992D01*
X13692262Y-4788754D01*
X13701786Y-4793515D01*
X13725596Y-4793515D01*
X13735119Y-4788754D01*
X13739881Y-4783992D01*
X13744643Y-4774468D01*
X13744643Y-4745896D01*
X13739881Y-4736373D01*
X13735119Y-4731611D01*
X13744643Y-4273515D02*
X13744643Y-4216373D01*
X13744643Y-4244944D02*
X13644643Y-4244944D01*
X13658929Y-4235420D01*
X13668453Y-4225896D01*
X13673215Y-4216373D01*
X3416678Y-4988570D02*
X3497630Y-4988570D01*
X3507154Y-4993331D01*
X3511916Y-4998093D01*
X3516678Y-5007617D01*
X3516678Y-5026665D01*
X3511916Y-5036189D01*
X3507154Y-5040950D01*
X3497630Y-5045712D01*
X3416678Y-5045712D01*
X3516678Y-5145712D02*
X3516678Y-5088570D01*
X3516678Y-5117141D02*
X3416678Y-5117141D01*
X3430964Y-5107617D01*
X3440488Y-5098093D01*
X3445249Y-5088570D01*
X16206718Y-4742190D02*
X16287670Y-4742190D01*
X16297194Y-4746951D01*
X16301956Y-4751713D01*
X16306718Y-4761237D01*
X16306718Y-4780285D01*
X16301956Y-4789809D01*
X16297194Y-4794570D01*
X16287670Y-4799332D01*
X16206718Y-4799332D01*
X16216242Y-4842190D02*
X16211480Y-4846951D01*
X16206718Y-4856475D01*
X16206718Y-4880285D01*
X16211480Y-4889809D01*
X16216242Y-4894570D01*
X16225766Y-4899332D01*
X16235289Y-4899332D01*
X16249575Y-4894570D01*
X16306718Y-4837428D01*
X16306718Y-4899332D01*
M02*
