G04 #@! TF.GenerationSoftware,KiCad,Pcbnew,(5.1.5)-3*
G04 #@! TF.CreationDate,2020-03-22T20:56:45+08:00*
G04 #@! TF.ProjectId,XS40,58533430-2e6b-4696-9361-645f70636258,rev?*
G04 #@! TF.SameCoordinates,Original*
G04 #@! TF.FileFunction,Legend,Top*
G04 #@! TF.FilePolarity,Positive*
%FSLAX45Y45*%
G04 Gerber Fmt 4.5, Leading zero omitted, Abs format (unit mm)*
G04 Created by KiCad (PCBNEW (5.1.5)-3) date 2020-03-22 20:56:45*
%MOMM*%
%LPD*%
G04 APERTURE LIST*
%ADD10C,0.150000*%
%ADD11C,0.200000*%
%ADD12C,0.120000*%
G04 APERTURE END LIST*
D10*
X11631574Y-4642814D02*
X11531574Y-4676147D01*
X11631574Y-4709480D01*
X11531574Y-4742814D02*
X11631574Y-4742814D01*
X11631574Y-4766623D01*
X11626812Y-4780909D01*
X11617288Y-4790433D01*
X11607764Y-4795195D01*
X11588717Y-4799957D01*
X11574431Y-4799957D01*
X11555383Y-4795195D01*
X11545860Y-4790433D01*
X11536336Y-4780909D01*
X11531574Y-4766623D01*
X11531574Y-4742814D01*
X11531574Y-4842814D02*
X11631574Y-4842814D01*
X11631574Y-4866623D01*
X11626812Y-4880909D01*
X11617288Y-4890433D01*
X11607764Y-4895195D01*
X11588717Y-4899957D01*
X11574431Y-4899957D01*
X11555383Y-4895195D01*
X11545860Y-4890433D01*
X11536336Y-4880909D01*
X11531574Y-4866623D01*
X11531574Y-4842814D01*
X11230812Y-4646778D02*
X11230812Y-4727730D01*
X11235574Y-4737254D01*
X11240336Y-4742016D01*
X11249859Y-4746778D01*
X11268907Y-4746778D01*
X11278431Y-4742016D01*
X11283193Y-4737254D01*
X11287955Y-4727730D01*
X11287955Y-4646778D01*
X11335574Y-4708683D02*
X11411764Y-4708683D01*
X11373669Y-4746778D02*
X11373669Y-4670588D01*
X10973256Y-4646778D02*
X10973256Y-4727730D01*
X10978018Y-4737254D01*
X10982780Y-4742016D01*
X10992303Y-4746778D01*
X11011351Y-4746778D01*
X11020875Y-4742016D01*
X11025637Y-4737254D01*
X11030399Y-4727730D01*
X11030399Y-4646778D01*
X11078018Y-4708683D02*
X11154208Y-4708683D01*
X10862272Y-4709480D02*
X10867034Y-4699957D01*
X10867034Y-4685671D01*
X10862272Y-4671385D01*
X10852748Y-4661861D01*
X10843224Y-4657099D01*
X10824177Y-4652338D01*
X10809891Y-4652338D01*
X10790843Y-4657099D01*
X10781320Y-4661861D01*
X10771796Y-4671385D01*
X10767034Y-4685671D01*
X10767034Y-4695195D01*
X10771796Y-4709480D01*
X10776558Y-4714242D01*
X10809891Y-4714242D01*
X10809891Y-4695195D01*
X10767034Y-4757099D02*
X10867034Y-4757099D01*
X10767034Y-4814242D01*
X10867034Y-4814242D01*
X10767034Y-4861861D02*
X10867034Y-4861861D01*
X10867034Y-4885671D01*
X10862272Y-4899957D01*
X10852748Y-4909480D01*
X10843224Y-4914242D01*
X10824177Y-4919004D01*
X10809891Y-4919004D01*
X10790843Y-4914242D01*
X10781320Y-4909480D01*
X10771796Y-4899957D01*
X10767034Y-4885671D01*
X10767034Y-4861861D01*
X10516082Y-4657100D02*
X10616082Y-4657100D01*
X10616082Y-4695195D01*
X10611320Y-4704719D01*
X10606558Y-4709480D01*
X10597034Y-4714242D01*
X10582749Y-4714242D01*
X10573225Y-4709480D01*
X10568463Y-4704719D01*
X10563701Y-4695195D01*
X10563701Y-4657100D01*
X10616082Y-4776147D02*
X10616082Y-4785671D01*
X10611320Y-4795195D01*
X10606558Y-4799957D01*
X10597034Y-4804719D01*
X10577987Y-4809480D01*
X10554177Y-4809480D01*
X10535130Y-4804719D01*
X10525606Y-4799957D01*
X10520844Y-4795195D01*
X10516082Y-4785671D01*
X10516082Y-4776147D01*
X10520844Y-4766623D01*
X10525606Y-4761861D01*
X10535130Y-4757100D01*
X10554177Y-4752338D01*
X10577987Y-4752338D01*
X10597034Y-4757100D01*
X10606558Y-4761861D01*
X10611320Y-4766623D01*
X10616082Y-4776147D01*
X10616082Y-4899957D02*
X10616082Y-4852338D01*
X10568463Y-4847576D01*
X10573225Y-4852338D01*
X10577987Y-4861861D01*
X10577987Y-4885671D01*
X10573225Y-4895195D01*
X10568463Y-4899957D01*
X10558939Y-4904719D01*
X10535130Y-4904719D01*
X10525606Y-4899957D01*
X10520844Y-4895195D01*
X10516082Y-4885671D01*
X10516082Y-4861861D01*
X10520844Y-4852338D01*
X10525606Y-4847576D01*
X10251922Y-4658851D02*
X10351922Y-4658851D01*
X10351922Y-4696947D01*
X10347160Y-4706470D01*
X10342398Y-4711232D01*
X10332874Y-4715994D01*
X10318589Y-4715994D01*
X10309065Y-4711232D01*
X10304303Y-4706470D01*
X10299541Y-4696947D01*
X10299541Y-4658851D01*
X10351922Y-4749328D02*
X10351922Y-4811232D01*
X10313827Y-4777899D01*
X10313827Y-4792185D01*
X10309065Y-4801709D01*
X10304303Y-4806470D01*
X10294779Y-4811232D01*
X10270970Y-4811232D01*
X10261446Y-4806470D01*
X10256684Y-4801709D01*
X10251922Y-4792185D01*
X10251922Y-4763613D01*
X10256684Y-4754090D01*
X10261446Y-4749328D01*
X10351922Y-4873137D02*
X10351922Y-4882661D01*
X10347160Y-4892185D01*
X10342398Y-4896947D01*
X10332874Y-4901709D01*
X10313827Y-4906470D01*
X10290017Y-4906470D01*
X10270970Y-4901709D01*
X10261446Y-4896947D01*
X10256684Y-4892185D01*
X10251922Y-4882661D01*
X10251922Y-4873137D01*
X10256684Y-4863613D01*
X10261446Y-4858851D01*
X10270970Y-4854090D01*
X10290017Y-4849328D01*
X10313827Y-4849328D01*
X10332874Y-4854090D01*
X10342398Y-4858851D01*
X10347160Y-4863613D01*
X10351922Y-4873137D01*
X10031065Y-4746778D02*
X9997732Y-4699159D01*
X9973922Y-4746778D02*
X9973922Y-4646778D01*
X10012018Y-4646778D01*
X10021542Y-4651540D01*
X10026303Y-4656302D01*
X10031065Y-4665826D01*
X10031065Y-4680111D01*
X10026303Y-4689635D01*
X10021542Y-4694397D01*
X10012018Y-4699159D01*
X9973922Y-4699159D01*
X10121542Y-4646778D02*
X10073922Y-4646778D01*
X10069161Y-4694397D01*
X10073922Y-4689635D01*
X10083446Y-4684873D01*
X10107256Y-4684873D01*
X10116780Y-4689635D01*
X10121542Y-4694397D01*
X10126303Y-4703921D01*
X10126303Y-4727730D01*
X10121542Y-4737254D01*
X10116780Y-4742016D01*
X10107256Y-4746778D01*
X10083446Y-4746778D01*
X10073922Y-4742016D01*
X10069161Y-4737254D01*
X9781637Y-4746778D02*
X9748304Y-4699159D01*
X9724494Y-4746778D02*
X9724494Y-4646778D01*
X9762590Y-4646778D01*
X9772114Y-4651540D01*
X9776875Y-4656302D01*
X9781637Y-4665826D01*
X9781637Y-4680111D01*
X9776875Y-4689635D01*
X9772114Y-4694397D01*
X9762590Y-4699159D01*
X9724494Y-4699159D01*
X9867352Y-4680111D02*
X9867352Y-4746778D01*
X9843542Y-4642016D02*
X9819733Y-4713445D01*
X9881637Y-4713445D01*
X9523065Y-4746778D02*
X9489732Y-4699159D01*
X9465922Y-4746778D02*
X9465922Y-4646778D01*
X9504018Y-4646778D01*
X9513542Y-4651540D01*
X9518303Y-4656302D01*
X9523065Y-4665826D01*
X9523065Y-4680111D01*
X9518303Y-4689635D01*
X9513542Y-4694397D01*
X9504018Y-4699159D01*
X9465922Y-4699159D01*
X9556399Y-4646778D02*
X9618303Y-4646778D01*
X9584970Y-4684873D01*
X9599256Y-4684873D01*
X9608780Y-4689635D01*
X9613542Y-4694397D01*
X9618303Y-4703921D01*
X9618303Y-4727730D01*
X9613542Y-4737254D01*
X9608780Y-4742016D01*
X9599256Y-4746778D01*
X9570684Y-4746778D01*
X9561161Y-4742016D01*
X9556399Y-4737254D01*
X9270589Y-4746778D02*
X9237256Y-4699159D01*
X9213446Y-4746778D02*
X9213446Y-4646778D01*
X9251542Y-4646778D01*
X9261066Y-4651540D01*
X9265827Y-4656302D01*
X9270589Y-4665826D01*
X9270589Y-4680111D01*
X9265827Y-4689635D01*
X9261066Y-4694397D01*
X9251542Y-4699159D01*
X9213446Y-4699159D01*
X9308685Y-4656302D02*
X9313446Y-4651540D01*
X9322970Y-4646778D01*
X9346780Y-4646778D01*
X9356304Y-4651540D01*
X9361066Y-4656302D01*
X9365827Y-4665826D01*
X9365827Y-4675350D01*
X9361066Y-4689635D01*
X9303923Y-4746778D01*
X9365827Y-4746778D01*
X9016589Y-4746778D02*
X8983256Y-4699159D01*
X8959446Y-4746778D02*
X8959446Y-4646778D01*
X8997542Y-4646778D01*
X9007066Y-4651540D01*
X9011827Y-4656302D01*
X9016589Y-4665826D01*
X9016589Y-4680111D01*
X9011827Y-4689635D01*
X9007066Y-4694397D01*
X8997542Y-4699159D01*
X8959446Y-4699159D01*
X9111827Y-4746778D02*
X9054685Y-4746778D01*
X9083256Y-4746778D02*
X9083256Y-4646778D01*
X9073732Y-4661064D01*
X9064208Y-4670588D01*
X9054685Y-4675350D01*
X8760557Y-4737254D02*
X8755795Y-4742016D01*
X8741510Y-4746778D01*
X8731986Y-4746778D01*
X8717700Y-4742016D01*
X8708176Y-4732492D01*
X8703414Y-4722969D01*
X8698653Y-4703921D01*
X8698653Y-4689635D01*
X8703414Y-4670588D01*
X8708176Y-4661064D01*
X8717700Y-4651540D01*
X8731986Y-4646778D01*
X8741510Y-4646778D01*
X8755795Y-4651540D01*
X8760557Y-4656302D01*
X8817700Y-4689635D02*
X8808176Y-4684873D01*
X8803414Y-4680111D01*
X8798653Y-4670588D01*
X8798653Y-4665826D01*
X8803414Y-4656302D01*
X8808176Y-4651540D01*
X8817700Y-4646778D01*
X8836748Y-4646778D01*
X8846272Y-4651540D01*
X8851034Y-4656302D01*
X8855795Y-4665826D01*
X8855795Y-4670588D01*
X8851034Y-4680111D01*
X8846272Y-4684873D01*
X8836748Y-4689635D01*
X8817700Y-4689635D01*
X8808176Y-4694397D01*
X8803414Y-4699159D01*
X8798653Y-4708683D01*
X8798653Y-4727730D01*
X8803414Y-4737254D01*
X8808176Y-4742016D01*
X8817700Y-4746778D01*
X8836748Y-4746778D01*
X8846272Y-4742016D01*
X8851034Y-4737254D01*
X8855795Y-4727730D01*
X8855795Y-4708683D01*
X8851034Y-4699159D01*
X8846272Y-4694397D01*
X8836748Y-4689635D01*
X8500969Y-4737254D02*
X8496207Y-4742016D01*
X8481922Y-4746778D01*
X8472398Y-4746778D01*
X8458112Y-4742016D01*
X8448588Y-4732492D01*
X8443826Y-4722969D01*
X8439065Y-4703921D01*
X8439065Y-4689635D01*
X8443826Y-4670588D01*
X8448588Y-4661064D01*
X8458112Y-4651540D01*
X8472398Y-4646778D01*
X8481922Y-4646778D01*
X8496207Y-4651540D01*
X8500969Y-4656302D01*
X8534303Y-4646778D02*
X8600969Y-4646778D01*
X8558112Y-4746778D01*
X8255097Y-4737254D02*
X8250335Y-4742016D01*
X8236050Y-4746778D01*
X8226526Y-4746778D01*
X8212240Y-4742016D01*
X8202716Y-4732492D01*
X8197954Y-4722969D01*
X8193192Y-4703921D01*
X8193192Y-4689635D01*
X8197954Y-4670588D01*
X8202716Y-4661064D01*
X8212240Y-4651540D01*
X8226526Y-4646778D01*
X8236050Y-4646778D01*
X8250335Y-4651540D01*
X8255097Y-4656302D01*
X8340812Y-4646778D02*
X8321764Y-4646778D01*
X8312240Y-4651540D01*
X8307478Y-4656302D01*
X8297954Y-4670588D01*
X8293192Y-4689635D01*
X8293192Y-4727730D01*
X8297954Y-4737254D01*
X8302716Y-4742016D01*
X8312240Y-4746778D01*
X8331288Y-4746778D01*
X8340812Y-4742016D01*
X8345573Y-4737254D01*
X8350335Y-4727730D01*
X8350335Y-4703921D01*
X8345573Y-4694397D01*
X8340812Y-4689635D01*
X8331288Y-4684873D01*
X8312240Y-4684873D01*
X8302716Y-4689635D01*
X8297954Y-4694397D01*
X8293192Y-4703921D01*
X7999065Y-4737254D02*
X7994303Y-4742016D01*
X7980018Y-4746778D01*
X7970494Y-4746778D01*
X7956208Y-4742016D01*
X7946684Y-4732492D01*
X7941922Y-4722969D01*
X7937160Y-4703921D01*
X7937160Y-4689635D01*
X7941922Y-4670588D01*
X7946684Y-4661064D01*
X7956208Y-4651540D01*
X7970494Y-4646778D01*
X7980018Y-4646778D01*
X7994303Y-4651540D01*
X7999065Y-4656302D01*
X8089541Y-4646778D02*
X8041922Y-4646778D01*
X8037160Y-4694397D01*
X8041922Y-4689635D01*
X8051446Y-4684873D01*
X8075256Y-4684873D01*
X8084780Y-4689635D01*
X8089541Y-4694397D01*
X8094303Y-4703921D01*
X8094303Y-4727730D01*
X8089541Y-4737254D01*
X8084780Y-4742016D01*
X8075256Y-4746778D01*
X8051446Y-4746778D01*
X8041922Y-4742016D01*
X8037160Y-4737254D01*
X7747097Y-4737254D02*
X7742335Y-4742016D01*
X7728050Y-4746778D01*
X7718526Y-4746778D01*
X7704240Y-4742016D01*
X7694716Y-4732492D01*
X7689954Y-4722969D01*
X7685192Y-4703921D01*
X7685192Y-4689635D01*
X7689954Y-4670588D01*
X7694716Y-4661064D01*
X7704240Y-4651540D01*
X7718526Y-4646778D01*
X7728050Y-4646778D01*
X7742335Y-4651540D01*
X7747097Y-4656302D01*
X7832812Y-4680111D02*
X7832812Y-4746778D01*
X7809002Y-4642016D02*
X7785192Y-4713445D01*
X7847097Y-4713445D01*
X7499701Y-4737254D02*
X7494939Y-4742016D01*
X7480654Y-4746778D01*
X7471130Y-4746778D01*
X7456844Y-4742016D01*
X7447320Y-4732492D01*
X7442558Y-4722969D01*
X7437796Y-4703921D01*
X7437796Y-4689635D01*
X7442558Y-4670588D01*
X7447320Y-4661064D01*
X7456844Y-4651540D01*
X7471130Y-4646778D01*
X7480654Y-4646778D01*
X7494939Y-4651540D01*
X7499701Y-4656302D01*
X7533035Y-4646778D02*
X7594939Y-4646778D01*
X7561606Y-4684873D01*
X7575892Y-4684873D01*
X7585416Y-4689635D01*
X7590177Y-4694397D01*
X7594939Y-4703921D01*
X7594939Y-4727730D01*
X7590177Y-4737254D01*
X7585416Y-4742016D01*
X7575892Y-4746778D01*
X7547320Y-4746778D01*
X7537796Y-4742016D01*
X7533035Y-4737254D01*
X7238589Y-4737254D02*
X7233827Y-4742016D01*
X7219542Y-4746778D01*
X7210018Y-4746778D01*
X7195732Y-4742016D01*
X7186208Y-4732492D01*
X7181446Y-4722969D01*
X7176684Y-4703921D01*
X7176684Y-4689635D01*
X7181446Y-4670588D01*
X7186208Y-4661064D01*
X7195732Y-4651540D01*
X7210018Y-4646778D01*
X7219542Y-4646778D01*
X7233827Y-4651540D01*
X7238589Y-4656302D01*
X7276684Y-4656302D02*
X7281446Y-4651540D01*
X7290970Y-4646778D01*
X7314780Y-4646778D01*
X7324304Y-4651540D01*
X7329065Y-4656302D01*
X7333827Y-4665826D01*
X7333827Y-4675350D01*
X7329065Y-4689635D01*
X7271923Y-4746778D01*
X7333827Y-4746778D01*
X6985605Y-4737254D02*
X6980843Y-4742016D01*
X6966558Y-4746778D01*
X6957034Y-4746778D01*
X6942748Y-4742016D01*
X6933224Y-4732492D01*
X6928462Y-4722969D01*
X6923700Y-4703921D01*
X6923700Y-4689635D01*
X6928462Y-4670588D01*
X6933224Y-4661064D01*
X6942748Y-4651540D01*
X6957034Y-4646778D01*
X6966558Y-4646778D01*
X6980843Y-4651540D01*
X6985605Y-4656302D01*
X7080843Y-4746778D02*
X7023700Y-4746778D01*
X7052272Y-4746778D02*
X7052272Y-4646778D01*
X7042748Y-4661064D01*
X7033224Y-4670588D01*
X7023700Y-4675350D01*
X6698462Y-4657100D02*
X6798462Y-4657100D01*
X6798462Y-4723766D02*
X6798462Y-4742814D01*
X6793700Y-4752338D01*
X6784176Y-4761861D01*
X6765128Y-4766623D01*
X6731795Y-4766623D01*
X6712748Y-4761861D01*
X6703224Y-4752338D01*
X6698462Y-4742814D01*
X6698462Y-4723766D01*
X6703224Y-4714242D01*
X6712748Y-4704719D01*
X6731795Y-4699957D01*
X6765128Y-4699957D01*
X6784176Y-4704719D01*
X6793700Y-4714242D01*
X6798462Y-4723766D01*
X6698462Y-4861861D02*
X6698462Y-4804719D01*
X6698462Y-4833290D02*
X6798462Y-4833290D01*
X6784176Y-4823766D01*
X6774652Y-4814242D01*
X6769890Y-4804719D01*
D11*
X16485813Y-5098709D02*
X16485813Y-5075958D01*
X16586726Y-5065071D02*
X16586995Y-5065025D01*
X16587316Y-5119183D02*
X16563276Y-5120885D01*
X16563347Y-5121883D02*
X16588308Y-5120114D01*
X16588579Y-5091852D02*
X16588657Y-5071901D01*
X16588657Y-5071901D02*
X16588545Y-5068181D01*
X16484812Y-5074996D02*
X16484812Y-5098709D01*
X16485203Y-5122083D02*
X16485459Y-5125228D01*
X16587101Y-5065173D02*
X16587546Y-5068236D01*
X16484812Y-5098709D02*
X16485000Y-5116066D01*
X16485459Y-5125228D02*
X16485919Y-5127064D01*
X16586995Y-5065025D02*
X16586995Y-5065025D01*
X16487280Y-5127351D02*
X16486857Y-5126716D01*
X16499311Y-5126262D02*
X16490124Y-5127261D01*
X16587546Y-5068236D02*
X16587606Y-5088883D01*
X16587606Y-5088883D02*
X16587578Y-5091841D01*
X16581298Y-5064928D02*
X16571257Y-5066150D01*
X16584750Y-5064431D02*
X16581298Y-5064928D01*
X16536739Y-5070730D02*
X16518800Y-5072941D01*
X16518800Y-5072941D02*
X16500543Y-5074388D01*
X16586995Y-5065025D02*
X16587101Y-5065173D01*
X16516357Y-5125653D02*
X16535070Y-5124059D01*
X16535070Y-5124059D02*
X16553952Y-5122573D01*
X16553952Y-5122573D02*
X16563347Y-5121883D01*
X16587578Y-5091841D02*
X16587316Y-5119183D01*
X16485813Y-5075958D02*
X16500581Y-5075388D01*
X16485999Y-5116041D02*
X16485813Y-5098709D01*
X16486202Y-5122033D02*
X16485999Y-5116041D01*
X16587999Y-5064732D02*
X16587265Y-5064061D01*
X16486756Y-5128202D02*
X16488191Y-5128495D01*
X16588545Y-5068181D02*
X16587999Y-5064732D01*
X16490277Y-5128250D02*
X16499409Y-5127257D01*
X16488191Y-5128495D02*
X16490277Y-5128250D01*
X16584647Y-4980069D02*
X16587813Y-4979522D01*
X16584905Y-5065419D02*
X16586726Y-5065071D01*
X16587265Y-5064061D02*
X16587265Y-5064061D01*
X16486043Y-5012536D02*
X16486306Y-4990332D01*
X16488162Y-5127496D02*
X16487280Y-5127351D01*
X16571257Y-5066150D02*
X16553473Y-5068392D01*
X16553473Y-5068392D02*
X16536739Y-5070730D01*
X16486857Y-5126716D02*
X16486441Y-5125032D01*
X16581432Y-5065918D02*
X16584905Y-5065419D01*
X16571367Y-5067144D02*
X16581432Y-5065918D01*
X16490124Y-5127261D02*
X16488162Y-5127496D01*
X16516267Y-5124658D02*
X16499311Y-5126262D01*
X16486306Y-4990332D02*
X16496802Y-4990546D01*
X16586430Y-5064116D02*
X16584750Y-5064431D01*
X16500581Y-5075388D02*
X16519217Y-5073905D01*
X16519217Y-5073905D02*
X16536884Y-5071720D01*
X16486441Y-5125032D02*
X16486202Y-5122033D01*
X16588308Y-5120114D02*
X16588579Y-5091852D01*
X16485919Y-5127064D02*
X16486756Y-5128202D01*
X16536884Y-5071720D02*
X16554793Y-5069226D01*
X16554793Y-5069226D02*
X16571367Y-5067144D01*
X16563276Y-5120885D02*
X16544551Y-5122296D01*
X16544551Y-5122296D02*
X16526022Y-5123808D01*
X16526022Y-5123808D02*
X16516267Y-5124658D01*
X16485000Y-5116066D02*
X16485203Y-5122083D01*
X16587265Y-5064061D02*
X16586430Y-5064116D01*
X16500543Y-5074388D02*
X16484812Y-5074996D01*
X16499409Y-5127257D02*
X16516357Y-5125653D01*
X16568872Y-4982177D02*
X16584647Y-4980069D01*
X16587547Y-5020750D02*
X16587140Y-5024128D01*
X16575711Y-5023679D02*
X16582996Y-5025094D01*
X16587813Y-4979522D02*
X16587813Y-5002060D01*
X16543388Y-4985712D02*
X16560915Y-4983204D01*
X16560915Y-4983204D02*
X16568872Y-4982177D01*
X16499071Y-5032165D02*
X16487434Y-5034241D01*
X16587813Y-5002060D02*
X16587547Y-5020750D01*
X16542438Y-5023262D02*
X16525982Y-5026957D01*
X16525982Y-5026957D02*
X16509336Y-5030318D01*
X16509336Y-5030318D02*
X16499071Y-5032165D01*
X16588105Y-5024390D02*
X16588546Y-5020810D01*
X16575912Y-5022701D02*
X16557694Y-5020872D01*
X16557694Y-5020872D02*
X16542438Y-5023262D01*
X16583173Y-5024110D02*
X16575912Y-5022701D01*
X16585692Y-5024538D02*
X16583173Y-5024110D01*
X16484767Y-5035864D02*
X16487652Y-5035216D01*
X16588812Y-5002060D02*
X16588812Y-4978335D01*
X16485317Y-4989313D02*
X16485043Y-5012525D01*
X16496822Y-4989546D02*
X16485317Y-4989313D01*
X16582996Y-5025094D02*
X16585539Y-5025527D01*
X16588546Y-5020810D02*
X16588812Y-5002060D01*
X16586917Y-5024670D02*
X16586922Y-5024690D01*
X16485043Y-5012525D02*
X16484767Y-5035864D01*
X16496802Y-4990546D02*
X16515925Y-4989565D01*
X16515925Y-4989565D02*
X16533914Y-4987149D01*
X16533914Y-4987149D02*
X16543388Y-4985712D01*
X16587140Y-5024128D02*
X16586917Y-5024670D01*
X16585539Y-5025527D02*
X16586922Y-5025691D01*
X16586922Y-5025691D02*
X16587704Y-5025288D01*
X16485782Y-5034611D02*
X16486043Y-5012536D01*
X16586922Y-5024690D02*
X16585692Y-5024538D01*
X16587704Y-5025288D02*
X16588105Y-5024390D01*
X16487434Y-5034241D02*
X16485782Y-5034611D01*
X16582926Y-4883516D02*
X16583761Y-4886032D01*
X16579300Y-4881897D02*
X16564636Y-4882611D01*
X16575892Y-4938209D02*
X16558140Y-4935848D01*
X16558140Y-4935848D02*
X16540588Y-4938370D01*
X16540588Y-4938370D02*
X16537333Y-4939170D01*
X16496118Y-4889306D02*
X16514466Y-4887585D01*
X16514466Y-4887585D02*
X16533348Y-4885995D01*
X16533348Y-4885995D02*
X16552281Y-4884502D01*
X16552281Y-4884502D02*
X16564703Y-4883608D01*
X16586893Y-4941484D02*
X16587648Y-4941631D01*
X16575688Y-4939187D02*
X16584230Y-4940948D01*
X16489979Y-4949153D02*
X16486812Y-4949689D01*
X16537333Y-4939170D02*
X16521046Y-4942965D01*
X16521046Y-4942965D02*
X16508658Y-4945574D01*
X16587776Y-4906137D02*
X16585747Y-4890859D01*
X16489813Y-4889000D02*
X16489798Y-4894568D01*
X16587755Y-4926863D02*
X16587842Y-4936902D01*
X16588649Y-4940976D02*
X16588744Y-4940066D01*
X16508853Y-4946555D02*
X16525526Y-4942990D01*
X16525526Y-4942990D02*
X16537577Y-4940139D01*
X16487822Y-4909089D02*
X16485912Y-4927265D01*
X16485912Y-4927265D02*
X16485826Y-4934485D01*
X16587648Y-4941631D02*
X16587865Y-4941670D01*
X16584761Y-4891028D02*
X16586781Y-4906243D01*
X16582111Y-4883114D02*
X16582926Y-4883516D01*
X16585747Y-4890859D02*
X16584732Y-4885794D01*
X16510435Y-4540690D02*
X16510435Y-4540690D01*
X16588040Y-4941691D02*
X16588460Y-4941485D01*
X16489798Y-4894568D02*
X16487822Y-4909089D01*
X16542669Y-5024235D02*
X16560339Y-5021808D01*
X16560339Y-5021808D02*
X16575711Y-5023679D01*
X16499236Y-5033153D02*
X16516157Y-5030007D01*
X16516157Y-5030007D02*
X16532983Y-5026458D01*
X16532983Y-5026458D02*
X16542669Y-5024235D01*
X16588460Y-4941485D02*
X16588568Y-4941294D01*
X16490811Y-4889897D02*
X16496118Y-4889306D01*
X16579300Y-4881897D02*
X16579300Y-4881897D01*
X16587747Y-4939999D02*
X16587684Y-4940618D01*
X16583761Y-4886032D02*
X16584761Y-4891028D01*
X16583777Y-4882990D02*
X16582333Y-4882139D01*
X16588842Y-4936914D02*
X16588756Y-4926841D01*
X16508852Y-4946555D02*
X16508853Y-4946555D01*
X16588744Y-4940066D02*
X16588842Y-4936914D01*
X16485811Y-4950872D02*
X16490146Y-4950138D01*
X16537577Y-4940139D02*
X16554421Y-4936964D01*
X16554421Y-4936964D02*
X16572876Y-4938617D01*
X16572876Y-4938617D02*
X16575688Y-4939187D01*
X16588568Y-4941294D02*
X16588649Y-4940976D01*
X16587939Y-4941682D02*
X16588040Y-4941691D01*
X16564636Y-4882611D02*
X16545943Y-4883986D01*
X16545943Y-4883986D02*
X16526875Y-4885525D01*
X16526875Y-4885525D02*
X16508397Y-4887117D01*
X16508397Y-4887117D02*
X16496006Y-4888312D01*
X16486825Y-4934487D02*
X16487766Y-4915342D01*
X16487766Y-4915342D02*
X16488802Y-4909291D01*
X16496006Y-4888312D02*
X16489813Y-4889000D01*
X16508658Y-4945574D02*
X16491655Y-4948851D01*
X16491655Y-4948851D02*
X16489979Y-4949153D01*
X16586781Y-4906243D02*
X16587726Y-4925593D01*
X16587726Y-4925593D02*
X16587755Y-4926863D01*
X16584429Y-4939968D02*
X16575892Y-4938209D01*
X16448361Y-4670692D02*
X16450252Y-4660532D01*
X16587086Y-4940503D02*
X16584429Y-4939968D01*
X16488802Y-4909291D02*
X16490799Y-4894571D01*
X16579292Y-4882898D02*
X16582111Y-4883114D01*
X16582333Y-4882139D02*
X16579300Y-4881897D01*
X16490799Y-4894571D02*
X16490811Y-4889897D01*
X16486812Y-4949689D02*
X16486825Y-4934487D01*
X16587842Y-4936902D02*
X16587747Y-4939999D01*
X16584732Y-4885794D02*
X16583777Y-4882990D01*
X16588756Y-4926841D02*
X16587914Y-4907628D01*
X16587914Y-4907628D02*
X16587776Y-4906137D01*
X16587865Y-4941670D02*
X16587939Y-4941682D01*
X16485826Y-4934485D02*
X16485811Y-4950872D01*
X16490146Y-4950138D02*
X16507695Y-4946783D01*
X16507695Y-4946783D02*
X16508852Y-4946555D01*
X16487652Y-5035216D02*
X16499236Y-5033153D01*
X16588812Y-4978335D02*
X16584477Y-4979085D01*
X16584477Y-4979085D02*
X16568752Y-4981184D01*
X16543236Y-4984723D02*
X16525705Y-4987319D01*
X16525705Y-4987319D02*
X16507617Y-4989314D01*
X16507617Y-4989314D02*
X16496822Y-4989546D01*
X16584230Y-4940948D02*
X16586893Y-4941484D01*
X16568752Y-4981184D02*
X16550903Y-4983586D01*
X16550903Y-4983586D02*
X16543236Y-4984723D01*
X16579291Y-4882898D02*
X16579291Y-4882898D01*
X16587684Y-4940618D02*
X16587086Y-4940503D01*
X16564703Y-4883608D02*
X16579291Y-4882898D01*
X16124386Y-4943289D02*
X16121727Y-4939828D01*
X16142272Y-4906585D02*
X16153568Y-4897723D01*
X16153568Y-4897723D02*
X16163028Y-4890356D01*
X16426999Y-4895418D02*
X16426791Y-4890689D01*
X16120835Y-4938433D02*
X16120812Y-4938410D01*
X16147480Y-4965938D02*
X16145723Y-4966513D01*
X16120812Y-4938410D02*
X16121274Y-4934926D01*
X16141047Y-4962584D02*
X16132583Y-4953090D01*
X16221909Y-4893194D02*
X16239808Y-4889395D01*
X16239808Y-4889395D02*
X16258130Y-4885497D01*
X16258130Y-4885497D02*
X16274715Y-4881961D01*
X16274715Y-4881961D02*
X16291804Y-4878313D01*
X16291804Y-4878313D02*
X16307661Y-4874923D01*
X16175134Y-4901424D02*
X16178897Y-4902180D01*
X16144962Y-4966495D02*
X16144034Y-4965660D01*
X16192293Y-4899439D02*
X16209746Y-4895768D01*
X16209746Y-4895768D02*
X16221909Y-4893194D01*
X16121727Y-4939828D02*
X16121005Y-4938748D01*
X16145242Y-4966659D02*
X16145203Y-4966669D01*
X16153706Y-4963820D02*
X16147480Y-4965938D01*
X16178897Y-4902180D02*
X16192293Y-4899439D01*
X16165149Y-4889742D02*
X16170030Y-4895516D01*
X16144034Y-4965660D02*
X16141047Y-4962584D01*
X16121274Y-4934926D02*
X16122399Y-4928789D01*
X16426791Y-4890689D02*
X16417561Y-4890695D01*
X16121005Y-4938748D02*
X16120835Y-4938433D01*
X16145723Y-4966513D02*
X16145242Y-4966659D01*
X16132583Y-4953090D02*
X16124386Y-4943289D01*
X16391799Y-4856857D02*
X16408245Y-4853297D01*
X16408245Y-4853297D02*
X16419395Y-4850866D01*
X16307661Y-4874923D02*
X16326323Y-4870929D01*
X16326323Y-4870929D02*
X16343857Y-4867170D01*
X16343857Y-4867170D02*
X16361308Y-4863424D01*
X16361308Y-4863424D02*
X16379378Y-4859536D01*
X16379378Y-4859536D02*
X16391799Y-4856857D01*
X16170030Y-4895516D02*
X16175134Y-4901424D01*
X16164301Y-4889547D02*
X16165149Y-4889742D01*
X16163028Y-4890356D02*
X16164301Y-4889547D01*
X16145203Y-4966669D02*
X16144962Y-4966495D01*
X16442339Y-4720435D02*
X16442327Y-4720355D01*
X16429113Y-4730799D02*
X16417762Y-4740745D01*
X16417762Y-4740745D02*
X16405961Y-4751109D01*
X16405961Y-4751109D02*
X16398000Y-4758109D01*
X16311873Y-4832239D02*
X16302216Y-4830174D01*
X16238632Y-4757811D02*
X16238910Y-4757504D01*
X16419395Y-4850866D02*
X16427151Y-4849148D01*
X16257158Y-4814768D02*
X16244840Y-4807027D01*
X16244840Y-4807027D02*
X16237208Y-4797465D01*
X16430417Y-4847658D02*
X16430563Y-4846544D01*
X16429930Y-4848495D02*
X16429999Y-4848471D01*
X16441292Y-4720229D02*
X16440647Y-4720769D01*
X16436690Y-4784286D02*
X16438404Y-4765915D01*
X16438404Y-4765915D02*
X16440100Y-4747385D01*
X16440100Y-4747385D02*
X16440710Y-4740588D01*
X16354120Y-4587691D02*
X16364468Y-4587691D01*
X16352916Y-4593515D02*
X16354120Y-4587691D01*
X16434055Y-4669867D02*
X16442377Y-4670677D01*
X16432286Y-4668441D02*
X16434055Y-4669867D01*
X16432492Y-4827974D02*
X16434308Y-4809342D01*
X16434308Y-4809342D02*
X16436095Y-4790602D01*
X16436095Y-4790602D02*
X16436690Y-4784286D01*
X16431022Y-4842441D02*
X16432492Y-4827974D01*
X16431813Y-4666205D02*
X16432286Y-4668441D01*
X16313707Y-4832168D02*
X16311873Y-4832239D01*
X16430194Y-4848350D02*
X16430311Y-4848172D01*
X16425666Y-4638594D02*
X16430131Y-4654187D01*
X16430131Y-4654187D02*
X16431813Y-4666205D01*
X16123962Y-4920969D02*
X16142272Y-4906585D01*
X16238910Y-4757504D02*
X16239681Y-4756766D01*
X16238349Y-4759432D02*
X16238535Y-4758238D01*
X16380140Y-4590670D02*
X16392358Y-4598658D01*
X16392358Y-4598658D02*
X16403375Y-4607644D01*
X16403375Y-4607644D02*
X16413119Y-4617913D01*
X16413119Y-4617913D02*
X16421404Y-4629915D01*
X16421404Y-4629915D02*
X16425666Y-4638594D01*
X16441472Y-4720085D02*
X16441292Y-4720229D01*
X16122399Y-4928789D02*
X16123962Y-4920969D01*
X16430311Y-4848172D02*
X16430336Y-4848096D01*
X16314943Y-4678976D02*
X16322898Y-4666681D01*
X16322898Y-4666681D02*
X16330189Y-4653775D01*
X16330189Y-4653775D02*
X16337144Y-4639663D01*
X16337144Y-4639663D02*
X16343139Y-4625537D01*
X16343139Y-4625537D02*
X16348371Y-4610745D01*
X16348371Y-4610745D02*
X16352634Y-4594849D01*
X16352634Y-4594849D02*
X16352916Y-4593515D01*
X16250627Y-4747513D02*
X16261553Y-4738165D01*
X16261553Y-4738165D02*
X16272010Y-4728392D01*
X16272010Y-4728392D02*
X16282103Y-4718240D01*
X16282103Y-4718240D02*
X16291777Y-4707817D01*
X16291777Y-4707817D02*
X16301194Y-4696909D01*
X16301194Y-4696909D02*
X16310221Y-4685499D01*
X16310221Y-4685499D02*
X16314943Y-4678976D01*
X16242335Y-4754417D02*
X16250627Y-4747513D01*
X16238535Y-4758238D02*
X16238632Y-4757811D01*
X16236799Y-4775959D02*
X16237880Y-4763474D01*
X16237208Y-4797465D02*
X16235995Y-4791142D01*
X16398000Y-4758109D02*
X16386767Y-4767993D01*
X16386767Y-4767993D02*
X16374917Y-4778430D01*
X16374917Y-4778430D02*
X16363331Y-4788643D01*
X16363331Y-4788643D02*
X16350888Y-4799620D01*
X16350888Y-4799620D02*
X16340125Y-4809123D01*
X16340125Y-4809123D02*
X16328849Y-4819087D01*
X16328849Y-4819087D02*
X16317900Y-4828771D01*
X16317900Y-4828771D02*
X16314766Y-4831545D01*
X16441621Y-4719991D02*
X16441545Y-4720032D01*
X16429220Y-4848673D02*
X16429769Y-4848539D01*
X16441959Y-4726110D02*
X16442273Y-4722000D01*
X16442236Y-4720150D02*
X16441621Y-4719991D01*
X16442327Y-4720355D02*
X16442236Y-4720150D01*
X16430563Y-4846544D02*
X16431022Y-4842441D01*
X16430336Y-4848096D02*
X16430364Y-4847978D01*
X16438201Y-4722876D02*
X16429113Y-4730799D01*
X16440647Y-4720769D02*
X16438201Y-4722876D01*
X16302216Y-4830174D02*
X16286403Y-4825896D01*
X16286403Y-4825896D02*
X16271317Y-4820877D01*
X16271317Y-4820877D02*
X16257222Y-4814801D01*
X16257222Y-4814801D02*
X16257158Y-4814768D01*
X16314766Y-4831545D02*
X16313707Y-4832168D01*
X16442345Y-4720558D02*
X16442339Y-4720435D01*
X16429769Y-4848539D02*
X16429930Y-4848495D01*
X16442273Y-4722000D02*
X16442337Y-4720879D01*
X16440710Y-4740588D02*
X16441959Y-4726110D01*
X16429999Y-4848471D02*
X16430194Y-4848350D01*
X16427151Y-4849148D02*
X16429220Y-4848673D01*
X16430364Y-4847978D02*
X16430417Y-4847658D01*
X16237880Y-4763474D02*
X16238349Y-4759432D01*
X16235995Y-4791142D02*
X16236799Y-4775959D01*
X16442337Y-4720879D02*
X16442345Y-4720558D01*
X16442377Y-4670677D02*
X16448361Y-4670692D01*
X16497584Y-4542211D02*
X16510435Y-4540690D01*
X16488610Y-4549188D02*
X16497584Y-4542211D01*
X16468100Y-4590851D02*
X16473416Y-4576023D01*
X16473416Y-4576023D02*
X16479603Y-4562097D01*
X16479603Y-4562097D02*
X16487711Y-4550175D01*
X16487711Y-4550175D02*
X16488610Y-4549188D01*
X16450252Y-4660532D02*
X16453822Y-4644051D01*
X16453822Y-4644051D02*
X16457778Y-4627864D01*
X16457778Y-4627864D02*
X16461974Y-4611810D01*
X16461974Y-4611810D02*
X16466406Y-4596186D01*
X16466406Y-4596186D02*
X16468100Y-4590851D01*
X16374322Y-4588123D02*
X16380140Y-4590670D01*
X16364468Y-4587691D02*
X16374322Y-4588123D01*
X16239681Y-4756766D02*
X16242335Y-4754417D01*
X16441545Y-4720032D02*
X16441472Y-4720085D01*
X16589100Y-5254895D02*
X16588562Y-5159539D01*
X16307824Y-5146258D02*
X16327579Y-5145662D01*
X16327579Y-5145662D02*
X16346936Y-5144766D01*
X16346936Y-5144766D02*
X16365700Y-5143505D01*
X16365700Y-5143505D02*
X16384018Y-5141781D01*
X16384018Y-5141781D02*
X16401858Y-5139489D01*
X16401858Y-5139489D02*
X16409736Y-5138241D01*
X16266921Y-5152168D02*
X16278801Y-5147901D01*
X16303103Y-5194039D02*
X16288719Y-5188348D01*
X16288719Y-5188348D02*
X16276180Y-5181922D01*
X16588562Y-5159539D02*
X16583878Y-5160114D01*
X16409736Y-5138241D02*
X16427054Y-5135465D01*
X16427054Y-5135465D02*
X16429126Y-5135175D01*
X16278801Y-5147901D02*
X16297502Y-5146554D01*
X16297502Y-5146554D02*
X16307824Y-5146258D01*
X16262223Y-5169896D02*
X16265635Y-5153252D01*
X16265635Y-5153252D02*
X16266921Y-5152168D01*
X16642782Y-5113690D02*
X16646559Y-5113690D01*
X16348202Y-5194797D02*
X16331745Y-5198551D01*
X16331745Y-5198551D02*
X16313078Y-5197181D01*
X16313078Y-5197181D02*
X16303103Y-5194039D01*
X16570281Y-5161208D02*
X16551224Y-5162594D01*
X16551224Y-5162594D02*
X16531887Y-5164149D01*
X16531887Y-5164149D02*
X16513260Y-5165716D01*
X16513260Y-5165716D02*
X16494327Y-5167379D01*
X16494327Y-5167379D02*
X16476003Y-5169141D01*
X16476003Y-5169141D02*
X16474753Y-5169284D01*
X16276180Y-5181922D02*
X16264760Y-5173321D01*
X16264760Y-5173321D02*
X16262223Y-5169896D01*
X16433619Y-5093586D02*
X16432873Y-5073677D01*
X16432873Y-5073677D02*
X16432097Y-5053283D01*
X16432097Y-5053283D02*
X16431317Y-5033063D01*
X16431317Y-5033063D02*
X16430752Y-5018532D01*
X16434492Y-5117744D02*
X16433786Y-5098120D01*
X16433786Y-5098120D02*
X16433619Y-5093586D01*
X16474753Y-5169284D02*
X16456955Y-5171638D01*
X16456955Y-5171638D02*
X16439415Y-5174410D01*
X16439415Y-5174410D02*
X16422250Y-5177499D01*
X16422250Y-5177499D02*
X16405474Y-5180852D01*
X16405474Y-5180852D02*
X16388788Y-5184505D01*
X16388788Y-5184505D02*
X16372502Y-5188384D01*
X16372502Y-5188384D02*
X16356055Y-5192637D01*
X16356055Y-5192637D02*
X16348202Y-5194797D01*
X16434812Y-5128206D02*
X16434492Y-5117744D01*
X16583878Y-5160114D02*
X16570281Y-5161208D01*
X16643365Y-5055436D02*
X16642782Y-5113690D01*
X16591278Y-5357082D02*
X16589915Y-5338406D01*
X16589915Y-5338406D02*
X16589566Y-5317774D01*
X16589566Y-5317774D02*
X16589368Y-5296721D01*
X16589368Y-5296721D02*
X16589223Y-5275659D01*
X16589223Y-5275659D02*
X16589100Y-5254895D01*
X16435694Y-4784192D02*
X16433954Y-4802560D01*
X16433954Y-4802560D02*
X16432165Y-4821082D01*
X16432165Y-4821082D02*
X16431498Y-4827875D01*
X16441275Y-4721932D02*
X16440962Y-4726027D01*
X16440962Y-4726027D02*
X16439714Y-4740499D01*
X16438855Y-4723631D02*
X16441296Y-4721530D01*
X16192088Y-4898460D02*
X16178727Y-4901193D01*
X16307452Y-4873946D02*
X16288724Y-4877948D01*
X16288724Y-4877948D02*
X16271699Y-4881582D01*
X16271699Y-4881582D02*
X16252555Y-4885661D01*
X16252555Y-4885661D02*
X16234628Y-4889473D01*
X16234628Y-4889473D02*
X16221701Y-4892215D01*
X16391588Y-4855880D02*
X16374358Y-4859594D01*
X16374358Y-4859594D02*
X16357161Y-4863292D01*
X16357161Y-4863292D02*
X16340189Y-4866935D01*
X16340189Y-4866935D02*
X16323261Y-4870562D01*
X16323261Y-4870562D02*
X16307452Y-4873946D01*
X16430027Y-4842335D02*
X16429570Y-4846421D01*
X16439714Y-4740499D02*
X16437961Y-4759827D01*
X16437961Y-4759827D02*
X16436182Y-4778988D01*
X16436182Y-4778988D02*
X16435694Y-4784192D01*
X16441299Y-4721527D02*
X16441275Y-4721932D01*
X16429428Y-4847511D02*
X16429415Y-4847596D01*
X16178727Y-4901193D02*
X16175745Y-4900632D01*
X16121420Y-4928592D02*
X16120287Y-4934765D01*
X16353304Y-4586690D02*
X16351937Y-4593313D01*
X16364468Y-4586690D02*
X16353304Y-4586690D01*
X16441296Y-4721530D02*
X16441299Y-4721527D01*
X16162429Y-4889555D02*
X16151122Y-4898368D01*
X16151122Y-4898368D02*
X16141653Y-4905797D01*
X16163997Y-4888594D02*
X16162429Y-4889555D01*
X16165713Y-4888915D02*
X16163997Y-4888594D01*
X16175745Y-4900632D02*
X16170823Y-4894906D01*
X16428988Y-4847700D02*
X16426932Y-4848173D01*
X16429570Y-4846421D02*
X16429428Y-4847511D01*
X16431498Y-4827875D02*
X16430027Y-4842335D01*
X16429772Y-4731550D02*
X16438855Y-4723631D01*
X16170823Y-4894906D02*
X16165713Y-4888915D01*
X16221701Y-4892215D02*
X16204746Y-4895800D01*
X16204746Y-4895800D02*
X16192088Y-4898460D01*
X16419181Y-4849889D02*
X16402652Y-4853487D01*
X16402652Y-4853487D02*
X16391588Y-4855880D01*
X16426932Y-4848173D02*
X16419181Y-4849889D01*
X16429415Y-4847596D02*
X16428988Y-4847700D01*
X16311776Y-4833235D02*
X16313979Y-4833130D01*
X16256707Y-4815661D02*
X16270678Y-4821706D01*
X16270678Y-4821706D02*
X16285824Y-4826768D01*
X16285824Y-4826768D02*
X16301644Y-4831062D01*
X16301644Y-4831062D02*
X16301978Y-4831145D01*
X16235802Y-4775883D02*
X16234995Y-4791162D01*
X16236886Y-4763371D02*
X16235802Y-4775883D01*
X16374509Y-4587140D02*
X16364468Y-4586690D01*
X16510435Y-4539691D02*
X16497221Y-4541279D01*
X16237552Y-4758053D02*
X16237357Y-4759296D01*
X16351937Y-4593313D02*
X16347731Y-4609433D01*
X16347731Y-4609433D02*
X16342542Y-4624302D01*
X16342542Y-4624302D02*
X16336548Y-4638548D01*
X16336548Y-4638548D02*
X16329991Y-4651994D01*
X16329991Y-4651994D02*
X16322812Y-4664879D01*
X16322812Y-4664879D02*
X16314989Y-4677149D01*
X16314989Y-4677149D02*
X16314123Y-4678405D01*
X16432812Y-4666205D02*
X16429977Y-4648977D01*
X16429977Y-4648977D02*
X16426589Y-4638210D01*
X16237756Y-4757327D02*
X16237552Y-4758053D01*
X16249998Y-4746736D02*
X16241682Y-4753659D01*
X16314123Y-4678405D02*
X16305576Y-4689898D01*
X16305576Y-4689898D02*
X16296351Y-4701090D01*
X16296351Y-4701090D02*
X16286758Y-4711838D01*
X16286758Y-4711838D02*
X16276782Y-4722257D01*
X16276782Y-4722257D02*
X16265816Y-4732905D01*
X16265816Y-4732905D02*
X16255256Y-4742354D01*
X16255256Y-4742354D02*
X16249998Y-4746736D01*
X16447530Y-4669690D02*
X16442380Y-4669676D01*
X16442380Y-4669676D02*
X16434423Y-4668937D01*
X16301978Y-4831145D02*
X16311776Y-4833235D01*
X16449269Y-4660348D02*
X16447530Y-4669690D01*
X16433154Y-4667946D02*
X16432812Y-4666205D01*
X16434423Y-4668937D02*
X16433154Y-4667946D01*
X16234995Y-4791162D02*
X16236273Y-4797821D01*
X16237357Y-4759296D02*
X16236886Y-4763371D01*
X16238195Y-4756802D02*
X16237756Y-4757327D01*
X16497221Y-4541279D02*
X16487879Y-4548505D01*
X16426589Y-4638210D02*
X16419621Y-4625077D01*
X16419621Y-4625077D02*
X16410835Y-4613736D01*
X16410835Y-4613736D02*
X16400417Y-4603702D01*
X16400417Y-4603702D02*
X16389010Y-4595088D01*
X16389010Y-4595088D02*
X16380648Y-4589809D01*
X16241682Y-4753659D02*
X16239002Y-4756030D01*
X16467152Y-4590531D02*
X16462525Y-4606009D01*
X16462525Y-4606009D02*
X16458280Y-4621852D01*
X16458280Y-4621852D02*
X16454178Y-4638231D01*
X16454178Y-4638231D02*
X16450422Y-4654610D01*
X16450422Y-4654610D02*
X16449269Y-4660348D01*
X16487879Y-4548505D02*
X16479511Y-4560171D01*
X16479511Y-4560171D02*
X16473147Y-4573974D01*
X16473147Y-4573974D02*
X16467746Y-4588779D01*
X16467746Y-4588779D02*
X16467152Y-4590531D01*
X16398660Y-4758859D02*
X16409330Y-4749478D01*
X16409330Y-4749478D02*
X16420288Y-4739858D01*
X16420288Y-4739858D02*
X16429772Y-4731550D01*
X16315429Y-4832293D02*
X16326251Y-4822719D01*
X16326251Y-4822719D02*
X16337447Y-4812823D01*
X16337447Y-4812823D02*
X16348180Y-4803344D01*
X16348180Y-4803344D02*
X16358962Y-4793830D01*
X16358962Y-4793830D02*
X16369986Y-4784109D01*
X16369986Y-4784109D02*
X16382048Y-4773480D01*
X16382048Y-4773480D02*
X16393287Y-4763586D01*
X16393287Y-4763586D02*
X16398660Y-4758859D01*
X16313979Y-4833130D02*
X16315429Y-4832293D01*
X16236273Y-4797821D02*
X16245484Y-4808823D01*
X16245484Y-4808823D02*
X16256707Y-4815661D01*
X16239002Y-4756030D02*
X16238195Y-4756802D01*
X16380648Y-4589809D02*
X16374509Y-4587140D01*
X16599566Y-4707568D02*
X16599439Y-4708485D01*
X16599439Y-4708485D02*
X16599429Y-4708545D01*
X16601204Y-4693493D02*
X16599978Y-4704248D01*
X16549312Y-4596691D02*
X16548399Y-4577577D01*
X16548399Y-4577577D02*
X16546958Y-4572042D01*
X16600428Y-4708637D02*
X16600558Y-4707698D01*
X16510435Y-4539691D02*
X16510435Y-4539691D01*
X16600971Y-4704367D02*
X16602199Y-4693603D01*
X16502654Y-4815736D02*
X16505535Y-4798584D01*
X16505535Y-4798584D02*
X16510104Y-4782933D01*
X16510104Y-4782933D02*
X16515798Y-4768465D01*
X16515798Y-4768465D02*
X16518751Y-4762085D01*
X16519746Y-4541120D02*
X16525105Y-4543652D01*
X16548811Y-4627654D02*
X16549236Y-4607783D01*
X16549236Y-4607783D02*
X16549312Y-4596691D01*
X16646559Y-5112691D02*
X16643791Y-5112691D01*
X16602772Y-4673440D02*
X16596100Y-4660071D01*
X16596100Y-4660071D02*
X16588248Y-4653285D01*
X16600382Y-4708908D02*
X16600428Y-4708637D01*
X16600050Y-4709384D02*
X16600116Y-4709349D01*
X16595925Y-4710551D02*
X16598875Y-4709750D01*
X16722968Y-4825080D02*
X16706093Y-4821798D01*
X16706093Y-4821798D02*
X16700288Y-4822039D01*
X16752319Y-4842203D02*
X16741049Y-4833454D01*
X16741049Y-4833454D02*
X16727643Y-4826733D01*
X16727643Y-4826733D02*
X16722968Y-4825080D01*
X16498473Y-4843650D02*
X16498478Y-4843593D01*
X16599429Y-4708545D02*
X16599407Y-4708552D01*
X16599978Y-4704248D02*
X16599566Y-4707568D01*
X16601796Y-4673658D02*
X16601219Y-4693356D01*
X16601219Y-4693356D02*
X16601204Y-4693493D01*
X16587700Y-4654123D02*
X16597822Y-4664033D01*
X16597822Y-4664033D02*
X16601796Y-4673658D01*
X16600360Y-4709007D02*
X16600382Y-4708908D01*
X16525105Y-4543652D02*
X16535795Y-4553072D01*
X16535795Y-4553072D02*
X16543449Y-4565502D01*
X16543449Y-4565502D02*
X16546004Y-4572339D01*
X16540447Y-4733226D02*
X16552578Y-4725321D01*
X16552578Y-4725321D02*
X16566438Y-4719071D01*
X16566438Y-4719071D02*
X16581685Y-4714240D01*
X16581685Y-4714240D02*
X16586377Y-4713012D01*
X16506002Y-4843042D02*
X16498473Y-4843650D01*
X16555391Y-4642279D02*
X16548328Y-4641157D01*
X16519945Y-4540140D02*
X16510435Y-4539691D01*
X16525646Y-4542811D02*
X16519945Y-4540140D01*
X16602199Y-4693603D02*
X16602950Y-4674336D01*
X16602950Y-4674336D02*
X16602772Y-4673440D01*
X16599707Y-4709506D02*
X16599952Y-4709424D01*
X16586377Y-4713012D02*
X16595925Y-4710551D01*
X16498728Y-4841848D02*
X16499824Y-4836042D01*
X16751956Y-4872220D02*
X16761410Y-4861604D01*
X16761410Y-4861604D02*
X16761689Y-4859060D01*
X16600343Y-4709068D02*
X16600360Y-4709007D01*
X16600265Y-4709216D02*
X16600343Y-4709068D01*
X16595668Y-4709586D02*
X16586132Y-4712043D01*
X16598603Y-4708788D02*
X16595668Y-4709586D01*
X16546004Y-4572339D02*
X16548282Y-4590096D01*
X16548282Y-4590096D02*
X16548312Y-4596691D01*
X16548328Y-4641157D02*
X16548811Y-4627654D01*
X16599407Y-4708552D02*
X16598603Y-4708788D01*
X16669746Y-4825146D02*
X16651780Y-4827335D01*
X16651780Y-4827335D02*
X16633562Y-4829425D01*
X16633562Y-4829425D02*
X16615303Y-4831470D01*
X16615303Y-4831470D02*
X16597033Y-4833484D01*
X16597033Y-4833484D02*
X16578775Y-4835471D01*
X16578775Y-4835471D02*
X16576044Y-4835766D01*
X16588248Y-4653285D02*
X16574667Y-4646862D01*
X16574667Y-4646862D02*
X16558558Y-4642815D01*
X16558558Y-4642815D02*
X16555391Y-4642279D01*
X16499824Y-4836042D02*
X16502366Y-4818573D01*
X16502366Y-4818573D02*
X16502654Y-4815736D01*
X16576044Y-4835766D02*
X16557293Y-4837777D01*
X16557293Y-4837777D02*
X16538981Y-4839710D01*
X16538981Y-4839710D02*
X16523611Y-4841300D01*
X16555233Y-4643267D02*
X16571843Y-4647000D01*
X16571843Y-4647000D02*
X16585890Y-4652997D01*
X16585890Y-4652997D02*
X16587700Y-4654123D01*
X16498478Y-4843593D02*
X16498728Y-4841848D01*
X16548312Y-4596691D02*
X16548099Y-4616484D01*
X16548099Y-4616484D02*
X16547812Y-4627618D01*
X16510435Y-4540690D02*
X16519746Y-4541120D01*
X16643791Y-5112691D02*
X16644366Y-5055445D01*
X16523611Y-4841300D02*
X16506002Y-4843042D01*
X16761689Y-4859060D02*
X16755426Y-4845300D01*
X16755426Y-4845300D02*
X16752319Y-4842203D01*
X16546958Y-4572042D02*
X16540704Y-4558168D01*
X16540704Y-4558168D02*
X16531473Y-4547207D01*
X16531473Y-4547207D02*
X16525646Y-4542811D01*
X16600558Y-4707698D02*
X16600971Y-4704367D01*
X16599952Y-4709424D02*
X16600050Y-4709384D01*
X16598875Y-4709750D02*
X16599707Y-4709506D01*
X16700288Y-4822039D02*
X16681928Y-4823680D01*
X16681928Y-4823680D02*
X16669746Y-4825146D01*
X16518751Y-4762085D02*
X16525829Y-4748970D01*
X16525829Y-4748970D02*
X16534868Y-4737912D01*
X16534868Y-4737912D02*
X16540447Y-4733226D01*
X16600116Y-4709349D02*
X16600265Y-4709216D01*
X16657779Y-5111498D02*
X16646559Y-5112691D01*
X16803089Y-5157582D02*
X16819572Y-5153999D01*
X16819572Y-5153999D02*
X16821307Y-5153002D01*
X16668237Y-5158433D02*
X16688304Y-5158284D01*
X16688304Y-5158284D02*
X16708363Y-5158210D01*
X16708363Y-5158210D02*
X16726149Y-5158190D01*
X16653026Y-4900033D02*
X16655471Y-4888665D01*
X16726149Y-5158190D02*
X16747662Y-5158188D01*
X16747662Y-5158188D02*
X16767821Y-5158160D01*
X16767821Y-5158160D02*
X16787751Y-5158019D01*
X16787751Y-5158019D02*
X16803089Y-5157582D01*
X16650435Y-5158695D02*
X16668237Y-5158433D01*
X16656436Y-4878658D02*
X16663270Y-4878349D01*
X16735454Y-4875522D02*
X16751956Y-4872220D01*
X16654385Y-4879760D02*
X16654258Y-4878803D01*
X16654551Y-4878776D02*
X16656436Y-4878658D01*
X16655471Y-4888665D02*
X16655069Y-4882792D01*
X16685494Y-4877592D02*
X16705139Y-4876974D01*
X16705139Y-4876974D02*
X16724378Y-4876207D01*
X16724378Y-4876207D02*
X16735454Y-4875522D01*
X16663270Y-4878349D02*
X16682695Y-4877676D01*
X16682695Y-4877676D02*
X16685494Y-4877592D01*
X16678207Y-5108500D02*
X16660652Y-5111106D01*
X16660652Y-5111106D02*
X16657779Y-5111498D01*
X16654258Y-4878803D02*
X16654551Y-4878776D01*
X16644366Y-5055445D02*
X16644586Y-5035605D01*
X16644586Y-5035605D02*
X16644858Y-5015756D01*
X16644858Y-5015756D02*
X16645198Y-4996064D01*
X16645198Y-4996064D02*
X16645657Y-4975552D01*
X16645657Y-4975552D02*
X16646254Y-4956107D01*
X16646254Y-4956107D02*
X16647154Y-4936948D01*
X16647154Y-4936948D02*
X16648321Y-4923759D01*
X16821307Y-5153002D02*
X16828964Y-5140609D01*
X16828964Y-5140609D02*
X16828973Y-5139550D01*
X16655069Y-4882792D02*
X16654385Y-4879760D01*
X16648321Y-4923759D02*
X16651473Y-4906783D01*
X16651473Y-4906783D02*
X16653026Y-4900033D01*
X16587568Y-5160670D02*
X16588100Y-5254900D01*
X16584000Y-5161106D02*
X16587568Y-5160670D01*
X16724002Y-5100598D02*
X16706767Y-5103772D01*
X16706767Y-5103772D02*
X16688961Y-5106782D01*
X16688961Y-5106782D02*
X16678207Y-5108500D01*
X16811115Y-5114284D02*
X16798427Y-5106826D01*
X16798427Y-5106826D02*
X16783899Y-5101220D01*
X16783899Y-5101220D02*
X16779471Y-5099708D01*
X16828973Y-5139550D02*
X16823242Y-5125255D01*
X16823242Y-5125255D02*
X16812669Y-5115410D01*
X16812669Y-5115410D02*
X16811115Y-5114284D01*
X16644211Y-5158930D02*
X16645514Y-5158849D01*
X16758552Y-5095026D02*
X16740827Y-5097349D01*
X16740827Y-5097349D02*
X16724002Y-5100598D01*
X16779471Y-5099708D02*
X16763804Y-5095313D01*
X16763804Y-5095313D02*
X16758552Y-5095026D01*
X16645514Y-5158849D02*
X16650435Y-5158695D01*
X16425833Y-4891691D02*
X16425999Y-4895461D01*
X16417563Y-4891695D02*
X16425833Y-4891691D01*
X16432620Y-5093623D02*
X16433333Y-5113214D01*
X16433333Y-5113214D02*
X16433493Y-5117778D01*
X16426164Y-4918311D02*
X16426786Y-4937958D01*
X16426786Y-4937958D02*
X16426958Y-4943013D01*
X16131826Y-4953745D02*
X16140316Y-4963266D01*
X16120145Y-4939259D02*
X16120914Y-4940410D01*
X16426958Y-4943013D02*
X16427657Y-4962892D01*
X16427657Y-4962892D02*
X16428398Y-4983108D01*
X16428398Y-4983108D02*
X16429165Y-5003371D01*
X16429165Y-5003371D02*
X16429753Y-5018570D01*
X16144338Y-4967276D02*
X16144711Y-4967542D01*
X16145163Y-4967690D02*
X16145351Y-4967664D01*
X16613685Y-5381882D02*
X16623391Y-5371579D01*
X16623391Y-5371579D02*
X16623430Y-5371502D01*
X16601931Y-5380325D02*
X16613685Y-5381882D01*
X16433812Y-5128206D02*
X16433812Y-5133563D01*
X16275671Y-5182782D02*
X16289119Y-5189620D01*
X16289119Y-5189620D02*
X16302775Y-5194984D01*
X16266315Y-5151373D02*
X16259806Y-5164885D01*
X16259806Y-5164885D02*
X16261334Y-5170355D01*
X16173999Y-4957799D02*
X16188928Y-4952574D01*
X16188928Y-4952574D02*
X16203846Y-4947431D01*
X16203846Y-4947431D02*
X16219043Y-4942278D01*
X16219043Y-4942278D02*
X16235086Y-4936939D01*
X16235086Y-4936939D02*
X16250620Y-4931878D01*
X16250620Y-4931878D02*
X16266073Y-4926959D01*
X16266073Y-4926959D02*
X16281806Y-4922083D01*
X16281806Y-4922083D02*
X16297423Y-4917390D01*
X16297423Y-4917390D02*
X16313084Y-4912853D01*
X16313084Y-4912853D02*
X16327311Y-4908903D01*
X16261334Y-5170355D02*
X16271574Y-5180202D01*
X16271574Y-5180202D02*
X16275671Y-5182782D01*
X16278656Y-5146911D02*
X16266315Y-5151373D01*
X16409570Y-5137253D02*
X16391826Y-5139853D01*
X16391826Y-5139853D02*
X16373696Y-5141815D01*
X16373696Y-5141815D02*
X16355057Y-5143271D01*
X16355057Y-5143271D02*
X16335686Y-5144329D01*
X16335686Y-5144329D02*
X16316258Y-5145037D01*
X16316258Y-5145037D02*
X16307800Y-5145258D01*
X16145516Y-4967620D02*
X16146023Y-4967466D01*
X16123054Y-4920411D02*
X16121420Y-4928592D01*
X16327311Y-4908903D02*
X16343486Y-4904647D01*
X16343486Y-4904647D02*
X16359935Y-4900637D01*
X16359935Y-4900637D02*
X16376388Y-4897049D01*
X16376388Y-4897049D02*
X16393514Y-4893954D01*
X16393514Y-4893954D02*
X16411539Y-4891892D01*
X16411539Y-4891892D02*
X16417563Y-4891695D01*
X16119922Y-4938840D02*
X16120145Y-4939259D01*
X16120287Y-4934765D02*
X16119811Y-4938409D01*
X16123605Y-4943913D02*
X16131826Y-4953745D01*
X16433493Y-5117778D02*
X16433812Y-5128206D01*
X16141653Y-4905797D02*
X16123054Y-4920411D01*
X16146023Y-4967466D02*
X16147797Y-4966886D01*
X16119811Y-4938409D02*
X16119922Y-4938840D01*
X16144711Y-4967542D02*
X16145163Y-4967690D01*
X16644060Y-5158947D02*
X16644211Y-5158930D01*
X16643975Y-5159690D02*
X16644060Y-5158947D01*
X16154031Y-4964766D02*
X16169396Y-4959418D01*
X16169396Y-4959418D02*
X16173999Y-4957799D01*
X16643781Y-5162584D02*
X16643975Y-5159690D01*
X16643374Y-5172972D02*
X16643781Y-5162584D01*
X16642658Y-5206522D02*
X16643013Y-5186757D01*
X16643013Y-5186757D02*
X16643374Y-5172972D01*
X16590303Y-5357297D02*
X16595277Y-5371483D01*
X16428999Y-5134183D02*
X16411595Y-5136913D01*
X16411595Y-5136913D02*
X16409570Y-5137253D01*
X16143342Y-4966382D02*
X16144338Y-4967276D01*
X16429753Y-5018570D02*
X16430519Y-5038270D01*
X16430519Y-5038270D02*
X16431283Y-5058160D01*
X16431283Y-5058160D02*
X16432059Y-5078600D01*
X16432059Y-5078600D02*
X16432620Y-5093623D01*
X16425940Y-4907173D02*
X16426164Y-4918311D01*
X16425999Y-4895461D02*
X16425940Y-4907173D01*
X16140316Y-4963266D02*
X16143342Y-4966382D01*
X16120914Y-4940410D02*
X16123605Y-4943913D01*
X16623430Y-5371502D02*
X16628958Y-5356988D01*
X16628958Y-5356988D02*
X16632891Y-5340677D01*
X16632891Y-5340677D02*
X16635756Y-5323424D01*
X16635756Y-5323424D02*
X16637889Y-5305541D01*
X16637889Y-5305541D02*
X16639498Y-5287078D01*
X16639498Y-5287078D02*
X16640697Y-5268255D01*
X16640697Y-5268255D02*
X16641586Y-5248877D01*
X16641586Y-5248877D02*
X16642207Y-5229327D01*
X16642207Y-5229327D02*
X16642616Y-5209305D01*
X16642616Y-5209305D02*
X16642658Y-5206522D01*
X16595277Y-5371483D02*
X16601931Y-5380325D01*
X16588100Y-5254900D02*
X16588217Y-5274832D01*
X16588217Y-5274832D02*
X16588355Y-5295366D01*
X16588355Y-5295366D02*
X16588533Y-5315357D01*
X16588533Y-5315357D02*
X16588830Y-5335127D01*
X16588830Y-5335127D02*
X16589778Y-5354196D01*
X16589778Y-5354196D02*
X16590303Y-5357297D01*
X16433812Y-5133563D02*
X16428999Y-5134183D01*
X16570343Y-5162207D02*
X16584000Y-5161106D01*
X16474870Y-5170276D02*
X16493620Y-5168448D01*
X16493620Y-5168448D02*
X16512410Y-5166794D01*
X16512410Y-5166794D02*
X16531031Y-5165224D01*
X16531031Y-5165224D02*
X16549666Y-5163720D01*
X16549666Y-5163720D02*
X16568383Y-5162333D01*
X16568383Y-5162333D02*
X16570343Y-5162207D01*
X16348473Y-5195759D02*
X16364413Y-5191464D01*
X16364413Y-5191464D02*
X16380659Y-5187430D01*
X16380659Y-5187430D02*
X16397021Y-5183687D01*
X16397021Y-5183687D02*
X16413822Y-5180163D01*
X16413822Y-5180163D02*
X16430867Y-5176920D01*
X16430867Y-5176920D02*
X16448300Y-5173967D01*
X16448300Y-5173967D02*
X16465821Y-5171411D01*
X16465821Y-5171411D02*
X16474870Y-5170276D01*
X16145351Y-4967664D02*
X16145516Y-4967620D01*
X16302775Y-5194984D02*
X16318453Y-5199359D01*
X16318453Y-5199359D02*
X16337681Y-5198495D01*
X16337681Y-5198495D02*
X16348473Y-5195759D01*
X16147797Y-4966886D02*
X16154031Y-4964766D01*
X16307800Y-5145258D02*
X16288472Y-5145975D01*
X16288472Y-5145975D02*
X16278656Y-5146911D01*
X16653260Y-4878862D02*
X16653399Y-4879930D01*
X16751516Y-4871323D02*
X16735373Y-4874526D01*
X16654477Y-4888546D02*
X16652056Y-4899793D01*
X16653260Y-4878475D02*
X16653260Y-4878862D01*
X16654102Y-4883052D02*
X16654477Y-4888546D01*
X16700337Y-4823038D02*
X16718780Y-4824777D01*
X16718780Y-4824777D02*
X16722657Y-4826030D01*
X16653399Y-4879930D02*
X16654102Y-4883052D01*
X16735373Y-4874526D02*
X16716309Y-4875564D01*
X16716309Y-4875564D02*
X16696956Y-4876242D01*
X16696956Y-4876242D02*
X16685463Y-4876593D01*
X16506095Y-4844038D02*
X16523712Y-4842295D01*
X16653449Y-4878013D02*
X16653260Y-4878475D01*
X16685463Y-4876593D02*
X16665773Y-4877251D01*
X16665773Y-4877251D02*
X16663228Y-4877350D01*
X16653764Y-4877857D02*
X16653670Y-4877881D01*
X16751649Y-4842946D02*
X16759978Y-4854640D01*
X16759978Y-4854640D02*
X16760689Y-4859052D01*
X16653940Y-4877829D02*
X16653764Y-4877857D01*
X16654473Y-4877780D02*
X16653940Y-4877829D01*
X16663228Y-4877350D02*
X16656382Y-4877660D01*
X16760689Y-4859052D02*
X16752452Y-4870841D01*
X16752452Y-4870841D02*
X16751516Y-4871323D01*
X16669877Y-4826137D02*
X16687948Y-4824056D01*
X16687948Y-4824056D02*
X16700337Y-4823038D01*
X16497981Y-4844690D02*
X16506095Y-4844038D01*
X16497464Y-4844248D02*
X16497539Y-4844441D01*
X16497539Y-4844441D02*
X16497981Y-4844690D01*
X16722657Y-4826030D02*
X16736704Y-4832013D01*
X16736704Y-4832013D02*
X16748564Y-4840262D01*
X16748564Y-4840262D02*
X16751649Y-4842946D01*
X16497446Y-4844021D02*
X16497464Y-4844248D01*
X16653670Y-4877881D02*
X16653449Y-4878013D01*
X16656382Y-4877660D02*
X16654473Y-4877780D01*
X16523712Y-4842295D02*
X16542272Y-4840371D01*
X16542272Y-4840371D02*
X16560901Y-4838398D01*
X16560901Y-4838398D02*
X16576151Y-4836761D01*
X16576151Y-4836761D02*
X16595321Y-4834678D01*
X16595321Y-4834678D02*
X16613666Y-4832658D01*
X16613666Y-4832658D02*
X16632088Y-4830598D01*
X16632088Y-4830598D02*
X16650279Y-4828516D01*
X16650279Y-4828516D02*
X16668256Y-4826348D01*
X16668256Y-4826348D02*
X16669877Y-4826137D01*
X16497483Y-4843486D02*
X16497446Y-4844021D01*
X16517852Y-4761648D02*
X16511713Y-4775673D01*
X16511713Y-4775673D02*
X16506564Y-4790757D01*
X16506564Y-4790757D02*
X16502802Y-4807002D01*
X16502802Y-4807002D02*
X16501658Y-4815644D01*
X16498844Y-4835840D02*
X16497742Y-4841686D01*
X16586132Y-4712043D02*
X16570607Y-4716537D01*
X16570607Y-4716537D02*
X16556328Y-4722279D01*
X16556328Y-4722279D02*
X16543666Y-4729638D01*
X16543666Y-4729638D02*
X16539839Y-4732432D01*
X16497742Y-4841686D02*
X16497483Y-4843486D01*
X16501658Y-4815644D02*
X16499311Y-4833353D01*
X16499311Y-4833353D02*
X16498844Y-4835840D01*
X16539839Y-4732432D02*
X16529531Y-4742131D01*
X16529531Y-4742131D02*
X16521601Y-4754274D01*
X16521601Y-4754274D02*
X16517852Y-4761648D01*
X16657913Y-5112490D02*
X16675851Y-5109876D01*
X16675851Y-5109876D02*
X16678360Y-5109487D01*
X16644121Y-5157934D02*
X16643726Y-5157981D01*
X16668227Y-5157433D02*
X16650411Y-5157695D01*
X16650411Y-5157695D02*
X16645467Y-5157850D01*
X16645467Y-5157850D02*
X16644121Y-5157934D01*
X16642375Y-5172941D02*
X16641893Y-5192515D01*
X16641893Y-5192515D02*
X16641657Y-5206508D01*
X16803036Y-5156585D02*
X16783407Y-5157070D01*
X16783407Y-5157070D02*
X16763458Y-5157171D01*
X16763458Y-5157171D02*
X16742497Y-5157189D01*
X16742497Y-5157189D02*
X16726149Y-5157190D01*
X16678360Y-5109487D02*
X16695935Y-5106643D01*
X16695935Y-5106643D02*
X16713007Y-5103678D01*
X16713007Y-5103678D02*
X16724194Y-5101580D01*
X16827972Y-5139571D02*
X16820806Y-5152138D01*
X16810536Y-5115100D02*
X16821246Y-5124425D01*
X16821246Y-5124425D02*
X16827859Y-5137860D01*
X16827859Y-5137860D02*
X16827972Y-5139571D01*
X16724194Y-5101580D02*
X16741082Y-5098321D01*
X16741082Y-5098321D02*
X16758568Y-5096027D01*
X16642978Y-5159599D02*
X16642782Y-5162532D01*
X16779152Y-5100656D02*
X16793914Y-5105974D01*
X16793914Y-5105974D02*
X16807195Y-5112814D01*
X16807195Y-5112814D02*
X16810536Y-5115100D01*
X16643726Y-5157981D02*
X16643569Y-5158013D01*
X16643075Y-5158766D02*
X16642978Y-5159599D01*
X16643304Y-5158161D02*
X16643131Y-5158491D01*
X16820806Y-5152138D02*
X16805040Y-5156464D01*
X16805040Y-5156464D02*
X16803036Y-5156585D01*
X16596171Y-5371034D02*
X16591278Y-5357082D01*
X16602489Y-5379495D02*
X16596171Y-5371034D01*
X16613301Y-5380959D02*
X16602489Y-5379495D01*
X16726149Y-5157190D02*
X16706142Y-5157215D01*
X16706142Y-5157215D02*
X16686117Y-5157296D01*
X16686117Y-5157296D02*
X16668227Y-5157433D01*
X16643569Y-5158013D02*
X16643304Y-5158161D01*
X16622537Y-5371056D02*
X16613301Y-5380959D01*
X16641657Y-5206508D02*
X16641278Y-5226394D01*
X16641278Y-5226394D02*
X16640681Y-5246140D01*
X16640681Y-5246140D02*
X16639839Y-5265305D01*
X16639839Y-5265305D02*
X16638686Y-5284184D01*
X16638686Y-5284184D02*
X16637115Y-5302964D01*
X16637115Y-5302964D02*
X16635043Y-5321050D01*
X16635043Y-5321050D02*
X16632280Y-5338438D01*
X16632280Y-5338438D02*
X16628514Y-5354874D01*
X16628514Y-5354874D02*
X16623199Y-5369685D01*
X16623199Y-5369685D02*
X16622537Y-5371056D01*
X16642782Y-5162532D02*
X16642375Y-5172941D01*
X16643131Y-5158491D02*
X16643075Y-5158766D01*
X16758568Y-5096027D02*
X16775359Y-5099379D01*
X16775359Y-5099379D02*
X16779152Y-5100656D01*
X16647331Y-4923620D02*
X16645853Y-4942152D01*
X16645853Y-4942152D02*
X16645052Y-4961726D01*
X16645052Y-4961726D02*
X16644502Y-4981591D01*
X16644502Y-4981591D02*
X16644097Y-5001237D01*
X16644097Y-5001237D02*
X16643768Y-5021748D01*
X16643768Y-5021748D02*
X16643503Y-5042534D01*
X16643503Y-5042534D02*
X16643365Y-5055436D01*
X16646559Y-5113690D02*
X16657913Y-5112490D01*
X16547296Y-4642007D02*
X16555233Y-4643267D01*
X16652056Y-4899793D02*
X16648541Y-4916338D01*
X16648541Y-4916338D02*
X16647331Y-4923620D01*
X16547812Y-4627618D02*
X16547296Y-4642007D01*
X16426939Y-4907207D02*
X16426999Y-4895418D01*
X16173666Y-4956856D02*
X16158795Y-4962061D01*
X16158795Y-4962061D02*
X16153706Y-4963820D01*
X16417561Y-4890695D02*
X16398860Y-4892164D01*
X16398860Y-4892164D02*
X16381522Y-4895016D01*
X16381522Y-4895016D02*
X16364695Y-4898522D01*
X16364695Y-4898522D02*
X16348483Y-4902360D01*
X16348483Y-4902360D02*
X16332573Y-4906455D01*
X16332573Y-4906455D02*
X16327048Y-4907939D01*
X16434812Y-5134442D02*
X16434812Y-5128206D01*
X16429126Y-5135175D02*
X16434812Y-5134442D01*
X16427163Y-4918284D02*
X16426939Y-4907207D01*
X16427957Y-4942980D02*
X16427302Y-4922987D01*
X16427302Y-4922987D02*
X16427163Y-4918284D01*
X16327048Y-4907939D02*
X16311267Y-4912332D01*
X16311267Y-4912332D02*
X16295378Y-4916954D01*
X16295378Y-4916954D02*
X16279812Y-4921648D01*
X16279812Y-4921648D02*
X16264148Y-4926518D01*
X16264148Y-4926518D02*
X16248475Y-4931520D01*
X16248475Y-4931520D02*
X16232873Y-4936617D01*
X16232873Y-4936617D02*
X16217419Y-4941770D01*
X16217419Y-4941770D02*
X16202181Y-4946944D01*
X16202181Y-4946944D02*
X16187225Y-4952107D01*
X16187225Y-4952107D02*
X16173666Y-4956856D01*
X16430752Y-5018532D02*
X16429990Y-4998801D01*
X16429990Y-4998801D02*
X16429262Y-4979420D01*
X16429262Y-4979420D02*
X16428489Y-4958199D01*
X16428489Y-4958199D02*
X16427957Y-4942980D01*
D12*
X4836160Y-5697220D02*
X4836160Y-7094220D01*
X3439160Y-5697220D02*
X4836160Y-5697220D01*
X3439160Y-7094220D02*
X3439160Y-5697220D01*
X4836160Y-7094220D02*
X3439160Y-7094220D01*
X6741160Y-7094220D02*
X5344160Y-7094220D01*
X5344160Y-7094220D02*
X5344160Y-5697220D01*
X5344160Y-5697220D02*
X6741160Y-5697220D01*
X6741160Y-5697220D02*
X6741160Y-7094220D01*
X8646160Y-5697220D02*
X8646160Y-7094220D01*
X7249160Y-5697220D02*
X8646160Y-5697220D01*
X7249160Y-7094220D02*
X7249160Y-5697220D01*
X8646160Y-7094220D02*
X7249160Y-7094220D01*
X10551160Y-5697220D02*
X10551160Y-7094220D01*
X9154160Y-5697220D02*
X10551160Y-5697220D01*
X9154160Y-7094220D02*
X9154160Y-5697220D01*
X10551160Y-7094220D02*
X9154160Y-7094220D01*
X12456160Y-5697220D02*
X12456160Y-7094220D01*
X11059160Y-5697220D02*
X12456160Y-5697220D01*
X11059160Y-7094220D02*
X11059160Y-5697220D01*
X12456160Y-7094220D02*
X11059160Y-7094220D01*
X14361160Y-7094220D02*
X12964160Y-7094220D01*
X12964160Y-7094220D02*
X12964160Y-5697220D01*
X12964160Y-5697220D02*
X14361160Y-5697220D01*
X14361160Y-5697220D02*
X14361160Y-7094220D01*
X16266160Y-7094220D02*
X14869160Y-7094220D01*
X14869160Y-7094220D02*
X14869160Y-5697220D01*
X14869160Y-5697220D02*
X16266160Y-5697220D01*
X16266160Y-5697220D02*
X16266160Y-7094220D01*
X18171160Y-7094220D02*
X16774160Y-7094220D01*
X16774160Y-7094220D02*
X16774160Y-5697220D01*
X16774160Y-5697220D02*
X18171160Y-5697220D01*
X18171160Y-5697220D02*
X18171160Y-7094220D01*
X4836160Y-8999220D02*
X3439160Y-8999220D01*
X3439160Y-8999220D02*
X3439160Y-7602220D01*
X3439160Y-7602220D02*
X4836160Y-7602220D01*
X4836160Y-7602220D02*
X4836160Y-8999220D01*
X6741160Y-7602220D02*
X6741160Y-8999220D01*
X5344160Y-7602220D02*
X6741160Y-7602220D01*
X5344160Y-8999220D02*
X5344160Y-7602220D01*
X6741160Y-8999220D02*
X5344160Y-8999220D01*
X8646160Y-7602220D02*
X8646160Y-8999220D01*
X7249160Y-7602220D02*
X8646160Y-7602220D01*
X7249160Y-8999220D02*
X7249160Y-7602220D01*
X8646160Y-8999220D02*
X7249160Y-8999220D01*
X10551160Y-7602220D02*
X10551160Y-8999220D01*
X9154160Y-7602220D02*
X10551160Y-7602220D01*
X9154160Y-8999220D02*
X9154160Y-7602220D01*
X10551160Y-8999220D02*
X9154160Y-8999220D01*
X12456160Y-7602220D02*
X12456160Y-8999220D01*
X11059160Y-7602220D02*
X12456160Y-7602220D01*
X11059160Y-8999220D02*
X11059160Y-7602220D01*
X12456160Y-8999220D02*
X11059160Y-8999220D01*
X14361160Y-8999220D02*
X12964160Y-8999220D01*
X12964160Y-8999220D02*
X12964160Y-7602220D01*
X12964160Y-7602220D02*
X14361160Y-7602220D01*
X14361160Y-7602220D02*
X14361160Y-8999220D01*
X16266160Y-8999220D02*
X14869160Y-8999220D01*
X14869160Y-8999220D02*
X14869160Y-7602220D01*
X14869160Y-7602220D02*
X16266160Y-7602220D01*
X16266160Y-7602220D02*
X16266160Y-8999220D01*
X18171160Y-8999220D02*
X16774160Y-8999220D01*
X16774160Y-8999220D02*
X16774160Y-7602220D01*
X16774160Y-7602220D02*
X18171160Y-7602220D01*
X18171160Y-7602220D02*
X18171160Y-8999220D01*
X4836160Y-9507220D02*
X4836160Y-10904220D01*
X3439160Y-9507220D02*
X4836160Y-9507220D01*
X3439160Y-10904220D02*
X3439160Y-9507220D01*
X4836160Y-10904220D02*
X3439160Y-10904220D01*
X6741160Y-10904220D02*
X5344160Y-10904220D01*
X5344160Y-10904220D02*
X5344160Y-9507220D01*
X5344160Y-9507220D02*
X6741160Y-9507220D01*
X6741160Y-9507220D02*
X6741160Y-10904220D01*
X8646160Y-9507220D02*
X8646160Y-10904220D01*
X7249160Y-9507220D02*
X8646160Y-9507220D01*
X7249160Y-10904220D02*
X7249160Y-9507220D01*
X8646160Y-10904220D02*
X7249160Y-10904220D01*
X10551160Y-9507220D02*
X10551160Y-10904220D01*
X9154160Y-9507220D02*
X10551160Y-9507220D01*
X9154160Y-10904220D02*
X9154160Y-9507220D01*
X10551160Y-10904220D02*
X9154160Y-10904220D01*
X12456160Y-9507220D02*
X12456160Y-10904220D01*
X11059160Y-9507220D02*
X12456160Y-9507220D01*
X11059160Y-10904220D02*
X11059160Y-9507220D01*
X12456160Y-10904220D02*
X11059160Y-10904220D01*
X14361160Y-10904220D02*
X12964160Y-10904220D01*
X12964160Y-10904220D02*
X12964160Y-9507220D01*
X12964160Y-9507220D02*
X14361160Y-9507220D01*
X14361160Y-9507220D02*
X14361160Y-10904220D01*
X16266160Y-10904220D02*
X14869160Y-10904220D01*
X14869160Y-10904220D02*
X14869160Y-9507220D01*
X14869160Y-9507220D02*
X16266160Y-9507220D01*
X16266160Y-9507220D02*
X16266160Y-10904220D01*
X18171160Y-10904220D02*
X16774160Y-10904220D01*
X16774160Y-10904220D02*
X16774160Y-9507220D01*
X16774160Y-9507220D02*
X18171160Y-9507220D01*
X18171160Y-9507220D02*
X18171160Y-10904220D01*
X4836160Y-12809220D02*
X3439160Y-12809220D01*
X3439160Y-12809220D02*
X3439160Y-11412220D01*
X3439160Y-11412220D02*
X4836160Y-11412220D01*
X4836160Y-11412220D02*
X4836160Y-12809220D01*
X6741160Y-11412220D02*
X6741160Y-12809220D01*
X5344160Y-11412220D02*
X6741160Y-11412220D01*
X5344160Y-12809220D02*
X5344160Y-11412220D01*
X6741160Y-12809220D02*
X5344160Y-12809220D01*
X8646160Y-11412220D02*
X8646160Y-12809220D01*
X7249160Y-11412220D02*
X8646160Y-11412220D01*
X7249160Y-12809220D02*
X7249160Y-11412220D01*
X8646160Y-12809220D02*
X7249160Y-12809220D01*
X10551160Y-11412220D02*
X10551160Y-12809220D01*
X9154160Y-11412220D02*
X10551160Y-11412220D01*
X9154160Y-12809220D02*
X9154160Y-11412220D01*
X10551160Y-12809220D02*
X9154160Y-12809220D01*
X12456160Y-11412220D02*
X12456160Y-12809220D01*
X11059160Y-11412220D02*
X12456160Y-11412220D01*
X11059160Y-12809220D02*
X11059160Y-11412220D01*
X12456160Y-12809220D02*
X11059160Y-12809220D01*
X14361160Y-12809220D02*
X12964160Y-12809220D01*
X12964160Y-12809220D02*
X12964160Y-11412220D01*
X12964160Y-11412220D02*
X14361160Y-11412220D01*
X14361160Y-11412220D02*
X14361160Y-12809220D01*
X16266160Y-12809220D02*
X14869160Y-12809220D01*
X14869160Y-12809220D02*
X14869160Y-11412220D01*
X14869160Y-11412220D02*
X16266160Y-11412220D01*
X16266160Y-11412220D02*
X16266160Y-12809220D01*
X18171160Y-12809220D02*
X16774160Y-12809220D01*
X16774160Y-12809220D02*
X16774160Y-11412220D01*
X16774160Y-11412220D02*
X18171160Y-11412220D01*
X18171160Y-11412220D02*
X18171160Y-12809220D01*
X4836160Y-13317220D02*
X4836160Y-14714220D01*
X3439160Y-13317220D02*
X4836160Y-13317220D01*
X3439160Y-14714220D02*
X3439160Y-13317220D01*
X4836160Y-14714220D02*
X3439160Y-14714220D01*
X6741160Y-14714220D02*
X5344160Y-14714220D01*
X5344160Y-14714220D02*
X5344160Y-13317220D01*
X5344160Y-13317220D02*
X6741160Y-13317220D01*
X6741160Y-13317220D02*
X6741160Y-14714220D01*
X8646160Y-13317220D02*
X8646160Y-14714220D01*
X7249160Y-13317220D02*
X8646160Y-13317220D01*
X7249160Y-14714220D02*
X7249160Y-13317220D01*
X8646160Y-14714220D02*
X7249160Y-14714220D01*
X10551160Y-13317220D02*
X10551160Y-14714220D01*
X9154160Y-13317220D02*
X10551160Y-13317220D01*
X9154160Y-14714220D02*
X9154160Y-13317220D01*
X10551160Y-14714220D02*
X9154160Y-14714220D01*
X12456160Y-13317220D02*
X12456160Y-14714220D01*
X11059160Y-13317220D02*
X12456160Y-13317220D01*
X11059160Y-14714220D02*
X11059160Y-13317220D01*
X12456160Y-14714220D02*
X11059160Y-14714220D01*
X14361160Y-14714220D02*
X12964160Y-14714220D01*
X12964160Y-14714220D02*
X12964160Y-13317220D01*
X12964160Y-13317220D02*
X14361160Y-13317220D01*
X14361160Y-13317220D02*
X14361160Y-14714220D01*
X16266160Y-14714220D02*
X14869160Y-14714220D01*
X14869160Y-14714220D02*
X14869160Y-13317220D01*
X14869160Y-13317220D02*
X16266160Y-13317220D01*
X16266160Y-13317220D02*
X16266160Y-14714220D01*
X18171160Y-14714220D02*
X16774160Y-14714220D01*
X16774160Y-14714220D02*
X16774160Y-13317220D01*
X16774160Y-13317220D02*
X18171160Y-13317220D01*
X18171160Y-13317220D02*
X18171160Y-14714220D01*
D10*
X4004327Y-7223596D02*
X4018612Y-7228358D01*
X4042422Y-7228358D01*
X4051946Y-7223596D01*
X4056708Y-7218834D01*
X4061469Y-7209310D01*
X4061469Y-7199787D01*
X4056708Y-7190263D01*
X4051946Y-7185501D01*
X4042422Y-7180739D01*
X4023374Y-7175977D01*
X4013850Y-7171215D01*
X4009088Y-7166453D01*
X4004327Y-7156929D01*
X4004327Y-7147406D01*
X4009088Y-7137882D01*
X4013850Y-7133120D01*
X4023374Y-7128358D01*
X4047184Y-7128358D01*
X4061469Y-7133120D01*
X4094803Y-7128358D02*
X4118612Y-7228358D01*
X4137660Y-7156929D01*
X4156708Y-7228358D01*
X4180517Y-7128358D01*
X4270993Y-7228358D02*
X4213850Y-7228358D01*
X4242422Y-7228358D02*
X4242422Y-7128358D01*
X4232898Y-7142644D01*
X4223374Y-7152168D01*
X4213850Y-7156929D01*
X5909327Y-7223596D02*
X5923612Y-7228358D01*
X5947422Y-7228358D01*
X5956946Y-7223596D01*
X5961708Y-7218834D01*
X5966469Y-7209310D01*
X5966469Y-7199787D01*
X5961708Y-7190263D01*
X5956946Y-7185501D01*
X5947422Y-7180739D01*
X5928374Y-7175977D01*
X5918850Y-7171215D01*
X5914088Y-7166453D01*
X5909327Y-7156929D01*
X5909327Y-7147406D01*
X5914088Y-7137882D01*
X5918850Y-7133120D01*
X5928374Y-7128358D01*
X5952184Y-7128358D01*
X5966469Y-7133120D01*
X5999803Y-7128358D02*
X6023612Y-7228358D01*
X6042660Y-7156929D01*
X6061708Y-7228358D01*
X6085517Y-7128358D01*
X6118850Y-7137882D02*
X6123612Y-7133120D01*
X6133136Y-7128358D01*
X6156946Y-7128358D01*
X6166469Y-7133120D01*
X6171231Y-7137882D01*
X6175993Y-7147406D01*
X6175993Y-7156929D01*
X6171231Y-7171215D01*
X6114088Y-7228358D01*
X6175993Y-7228358D01*
X7814327Y-7223596D02*
X7828612Y-7228358D01*
X7852422Y-7228358D01*
X7861946Y-7223596D01*
X7866708Y-7218834D01*
X7871469Y-7209310D01*
X7871469Y-7199787D01*
X7866708Y-7190263D01*
X7861946Y-7185501D01*
X7852422Y-7180739D01*
X7833374Y-7175977D01*
X7823850Y-7171215D01*
X7819088Y-7166453D01*
X7814327Y-7156929D01*
X7814327Y-7147406D01*
X7819088Y-7137882D01*
X7823850Y-7133120D01*
X7833374Y-7128358D01*
X7857184Y-7128358D01*
X7871469Y-7133120D01*
X7904803Y-7128358D02*
X7928612Y-7228358D01*
X7947660Y-7156929D01*
X7966708Y-7228358D01*
X7990517Y-7128358D01*
X8019088Y-7128358D02*
X8080993Y-7128358D01*
X8047660Y-7166453D01*
X8061946Y-7166453D01*
X8071469Y-7171215D01*
X8076231Y-7175977D01*
X8080993Y-7185501D01*
X8080993Y-7209310D01*
X8076231Y-7218834D01*
X8071469Y-7223596D01*
X8061946Y-7228358D01*
X8033374Y-7228358D01*
X8023850Y-7223596D01*
X8019088Y-7218834D01*
X9719327Y-7223596D02*
X9733612Y-7228358D01*
X9757422Y-7228358D01*
X9766946Y-7223596D01*
X9771708Y-7218834D01*
X9776470Y-7209310D01*
X9776470Y-7199787D01*
X9771708Y-7190263D01*
X9766946Y-7185501D01*
X9757422Y-7180739D01*
X9738374Y-7175977D01*
X9728850Y-7171215D01*
X9724089Y-7166453D01*
X9719327Y-7156929D01*
X9719327Y-7147406D01*
X9724089Y-7137882D01*
X9728850Y-7133120D01*
X9738374Y-7128358D01*
X9762184Y-7128358D01*
X9776470Y-7133120D01*
X9809803Y-7128358D02*
X9833612Y-7228358D01*
X9852660Y-7156929D01*
X9871708Y-7228358D01*
X9895517Y-7128358D01*
X9976470Y-7161691D02*
X9976470Y-7228358D01*
X9952660Y-7123596D02*
X9928850Y-7195025D01*
X9990755Y-7195025D01*
X11624327Y-7223596D02*
X11638612Y-7228358D01*
X11662422Y-7228358D01*
X11671946Y-7223596D01*
X11676708Y-7218834D01*
X11681469Y-7209310D01*
X11681469Y-7199787D01*
X11676708Y-7190263D01*
X11671946Y-7185501D01*
X11662422Y-7180739D01*
X11643374Y-7175977D01*
X11633850Y-7171215D01*
X11629088Y-7166453D01*
X11624327Y-7156929D01*
X11624327Y-7147406D01*
X11629088Y-7137882D01*
X11633850Y-7133120D01*
X11643374Y-7128358D01*
X11667184Y-7128358D01*
X11681469Y-7133120D01*
X11714803Y-7128358D02*
X11738612Y-7228358D01*
X11757660Y-7156929D01*
X11776708Y-7228358D01*
X11800517Y-7128358D01*
X11886231Y-7128358D02*
X11838612Y-7128358D01*
X11833850Y-7175977D01*
X11838612Y-7171215D01*
X11848136Y-7166453D01*
X11871946Y-7166453D01*
X11881469Y-7171215D01*
X11886231Y-7175977D01*
X11890993Y-7185501D01*
X11890993Y-7209310D01*
X11886231Y-7218834D01*
X11881469Y-7223596D01*
X11871946Y-7228358D01*
X11848136Y-7228358D01*
X11838612Y-7223596D01*
X11833850Y-7218834D01*
X13529327Y-7223596D02*
X13543612Y-7228358D01*
X13567422Y-7228358D01*
X13576946Y-7223596D01*
X13581708Y-7218834D01*
X13586469Y-7209310D01*
X13586469Y-7199787D01*
X13581708Y-7190263D01*
X13576946Y-7185501D01*
X13567422Y-7180739D01*
X13548374Y-7175977D01*
X13538850Y-7171215D01*
X13534088Y-7166453D01*
X13529327Y-7156929D01*
X13529327Y-7147406D01*
X13534088Y-7137882D01*
X13538850Y-7133120D01*
X13548374Y-7128358D01*
X13572184Y-7128358D01*
X13586469Y-7133120D01*
X13619803Y-7128358D02*
X13643612Y-7228358D01*
X13662660Y-7156929D01*
X13681708Y-7228358D01*
X13705517Y-7128358D01*
X13786469Y-7128358D02*
X13767422Y-7128358D01*
X13757898Y-7133120D01*
X13753136Y-7137882D01*
X13743612Y-7152168D01*
X13738850Y-7171215D01*
X13738850Y-7209310D01*
X13743612Y-7218834D01*
X13748374Y-7223596D01*
X13757898Y-7228358D01*
X13776946Y-7228358D01*
X13786469Y-7223596D01*
X13791231Y-7218834D01*
X13795993Y-7209310D01*
X13795993Y-7185501D01*
X13791231Y-7175977D01*
X13786469Y-7171215D01*
X13776946Y-7166453D01*
X13757898Y-7166453D01*
X13748374Y-7171215D01*
X13743612Y-7175977D01*
X13738850Y-7185501D01*
X15434327Y-7223596D02*
X15448612Y-7228358D01*
X15472422Y-7228358D01*
X15481946Y-7223596D01*
X15486708Y-7218834D01*
X15491469Y-7209310D01*
X15491469Y-7199787D01*
X15486708Y-7190263D01*
X15481946Y-7185501D01*
X15472422Y-7180739D01*
X15453374Y-7175977D01*
X15443850Y-7171215D01*
X15439088Y-7166453D01*
X15434327Y-7156929D01*
X15434327Y-7147406D01*
X15439088Y-7137882D01*
X15443850Y-7133120D01*
X15453374Y-7128358D01*
X15477184Y-7128358D01*
X15491469Y-7133120D01*
X15524803Y-7128358D02*
X15548612Y-7228358D01*
X15567660Y-7156929D01*
X15586708Y-7228358D01*
X15610517Y-7128358D01*
X15639088Y-7128358D02*
X15705755Y-7128358D01*
X15662898Y-7228358D01*
X17339327Y-7223596D02*
X17353612Y-7228358D01*
X17377422Y-7228358D01*
X17386946Y-7223596D01*
X17391708Y-7218834D01*
X17396470Y-7209310D01*
X17396470Y-7199787D01*
X17391708Y-7190263D01*
X17386946Y-7185501D01*
X17377422Y-7180739D01*
X17358374Y-7175977D01*
X17348850Y-7171215D01*
X17344089Y-7166453D01*
X17339327Y-7156929D01*
X17339327Y-7147406D01*
X17344089Y-7137882D01*
X17348850Y-7133120D01*
X17358374Y-7128358D01*
X17382184Y-7128358D01*
X17396470Y-7133120D01*
X17429803Y-7128358D02*
X17453612Y-7228358D01*
X17472660Y-7156929D01*
X17491708Y-7228358D01*
X17515517Y-7128358D01*
X17567898Y-7171215D02*
X17558374Y-7166453D01*
X17553612Y-7161691D01*
X17548850Y-7152168D01*
X17548850Y-7147406D01*
X17553612Y-7137882D01*
X17558374Y-7133120D01*
X17567898Y-7128358D01*
X17586946Y-7128358D01*
X17596470Y-7133120D01*
X17601231Y-7137882D01*
X17605993Y-7147406D01*
X17605993Y-7152168D01*
X17601231Y-7161691D01*
X17596470Y-7166453D01*
X17586946Y-7171215D01*
X17567898Y-7171215D01*
X17558374Y-7175977D01*
X17553612Y-7180739D01*
X17548850Y-7190263D01*
X17548850Y-7209310D01*
X17553612Y-7218834D01*
X17558374Y-7223596D01*
X17567898Y-7228358D01*
X17586946Y-7228358D01*
X17596470Y-7223596D01*
X17601231Y-7218834D01*
X17605993Y-7209310D01*
X17605993Y-7190263D01*
X17601231Y-7180739D01*
X17596470Y-7175977D01*
X17586946Y-7171215D01*
X4004327Y-9128596D02*
X4018612Y-9133358D01*
X4042422Y-9133358D01*
X4051946Y-9128596D01*
X4056708Y-9123834D01*
X4061469Y-9114310D01*
X4061469Y-9104787D01*
X4056708Y-9095263D01*
X4051946Y-9090501D01*
X4042422Y-9085739D01*
X4023374Y-9080977D01*
X4013850Y-9076215D01*
X4009088Y-9071453D01*
X4004327Y-9061930D01*
X4004327Y-9052406D01*
X4009088Y-9042882D01*
X4013850Y-9038120D01*
X4023374Y-9033358D01*
X4047184Y-9033358D01*
X4061469Y-9038120D01*
X4094803Y-9033358D02*
X4118612Y-9133358D01*
X4137660Y-9061930D01*
X4156708Y-9133358D01*
X4180517Y-9033358D01*
X4223374Y-9133358D02*
X4242422Y-9133358D01*
X4251946Y-9128596D01*
X4256708Y-9123834D01*
X4266231Y-9109549D01*
X4270993Y-9090501D01*
X4270993Y-9052406D01*
X4266231Y-9042882D01*
X4261470Y-9038120D01*
X4251946Y-9033358D01*
X4232898Y-9033358D01*
X4223374Y-9038120D01*
X4218612Y-9042882D01*
X4213850Y-9052406D01*
X4213850Y-9076215D01*
X4218612Y-9085739D01*
X4223374Y-9090501D01*
X4232898Y-9095263D01*
X4251946Y-9095263D01*
X4261470Y-9090501D01*
X4266231Y-9085739D01*
X4270993Y-9076215D01*
X5861708Y-9128596D02*
X5875993Y-9133358D01*
X5899803Y-9133358D01*
X5909327Y-9128596D01*
X5914088Y-9123834D01*
X5918850Y-9114310D01*
X5918850Y-9104787D01*
X5914088Y-9095263D01*
X5909327Y-9090501D01*
X5899803Y-9085739D01*
X5880755Y-9080977D01*
X5871231Y-9076215D01*
X5866469Y-9071453D01*
X5861708Y-9061930D01*
X5861708Y-9052406D01*
X5866469Y-9042882D01*
X5871231Y-9038120D01*
X5880755Y-9033358D01*
X5904565Y-9033358D01*
X5918850Y-9038120D01*
X5952184Y-9033358D02*
X5975993Y-9133358D01*
X5995041Y-9061930D01*
X6014088Y-9133358D01*
X6037898Y-9033358D01*
X6128374Y-9133358D02*
X6071231Y-9133358D01*
X6099803Y-9133358D02*
X6099803Y-9033358D01*
X6090279Y-9047644D01*
X6080755Y-9057168D01*
X6071231Y-9061930D01*
X6190279Y-9033358D02*
X6199803Y-9033358D01*
X6209327Y-9038120D01*
X6214088Y-9042882D01*
X6218850Y-9052406D01*
X6223612Y-9071453D01*
X6223612Y-9095263D01*
X6218850Y-9114310D01*
X6214088Y-9123834D01*
X6209327Y-9128596D01*
X6199803Y-9133358D01*
X6190279Y-9133358D01*
X6180755Y-9128596D01*
X6175993Y-9123834D01*
X6171231Y-9114310D01*
X6166469Y-9095263D01*
X6166469Y-9071453D01*
X6171231Y-9052406D01*
X6175993Y-9042882D01*
X6180755Y-9038120D01*
X6190279Y-9033358D01*
X7766708Y-9128596D02*
X7780993Y-9133358D01*
X7804803Y-9133358D01*
X7814327Y-9128596D01*
X7819088Y-9123834D01*
X7823850Y-9114310D01*
X7823850Y-9104787D01*
X7819088Y-9095263D01*
X7814327Y-9090501D01*
X7804803Y-9085739D01*
X7785755Y-9080977D01*
X7776231Y-9076215D01*
X7771469Y-9071453D01*
X7766708Y-9061930D01*
X7766708Y-9052406D01*
X7771469Y-9042882D01*
X7776231Y-9038120D01*
X7785755Y-9033358D01*
X7809565Y-9033358D01*
X7823850Y-9038120D01*
X7857184Y-9033358D02*
X7880993Y-9133358D01*
X7900041Y-9061930D01*
X7919088Y-9133358D01*
X7942898Y-9033358D01*
X8033374Y-9133358D02*
X7976231Y-9133358D01*
X8004803Y-9133358D02*
X8004803Y-9033358D01*
X7995279Y-9047644D01*
X7985755Y-9057168D01*
X7976231Y-9061930D01*
X8128612Y-9133358D02*
X8071469Y-9133358D01*
X8100041Y-9133358D02*
X8100041Y-9033358D01*
X8090517Y-9047644D01*
X8080993Y-9057168D01*
X8071469Y-9061930D01*
X9671708Y-9128596D02*
X9685993Y-9133358D01*
X9709803Y-9133358D01*
X9719327Y-9128596D01*
X9724089Y-9123834D01*
X9728850Y-9114310D01*
X9728850Y-9104787D01*
X9724089Y-9095263D01*
X9719327Y-9090501D01*
X9709803Y-9085739D01*
X9690755Y-9080977D01*
X9681231Y-9076215D01*
X9676470Y-9071453D01*
X9671708Y-9061930D01*
X9671708Y-9052406D01*
X9676470Y-9042882D01*
X9681231Y-9038120D01*
X9690755Y-9033358D01*
X9714565Y-9033358D01*
X9728850Y-9038120D01*
X9762184Y-9033358D02*
X9785993Y-9133358D01*
X9805041Y-9061930D01*
X9824089Y-9133358D01*
X9847898Y-9033358D01*
X9938374Y-9133358D02*
X9881231Y-9133358D01*
X9909803Y-9133358D02*
X9909803Y-9033358D01*
X9900279Y-9047644D01*
X9890755Y-9057168D01*
X9881231Y-9061930D01*
X9976470Y-9042882D02*
X9981231Y-9038120D01*
X9990755Y-9033358D01*
X10014565Y-9033358D01*
X10024089Y-9038120D01*
X10028850Y-9042882D01*
X10033612Y-9052406D01*
X10033612Y-9061930D01*
X10028850Y-9076215D01*
X9971708Y-9133358D01*
X10033612Y-9133358D01*
X11576708Y-9128596D02*
X11590993Y-9133358D01*
X11614803Y-9133358D01*
X11624327Y-9128596D01*
X11629088Y-9123834D01*
X11633850Y-9114310D01*
X11633850Y-9104787D01*
X11629088Y-9095263D01*
X11624327Y-9090501D01*
X11614803Y-9085739D01*
X11595755Y-9080977D01*
X11586231Y-9076215D01*
X11581469Y-9071453D01*
X11576708Y-9061930D01*
X11576708Y-9052406D01*
X11581469Y-9042882D01*
X11586231Y-9038120D01*
X11595755Y-9033358D01*
X11619565Y-9033358D01*
X11633850Y-9038120D01*
X11667184Y-9033358D02*
X11690993Y-9133358D01*
X11710041Y-9061930D01*
X11729088Y-9133358D01*
X11752898Y-9033358D01*
X11843374Y-9133358D02*
X11786231Y-9133358D01*
X11814803Y-9133358D02*
X11814803Y-9033358D01*
X11805279Y-9047644D01*
X11795755Y-9057168D01*
X11786231Y-9061930D01*
X11876708Y-9033358D02*
X11938612Y-9033358D01*
X11905279Y-9071453D01*
X11919565Y-9071453D01*
X11929088Y-9076215D01*
X11933850Y-9080977D01*
X11938612Y-9090501D01*
X11938612Y-9114310D01*
X11933850Y-9123834D01*
X11929088Y-9128596D01*
X11919565Y-9133358D01*
X11890993Y-9133358D01*
X11881469Y-9128596D01*
X11876708Y-9123834D01*
X13481708Y-9128596D02*
X13495993Y-9133358D01*
X13519803Y-9133358D01*
X13529327Y-9128596D01*
X13534088Y-9123834D01*
X13538850Y-9114310D01*
X13538850Y-9104787D01*
X13534088Y-9095263D01*
X13529327Y-9090501D01*
X13519803Y-9085739D01*
X13500755Y-9080977D01*
X13491231Y-9076215D01*
X13486469Y-9071453D01*
X13481708Y-9061930D01*
X13481708Y-9052406D01*
X13486469Y-9042882D01*
X13491231Y-9038120D01*
X13500755Y-9033358D01*
X13524565Y-9033358D01*
X13538850Y-9038120D01*
X13572184Y-9033358D02*
X13595993Y-9133358D01*
X13615041Y-9061930D01*
X13634088Y-9133358D01*
X13657898Y-9033358D01*
X13748374Y-9133358D02*
X13691231Y-9133358D01*
X13719803Y-9133358D02*
X13719803Y-9033358D01*
X13710279Y-9047644D01*
X13700755Y-9057168D01*
X13691231Y-9061930D01*
X13834088Y-9066691D02*
X13834088Y-9133358D01*
X13810279Y-9028596D02*
X13786469Y-9100025D01*
X13848374Y-9100025D01*
X15386708Y-9128596D02*
X15400993Y-9133358D01*
X15424803Y-9133358D01*
X15434327Y-9128596D01*
X15439088Y-9123834D01*
X15443850Y-9114310D01*
X15443850Y-9104787D01*
X15439088Y-9095263D01*
X15434327Y-9090501D01*
X15424803Y-9085739D01*
X15405755Y-9080977D01*
X15396231Y-9076215D01*
X15391469Y-9071453D01*
X15386708Y-9061930D01*
X15386708Y-9052406D01*
X15391469Y-9042882D01*
X15396231Y-9038120D01*
X15405755Y-9033358D01*
X15429565Y-9033358D01*
X15443850Y-9038120D01*
X15477184Y-9033358D02*
X15500993Y-9133358D01*
X15520041Y-9061930D01*
X15539088Y-9133358D01*
X15562898Y-9033358D01*
X15653374Y-9133358D02*
X15596231Y-9133358D01*
X15624803Y-9133358D02*
X15624803Y-9033358D01*
X15615279Y-9047644D01*
X15605755Y-9057168D01*
X15596231Y-9061930D01*
X15743850Y-9033358D02*
X15696231Y-9033358D01*
X15691469Y-9080977D01*
X15696231Y-9076215D01*
X15705755Y-9071453D01*
X15729565Y-9071453D01*
X15739088Y-9076215D01*
X15743850Y-9080977D01*
X15748612Y-9090501D01*
X15748612Y-9114310D01*
X15743850Y-9123834D01*
X15739088Y-9128596D01*
X15729565Y-9133358D01*
X15705755Y-9133358D01*
X15696231Y-9128596D01*
X15691469Y-9123834D01*
X17291708Y-9128596D02*
X17305993Y-9133358D01*
X17329803Y-9133358D01*
X17339327Y-9128596D01*
X17344089Y-9123834D01*
X17348850Y-9114310D01*
X17348850Y-9104787D01*
X17344089Y-9095263D01*
X17339327Y-9090501D01*
X17329803Y-9085739D01*
X17310755Y-9080977D01*
X17301231Y-9076215D01*
X17296470Y-9071453D01*
X17291708Y-9061930D01*
X17291708Y-9052406D01*
X17296470Y-9042882D01*
X17301231Y-9038120D01*
X17310755Y-9033358D01*
X17334565Y-9033358D01*
X17348850Y-9038120D01*
X17382184Y-9033358D02*
X17405993Y-9133358D01*
X17425041Y-9061930D01*
X17444089Y-9133358D01*
X17467898Y-9033358D01*
X17558374Y-9133358D02*
X17501231Y-9133358D01*
X17529803Y-9133358D02*
X17529803Y-9033358D01*
X17520279Y-9047644D01*
X17510755Y-9057168D01*
X17501231Y-9061930D01*
X17644089Y-9033358D02*
X17625041Y-9033358D01*
X17615517Y-9038120D01*
X17610755Y-9042882D01*
X17601231Y-9057168D01*
X17596470Y-9076215D01*
X17596470Y-9114310D01*
X17601231Y-9123834D01*
X17605993Y-9128596D01*
X17615517Y-9133358D01*
X17634565Y-9133358D01*
X17644089Y-9128596D01*
X17648850Y-9123834D01*
X17653612Y-9114310D01*
X17653612Y-9090501D01*
X17648850Y-9080977D01*
X17644089Y-9076215D01*
X17634565Y-9071453D01*
X17615517Y-9071453D01*
X17605993Y-9076215D01*
X17601231Y-9080977D01*
X17596470Y-9090501D01*
X3956708Y-11033596D02*
X3970993Y-11038358D01*
X3994803Y-11038358D01*
X4004327Y-11033596D01*
X4009088Y-11028834D01*
X4013850Y-11019310D01*
X4013850Y-11009787D01*
X4009088Y-11000263D01*
X4004327Y-10995501D01*
X3994803Y-10990739D01*
X3975755Y-10985977D01*
X3966231Y-10981215D01*
X3961469Y-10976453D01*
X3956708Y-10966930D01*
X3956708Y-10957406D01*
X3961469Y-10947882D01*
X3966231Y-10943120D01*
X3975755Y-10938358D01*
X3999565Y-10938358D01*
X4013850Y-10943120D01*
X4047184Y-10938358D02*
X4070993Y-11038358D01*
X4090041Y-10966930D01*
X4109088Y-11038358D01*
X4132898Y-10938358D01*
X4223374Y-11038358D02*
X4166231Y-11038358D01*
X4194803Y-11038358D02*
X4194803Y-10938358D01*
X4185279Y-10952644D01*
X4175755Y-10962168D01*
X4166231Y-10966930D01*
X4256708Y-10938358D02*
X4323374Y-10938358D01*
X4280517Y-11038358D01*
X5861708Y-11033596D02*
X5875993Y-11038358D01*
X5899803Y-11038358D01*
X5909327Y-11033596D01*
X5914088Y-11028834D01*
X5918850Y-11019310D01*
X5918850Y-11009787D01*
X5914088Y-11000263D01*
X5909327Y-10995501D01*
X5899803Y-10990739D01*
X5880755Y-10985977D01*
X5871231Y-10981215D01*
X5866469Y-10976453D01*
X5861708Y-10966930D01*
X5861708Y-10957406D01*
X5866469Y-10947882D01*
X5871231Y-10943120D01*
X5880755Y-10938358D01*
X5904565Y-10938358D01*
X5918850Y-10943120D01*
X5952184Y-10938358D02*
X5975993Y-11038358D01*
X5995041Y-10966930D01*
X6014088Y-11038358D01*
X6037898Y-10938358D01*
X6128374Y-11038358D02*
X6071231Y-11038358D01*
X6099803Y-11038358D02*
X6099803Y-10938358D01*
X6090279Y-10952644D01*
X6080755Y-10962168D01*
X6071231Y-10966930D01*
X6185517Y-10981215D02*
X6175993Y-10976453D01*
X6171231Y-10971691D01*
X6166469Y-10962168D01*
X6166469Y-10957406D01*
X6171231Y-10947882D01*
X6175993Y-10943120D01*
X6185517Y-10938358D01*
X6204565Y-10938358D01*
X6214088Y-10943120D01*
X6218850Y-10947882D01*
X6223612Y-10957406D01*
X6223612Y-10962168D01*
X6218850Y-10971691D01*
X6214088Y-10976453D01*
X6204565Y-10981215D01*
X6185517Y-10981215D01*
X6175993Y-10985977D01*
X6171231Y-10990739D01*
X6166469Y-11000263D01*
X6166469Y-11019310D01*
X6171231Y-11028834D01*
X6175993Y-11033596D01*
X6185517Y-11038358D01*
X6204565Y-11038358D01*
X6214088Y-11033596D01*
X6218850Y-11028834D01*
X6223612Y-11019310D01*
X6223612Y-11000263D01*
X6218850Y-10990739D01*
X6214088Y-10985977D01*
X6204565Y-10981215D01*
X7766708Y-11033596D02*
X7780993Y-11038358D01*
X7804803Y-11038358D01*
X7814327Y-11033596D01*
X7819088Y-11028834D01*
X7823850Y-11019310D01*
X7823850Y-11009787D01*
X7819088Y-11000263D01*
X7814327Y-10995501D01*
X7804803Y-10990739D01*
X7785755Y-10985977D01*
X7776231Y-10981215D01*
X7771469Y-10976453D01*
X7766708Y-10966930D01*
X7766708Y-10957406D01*
X7771469Y-10947882D01*
X7776231Y-10943120D01*
X7785755Y-10938358D01*
X7809565Y-10938358D01*
X7823850Y-10943120D01*
X7857184Y-10938358D02*
X7880993Y-11038358D01*
X7900041Y-10966930D01*
X7919088Y-11038358D01*
X7942898Y-10938358D01*
X8033374Y-11038358D02*
X7976231Y-11038358D01*
X8004803Y-11038358D02*
X8004803Y-10938358D01*
X7995279Y-10952644D01*
X7985755Y-10962168D01*
X7976231Y-10966930D01*
X8080993Y-11038358D02*
X8100041Y-11038358D01*
X8109565Y-11033596D01*
X8114327Y-11028834D01*
X8123850Y-11014549D01*
X8128612Y-10995501D01*
X8128612Y-10957406D01*
X8123850Y-10947882D01*
X8119088Y-10943120D01*
X8109565Y-10938358D01*
X8090517Y-10938358D01*
X8080993Y-10943120D01*
X8076231Y-10947882D01*
X8071469Y-10957406D01*
X8071469Y-10981215D01*
X8076231Y-10990739D01*
X8080993Y-10995501D01*
X8090517Y-11000263D01*
X8109565Y-11000263D01*
X8119088Y-10995501D01*
X8123850Y-10990739D01*
X8128612Y-10981215D01*
X9671708Y-11033596D02*
X9685993Y-11038358D01*
X9709803Y-11038358D01*
X9719327Y-11033596D01*
X9724089Y-11028834D01*
X9728850Y-11019310D01*
X9728850Y-11009787D01*
X9724089Y-11000263D01*
X9719327Y-10995501D01*
X9709803Y-10990739D01*
X9690755Y-10985977D01*
X9681231Y-10981215D01*
X9676470Y-10976453D01*
X9671708Y-10966930D01*
X9671708Y-10957406D01*
X9676470Y-10947882D01*
X9681231Y-10943120D01*
X9690755Y-10938358D01*
X9714565Y-10938358D01*
X9728850Y-10943120D01*
X9762184Y-10938358D02*
X9785993Y-11038358D01*
X9805041Y-10966930D01*
X9824089Y-11038358D01*
X9847898Y-10938358D01*
X9881231Y-10947882D02*
X9885993Y-10943120D01*
X9895517Y-10938358D01*
X9919327Y-10938358D01*
X9928850Y-10943120D01*
X9933612Y-10947882D01*
X9938374Y-10957406D01*
X9938374Y-10966930D01*
X9933612Y-10981215D01*
X9876470Y-11038358D01*
X9938374Y-11038358D01*
X10000279Y-10938358D02*
X10009803Y-10938358D01*
X10019327Y-10943120D01*
X10024089Y-10947882D01*
X10028850Y-10957406D01*
X10033612Y-10976453D01*
X10033612Y-11000263D01*
X10028850Y-11019310D01*
X10024089Y-11028834D01*
X10019327Y-11033596D01*
X10009803Y-11038358D01*
X10000279Y-11038358D01*
X9990755Y-11033596D01*
X9985993Y-11028834D01*
X9981231Y-11019310D01*
X9976470Y-11000263D01*
X9976470Y-10976453D01*
X9981231Y-10957406D01*
X9985993Y-10947882D01*
X9990755Y-10943120D01*
X10000279Y-10938358D01*
X11576708Y-11033596D02*
X11590993Y-11038358D01*
X11614803Y-11038358D01*
X11624327Y-11033596D01*
X11629088Y-11028834D01*
X11633850Y-11019310D01*
X11633850Y-11009787D01*
X11629088Y-11000263D01*
X11624327Y-10995501D01*
X11614803Y-10990739D01*
X11595755Y-10985977D01*
X11586231Y-10981215D01*
X11581469Y-10976453D01*
X11576708Y-10966930D01*
X11576708Y-10957406D01*
X11581469Y-10947882D01*
X11586231Y-10943120D01*
X11595755Y-10938358D01*
X11619565Y-10938358D01*
X11633850Y-10943120D01*
X11667184Y-10938358D02*
X11690993Y-11038358D01*
X11710041Y-10966930D01*
X11729088Y-11038358D01*
X11752898Y-10938358D01*
X11786231Y-10947882D02*
X11790993Y-10943120D01*
X11800517Y-10938358D01*
X11824327Y-10938358D01*
X11833850Y-10943120D01*
X11838612Y-10947882D01*
X11843374Y-10957406D01*
X11843374Y-10966930D01*
X11838612Y-10981215D01*
X11781469Y-11038358D01*
X11843374Y-11038358D01*
X11938612Y-11038358D02*
X11881469Y-11038358D01*
X11910041Y-11038358D02*
X11910041Y-10938358D01*
X11900517Y-10952644D01*
X11890993Y-10962168D01*
X11881469Y-10966930D01*
X13481708Y-11033596D02*
X13495993Y-11038358D01*
X13519803Y-11038358D01*
X13529327Y-11033596D01*
X13534088Y-11028834D01*
X13538850Y-11019310D01*
X13538850Y-11009787D01*
X13534088Y-11000263D01*
X13529327Y-10995501D01*
X13519803Y-10990739D01*
X13500755Y-10985977D01*
X13491231Y-10981215D01*
X13486469Y-10976453D01*
X13481708Y-10966930D01*
X13481708Y-10957406D01*
X13486469Y-10947882D01*
X13491231Y-10943120D01*
X13500755Y-10938358D01*
X13524565Y-10938358D01*
X13538850Y-10943120D01*
X13572184Y-10938358D02*
X13595993Y-11038358D01*
X13615041Y-10966930D01*
X13634088Y-11038358D01*
X13657898Y-10938358D01*
X13691231Y-10947882D02*
X13695993Y-10943120D01*
X13705517Y-10938358D01*
X13729327Y-10938358D01*
X13738850Y-10943120D01*
X13743612Y-10947882D01*
X13748374Y-10957406D01*
X13748374Y-10966930D01*
X13743612Y-10981215D01*
X13686469Y-11038358D01*
X13748374Y-11038358D01*
X13786469Y-10947882D02*
X13791231Y-10943120D01*
X13800755Y-10938358D01*
X13824565Y-10938358D01*
X13834088Y-10943120D01*
X13838850Y-10947882D01*
X13843612Y-10957406D01*
X13843612Y-10966930D01*
X13838850Y-10981215D01*
X13781708Y-11038358D01*
X13843612Y-11038358D01*
X15386708Y-11033596D02*
X15400993Y-11038358D01*
X15424803Y-11038358D01*
X15434327Y-11033596D01*
X15439088Y-11028834D01*
X15443850Y-11019310D01*
X15443850Y-11009787D01*
X15439088Y-11000263D01*
X15434327Y-10995501D01*
X15424803Y-10990739D01*
X15405755Y-10985977D01*
X15396231Y-10981215D01*
X15391469Y-10976453D01*
X15386708Y-10966930D01*
X15386708Y-10957406D01*
X15391469Y-10947882D01*
X15396231Y-10943120D01*
X15405755Y-10938358D01*
X15429565Y-10938358D01*
X15443850Y-10943120D01*
X15477184Y-10938358D02*
X15500993Y-11038358D01*
X15520041Y-10966930D01*
X15539088Y-11038358D01*
X15562898Y-10938358D01*
X15596231Y-10947882D02*
X15600993Y-10943120D01*
X15610517Y-10938358D01*
X15634327Y-10938358D01*
X15643850Y-10943120D01*
X15648612Y-10947882D01*
X15653374Y-10957406D01*
X15653374Y-10966930D01*
X15648612Y-10981215D01*
X15591469Y-11038358D01*
X15653374Y-11038358D01*
X15686708Y-10938358D02*
X15748612Y-10938358D01*
X15715279Y-10976453D01*
X15729565Y-10976453D01*
X15739088Y-10981215D01*
X15743850Y-10985977D01*
X15748612Y-10995501D01*
X15748612Y-11019310D01*
X15743850Y-11028834D01*
X15739088Y-11033596D01*
X15729565Y-11038358D01*
X15700993Y-11038358D01*
X15691469Y-11033596D01*
X15686708Y-11028834D01*
X17291708Y-11033596D02*
X17305993Y-11038358D01*
X17329803Y-11038358D01*
X17339327Y-11033596D01*
X17344089Y-11028834D01*
X17348850Y-11019310D01*
X17348850Y-11009787D01*
X17344089Y-11000263D01*
X17339327Y-10995501D01*
X17329803Y-10990739D01*
X17310755Y-10985977D01*
X17301231Y-10981215D01*
X17296470Y-10976453D01*
X17291708Y-10966930D01*
X17291708Y-10957406D01*
X17296470Y-10947882D01*
X17301231Y-10943120D01*
X17310755Y-10938358D01*
X17334565Y-10938358D01*
X17348850Y-10943120D01*
X17382184Y-10938358D02*
X17405993Y-11038358D01*
X17425041Y-10966930D01*
X17444089Y-11038358D01*
X17467898Y-10938358D01*
X17501231Y-10947882D02*
X17505993Y-10943120D01*
X17515517Y-10938358D01*
X17539327Y-10938358D01*
X17548850Y-10943120D01*
X17553612Y-10947882D01*
X17558374Y-10957406D01*
X17558374Y-10966930D01*
X17553612Y-10981215D01*
X17496470Y-11038358D01*
X17558374Y-11038358D01*
X17644089Y-10971691D02*
X17644089Y-11038358D01*
X17620279Y-10933596D02*
X17596470Y-11005025D01*
X17658374Y-11005025D01*
X3956708Y-12938596D02*
X3970993Y-12943358D01*
X3994803Y-12943358D01*
X4004327Y-12938596D01*
X4009088Y-12933834D01*
X4013850Y-12924310D01*
X4013850Y-12914787D01*
X4009088Y-12905263D01*
X4004327Y-12900501D01*
X3994803Y-12895739D01*
X3975755Y-12890977D01*
X3966231Y-12886215D01*
X3961469Y-12881453D01*
X3956708Y-12871929D01*
X3956708Y-12862406D01*
X3961469Y-12852882D01*
X3966231Y-12848120D01*
X3975755Y-12843358D01*
X3999565Y-12843358D01*
X4013850Y-12848120D01*
X4047184Y-12843358D02*
X4070993Y-12943358D01*
X4090041Y-12871929D01*
X4109088Y-12943358D01*
X4132898Y-12843358D01*
X4166231Y-12852882D02*
X4170993Y-12848120D01*
X4180517Y-12843358D01*
X4204327Y-12843358D01*
X4213850Y-12848120D01*
X4218612Y-12852882D01*
X4223374Y-12862406D01*
X4223374Y-12871929D01*
X4218612Y-12886215D01*
X4161469Y-12943358D01*
X4223374Y-12943358D01*
X4313850Y-12843358D02*
X4266231Y-12843358D01*
X4261470Y-12890977D01*
X4266231Y-12886215D01*
X4275755Y-12881453D01*
X4299565Y-12881453D01*
X4309089Y-12886215D01*
X4313850Y-12890977D01*
X4318612Y-12900501D01*
X4318612Y-12924310D01*
X4313850Y-12933834D01*
X4309089Y-12938596D01*
X4299565Y-12943358D01*
X4275755Y-12943358D01*
X4266231Y-12938596D01*
X4261470Y-12933834D01*
X5861708Y-12938596D02*
X5875993Y-12943358D01*
X5899803Y-12943358D01*
X5909327Y-12938596D01*
X5914088Y-12933834D01*
X5918850Y-12924310D01*
X5918850Y-12914787D01*
X5914088Y-12905263D01*
X5909327Y-12900501D01*
X5899803Y-12895739D01*
X5880755Y-12890977D01*
X5871231Y-12886215D01*
X5866469Y-12881453D01*
X5861708Y-12871929D01*
X5861708Y-12862406D01*
X5866469Y-12852882D01*
X5871231Y-12848120D01*
X5880755Y-12843358D01*
X5904565Y-12843358D01*
X5918850Y-12848120D01*
X5952184Y-12843358D02*
X5975993Y-12943358D01*
X5995041Y-12871929D01*
X6014088Y-12943358D01*
X6037898Y-12843358D01*
X6071231Y-12852882D02*
X6075993Y-12848120D01*
X6085517Y-12843358D01*
X6109327Y-12843358D01*
X6118850Y-12848120D01*
X6123612Y-12852882D01*
X6128374Y-12862406D01*
X6128374Y-12871929D01*
X6123612Y-12886215D01*
X6066469Y-12943358D01*
X6128374Y-12943358D01*
X6214088Y-12843358D02*
X6195041Y-12843358D01*
X6185517Y-12848120D01*
X6180755Y-12852882D01*
X6171231Y-12867168D01*
X6166469Y-12886215D01*
X6166469Y-12924310D01*
X6171231Y-12933834D01*
X6175993Y-12938596D01*
X6185517Y-12943358D01*
X6204565Y-12943358D01*
X6214088Y-12938596D01*
X6218850Y-12933834D01*
X6223612Y-12924310D01*
X6223612Y-12900501D01*
X6218850Y-12890977D01*
X6214088Y-12886215D01*
X6204565Y-12881453D01*
X6185517Y-12881453D01*
X6175993Y-12886215D01*
X6171231Y-12890977D01*
X6166469Y-12900501D01*
X7766708Y-12938596D02*
X7780993Y-12943358D01*
X7804803Y-12943358D01*
X7814327Y-12938596D01*
X7819088Y-12933834D01*
X7823850Y-12924310D01*
X7823850Y-12914787D01*
X7819088Y-12905263D01*
X7814327Y-12900501D01*
X7804803Y-12895739D01*
X7785755Y-12890977D01*
X7776231Y-12886215D01*
X7771469Y-12881453D01*
X7766708Y-12871929D01*
X7766708Y-12862406D01*
X7771469Y-12852882D01*
X7776231Y-12848120D01*
X7785755Y-12843358D01*
X7809565Y-12843358D01*
X7823850Y-12848120D01*
X7857184Y-12843358D02*
X7880993Y-12943358D01*
X7900041Y-12871929D01*
X7919088Y-12943358D01*
X7942898Y-12843358D01*
X7976231Y-12852882D02*
X7980993Y-12848120D01*
X7990517Y-12843358D01*
X8014327Y-12843358D01*
X8023850Y-12848120D01*
X8028612Y-12852882D01*
X8033374Y-12862406D01*
X8033374Y-12871929D01*
X8028612Y-12886215D01*
X7971469Y-12943358D01*
X8033374Y-12943358D01*
X8066708Y-12843358D02*
X8133374Y-12843358D01*
X8090517Y-12943358D01*
X9671708Y-12938596D02*
X9685993Y-12943358D01*
X9709803Y-12943358D01*
X9719327Y-12938596D01*
X9724089Y-12933834D01*
X9728850Y-12924310D01*
X9728850Y-12914787D01*
X9724089Y-12905263D01*
X9719327Y-12900501D01*
X9709803Y-12895739D01*
X9690755Y-12890977D01*
X9681231Y-12886215D01*
X9676470Y-12881453D01*
X9671708Y-12871929D01*
X9671708Y-12862406D01*
X9676470Y-12852882D01*
X9681231Y-12848120D01*
X9690755Y-12843358D01*
X9714565Y-12843358D01*
X9728850Y-12848120D01*
X9762184Y-12843358D02*
X9785993Y-12943358D01*
X9805041Y-12871929D01*
X9824089Y-12943358D01*
X9847898Y-12843358D01*
X9881231Y-12852882D02*
X9885993Y-12848120D01*
X9895517Y-12843358D01*
X9919327Y-12843358D01*
X9928850Y-12848120D01*
X9933612Y-12852882D01*
X9938374Y-12862406D01*
X9938374Y-12871929D01*
X9933612Y-12886215D01*
X9876470Y-12943358D01*
X9938374Y-12943358D01*
X9995517Y-12886215D02*
X9985993Y-12881453D01*
X9981231Y-12876691D01*
X9976470Y-12867168D01*
X9976470Y-12862406D01*
X9981231Y-12852882D01*
X9985993Y-12848120D01*
X9995517Y-12843358D01*
X10014565Y-12843358D01*
X10024089Y-12848120D01*
X10028850Y-12852882D01*
X10033612Y-12862406D01*
X10033612Y-12867168D01*
X10028850Y-12876691D01*
X10024089Y-12881453D01*
X10014565Y-12886215D01*
X9995517Y-12886215D01*
X9985993Y-12890977D01*
X9981231Y-12895739D01*
X9976470Y-12905263D01*
X9976470Y-12924310D01*
X9981231Y-12933834D01*
X9985993Y-12938596D01*
X9995517Y-12943358D01*
X10014565Y-12943358D01*
X10024089Y-12938596D01*
X10028850Y-12933834D01*
X10033612Y-12924310D01*
X10033612Y-12905263D01*
X10028850Y-12895739D01*
X10024089Y-12890977D01*
X10014565Y-12886215D01*
X11576708Y-12938596D02*
X11590993Y-12943358D01*
X11614803Y-12943358D01*
X11624327Y-12938596D01*
X11629088Y-12933834D01*
X11633850Y-12924310D01*
X11633850Y-12914787D01*
X11629088Y-12905263D01*
X11624327Y-12900501D01*
X11614803Y-12895739D01*
X11595755Y-12890977D01*
X11586231Y-12886215D01*
X11581469Y-12881453D01*
X11576708Y-12871929D01*
X11576708Y-12862406D01*
X11581469Y-12852882D01*
X11586231Y-12848120D01*
X11595755Y-12843358D01*
X11619565Y-12843358D01*
X11633850Y-12848120D01*
X11667184Y-12843358D02*
X11690993Y-12943358D01*
X11710041Y-12871929D01*
X11729088Y-12943358D01*
X11752898Y-12843358D01*
X11786231Y-12852882D02*
X11790993Y-12848120D01*
X11800517Y-12843358D01*
X11824327Y-12843358D01*
X11833850Y-12848120D01*
X11838612Y-12852882D01*
X11843374Y-12862406D01*
X11843374Y-12871929D01*
X11838612Y-12886215D01*
X11781469Y-12943358D01*
X11843374Y-12943358D01*
X11890993Y-12943358D02*
X11910041Y-12943358D01*
X11919565Y-12938596D01*
X11924327Y-12933834D01*
X11933850Y-12919548D01*
X11938612Y-12900501D01*
X11938612Y-12862406D01*
X11933850Y-12852882D01*
X11929088Y-12848120D01*
X11919565Y-12843358D01*
X11900517Y-12843358D01*
X11890993Y-12848120D01*
X11886231Y-12852882D01*
X11881469Y-12862406D01*
X11881469Y-12886215D01*
X11886231Y-12895739D01*
X11890993Y-12900501D01*
X11900517Y-12905263D01*
X11919565Y-12905263D01*
X11929088Y-12900501D01*
X11933850Y-12895739D01*
X11938612Y-12886215D01*
X13481708Y-12938596D02*
X13495993Y-12943358D01*
X13519803Y-12943358D01*
X13529327Y-12938596D01*
X13534088Y-12933834D01*
X13538850Y-12924310D01*
X13538850Y-12914787D01*
X13534088Y-12905263D01*
X13529327Y-12900501D01*
X13519803Y-12895739D01*
X13500755Y-12890977D01*
X13491231Y-12886215D01*
X13486469Y-12881453D01*
X13481708Y-12871929D01*
X13481708Y-12862406D01*
X13486469Y-12852882D01*
X13491231Y-12848120D01*
X13500755Y-12843358D01*
X13524565Y-12843358D01*
X13538850Y-12848120D01*
X13572184Y-12843358D02*
X13595993Y-12943358D01*
X13615041Y-12871929D01*
X13634088Y-12943358D01*
X13657898Y-12843358D01*
X13686469Y-12843358D02*
X13748374Y-12843358D01*
X13715041Y-12881453D01*
X13729327Y-12881453D01*
X13738850Y-12886215D01*
X13743612Y-12890977D01*
X13748374Y-12900501D01*
X13748374Y-12924310D01*
X13743612Y-12933834D01*
X13738850Y-12938596D01*
X13729327Y-12943358D01*
X13700755Y-12943358D01*
X13691231Y-12938596D01*
X13686469Y-12933834D01*
X13810279Y-12843358D02*
X13819803Y-12843358D01*
X13829327Y-12848120D01*
X13834088Y-12852882D01*
X13838850Y-12862406D01*
X13843612Y-12881453D01*
X13843612Y-12905263D01*
X13838850Y-12924310D01*
X13834088Y-12933834D01*
X13829327Y-12938596D01*
X13819803Y-12943358D01*
X13810279Y-12943358D01*
X13800755Y-12938596D01*
X13795993Y-12933834D01*
X13791231Y-12924310D01*
X13786469Y-12905263D01*
X13786469Y-12881453D01*
X13791231Y-12862406D01*
X13795993Y-12852882D01*
X13800755Y-12848120D01*
X13810279Y-12843358D01*
X15386708Y-12938596D02*
X15400993Y-12943358D01*
X15424803Y-12943358D01*
X15434327Y-12938596D01*
X15439088Y-12933834D01*
X15443850Y-12924310D01*
X15443850Y-12914787D01*
X15439088Y-12905263D01*
X15434327Y-12900501D01*
X15424803Y-12895739D01*
X15405755Y-12890977D01*
X15396231Y-12886215D01*
X15391469Y-12881453D01*
X15386708Y-12871929D01*
X15386708Y-12862406D01*
X15391469Y-12852882D01*
X15396231Y-12848120D01*
X15405755Y-12843358D01*
X15429565Y-12843358D01*
X15443850Y-12848120D01*
X15477184Y-12843358D02*
X15500993Y-12943358D01*
X15520041Y-12871929D01*
X15539088Y-12943358D01*
X15562898Y-12843358D01*
X15591469Y-12843358D02*
X15653374Y-12843358D01*
X15620041Y-12881453D01*
X15634327Y-12881453D01*
X15643850Y-12886215D01*
X15648612Y-12890977D01*
X15653374Y-12900501D01*
X15653374Y-12924310D01*
X15648612Y-12933834D01*
X15643850Y-12938596D01*
X15634327Y-12943358D01*
X15605755Y-12943358D01*
X15596231Y-12938596D01*
X15591469Y-12933834D01*
X15748612Y-12943358D02*
X15691469Y-12943358D01*
X15720041Y-12943358D02*
X15720041Y-12843358D01*
X15710517Y-12857644D01*
X15700993Y-12867168D01*
X15691469Y-12871929D01*
X17291708Y-12938596D02*
X17305993Y-12943358D01*
X17329803Y-12943358D01*
X17339327Y-12938596D01*
X17344089Y-12933834D01*
X17348850Y-12924310D01*
X17348850Y-12914787D01*
X17344089Y-12905263D01*
X17339327Y-12900501D01*
X17329803Y-12895739D01*
X17310755Y-12890977D01*
X17301231Y-12886215D01*
X17296470Y-12881453D01*
X17291708Y-12871929D01*
X17291708Y-12862406D01*
X17296470Y-12852882D01*
X17301231Y-12848120D01*
X17310755Y-12843358D01*
X17334565Y-12843358D01*
X17348850Y-12848120D01*
X17382184Y-12843358D02*
X17405993Y-12943358D01*
X17425041Y-12871929D01*
X17444089Y-12943358D01*
X17467898Y-12843358D01*
X17496470Y-12843358D02*
X17558374Y-12843358D01*
X17525041Y-12881453D01*
X17539327Y-12881453D01*
X17548850Y-12886215D01*
X17553612Y-12890977D01*
X17558374Y-12900501D01*
X17558374Y-12924310D01*
X17553612Y-12933834D01*
X17548850Y-12938596D01*
X17539327Y-12943358D01*
X17510755Y-12943358D01*
X17501231Y-12938596D01*
X17496470Y-12933834D01*
X17596470Y-12852882D02*
X17601231Y-12848120D01*
X17610755Y-12843358D01*
X17634565Y-12843358D01*
X17644089Y-12848120D01*
X17648850Y-12852882D01*
X17653612Y-12862406D01*
X17653612Y-12871929D01*
X17648850Y-12886215D01*
X17591708Y-12943358D01*
X17653612Y-12943358D01*
X3956708Y-14843596D02*
X3970993Y-14848358D01*
X3994803Y-14848358D01*
X4004327Y-14843596D01*
X4009088Y-14838834D01*
X4013850Y-14829310D01*
X4013850Y-14819787D01*
X4009088Y-14810263D01*
X4004327Y-14805501D01*
X3994803Y-14800739D01*
X3975755Y-14795977D01*
X3966231Y-14791215D01*
X3961469Y-14786453D01*
X3956708Y-14776929D01*
X3956708Y-14767406D01*
X3961469Y-14757882D01*
X3966231Y-14753120D01*
X3975755Y-14748358D01*
X3999565Y-14748358D01*
X4013850Y-14753120D01*
X4047184Y-14748358D02*
X4070993Y-14848358D01*
X4090041Y-14776929D01*
X4109088Y-14848358D01*
X4132898Y-14748358D01*
X4161469Y-14748358D02*
X4223374Y-14748358D01*
X4190041Y-14786453D01*
X4204327Y-14786453D01*
X4213850Y-14791215D01*
X4218612Y-14795977D01*
X4223374Y-14805501D01*
X4223374Y-14829310D01*
X4218612Y-14838834D01*
X4213850Y-14843596D01*
X4204327Y-14848358D01*
X4175755Y-14848358D01*
X4166231Y-14843596D01*
X4161469Y-14838834D01*
X4256708Y-14748358D02*
X4318612Y-14748358D01*
X4285279Y-14786453D01*
X4299565Y-14786453D01*
X4309089Y-14791215D01*
X4313850Y-14795977D01*
X4318612Y-14805501D01*
X4318612Y-14829310D01*
X4313850Y-14838834D01*
X4309089Y-14843596D01*
X4299565Y-14848358D01*
X4270993Y-14848358D01*
X4261470Y-14843596D01*
X4256708Y-14838834D01*
X5861708Y-14843596D02*
X5875993Y-14848358D01*
X5899803Y-14848358D01*
X5909327Y-14843596D01*
X5914088Y-14838834D01*
X5918850Y-14829310D01*
X5918850Y-14819787D01*
X5914088Y-14810263D01*
X5909327Y-14805501D01*
X5899803Y-14800739D01*
X5880755Y-14795977D01*
X5871231Y-14791215D01*
X5866469Y-14786453D01*
X5861708Y-14776929D01*
X5861708Y-14767406D01*
X5866469Y-14757882D01*
X5871231Y-14753120D01*
X5880755Y-14748358D01*
X5904565Y-14748358D01*
X5918850Y-14753120D01*
X5952184Y-14748358D02*
X5975993Y-14848358D01*
X5995041Y-14776929D01*
X6014088Y-14848358D01*
X6037898Y-14748358D01*
X6066469Y-14748358D02*
X6128374Y-14748358D01*
X6095041Y-14786453D01*
X6109327Y-14786453D01*
X6118850Y-14791215D01*
X6123612Y-14795977D01*
X6128374Y-14805501D01*
X6128374Y-14829310D01*
X6123612Y-14838834D01*
X6118850Y-14843596D01*
X6109327Y-14848358D01*
X6080755Y-14848358D01*
X6071231Y-14843596D01*
X6066469Y-14838834D01*
X6214088Y-14781691D02*
X6214088Y-14848358D01*
X6190279Y-14743596D02*
X6166469Y-14815025D01*
X6228374Y-14815025D01*
X7766708Y-14843596D02*
X7780993Y-14848358D01*
X7804803Y-14848358D01*
X7814327Y-14843596D01*
X7819088Y-14838834D01*
X7823850Y-14829310D01*
X7823850Y-14819787D01*
X7819088Y-14810263D01*
X7814327Y-14805501D01*
X7804803Y-14800739D01*
X7785755Y-14795977D01*
X7776231Y-14791215D01*
X7771469Y-14786453D01*
X7766708Y-14776929D01*
X7766708Y-14767406D01*
X7771469Y-14757882D01*
X7776231Y-14753120D01*
X7785755Y-14748358D01*
X7809565Y-14748358D01*
X7823850Y-14753120D01*
X7857184Y-14748358D02*
X7880993Y-14848358D01*
X7900041Y-14776929D01*
X7919088Y-14848358D01*
X7942898Y-14748358D01*
X7971469Y-14748358D02*
X8033374Y-14748358D01*
X8000041Y-14786453D01*
X8014327Y-14786453D01*
X8023850Y-14791215D01*
X8028612Y-14795977D01*
X8033374Y-14805501D01*
X8033374Y-14829310D01*
X8028612Y-14838834D01*
X8023850Y-14843596D01*
X8014327Y-14848358D01*
X7985755Y-14848358D01*
X7976231Y-14843596D01*
X7971469Y-14838834D01*
X8123850Y-14748358D02*
X8076231Y-14748358D01*
X8071469Y-14795977D01*
X8076231Y-14791215D01*
X8085755Y-14786453D01*
X8109565Y-14786453D01*
X8119088Y-14791215D01*
X8123850Y-14795977D01*
X8128612Y-14805501D01*
X8128612Y-14829310D01*
X8123850Y-14838834D01*
X8119088Y-14843596D01*
X8109565Y-14848358D01*
X8085755Y-14848358D01*
X8076231Y-14843596D01*
X8071469Y-14838834D01*
X9671708Y-14843596D02*
X9685993Y-14848358D01*
X9709803Y-14848358D01*
X9719327Y-14843596D01*
X9724089Y-14838834D01*
X9728850Y-14829310D01*
X9728850Y-14819787D01*
X9724089Y-14810263D01*
X9719327Y-14805501D01*
X9709803Y-14800739D01*
X9690755Y-14795977D01*
X9681231Y-14791215D01*
X9676470Y-14786453D01*
X9671708Y-14776929D01*
X9671708Y-14767406D01*
X9676470Y-14757882D01*
X9681231Y-14753120D01*
X9690755Y-14748358D01*
X9714565Y-14748358D01*
X9728850Y-14753120D01*
X9762184Y-14748358D02*
X9785993Y-14848358D01*
X9805041Y-14776929D01*
X9824089Y-14848358D01*
X9847898Y-14748358D01*
X9876470Y-14748358D02*
X9938374Y-14748358D01*
X9905041Y-14786453D01*
X9919327Y-14786453D01*
X9928850Y-14791215D01*
X9933612Y-14795977D01*
X9938374Y-14805501D01*
X9938374Y-14829310D01*
X9933612Y-14838834D01*
X9928850Y-14843596D01*
X9919327Y-14848358D01*
X9890755Y-14848358D01*
X9881231Y-14843596D01*
X9876470Y-14838834D01*
X10024089Y-14748358D02*
X10005041Y-14748358D01*
X9995517Y-14753120D01*
X9990755Y-14757882D01*
X9981231Y-14772168D01*
X9976470Y-14791215D01*
X9976470Y-14829310D01*
X9981231Y-14838834D01*
X9985993Y-14843596D01*
X9995517Y-14848358D01*
X10014565Y-14848358D01*
X10024089Y-14843596D01*
X10028850Y-14838834D01*
X10033612Y-14829310D01*
X10033612Y-14805501D01*
X10028850Y-14795977D01*
X10024089Y-14791215D01*
X10014565Y-14786453D01*
X9995517Y-14786453D01*
X9985993Y-14791215D01*
X9981231Y-14795977D01*
X9976470Y-14805501D01*
X11576708Y-14843596D02*
X11590993Y-14848358D01*
X11614803Y-14848358D01*
X11624327Y-14843596D01*
X11629088Y-14838834D01*
X11633850Y-14829310D01*
X11633850Y-14819787D01*
X11629088Y-14810263D01*
X11624327Y-14805501D01*
X11614803Y-14800739D01*
X11595755Y-14795977D01*
X11586231Y-14791215D01*
X11581469Y-14786453D01*
X11576708Y-14776929D01*
X11576708Y-14767406D01*
X11581469Y-14757882D01*
X11586231Y-14753120D01*
X11595755Y-14748358D01*
X11619565Y-14748358D01*
X11633850Y-14753120D01*
X11667184Y-14748358D02*
X11690993Y-14848358D01*
X11710041Y-14776929D01*
X11729088Y-14848358D01*
X11752898Y-14748358D01*
X11781469Y-14748358D02*
X11843374Y-14748358D01*
X11810041Y-14786453D01*
X11824327Y-14786453D01*
X11833850Y-14791215D01*
X11838612Y-14795977D01*
X11843374Y-14805501D01*
X11843374Y-14829310D01*
X11838612Y-14838834D01*
X11833850Y-14843596D01*
X11824327Y-14848358D01*
X11795755Y-14848358D01*
X11786231Y-14843596D01*
X11781469Y-14838834D01*
X11876708Y-14748358D02*
X11943374Y-14748358D01*
X11900517Y-14848358D01*
X13481708Y-14843596D02*
X13495993Y-14848358D01*
X13519803Y-14848358D01*
X13529327Y-14843596D01*
X13534088Y-14838834D01*
X13538850Y-14829310D01*
X13538850Y-14819787D01*
X13534088Y-14810263D01*
X13529327Y-14805501D01*
X13519803Y-14800739D01*
X13500755Y-14795977D01*
X13491231Y-14791215D01*
X13486469Y-14786453D01*
X13481708Y-14776929D01*
X13481708Y-14767406D01*
X13486469Y-14757882D01*
X13491231Y-14753120D01*
X13500755Y-14748358D01*
X13524565Y-14748358D01*
X13538850Y-14753120D01*
X13572184Y-14748358D02*
X13595993Y-14848358D01*
X13615041Y-14776929D01*
X13634088Y-14848358D01*
X13657898Y-14748358D01*
X13686469Y-14748358D02*
X13748374Y-14748358D01*
X13715041Y-14786453D01*
X13729327Y-14786453D01*
X13738850Y-14791215D01*
X13743612Y-14795977D01*
X13748374Y-14805501D01*
X13748374Y-14829310D01*
X13743612Y-14838834D01*
X13738850Y-14843596D01*
X13729327Y-14848358D01*
X13700755Y-14848358D01*
X13691231Y-14843596D01*
X13686469Y-14838834D01*
X13805517Y-14791215D02*
X13795993Y-14786453D01*
X13791231Y-14781691D01*
X13786469Y-14772168D01*
X13786469Y-14767406D01*
X13791231Y-14757882D01*
X13795993Y-14753120D01*
X13805517Y-14748358D01*
X13824565Y-14748358D01*
X13834088Y-14753120D01*
X13838850Y-14757882D01*
X13843612Y-14767406D01*
X13843612Y-14772168D01*
X13838850Y-14781691D01*
X13834088Y-14786453D01*
X13824565Y-14791215D01*
X13805517Y-14791215D01*
X13795993Y-14795977D01*
X13791231Y-14800739D01*
X13786469Y-14810263D01*
X13786469Y-14829310D01*
X13791231Y-14838834D01*
X13795993Y-14843596D01*
X13805517Y-14848358D01*
X13824565Y-14848358D01*
X13834088Y-14843596D01*
X13838850Y-14838834D01*
X13843612Y-14829310D01*
X13843612Y-14810263D01*
X13838850Y-14800739D01*
X13834088Y-14795977D01*
X13824565Y-14791215D01*
X15386708Y-14843596D02*
X15400993Y-14848358D01*
X15424803Y-14848358D01*
X15434327Y-14843596D01*
X15439088Y-14838834D01*
X15443850Y-14829310D01*
X15443850Y-14819787D01*
X15439088Y-14810263D01*
X15434327Y-14805501D01*
X15424803Y-14800739D01*
X15405755Y-14795977D01*
X15396231Y-14791215D01*
X15391469Y-14786453D01*
X15386708Y-14776929D01*
X15386708Y-14767406D01*
X15391469Y-14757882D01*
X15396231Y-14753120D01*
X15405755Y-14748358D01*
X15429565Y-14748358D01*
X15443850Y-14753120D01*
X15477184Y-14748358D02*
X15500993Y-14848358D01*
X15520041Y-14776929D01*
X15539088Y-14848358D01*
X15562898Y-14748358D01*
X15591469Y-14748358D02*
X15653374Y-14748358D01*
X15620041Y-14786453D01*
X15634327Y-14786453D01*
X15643850Y-14791215D01*
X15648612Y-14795977D01*
X15653374Y-14805501D01*
X15653374Y-14829310D01*
X15648612Y-14838834D01*
X15643850Y-14843596D01*
X15634327Y-14848358D01*
X15605755Y-14848358D01*
X15596231Y-14843596D01*
X15591469Y-14838834D01*
X15700993Y-14848358D02*
X15720041Y-14848358D01*
X15729565Y-14843596D01*
X15734327Y-14838834D01*
X15743850Y-14824548D01*
X15748612Y-14805501D01*
X15748612Y-14767406D01*
X15743850Y-14757882D01*
X15739088Y-14753120D01*
X15729565Y-14748358D01*
X15710517Y-14748358D01*
X15700993Y-14753120D01*
X15696231Y-14757882D01*
X15691469Y-14767406D01*
X15691469Y-14791215D01*
X15696231Y-14800739D01*
X15700993Y-14805501D01*
X15710517Y-14810263D01*
X15729565Y-14810263D01*
X15739088Y-14805501D01*
X15743850Y-14800739D01*
X15748612Y-14791215D01*
X17291708Y-14843596D02*
X17305993Y-14848358D01*
X17329803Y-14848358D01*
X17339327Y-14843596D01*
X17344089Y-14838834D01*
X17348850Y-14829310D01*
X17348850Y-14819787D01*
X17344089Y-14810263D01*
X17339327Y-14805501D01*
X17329803Y-14800739D01*
X17310755Y-14795977D01*
X17301231Y-14791215D01*
X17296470Y-14786453D01*
X17291708Y-14776929D01*
X17291708Y-14767406D01*
X17296470Y-14757882D01*
X17301231Y-14753120D01*
X17310755Y-14748358D01*
X17334565Y-14748358D01*
X17348850Y-14753120D01*
X17382184Y-14748358D02*
X17405993Y-14848358D01*
X17425041Y-14776929D01*
X17444089Y-14848358D01*
X17467898Y-14748358D01*
X17548850Y-14781691D02*
X17548850Y-14848358D01*
X17525041Y-14743596D02*
X17501231Y-14815025D01*
X17563136Y-14815025D01*
X17620279Y-14748358D02*
X17629803Y-14748358D01*
X17639327Y-14753120D01*
X17644089Y-14757882D01*
X17648850Y-14767406D01*
X17653612Y-14786453D01*
X17653612Y-14810263D01*
X17648850Y-14829310D01*
X17644089Y-14838834D01*
X17639327Y-14843596D01*
X17629803Y-14848358D01*
X17620279Y-14848358D01*
X17610755Y-14843596D01*
X17605993Y-14838834D01*
X17601231Y-14829310D01*
X17596470Y-14810263D01*
X17596470Y-14786453D01*
X17601231Y-14767406D01*
X17605993Y-14757882D01*
X17610755Y-14753120D01*
X17620279Y-14748358D01*
M02*
