G04 #@! TF.GenerationSoftware,KiCad,Pcbnew,(5.1.5)-3*
G04 #@! TF.CreationDate,2020-03-22T20:56:45+08:00*
G04 #@! TF.ProjectId,XS40,58533430-2e6b-4696-9361-645f70636258,rev?*
G04 #@! TF.SameCoordinates,Original*
G04 #@! TF.FileFunction,Paste,Bot*
G04 #@! TF.FilePolarity,Positive*
%FSLAX45Y45*%
G04 Gerber Fmt 4.5, Leading zero omitted, Abs format (unit mm)*
G04 Created by KiCad (PCBNEW (5.1.5)-3) date 2020-03-22 20:56:45*
%MOMM*%
%LPD*%
G04 APERTURE LIST*
%ADD10R,1.500000X1.900000*%
%ADD11R,0.400000X1.350000*%
%ADD12C,0.100000*%
%ADD13R,0.900000X1.200000*%
%ADD14R,0.450000X1.450000*%
G04 APERTURE END LIST*
D10*
X17365040Y-4239970D03*
D11*
X17465040Y-4509970D03*
X17530040Y-4509970D03*
X17595040Y-4509970D03*
X17335040Y-4509970D03*
X17400040Y-4509970D03*
D10*
X17565040Y-4239970D03*
D12*
G36*
X16561959Y-5542129D02*
G01*
X16564083Y-5542444D01*
X16566165Y-5542966D01*
X16568186Y-5543689D01*
X16570127Y-5544607D01*
X16571968Y-5545711D01*
X16573692Y-5546989D01*
X16575283Y-5548431D01*
X16576725Y-5550022D01*
X16578003Y-5551746D01*
X16579107Y-5553587D01*
X16580025Y-5555528D01*
X16580748Y-5557549D01*
X16581270Y-5559631D01*
X16581585Y-5561755D01*
X16581690Y-5563899D01*
X16581690Y-5615149D01*
X16581585Y-5617293D01*
X16581270Y-5619417D01*
X16580748Y-5621499D01*
X16580025Y-5623520D01*
X16579107Y-5625461D01*
X16578003Y-5627302D01*
X16576725Y-5629026D01*
X16575283Y-5630617D01*
X16573692Y-5632059D01*
X16571968Y-5633337D01*
X16570127Y-5634441D01*
X16568186Y-5635359D01*
X16566165Y-5636082D01*
X16564083Y-5636604D01*
X16561959Y-5636919D01*
X16559815Y-5637024D01*
X16516065Y-5637024D01*
X16513921Y-5636919D01*
X16511797Y-5636604D01*
X16509715Y-5636082D01*
X16507694Y-5635359D01*
X16505753Y-5634441D01*
X16503912Y-5633337D01*
X16502188Y-5632059D01*
X16500597Y-5630617D01*
X16499155Y-5629026D01*
X16497877Y-5627302D01*
X16496773Y-5625461D01*
X16495855Y-5623520D01*
X16495132Y-5621499D01*
X16494610Y-5619417D01*
X16494295Y-5617293D01*
X16494190Y-5615149D01*
X16494190Y-5563899D01*
X16494295Y-5561755D01*
X16494610Y-5559631D01*
X16495132Y-5557549D01*
X16495855Y-5555528D01*
X16496773Y-5553587D01*
X16497877Y-5551746D01*
X16499155Y-5550022D01*
X16500597Y-5548431D01*
X16502188Y-5546989D01*
X16503912Y-5545711D01*
X16505753Y-5544607D01*
X16507694Y-5543689D01*
X16509715Y-5542966D01*
X16511797Y-5542444D01*
X16513921Y-5542129D01*
X16516065Y-5542024D01*
X16559815Y-5542024D01*
X16561959Y-5542129D01*
G37*
G36*
X16404459Y-5542129D02*
G01*
X16406583Y-5542444D01*
X16408665Y-5542966D01*
X16410686Y-5543689D01*
X16412627Y-5544607D01*
X16414468Y-5545711D01*
X16416192Y-5546989D01*
X16417783Y-5548431D01*
X16419225Y-5550022D01*
X16420503Y-5551746D01*
X16421607Y-5553587D01*
X16422525Y-5555528D01*
X16423248Y-5557549D01*
X16423770Y-5559631D01*
X16424085Y-5561755D01*
X16424190Y-5563899D01*
X16424190Y-5615149D01*
X16424085Y-5617293D01*
X16423770Y-5619417D01*
X16423248Y-5621499D01*
X16422525Y-5623520D01*
X16421607Y-5625461D01*
X16420503Y-5627302D01*
X16419225Y-5629026D01*
X16417783Y-5630617D01*
X16416192Y-5632059D01*
X16414468Y-5633337D01*
X16412627Y-5634441D01*
X16410686Y-5635359D01*
X16408665Y-5636082D01*
X16406583Y-5636604D01*
X16404459Y-5636919D01*
X16402315Y-5637024D01*
X16358565Y-5637024D01*
X16356421Y-5636919D01*
X16354297Y-5636604D01*
X16352215Y-5636082D01*
X16350194Y-5635359D01*
X16348253Y-5634441D01*
X16346412Y-5633337D01*
X16344688Y-5632059D01*
X16343097Y-5630617D01*
X16341655Y-5629026D01*
X16340377Y-5627302D01*
X16339273Y-5625461D01*
X16338355Y-5623520D01*
X16337632Y-5621499D01*
X16337110Y-5619417D01*
X16336795Y-5617293D01*
X16336690Y-5615149D01*
X16336690Y-5563899D01*
X16336795Y-5561755D01*
X16337110Y-5559631D01*
X16337632Y-5557549D01*
X16338355Y-5555528D01*
X16339273Y-5553587D01*
X16340377Y-5551746D01*
X16341655Y-5550022D01*
X16343097Y-5548431D01*
X16344688Y-5546989D01*
X16346412Y-5545711D01*
X16348253Y-5544607D01*
X16350194Y-5543689D01*
X16352215Y-5542966D01*
X16354297Y-5542444D01*
X16356421Y-5542129D01*
X16358565Y-5542024D01*
X16402315Y-5542024D01*
X16404459Y-5542129D01*
G37*
G36*
X16562985Y-5395825D02*
G01*
X16565109Y-5396140D01*
X16567191Y-5396662D01*
X16569212Y-5397385D01*
X16571153Y-5398303D01*
X16572994Y-5399407D01*
X16574718Y-5400685D01*
X16576309Y-5402127D01*
X16577751Y-5403718D01*
X16579029Y-5405442D01*
X16580133Y-5407283D01*
X16581051Y-5409224D01*
X16581774Y-5411245D01*
X16582296Y-5413327D01*
X16582611Y-5415451D01*
X16582716Y-5417595D01*
X16582716Y-5468845D01*
X16582611Y-5470989D01*
X16582296Y-5473113D01*
X16581774Y-5475195D01*
X16581051Y-5477216D01*
X16580133Y-5479157D01*
X16579029Y-5480998D01*
X16577751Y-5482722D01*
X16576309Y-5484313D01*
X16574718Y-5485755D01*
X16572994Y-5487033D01*
X16571153Y-5488137D01*
X16569212Y-5489055D01*
X16567191Y-5489778D01*
X16565109Y-5490300D01*
X16562985Y-5490615D01*
X16560841Y-5490720D01*
X16517091Y-5490720D01*
X16514947Y-5490615D01*
X16512823Y-5490300D01*
X16510741Y-5489778D01*
X16508720Y-5489055D01*
X16506779Y-5488137D01*
X16504938Y-5487033D01*
X16503214Y-5485755D01*
X16501623Y-5484313D01*
X16500181Y-5482722D01*
X16498903Y-5480998D01*
X16497799Y-5479157D01*
X16496881Y-5477216D01*
X16496158Y-5475195D01*
X16495636Y-5473113D01*
X16495321Y-5470989D01*
X16495216Y-5468845D01*
X16495216Y-5417595D01*
X16495321Y-5415451D01*
X16495636Y-5413327D01*
X16496158Y-5411245D01*
X16496881Y-5409224D01*
X16497799Y-5407283D01*
X16498903Y-5405442D01*
X16500181Y-5403718D01*
X16501623Y-5402127D01*
X16503214Y-5400685D01*
X16504938Y-5399407D01*
X16506779Y-5398303D01*
X16508720Y-5397385D01*
X16510741Y-5396662D01*
X16512823Y-5396140D01*
X16514947Y-5395825D01*
X16517091Y-5395720D01*
X16560841Y-5395720D01*
X16562985Y-5395825D01*
G37*
G36*
X16405485Y-5395825D02*
G01*
X16407609Y-5396140D01*
X16409691Y-5396662D01*
X16411712Y-5397385D01*
X16413653Y-5398303D01*
X16415494Y-5399407D01*
X16417218Y-5400685D01*
X16418809Y-5402127D01*
X16420251Y-5403718D01*
X16421529Y-5405442D01*
X16422633Y-5407283D01*
X16423551Y-5409224D01*
X16424274Y-5411245D01*
X16424796Y-5413327D01*
X16425111Y-5415451D01*
X16425216Y-5417595D01*
X16425216Y-5468845D01*
X16425111Y-5470989D01*
X16424796Y-5473113D01*
X16424274Y-5475195D01*
X16423551Y-5477216D01*
X16422633Y-5479157D01*
X16421529Y-5480998D01*
X16420251Y-5482722D01*
X16418809Y-5484313D01*
X16417218Y-5485755D01*
X16415494Y-5487033D01*
X16413653Y-5488137D01*
X16411712Y-5489055D01*
X16409691Y-5489778D01*
X16407609Y-5490300D01*
X16405485Y-5490615D01*
X16403341Y-5490720D01*
X16359591Y-5490720D01*
X16357447Y-5490615D01*
X16355323Y-5490300D01*
X16353241Y-5489778D01*
X16351220Y-5489055D01*
X16349279Y-5488137D01*
X16347438Y-5487033D01*
X16345714Y-5485755D01*
X16344123Y-5484313D01*
X16342681Y-5482722D01*
X16341403Y-5480998D01*
X16340299Y-5479157D01*
X16339381Y-5477216D01*
X16338658Y-5475195D01*
X16338136Y-5473113D01*
X16337821Y-5470989D01*
X16337716Y-5468845D01*
X16337716Y-5417595D01*
X16337821Y-5415451D01*
X16338136Y-5413327D01*
X16338658Y-5411245D01*
X16339381Y-5409224D01*
X16340299Y-5407283D01*
X16341403Y-5405442D01*
X16342681Y-5403718D01*
X16344123Y-5402127D01*
X16345714Y-5400685D01*
X16347438Y-5399407D01*
X16349279Y-5398303D01*
X16351220Y-5397385D01*
X16353241Y-5396662D01*
X16355323Y-5396140D01*
X16357447Y-5395825D01*
X16359591Y-5395720D01*
X16403341Y-5395720D01*
X16405485Y-5395825D01*
G37*
G36*
X3425069Y-4491585D02*
G01*
X3427193Y-4491900D01*
X3429275Y-4492422D01*
X3431296Y-4493145D01*
X3433237Y-4494063D01*
X3435078Y-4495167D01*
X3436802Y-4496445D01*
X3438393Y-4497887D01*
X3439835Y-4499478D01*
X3441113Y-4501202D01*
X3442217Y-4503043D01*
X3443135Y-4504984D01*
X3443858Y-4507005D01*
X3444380Y-4509087D01*
X3444695Y-4511211D01*
X3444800Y-4513355D01*
X3444800Y-4564605D01*
X3444695Y-4566749D01*
X3444380Y-4568873D01*
X3443858Y-4570955D01*
X3443135Y-4572976D01*
X3442217Y-4574917D01*
X3441113Y-4576758D01*
X3439835Y-4578482D01*
X3438393Y-4580073D01*
X3436802Y-4581515D01*
X3435078Y-4582793D01*
X3433237Y-4583897D01*
X3431296Y-4584815D01*
X3429275Y-4585538D01*
X3427193Y-4586060D01*
X3425069Y-4586375D01*
X3422925Y-4586480D01*
X3379175Y-4586480D01*
X3377031Y-4586375D01*
X3374907Y-4586060D01*
X3372825Y-4585538D01*
X3370804Y-4584815D01*
X3368863Y-4583897D01*
X3367022Y-4582793D01*
X3365298Y-4581515D01*
X3363707Y-4580073D01*
X3362265Y-4578482D01*
X3360987Y-4576758D01*
X3359883Y-4574917D01*
X3358965Y-4572976D01*
X3358242Y-4570955D01*
X3357720Y-4568873D01*
X3357405Y-4566749D01*
X3357300Y-4564605D01*
X3357300Y-4513355D01*
X3357405Y-4511211D01*
X3357720Y-4509087D01*
X3358242Y-4507005D01*
X3358965Y-4504984D01*
X3359883Y-4503043D01*
X3360987Y-4501202D01*
X3362265Y-4499478D01*
X3363707Y-4497887D01*
X3365298Y-4496445D01*
X3367022Y-4495167D01*
X3368863Y-4494063D01*
X3370804Y-4493145D01*
X3372825Y-4492422D01*
X3374907Y-4491900D01*
X3377031Y-4491585D01*
X3379175Y-4491480D01*
X3422925Y-4491480D01*
X3425069Y-4491585D01*
G37*
G36*
X3582569Y-4491585D02*
G01*
X3584693Y-4491900D01*
X3586775Y-4492422D01*
X3588796Y-4493145D01*
X3590737Y-4494063D01*
X3592578Y-4495167D01*
X3594302Y-4496445D01*
X3595893Y-4497887D01*
X3597335Y-4499478D01*
X3598613Y-4501202D01*
X3599717Y-4503043D01*
X3600635Y-4504984D01*
X3601358Y-4507005D01*
X3601880Y-4509087D01*
X3602195Y-4511211D01*
X3602300Y-4513355D01*
X3602300Y-4564605D01*
X3602195Y-4566749D01*
X3601880Y-4568873D01*
X3601358Y-4570955D01*
X3600635Y-4572976D01*
X3599717Y-4574917D01*
X3598613Y-4576758D01*
X3597335Y-4578482D01*
X3595893Y-4580073D01*
X3594302Y-4581515D01*
X3592578Y-4582793D01*
X3590737Y-4583897D01*
X3588796Y-4584815D01*
X3586775Y-4585538D01*
X3584693Y-4586060D01*
X3582569Y-4586375D01*
X3580425Y-4586480D01*
X3536675Y-4586480D01*
X3534531Y-4586375D01*
X3532407Y-4586060D01*
X3530325Y-4585538D01*
X3528304Y-4584815D01*
X3526363Y-4583897D01*
X3524522Y-4582793D01*
X3522798Y-4581515D01*
X3521207Y-4580073D01*
X3519765Y-4578482D01*
X3518487Y-4576758D01*
X3517383Y-4574917D01*
X3516465Y-4572976D01*
X3515742Y-4570955D01*
X3515220Y-4568873D01*
X3514905Y-4566749D01*
X3514800Y-4564605D01*
X3514800Y-4513355D01*
X3514905Y-4511211D01*
X3515220Y-4509087D01*
X3515742Y-4507005D01*
X3516465Y-4504984D01*
X3517383Y-4503043D01*
X3518487Y-4501202D01*
X3519765Y-4499478D01*
X3521207Y-4497887D01*
X3522798Y-4496445D01*
X3524522Y-4495167D01*
X3526363Y-4494063D01*
X3528304Y-4493145D01*
X3530325Y-4492422D01*
X3532407Y-4491900D01*
X3534531Y-4491585D01*
X3536675Y-4491480D01*
X3580425Y-4491480D01*
X3582569Y-4491585D01*
G37*
G36*
X4545610Y-7070340D02*
G01*
X4548037Y-7070700D01*
X4550417Y-7071296D01*
X4552727Y-7072123D01*
X4554945Y-7073172D01*
X4557049Y-7074433D01*
X4559020Y-7075895D01*
X4560838Y-7077542D01*
X4562485Y-7079360D01*
X4563947Y-7081331D01*
X4565208Y-7083435D01*
X4566257Y-7085653D01*
X4567084Y-7087963D01*
X4567680Y-7090343D01*
X4568040Y-7092770D01*
X4568160Y-7095220D01*
X4568160Y-7220220D01*
X4568040Y-7222670D01*
X4567680Y-7225097D01*
X4567084Y-7227477D01*
X4566257Y-7229787D01*
X4565208Y-7232005D01*
X4563947Y-7234109D01*
X4562485Y-7236080D01*
X4560838Y-7237898D01*
X4559020Y-7239545D01*
X4557049Y-7241007D01*
X4554945Y-7242268D01*
X4552727Y-7243317D01*
X4550417Y-7244143D01*
X4548037Y-7244740D01*
X4545610Y-7245100D01*
X4543160Y-7245220D01*
X4468160Y-7245220D01*
X4465710Y-7245100D01*
X4463283Y-7244740D01*
X4460903Y-7244143D01*
X4458593Y-7243317D01*
X4456375Y-7242268D01*
X4454271Y-7241007D01*
X4452300Y-7239545D01*
X4450482Y-7237898D01*
X4448835Y-7236080D01*
X4447373Y-7234109D01*
X4446112Y-7232005D01*
X4445063Y-7229787D01*
X4444237Y-7227477D01*
X4443640Y-7225097D01*
X4443280Y-7222670D01*
X4443160Y-7220220D01*
X4443160Y-7095220D01*
X4443280Y-7092770D01*
X4443640Y-7090343D01*
X4444237Y-7087963D01*
X4445063Y-7085653D01*
X4446112Y-7083435D01*
X4447373Y-7081331D01*
X4448835Y-7079360D01*
X4450482Y-7077542D01*
X4452300Y-7075895D01*
X4454271Y-7074433D01*
X4456375Y-7073172D01*
X4458593Y-7072123D01*
X4460903Y-7071296D01*
X4463283Y-7070700D01*
X4465710Y-7070340D01*
X4468160Y-7070220D01*
X4543160Y-7070220D01*
X4545610Y-7070340D01*
G37*
G36*
X4825610Y-7070340D02*
G01*
X4828037Y-7070700D01*
X4830417Y-7071296D01*
X4832727Y-7072123D01*
X4834945Y-7073172D01*
X4837049Y-7074433D01*
X4839020Y-7075895D01*
X4840838Y-7077542D01*
X4842485Y-7079360D01*
X4843947Y-7081331D01*
X4845208Y-7083435D01*
X4846257Y-7085653D01*
X4847084Y-7087963D01*
X4847680Y-7090343D01*
X4848040Y-7092770D01*
X4848160Y-7095220D01*
X4848160Y-7220220D01*
X4848040Y-7222670D01*
X4847680Y-7225097D01*
X4847084Y-7227477D01*
X4846257Y-7229787D01*
X4845208Y-7232005D01*
X4843947Y-7234109D01*
X4842485Y-7236080D01*
X4840838Y-7237898D01*
X4839020Y-7239545D01*
X4837049Y-7241007D01*
X4834945Y-7242268D01*
X4832727Y-7243317D01*
X4830417Y-7244143D01*
X4828037Y-7244740D01*
X4825610Y-7245100D01*
X4823160Y-7245220D01*
X4748160Y-7245220D01*
X4745710Y-7245100D01*
X4743283Y-7244740D01*
X4740903Y-7244143D01*
X4738593Y-7243317D01*
X4736375Y-7242268D01*
X4734271Y-7241007D01*
X4732300Y-7239545D01*
X4730482Y-7237898D01*
X4728835Y-7236080D01*
X4727373Y-7234109D01*
X4726112Y-7232005D01*
X4725063Y-7229787D01*
X4724237Y-7227477D01*
X4723640Y-7225097D01*
X4723280Y-7222670D01*
X4723160Y-7220220D01*
X4723160Y-7095220D01*
X4723280Y-7092770D01*
X4723640Y-7090343D01*
X4724237Y-7087963D01*
X4725063Y-7085653D01*
X4726112Y-7083435D01*
X4727373Y-7081331D01*
X4728835Y-7079360D01*
X4730482Y-7077542D01*
X4732300Y-7075895D01*
X4734271Y-7074433D01*
X4736375Y-7073172D01*
X4738593Y-7072123D01*
X4740903Y-7071296D01*
X4743283Y-7070700D01*
X4745710Y-7070340D01*
X4748160Y-7070220D01*
X4823160Y-7070220D01*
X4825610Y-7070340D01*
G37*
G36*
X6730610Y-7070340D02*
G01*
X6733037Y-7070700D01*
X6735417Y-7071296D01*
X6737727Y-7072123D01*
X6739945Y-7073172D01*
X6742049Y-7074433D01*
X6744020Y-7075895D01*
X6745838Y-7077542D01*
X6747485Y-7079360D01*
X6748947Y-7081331D01*
X6750208Y-7083435D01*
X6751257Y-7085653D01*
X6752083Y-7087963D01*
X6752680Y-7090343D01*
X6753040Y-7092770D01*
X6753160Y-7095220D01*
X6753160Y-7220220D01*
X6753040Y-7222670D01*
X6752680Y-7225097D01*
X6752083Y-7227477D01*
X6751257Y-7229787D01*
X6750208Y-7232005D01*
X6748947Y-7234109D01*
X6747485Y-7236080D01*
X6745838Y-7237898D01*
X6744020Y-7239545D01*
X6742049Y-7241007D01*
X6739945Y-7242268D01*
X6737727Y-7243317D01*
X6735417Y-7244143D01*
X6733037Y-7244740D01*
X6730610Y-7245100D01*
X6728160Y-7245220D01*
X6653160Y-7245220D01*
X6650710Y-7245100D01*
X6648283Y-7244740D01*
X6645903Y-7244143D01*
X6643593Y-7243317D01*
X6641375Y-7242268D01*
X6639271Y-7241007D01*
X6637300Y-7239545D01*
X6635482Y-7237898D01*
X6633835Y-7236080D01*
X6632373Y-7234109D01*
X6631112Y-7232005D01*
X6630063Y-7229787D01*
X6629236Y-7227477D01*
X6628640Y-7225097D01*
X6628280Y-7222670D01*
X6628160Y-7220220D01*
X6628160Y-7095220D01*
X6628280Y-7092770D01*
X6628640Y-7090343D01*
X6629236Y-7087963D01*
X6630063Y-7085653D01*
X6631112Y-7083435D01*
X6632373Y-7081331D01*
X6633835Y-7079360D01*
X6635482Y-7077542D01*
X6637300Y-7075895D01*
X6639271Y-7074433D01*
X6641375Y-7073172D01*
X6643593Y-7072123D01*
X6645903Y-7071296D01*
X6648283Y-7070700D01*
X6650710Y-7070340D01*
X6653160Y-7070220D01*
X6728160Y-7070220D01*
X6730610Y-7070340D01*
G37*
G36*
X6450610Y-7070340D02*
G01*
X6453037Y-7070700D01*
X6455417Y-7071296D01*
X6457727Y-7072123D01*
X6459945Y-7073172D01*
X6462049Y-7074433D01*
X6464020Y-7075895D01*
X6465838Y-7077542D01*
X6467485Y-7079360D01*
X6468947Y-7081331D01*
X6470208Y-7083435D01*
X6471257Y-7085653D01*
X6472083Y-7087963D01*
X6472680Y-7090343D01*
X6473040Y-7092770D01*
X6473160Y-7095220D01*
X6473160Y-7220220D01*
X6473040Y-7222670D01*
X6472680Y-7225097D01*
X6472083Y-7227477D01*
X6471257Y-7229787D01*
X6470208Y-7232005D01*
X6468947Y-7234109D01*
X6467485Y-7236080D01*
X6465838Y-7237898D01*
X6464020Y-7239545D01*
X6462049Y-7241007D01*
X6459945Y-7242268D01*
X6457727Y-7243317D01*
X6455417Y-7244143D01*
X6453037Y-7244740D01*
X6450610Y-7245100D01*
X6448160Y-7245220D01*
X6373160Y-7245220D01*
X6370710Y-7245100D01*
X6368283Y-7244740D01*
X6365903Y-7244143D01*
X6363593Y-7243317D01*
X6361375Y-7242268D01*
X6359271Y-7241007D01*
X6357300Y-7239545D01*
X6355482Y-7237898D01*
X6353835Y-7236080D01*
X6352373Y-7234109D01*
X6351112Y-7232005D01*
X6350063Y-7229787D01*
X6349236Y-7227477D01*
X6348640Y-7225097D01*
X6348280Y-7222670D01*
X6348160Y-7220220D01*
X6348160Y-7095220D01*
X6348280Y-7092770D01*
X6348640Y-7090343D01*
X6349236Y-7087963D01*
X6350063Y-7085653D01*
X6351112Y-7083435D01*
X6352373Y-7081331D01*
X6353835Y-7079360D01*
X6355482Y-7077542D01*
X6357300Y-7075895D01*
X6359271Y-7074433D01*
X6361375Y-7073172D01*
X6363593Y-7072123D01*
X6365903Y-7071296D01*
X6368283Y-7070700D01*
X6370710Y-7070340D01*
X6373160Y-7070220D01*
X6448160Y-7070220D01*
X6450610Y-7070340D01*
G37*
G36*
X8635610Y-7070340D02*
G01*
X8638037Y-7070700D01*
X8640417Y-7071296D01*
X8642727Y-7072123D01*
X8644945Y-7073172D01*
X8647049Y-7074433D01*
X8649020Y-7075895D01*
X8650838Y-7077542D01*
X8652485Y-7079360D01*
X8653947Y-7081331D01*
X8655208Y-7083435D01*
X8656257Y-7085653D01*
X8657084Y-7087963D01*
X8657680Y-7090343D01*
X8658040Y-7092770D01*
X8658160Y-7095220D01*
X8658160Y-7220220D01*
X8658040Y-7222670D01*
X8657680Y-7225097D01*
X8657084Y-7227477D01*
X8656257Y-7229787D01*
X8655208Y-7232005D01*
X8653947Y-7234109D01*
X8652485Y-7236080D01*
X8650838Y-7237898D01*
X8649020Y-7239545D01*
X8647049Y-7241007D01*
X8644945Y-7242268D01*
X8642727Y-7243317D01*
X8640417Y-7244143D01*
X8638037Y-7244740D01*
X8635610Y-7245100D01*
X8633160Y-7245220D01*
X8558160Y-7245220D01*
X8555710Y-7245100D01*
X8553283Y-7244740D01*
X8550903Y-7244143D01*
X8548593Y-7243317D01*
X8546375Y-7242268D01*
X8544271Y-7241007D01*
X8542300Y-7239545D01*
X8540482Y-7237898D01*
X8538835Y-7236080D01*
X8537373Y-7234109D01*
X8536112Y-7232005D01*
X8535063Y-7229787D01*
X8534237Y-7227477D01*
X8533640Y-7225097D01*
X8533280Y-7222670D01*
X8533160Y-7220220D01*
X8533160Y-7095220D01*
X8533280Y-7092770D01*
X8533640Y-7090343D01*
X8534237Y-7087963D01*
X8535063Y-7085653D01*
X8536112Y-7083435D01*
X8537373Y-7081331D01*
X8538835Y-7079360D01*
X8540482Y-7077542D01*
X8542300Y-7075895D01*
X8544271Y-7074433D01*
X8546375Y-7073172D01*
X8548593Y-7072123D01*
X8550903Y-7071296D01*
X8553283Y-7070700D01*
X8555710Y-7070340D01*
X8558160Y-7070220D01*
X8633160Y-7070220D01*
X8635610Y-7070340D01*
G37*
G36*
X8355610Y-7070340D02*
G01*
X8358037Y-7070700D01*
X8360417Y-7071296D01*
X8362727Y-7072123D01*
X8364945Y-7073172D01*
X8367049Y-7074433D01*
X8369020Y-7075895D01*
X8370838Y-7077542D01*
X8372485Y-7079360D01*
X8373947Y-7081331D01*
X8375208Y-7083435D01*
X8376257Y-7085653D01*
X8377083Y-7087963D01*
X8377680Y-7090343D01*
X8378040Y-7092770D01*
X8378160Y-7095220D01*
X8378160Y-7220220D01*
X8378040Y-7222670D01*
X8377680Y-7225097D01*
X8377083Y-7227477D01*
X8376257Y-7229787D01*
X8375208Y-7232005D01*
X8373947Y-7234109D01*
X8372485Y-7236080D01*
X8370838Y-7237898D01*
X8369020Y-7239545D01*
X8367049Y-7241007D01*
X8364945Y-7242268D01*
X8362727Y-7243317D01*
X8360417Y-7244143D01*
X8358037Y-7244740D01*
X8355610Y-7245100D01*
X8353160Y-7245220D01*
X8278160Y-7245220D01*
X8275710Y-7245100D01*
X8273283Y-7244740D01*
X8270903Y-7244143D01*
X8268593Y-7243317D01*
X8266375Y-7242268D01*
X8264271Y-7241007D01*
X8262300Y-7239545D01*
X8260482Y-7237898D01*
X8258835Y-7236080D01*
X8257373Y-7234109D01*
X8256112Y-7232005D01*
X8255063Y-7229787D01*
X8254236Y-7227477D01*
X8253640Y-7225097D01*
X8253280Y-7222670D01*
X8253160Y-7220220D01*
X8253160Y-7095220D01*
X8253280Y-7092770D01*
X8253640Y-7090343D01*
X8254236Y-7087963D01*
X8255063Y-7085653D01*
X8256112Y-7083435D01*
X8257373Y-7081331D01*
X8258835Y-7079360D01*
X8260482Y-7077542D01*
X8262300Y-7075895D01*
X8264271Y-7074433D01*
X8266375Y-7073172D01*
X8268593Y-7072123D01*
X8270903Y-7071296D01*
X8273283Y-7070700D01*
X8275710Y-7070340D01*
X8278160Y-7070220D01*
X8353160Y-7070220D01*
X8355610Y-7070340D01*
G37*
G36*
X10540610Y-7070340D02*
G01*
X10543037Y-7070700D01*
X10545417Y-7071296D01*
X10547727Y-7072123D01*
X10549945Y-7073172D01*
X10552049Y-7074433D01*
X10554020Y-7075895D01*
X10555838Y-7077542D01*
X10557485Y-7079360D01*
X10558947Y-7081331D01*
X10560208Y-7083435D01*
X10561257Y-7085653D01*
X10562084Y-7087963D01*
X10562680Y-7090343D01*
X10563040Y-7092770D01*
X10563160Y-7095220D01*
X10563160Y-7220220D01*
X10563040Y-7222670D01*
X10562680Y-7225097D01*
X10562084Y-7227477D01*
X10561257Y-7229787D01*
X10560208Y-7232005D01*
X10558947Y-7234109D01*
X10557485Y-7236080D01*
X10555838Y-7237898D01*
X10554020Y-7239545D01*
X10552049Y-7241007D01*
X10549945Y-7242268D01*
X10547727Y-7243317D01*
X10545417Y-7244143D01*
X10543037Y-7244740D01*
X10540610Y-7245100D01*
X10538160Y-7245220D01*
X10463160Y-7245220D01*
X10460710Y-7245100D01*
X10458283Y-7244740D01*
X10455903Y-7244143D01*
X10453593Y-7243317D01*
X10451375Y-7242268D01*
X10449271Y-7241007D01*
X10447300Y-7239545D01*
X10445482Y-7237898D01*
X10443835Y-7236080D01*
X10442373Y-7234109D01*
X10441112Y-7232005D01*
X10440063Y-7229787D01*
X10439237Y-7227477D01*
X10438640Y-7225097D01*
X10438280Y-7222670D01*
X10438160Y-7220220D01*
X10438160Y-7095220D01*
X10438280Y-7092770D01*
X10438640Y-7090343D01*
X10439237Y-7087963D01*
X10440063Y-7085653D01*
X10441112Y-7083435D01*
X10442373Y-7081331D01*
X10443835Y-7079360D01*
X10445482Y-7077542D01*
X10447300Y-7075895D01*
X10449271Y-7074433D01*
X10451375Y-7073172D01*
X10453593Y-7072123D01*
X10455903Y-7071296D01*
X10458283Y-7070700D01*
X10460710Y-7070340D01*
X10463160Y-7070220D01*
X10538160Y-7070220D01*
X10540610Y-7070340D01*
G37*
G36*
X10260610Y-7070340D02*
G01*
X10263037Y-7070700D01*
X10265417Y-7071296D01*
X10267727Y-7072123D01*
X10269945Y-7073172D01*
X10272049Y-7074433D01*
X10274020Y-7075895D01*
X10275838Y-7077542D01*
X10277485Y-7079360D01*
X10278947Y-7081331D01*
X10280208Y-7083435D01*
X10281257Y-7085653D01*
X10282084Y-7087963D01*
X10282680Y-7090343D01*
X10283040Y-7092770D01*
X10283160Y-7095220D01*
X10283160Y-7220220D01*
X10283040Y-7222670D01*
X10282680Y-7225097D01*
X10282084Y-7227477D01*
X10281257Y-7229787D01*
X10280208Y-7232005D01*
X10278947Y-7234109D01*
X10277485Y-7236080D01*
X10275838Y-7237898D01*
X10274020Y-7239545D01*
X10272049Y-7241007D01*
X10269945Y-7242268D01*
X10267727Y-7243317D01*
X10265417Y-7244143D01*
X10263037Y-7244740D01*
X10260610Y-7245100D01*
X10258160Y-7245220D01*
X10183160Y-7245220D01*
X10180710Y-7245100D01*
X10178283Y-7244740D01*
X10175903Y-7244143D01*
X10173593Y-7243317D01*
X10171375Y-7242268D01*
X10169271Y-7241007D01*
X10167300Y-7239545D01*
X10165482Y-7237898D01*
X10163835Y-7236080D01*
X10162373Y-7234109D01*
X10161112Y-7232005D01*
X10160063Y-7229787D01*
X10159237Y-7227477D01*
X10158640Y-7225097D01*
X10158280Y-7222670D01*
X10158160Y-7220220D01*
X10158160Y-7095220D01*
X10158280Y-7092770D01*
X10158640Y-7090343D01*
X10159237Y-7087963D01*
X10160063Y-7085653D01*
X10161112Y-7083435D01*
X10162373Y-7081331D01*
X10163835Y-7079360D01*
X10165482Y-7077542D01*
X10167300Y-7075895D01*
X10169271Y-7074433D01*
X10171375Y-7073172D01*
X10173593Y-7072123D01*
X10175903Y-7071296D01*
X10178283Y-7070700D01*
X10180710Y-7070340D01*
X10183160Y-7070220D01*
X10258160Y-7070220D01*
X10260610Y-7070340D01*
G37*
G36*
X12445610Y-7070340D02*
G01*
X12448037Y-7070700D01*
X12450417Y-7071296D01*
X12452727Y-7072123D01*
X12454945Y-7073172D01*
X12457049Y-7074433D01*
X12459020Y-7075895D01*
X12460838Y-7077542D01*
X12462485Y-7079360D01*
X12463947Y-7081331D01*
X12465208Y-7083435D01*
X12466257Y-7085653D01*
X12467083Y-7087963D01*
X12467680Y-7090343D01*
X12468040Y-7092770D01*
X12468160Y-7095220D01*
X12468160Y-7220220D01*
X12468040Y-7222670D01*
X12467680Y-7225097D01*
X12467083Y-7227477D01*
X12466257Y-7229787D01*
X12465208Y-7232005D01*
X12463947Y-7234109D01*
X12462485Y-7236080D01*
X12460838Y-7237898D01*
X12459020Y-7239545D01*
X12457049Y-7241007D01*
X12454945Y-7242268D01*
X12452727Y-7243317D01*
X12450417Y-7244143D01*
X12448037Y-7244740D01*
X12445610Y-7245100D01*
X12443160Y-7245220D01*
X12368160Y-7245220D01*
X12365710Y-7245100D01*
X12363283Y-7244740D01*
X12360903Y-7244143D01*
X12358593Y-7243317D01*
X12356375Y-7242268D01*
X12354271Y-7241007D01*
X12352300Y-7239545D01*
X12350482Y-7237898D01*
X12348835Y-7236080D01*
X12347373Y-7234109D01*
X12346112Y-7232005D01*
X12345063Y-7229787D01*
X12344236Y-7227477D01*
X12343640Y-7225097D01*
X12343280Y-7222670D01*
X12343160Y-7220220D01*
X12343160Y-7095220D01*
X12343280Y-7092770D01*
X12343640Y-7090343D01*
X12344236Y-7087963D01*
X12345063Y-7085653D01*
X12346112Y-7083435D01*
X12347373Y-7081331D01*
X12348835Y-7079360D01*
X12350482Y-7077542D01*
X12352300Y-7075895D01*
X12354271Y-7074433D01*
X12356375Y-7073172D01*
X12358593Y-7072123D01*
X12360903Y-7071296D01*
X12363283Y-7070700D01*
X12365710Y-7070340D01*
X12368160Y-7070220D01*
X12443160Y-7070220D01*
X12445610Y-7070340D01*
G37*
G36*
X12165610Y-7070340D02*
G01*
X12168037Y-7070700D01*
X12170417Y-7071296D01*
X12172727Y-7072123D01*
X12174945Y-7073172D01*
X12177049Y-7074433D01*
X12179020Y-7075895D01*
X12180838Y-7077542D01*
X12182485Y-7079360D01*
X12183947Y-7081331D01*
X12185208Y-7083435D01*
X12186257Y-7085653D01*
X12187083Y-7087963D01*
X12187680Y-7090343D01*
X12188040Y-7092770D01*
X12188160Y-7095220D01*
X12188160Y-7220220D01*
X12188040Y-7222670D01*
X12187680Y-7225097D01*
X12187083Y-7227477D01*
X12186257Y-7229787D01*
X12185208Y-7232005D01*
X12183947Y-7234109D01*
X12182485Y-7236080D01*
X12180838Y-7237898D01*
X12179020Y-7239545D01*
X12177049Y-7241007D01*
X12174945Y-7242268D01*
X12172727Y-7243317D01*
X12170417Y-7244143D01*
X12168037Y-7244740D01*
X12165610Y-7245100D01*
X12163160Y-7245220D01*
X12088160Y-7245220D01*
X12085710Y-7245100D01*
X12083283Y-7244740D01*
X12080903Y-7244143D01*
X12078593Y-7243317D01*
X12076375Y-7242268D01*
X12074271Y-7241007D01*
X12072300Y-7239545D01*
X12070482Y-7237898D01*
X12068835Y-7236080D01*
X12067373Y-7234109D01*
X12066112Y-7232005D01*
X12065063Y-7229787D01*
X12064236Y-7227477D01*
X12063640Y-7225097D01*
X12063280Y-7222670D01*
X12063160Y-7220220D01*
X12063160Y-7095220D01*
X12063280Y-7092770D01*
X12063640Y-7090343D01*
X12064236Y-7087963D01*
X12065063Y-7085653D01*
X12066112Y-7083435D01*
X12067373Y-7081331D01*
X12068835Y-7079360D01*
X12070482Y-7077542D01*
X12072300Y-7075895D01*
X12074271Y-7074433D01*
X12076375Y-7073172D01*
X12078593Y-7072123D01*
X12080903Y-7071296D01*
X12083283Y-7070700D01*
X12085710Y-7070340D01*
X12088160Y-7070220D01*
X12163160Y-7070220D01*
X12165610Y-7070340D01*
G37*
G36*
X14350610Y-7070340D02*
G01*
X14353037Y-7070700D01*
X14355417Y-7071296D01*
X14357727Y-7072123D01*
X14359945Y-7073172D01*
X14362049Y-7074433D01*
X14364020Y-7075895D01*
X14365838Y-7077542D01*
X14367485Y-7079360D01*
X14368947Y-7081331D01*
X14370208Y-7083435D01*
X14371257Y-7085653D01*
X14372083Y-7087963D01*
X14372680Y-7090343D01*
X14373040Y-7092770D01*
X14373160Y-7095220D01*
X14373160Y-7220220D01*
X14373040Y-7222670D01*
X14372680Y-7225097D01*
X14372083Y-7227477D01*
X14371257Y-7229787D01*
X14370208Y-7232005D01*
X14368947Y-7234109D01*
X14367485Y-7236080D01*
X14365838Y-7237898D01*
X14364020Y-7239545D01*
X14362049Y-7241007D01*
X14359945Y-7242268D01*
X14357727Y-7243317D01*
X14355417Y-7244143D01*
X14353037Y-7244740D01*
X14350610Y-7245100D01*
X14348160Y-7245220D01*
X14273160Y-7245220D01*
X14270710Y-7245100D01*
X14268283Y-7244740D01*
X14265903Y-7244143D01*
X14263593Y-7243317D01*
X14261375Y-7242268D01*
X14259271Y-7241007D01*
X14257300Y-7239545D01*
X14255482Y-7237898D01*
X14253835Y-7236080D01*
X14252373Y-7234109D01*
X14251112Y-7232005D01*
X14250063Y-7229787D01*
X14249236Y-7227477D01*
X14248640Y-7225097D01*
X14248280Y-7222670D01*
X14248160Y-7220220D01*
X14248160Y-7095220D01*
X14248280Y-7092770D01*
X14248640Y-7090343D01*
X14249236Y-7087963D01*
X14250063Y-7085653D01*
X14251112Y-7083435D01*
X14252373Y-7081331D01*
X14253835Y-7079360D01*
X14255482Y-7077542D01*
X14257300Y-7075895D01*
X14259271Y-7074433D01*
X14261375Y-7073172D01*
X14263593Y-7072123D01*
X14265903Y-7071296D01*
X14268283Y-7070700D01*
X14270710Y-7070340D01*
X14273160Y-7070220D01*
X14348160Y-7070220D01*
X14350610Y-7070340D01*
G37*
G36*
X14070610Y-7070340D02*
G01*
X14073037Y-7070700D01*
X14075417Y-7071296D01*
X14077727Y-7072123D01*
X14079945Y-7073172D01*
X14082049Y-7074433D01*
X14084020Y-7075895D01*
X14085838Y-7077542D01*
X14087485Y-7079360D01*
X14088947Y-7081331D01*
X14090208Y-7083435D01*
X14091257Y-7085653D01*
X14092083Y-7087963D01*
X14092680Y-7090343D01*
X14093040Y-7092770D01*
X14093160Y-7095220D01*
X14093160Y-7220220D01*
X14093040Y-7222670D01*
X14092680Y-7225097D01*
X14092083Y-7227477D01*
X14091257Y-7229787D01*
X14090208Y-7232005D01*
X14088947Y-7234109D01*
X14087485Y-7236080D01*
X14085838Y-7237898D01*
X14084020Y-7239545D01*
X14082049Y-7241007D01*
X14079945Y-7242268D01*
X14077727Y-7243317D01*
X14075417Y-7244143D01*
X14073037Y-7244740D01*
X14070610Y-7245100D01*
X14068160Y-7245220D01*
X13993160Y-7245220D01*
X13990710Y-7245100D01*
X13988283Y-7244740D01*
X13985903Y-7244143D01*
X13983593Y-7243317D01*
X13981375Y-7242268D01*
X13979271Y-7241007D01*
X13977300Y-7239545D01*
X13975482Y-7237898D01*
X13973835Y-7236080D01*
X13972373Y-7234109D01*
X13971112Y-7232005D01*
X13970063Y-7229787D01*
X13969236Y-7227477D01*
X13968640Y-7225097D01*
X13968280Y-7222670D01*
X13968160Y-7220220D01*
X13968160Y-7095220D01*
X13968280Y-7092770D01*
X13968640Y-7090343D01*
X13969236Y-7087963D01*
X13970063Y-7085653D01*
X13971112Y-7083435D01*
X13972373Y-7081331D01*
X13973835Y-7079360D01*
X13975482Y-7077542D01*
X13977300Y-7075895D01*
X13979271Y-7074433D01*
X13981375Y-7073172D01*
X13983593Y-7072123D01*
X13985903Y-7071296D01*
X13988283Y-7070700D01*
X13990710Y-7070340D01*
X13993160Y-7070220D01*
X14068160Y-7070220D01*
X14070610Y-7070340D01*
G37*
G36*
X15975610Y-7070340D02*
G01*
X15978037Y-7070700D01*
X15980417Y-7071296D01*
X15982727Y-7072123D01*
X15984945Y-7073172D01*
X15987049Y-7074433D01*
X15989020Y-7075895D01*
X15990838Y-7077542D01*
X15992485Y-7079360D01*
X15993947Y-7081331D01*
X15995208Y-7083435D01*
X15996257Y-7085653D01*
X15997083Y-7087963D01*
X15997680Y-7090343D01*
X15998040Y-7092770D01*
X15998160Y-7095220D01*
X15998160Y-7220220D01*
X15998040Y-7222670D01*
X15997680Y-7225097D01*
X15997083Y-7227477D01*
X15996257Y-7229787D01*
X15995208Y-7232005D01*
X15993947Y-7234109D01*
X15992485Y-7236080D01*
X15990838Y-7237898D01*
X15989020Y-7239545D01*
X15987049Y-7241007D01*
X15984945Y-7242268D01*
X15982727Y-7243317D01*
X15980417Y-7244143D01*
X15978037Y-7244740D01*
X15975610Y-7245100D01*
X15973160Y-7245220D01*
X15898160Y-7245220D01*
X15895710Y-7245100D01*
X15893283Y-7244740D01*
X15890903Y-7244143D01*
X15888593Y-7243317D01*
X15886375Y-7242268D01*
X15884271Y-7241007D01*
X15882300Y-7239545D01*
X15880482Y-7237898D01*
X15878835Y-7236080D01*
X15877373Y-7234109D01*
X15876112Y-7232005D01*
X15875063Y-7229787D01*
X15874236Y-7227477D01*
X15873640Y-7225097D01*
X15873280Y-7222670D01*
X15873160Y-7220220D01*
X15873160Y-7095220D01*
X15873280Y-7092770D01*
X15873640Y-7090343D01*
X15874236Y-7087963D01*
X15875063Y-7085653D01*
X15876112Y-7083435D01*
X15877373Y-7081331D01*
X15878835Y-7079360D01*
X15880482Y-7077542D01*
X15882300Y-7075895D01*
X15884271Y-7074433D01*
X15886375Y-7073172D01*
X15888593Y-7072123D01*
X15890903Y-7071296D01*
X15893283Y-7070700D01*
X15895710Y-7070340D01*
X15898160Y-7070220D01*
X15973160Y-7070220D01*
X15975610Y-7070340D01*
G37*
G36*
X16255610Y-7070340D02*
G01*
X16258037Y-7070700D01*
X16260417Y-7071296D01*
X16262727Y-7072123D01*
X16264945Y-7073172D01*
X16267049Y-7074433D01*
X16269020Y-7075895D01*
X16270838Y-7077542D01*
X16272485Y-7079360D01*
X16273947Y-7081331D01*
X16275208Y-7083435D01*
X16276257Y-7085653D01*
X16277083Y-7087963D01*
X16277680Y-7090343D01*
X16278040Y-7092770D01*
X16278160Y-7095220D01*
X16278160Y-7220220D01*
X16278040Y-7222670D01*
X16277680Y-7225097D01*
X16277083Y-7227477D01*
X16276257Y-7229787D01*
X16275208Y-7232005D01*
X16273947Y-7234109D01*
X16272485Y-7236080D01*
X16270838Y-7237898D01*
X16269020Y-7239545D01*
X16267049Y-7241007D01*
X16264945Y-7242268D01*
X16262727Y-7243317D01*
X16260417Y-7244143D01*
X16258037Y-7244740D01*
X16255610Y-7245100D01*
X16253160Y-7245220D01*
X16178160Y-7245220D01*
X16175710Y-7245100D01*
X16173283Y-7244740D01*
X16170903Y-7244143D01*
X16168593Y-7243317D01*
X16166375Y-7242268D01*
X16164271Y-7241007D01*
X16162300Y-7239545D01*
X16160482Y-7237898D01*
X16158835Y-7236080D01*
X16157373Y-7234109D01*
X16156112Y-7232005D01*
X16155063Y-7229787D01*
X16154236Y-7227477D01*
X16153640Y-7225097D01*
X16153280Y-7222670D01*
X16153160Y-7220220D01*
X16153160Y-7095220D01*
X16153280Y-7092770D01*
X16153640Y-7090343D01*
X16154236Y-7087963D01*
X16155063Y-7085653D01*
X16156112Y-7083435D01*
X16157373Y-7081331D01*
X16158835Y-7079360D01*
X16160482Y-7077542D01*
X16162300Y-7075895D01*
X16164271Y-7074433D01*
X16166375Y-7073172D01*
X16168593Y-7072123D01*
X16170903Y-7071296D01*
X16173283Y-7070700D01*
X16175710Y-7070340D01*
X16178160Y-7070220D01*
X16253160Y-7070220D01*
X16255610Y-7070340D01*
G37*
G36*
X17880610Y-7070340D02*
G01*
X17883037Y-7070700D01*
X17885417Y-7071296D01*
X17887727Y-7072123D01*
X17889945Y-7073172D01*
X17892049Y-7074433D01*
X17894020Y-7075895D01*
X17895838Y-7077542D01*
X17897485Y-7079360D01*
X17898947Y-7081331D01*
X17900208Y-7083435D01*
X17901257Y-7085653D01*
X17902084Y-7087963D01*
X17902680Y-7090343D01*
X17903040Y-7092770D01*
X17903160Y-7095220D01*
X17903160Y-7220220D01*
X17903040Y-7222670D01*
X17902680Y-7225097D01*
X17902084Y-7227477D01*
X17901257Y-7229787D01*
X17900208Y-7232005D01*
X17898947Y-7234109D01*
X17897485Y-7236080D01*
X17895838Y-7237898D01*
X17894020Y-7239545D01*
X17892049Y-7241007D01*
X17889945Y-7242268D01*
X17887727Y-7243317D01*
X17885417Y-7244143D01*
X17883037Y-7244740D01*
X17880610Y-7245100D01*
X17878160Y-7245220D01*
X17803160Y-7245220D01*
X17800710Y-7245100D01*
X17798283Y-7244740D01*
X17795903Y-7244143D01*
X17793593Y-7243317D01*
X17791375Y-7242268D01*
X17789271Y-7241007D01*
X17787300Y-7239545D01*
X17785482Y-7237898D01*
X17783835Y-7236080D01*
X17782373Y-7234109D01*
X17781112Y-7232005D01*
X17780063Y-7229787D01*
X17779237Y-7227477D01*
X17778640Y-7225097D01*
X17778280Y-7222670D01*
X17778160Y-7220220D01*
X17778160Y-7095220D01*
X17778280Y-7092770D01*
X17778640Y-7090343D01*
X17779237Y-7087963D01*
X17780063Y-7085653D01*
X17781112Y-7083435D01*
X17782373Y-7081331D01*
X17783835Y-7079360D01*
X17785482Y-7077542D01*
X17787300Y-7075895D01*
X17789271Y-7074433D01*
X17791375Y-7073172D01*
X17793593Y-7072123D01*
X17795903Y-7071296D01*
X17798283Y-7070700D01*
X17800710Y-7070340D01*
X17803160Y-7070220D01*
X17878160Y-7070220D01*
X17880610Y-7070340D01*
G37*
G36*
X18160610Y-7070340D02*
G01*
X18163037Y-7070700D01*
X18165417Y-7071296D01*
X18167727Y-7072123D01*
X18169945Y-7073172D01*
X18172049Y-7074433D01*
X18174020Y-7075895D01*
X18175838Y-7077542D01*
X18177485Y-7079360D01*
X18178947Y-7081331D01*
X18180208Y-7083435D01*
X18181257Y-7085653D01*
X18182084Y-7087963D01*
X18182680Y-7090343D01*
X18183040Y-7092770D01*
X18183160Y-7095220D01*
X18183160Y-7220220D01*
X18183040Y-7222670D01*
X18182680Y-7225097D01*
X18182084Y-7227477D01*
X18181257Y-7229787D01*
X18180208Y-7232005D01*
X18178947Y-7234109D01*
X18177485Y-7236080D01*
X18175838Y-7237898D01*
X18174020Y-7239545D01*
X18172049Y-7241007D01*
X18169945Y-7242268D01*
X18167727Y-7243317D01*
X18165417Y-7244143D01*
X18163037Y-7244740D01*
X18160610Y-7245100D01*
X18158160Y-7245220D01*
X18083160Y-7245220D01*
X18080710Y-7245100D01*
X18078283Y-7244740D01*
X18075903Y-7244143D01*
X18073593Y-7243317D01*
X18071375Y-7242268D01*
X18069271Y-7241007D01*
X18067300Y-7239545D01*
X18065482Y-7237898D01*
X18063835Y-7236080D01*
X18062373Y-7234109D01*
X18061112Y-7232005D01*
X18060063Y-7229787D01*
X18059237Y-7227477D01*
X18058640Y-7225097D01*
X18058280Y-7222670D01*
X18058160Y-7220220D01*
X18058160Y-7095220D01*
X18058280Y-7092770D01*
X18058640Y-7090343D01*
X18059237Y-7087963D01*
X18060063Y-7085653D01*
X18061112Y-7083435D01*
X18062373Y-7081331D01*
X18063835Y-7079360D01*
X18065482Y-7077542D01*
X18067300Y-7075895D01*
X18069271Y-7074433D01*
X18071375Y-7073172D01*
X18073593Y-7072123D01*
X18075903Y-7071296D01*
X18078283Y-7070700D01*
X18080710Y-7070340D01*
X18083160Y-7070220D01*
X18158160Y-7070220D01*
X18160610Y-7070340D01*
G37*
G36*
X4545610Y-8975340D02*
G01*
X4548037Y-8975700D01*
X4550417Y-8976297D01*
X4552727Y-8977123D01*
X4554945Y-8978172D01*
X4557049Y-8979433D01*
X4559020Y-8980895D01*
X4560838Y-8982542D01*
X4562485Y-8984360D01*
X4563947Y-8986331D01*
X4565208Y-8988435D01*
X4566257Y-8990653D01*
X4567084Y-8992963D01*
X4567680Y-8995343D01*
X4568040Y-8997770D01*
X4568160Y-9000220D01*
X4568160Y-9125220D01*
X4568040Y-9127670D01*
X4567680Y-9130097D01*
X4567084Y-9132477D01*
X4566257Y-9134787D01*
X4565208Y-9137005D01*
X4563947Y-9139109D01*
X4562485Y-9141080D01*
X4560838Y-9142898D01*
X4559020Y-9144545D01*
X4557049Y-9146007D01*
X4554945Y-9147268D01*
X4552727Y-9148317D01*
X4550417Y-9149144D01*
X4548037Y-9149740D01*
X4545610Y-9150100D01*
X4543160Y-9150220D01*
X4468160Y-9150220D01*
X4465710Y-9150100D01*
X4463283Y-9149740D01*
X4460903Y-9149144D01*
X4458593Y-9148317D01*
X4456375Y-9147268D01*
X4454271Y-9146007D01*
X4452300Y-9144545D01*
X4450482Y-9142898D01*
X4448835Y-9141080D01*
X4447373Y-9139109D01*
X4446112Y-9137005D01*
X4445063Y-9134787D01*
X4444237Y-9132477D01*
X4443640Y-9130097D01*
X4443280Y-9127670D01*
X4443160Y-9125220D01*
X4443160Y-9000220D01*
X4443280Y-8997770D01*
X4443640Y-8995343D01*
X4444237Y-8992963D01*
X4445063Y-8990653D01*
X4446112Y-8988435D01*
X4447373Y-8986331D01*
X4448835Y-8984360D01*
X4450482Y-8982542D01*
X4452300Y-8980895D01*
X4454271Y-8979433D01*
X4456375Y-8978172D01*
X4458593Y-8977123D01*
X4460903Y-8976297D01*
X4463283Y-8975700D01*
X4465710Y-8975340D01*
X4468160Y-8975220D01*
X4543160Y-8975220D01*
X4545610Y-8975340D01*
G37*
G36*
X4825610Y-8975340D02*
G01*
X4828037Y-8975700D01*
X4830417Y-8976297D01*
X4832727Y-8977123D01*
X4834945Y-8978172D01*
X4837049Y-8979433D01*
X4839020Y-8980895D01*
X4840838Y-8982542D01*
X4842485Y-8984360D01*
X4843947Y-8986331D01*
X4845208Y-8988435D01*
X4846257Y-8990653D01*
X4847084Y-8992963D01*
X4847680Y-8995343D01*
X4848040Y-8997770D01*
X4848160Y-9000220D01*
X4848160Y-9125220D01*
X4848040Y-9127670D01*
X4847680Y-9130097D01*
X4847084Y-9132477D01*
X4846257Y-9134787D01*
X4845208Y-9137005D01*
X4843947Y-9139109D01*
X4842485Y-9141080D01*
X4840838Y-9142898D01*
X4839020Y-9144545D01*
X4837049Y-9146007D01*
X4834945Y-9147268D01*
X4832727Y-9148317D01*
X4830417Y-9149144D01*
X4828037Y-9149740D01*
X4825610Y-9150100D01*
X4823160Y-9150220D01*
X4748160Y-9150220D01*
X4745710Y-9150100D01*
X4743283Y-9149740D01*
X4740903Y-9149144D01*
X4738593Y-9148317D01*
X4736375Y-9147268D01*
X4734271Y-9146007D01*
X4732300Y-9144545D01*
X4730482Y-9142898D01*
X4728835Y-9141080D01*
X4727373Y-9139109D01*
X4726112Y-9137005D01*
X4725063Y-9134787D01*
X4724237Y-9132477D01*
X4723640Y-9130097D01*
X4723280Y-9127670D01*
X4723160Y-9125220D01*
X4723160Y-9000220D01*
X4723280Y-8997770D01*
X4723640Y-8995343D01*
X4724237Y-8992963D01*
X4725063Y-8990653D01*
X4726112Y-8988435D01*
X4727373Y-8986331D01*
X4728835Y-8984360D01*
X4730482Y-8982542D01*
X4732300Y-8980895D01*
X4734271Y-8979433D01*
X4736375Y-8978172D01*
X4738593Y-8977123D01*
X4740903Y-8976297D01*
X4743283Y-8975700D01*
X4745710Y-8975340D01*
X4748160Y-8975220D01*
X4823160Y-8975220D01*
X4825610Y-8975340D01*
G37*
G36*
X6730610Y-8975340D02*
G01*
X6733037Y-8975700D01*
X6735417Y-8976297D01*
X6737727Y-8977123D01*
X6739945Y-8978172D01*
X6742049Y-8979433D01*
X6744020Y-8980895D01*
X6745838Y-8982542D01*
X6747485Y-8984360D01*
X6748947Y-8986331D01*
X6750208Y-8988435D01*
X6751257Y-8990653D01*
X6752083Y-8992963D01*
X6752680Y-8995343D01*
X6753040Y-8997770D01*
X6753160Y-9000220D01*
X6753160Y-9125220D01*
X6753040Y-9127670D01*
X6752680Y-9130097D01*
X6752083Y-9132477D01*
X6751257Y-9134787D01*
X6750208Y-9137005D01*
X6748947Y-9139109D01*
X6747485Y-9141080D01*
X6745838Y-9142898D01*
X6744020Y-9144545D01*
X6742049Y-9146007D01*
X6739945Y-9147268D01*
X6737727Y-9148317D01*
X6735417Y-9149144D01*
X6733037Y-9149740D01*
X6730610Y-9150100D01*
X6728160Y-9150220D01*
X6653160Y-9150220D01*
X6650710Y-9150100D01*
X6648283Y-9149740D01*
X6645903Y-9149144D01*
X6643593Y-9148317D01*
X6641375Y-9147268D01*
X6639271Y-9146007D01*
X6637300Y-9144545D01*
X6635482Y-9142898D01*
X6633835Y-9141080D01*
X6632373Y-9139109D01*
X6631112Y-9137005D01*
X6630063Y-9134787D01*
X6629236Y-9132477D01*
X6628640Y-9130097D01*
X6628280Y-9127670D01*
X6628160Y-9125220D01*
X6628160Y-9000220D01*
X6628280Y-8997770D01*
X6628640Y-8995343D01*
X6629236Y-8992963D01*
X6630063Y-8990653D01*
X6631112Y-8988435D01*
X6632373Y-8986331D01*
X6633835Y-8984360D01*
X6635482Y-8982542D01*
X6637300Y-8980895D01*
X6639271Y-8979433D01*
X6641375Y-8978172D01*
X6643593Y-8977123D01*
X6645903Y-8976297D01*
X6648283Y-8975700D01*
X6650710Y-8975340D01*
X6653160Y-8975220D01*
X6728160Y-8975220D01*
X6730610Y-8975340D01*
G37*
G36*
X6450610Y-8975340D02*
G01*
X6453037Y-8975700D01*
X6455417Y-8976297D01*
X6457727Y-8977123D01*
X6459945Y-8978172D01*
X6462049Y-8979433D01*
X6464020Y-8980895D01*
X6465838Y-8982542D01*
X6467485Y-8984360D01*
X6468947Y-8986331D01*
X6470208Y-8988435D01*
X6471257Y-8990653D01*
X6472083Y-8992963D01*
X6472680Y-8995343D01*
X6473040Y-8997770D01*
X6473160Y-9000220D01*
X6473160Y-9125220D01*
X6473040Y-9127670D01*
X6472680Y-9130097D01*
X6472083Y-9132477D01*
X6471257Y-9134787D01*
X6470208Y-9137005D01*
X6468947Y-9139109D01*
X6467485Y-9141080D01*
X6465838Y-9142898D01*
X6464020Y-9144545D01*
X6462049Y-9146007D01*
X6459945Y-9147268D01*
X6457727Y-9148317D01*
X6455417Y-9149144D01*
X6453037Y-9149740D01*
X6450610Y-9150100D01*
X6448160Y-9150220D01*
X6373160Y-9150220D01*
X6370710Y-9150100D01*
X6368283Y-9149740D01*
X6365903Y-9149144D01*
X6363593Y-9148317D01*
X6361375Y-9147268D01*
X6359271Y-9146007D01*
X6357300Y-9144545D01*
X6355482Y-9142898D01*
X6353835Y-9141080D01*
X6352373Y-9139109D01*
X6351112Y-9137005D01*
X6350063Y-9134787D01*
X6349236Y-9132477D01*
X6348640Y-9130097D01*
X6348280Y-9127670D01*
X6348160Y-9125220D01*
X6348160Y-9000220D01*
X6348280Y-8997770D01*
X6348640Y-8995343D01*
X6349236Y-8992963D01*
X6350063Y-8990653D01*
X6351112Y-8988435D01*
X6352373Y-8986331D01*
X6353835Y-8984360D01*
X6355482Y-8982542D01*
X6357300Y-8980895D01*
X6359271Y-8979433D01*
X6361375Y-8978172D01*
X6363593Y-8977123D01*
X6365903Y-8976297D01*
X6368283Y-8975700D01*
X6370710Y-8975340D01*
X6373160Y-8975220D01*
X6448160Y-8975220D01*
X6450610Y-8975340D01*
G37*
G36*
X8635610Y-8975340D02*
G01*
X8638037Y-8975700D01*
X8640417Y-8976297D01*
X8642727Y-8977123D01*
X8644945Y-8978172D01*
X8647049Y-8979433D01*
X8649020Y-8980895D01*
X8650838Y-8982542D01*
X8652485Y-8984360D01*
X8653947Y-8986331D01*
X8655208Y-8988435D01*
X8656257Y-8990653D01*
X8657084Y-8992963D01*
X8657680Y-8995343D01*
X8658040Y-8997770D01*
X8658160Y-9000220D01*
X8658160Y-9125220D01*
X8658040Y-9127670D01*
X8657680Y-9130097D01*
X8657084Y-9132477D01*
X8656257Y-9134787D01*
X8655208Y-9137005D01*
X8653947Y-9139109D01*
X8652485Y-9141080D01*
X8650838Y-9142898D01*
X8649020Y-9144545D01*
X8647049Y-9146007D01*
X8644945Y-9147268D01*
X8642727Y-9148317D01*
X8640417Y-9149144D01*
X8638037Y-9149740D01*
X8635610Y-9150100D01*
X8633160Y-9150220D01*
X8558160Y-9150220D01*
X8555710Y-9150100D01*
X8553283Y-9149740D01*
X8550903Y-9149144D01*
X8548593Y-9148317D01*
X8546375Y-9147268D01*
X8544271Y-9146007D01*
X8542300Y-9144545D01*
X8540482Y-9142898D01*
X8538835Y-9141080D01*
X8537373Y-9139109D01*
X8536112Y-9137005D01*
X8535063Y-9134787D01*
X8534237Y-9132477D01*
X8533640Y-9130097D01*
X8533280Y-9127670D01*
X8533160Y-9125220D01*
X8533160Y-9000220D01*
X8533280Y-8997770D01*
X8533640Y-8995343D01*
X8534237Y-8992963D01*
X8535063Y-8990653D01*
X8536112Y-8988435D01*
X8537373Y-8986331D01*
X8538835Y-8984360D01*
X8540482Y-8982542D01*
X8542300Y-8980895D01*
X8544271Y-8979433D01*
X8546375Y-8978172D01*
X8548593Y-8977123D01*
X8550903Y-8976297D01*
X8553283Y-8975700D01*
X8555710Y-8975340D01*
X8558160Y-8975220D01*
X8633160Y-8975220D01*
X8635610Y-8975340D01*
G37*
G36*
X8355610Y-8975340D02*
G01*
X8358037Y-8975700D01*
X8360417Y-8976297D01*
X8362727Y-8977123D01*
X8364945Y-8978172D01*
X8367049Y-8979433D01*
X8369020Y-8980895D01*
X8370838Y-8982542D01*
X8372485Y-8984360D01*
X8373947Y-8986331D01*
X8375208Y-8988435D01*
X8376257Y-8990653D01*
X8377083Y-8992963D01*
X8377680Y-8995343D01*
X8378040Y-8997770D01*
X8378160Y-9000220D01*
X8378160Y-9125220D01*
X8378040Y-9127670D01*
X8377680Y-9130097D01*
X8377083Y-9132477D01*
X8376257Y-9134787D01*
X8375208Y-9137005D01*
X8373947Y-9139109D01*
X8372485Y-9141080D01*
X8370838Y-9142898D01*
X8369020Y-9144545D01*
X8367049Y-9146007D01*
X8364945Y-9147268D01*
X8362727Y-9148317D01*
X8360417Y-9149144D01*
X8358037Y-9149740D01*
X8355610Y-9150100D01*
X8353160Y-9150220D01*
X8278160Y-9150220D01*
X8275710Y-9150100D01*
X8273283Y-9149740D01*
X8270903Y-9149144D01*
X8268593Y-9148317D01*
X8266375Y-9147268D01*
X8264271Y-9146007D01*
X8262300Y-9144545D01*
X8260482Y-9142898D01*
X8258835Y-9141080D01*
X8257373Y-9139109D01*
X8256112Y-9137005D01*
X8255063Y-9134787D01*
X8254236Y-9132477D01*
X8253640Y-9130097D01*
X8253280Y-9127670D01*
X8253160Y-9125220D01*
X8253160Y-9000220D01*
X8253280Y-8997770D01*
X8253640Y-8995343D01*
X8254236Y-8992963D01*
X8255063Y-8990653D01*
X8256112Y-8988435D01*
X8257373Y-8986331D01*
X8258835Y-8984360D01*
X8260482Y-8982542D01*
X8262300Y-8980895D01*
X8264271Y-8979433D01*
X8266375Y-8978172D01*
X8268593Y-8977123D01*
X8270903Y-8976297D01*
X8273283Y-8975700D01*
X8275710Y-8975340D01*
X8278160Y-8975220D01*
X8353160Y-8975220D01*
X8355610Y-8975340D01*
G37*
G36*
X10540610Y-8975340D02*
G01*
X10543037Y-8975700D01*
X10545417Y-8976297D01*
X10547727Y-8977123D01*
X10549945Y-8978172D01*
X10552049Y-8979433D01*
X10554020Y-8980895D01*
X10555838Y-8982542D01*
X10557485Y-8984360D01*
X10558947Y-8986331D01*
X10560208Y-8988435D01*
X10561257Y-8990653D01*
X10562084Y-8992963D01*
X10562680Y-8995343D01*
X10563040Y-8997770D01*
X10563160Y-9000220D01*
X10563160Y-9125220D01*
X10563040Y-9127670D01*
X10562680Y-9130097D01*
X10562084Y-9132477D01*
X10561257Y-9134787D01*
X10560208Y-9137005D01*
X10558947Y-9139109D01*
X10557485Y-9141080D01*
X10555838Y-9142898D01*
X10554020Y-9144545D01*
X10552049Y-9146007D01*
X10549945Y-9147268D01*
X10547727Y-9148317D01*
X10545417Y-9149144D01*
X10543037Y-9149740D01*
X10540610Y-9150100D01*
X10538160Y-9150220D01*
X10463160Y-9150220D01*
X10460710Y-9150100D01*
X10458283Y-9149740D01*
X10455903Y-9149144D01*
X10453593Y-9148317D01*
X10451375Y-9147268D01*
X10449271Y-9146007D01*
X10447300Y-9144545D01*
X10445482Y-9142898D01*
X10443835Y-9141080D01*
X10442373Y-9139109D01*
X10441112Y-9137005D01*
X10440063Y-9134787D01*
X10439237Y-9132477D01*
X10438640Y-9130097D01*
X10438280Y-9127670D01*
X10438160Y-9125220D01*
X10438160Y-9000220D01*
X10438280Y-8997770D01*
X10438640Y-8995343D01*
X10439237Y-8992963D01*
X10440063Y-8990653D01*
X10441112Y-8988435D01*
X10442373Y-8986331D01*
X10443835Y-8984360D01*
X10445482Y-8982542D01*
X10447300Y-8980895D01*
X10449271Y-8979433D01*
X10451375Y-8978172D01*
X10453593Y-8977123D01*
X10455903Y-8976297D01*
X10458283Y-8975700D01*
X10460710Y-8975340D01*
X10463160Y-8975220D01*
X10538160Y-8975220D01*
X10540610Y-8975340D01*
G37*
G36*
X10260610Y-8975340D02*
G01*
X10263037Y-8975700D01*
X10265417Y-8976297D01*
X10267727Y-8977123D01*
X10269945Y-8978172D01*
X10272049Y-8979433D01*
X10274020Y-8980895D01*
X10275838Y-8982542D01*
X10277485Y-8984360D01*
X10278947Y-8986331D01*
X10280208Y-8988435D01*
X10281257Y-8990653D01*
X10282084Y-8992963D01*
X10282680Y-8995343D01*
X10283040Y-8997770D01*
X10283160Y-9000220D01*
X10283160Y-9125220D01*
X10283040Y-9127670D01*
X10282680Y-9130097D01*
X10282084Y-9132477D01*
X10281257Y-9134787D01*
X10280208Y-9137005D01*
X10278947Y-9139109D01*
X10277485Y-9141080D01*
X10275838Y-9142898D01*
X10274020Y-9144545D01*
X10272049Y-9146007D01*
X10269945Y-9147268D01*
X10267727Y-9148317D01*
X10265417Y-9149144D01*
X10263037Y-9149740D01*
X10260610Y-9150100D01*
X10258160Y-9150220D01*
X10183160Y-9150220D01*
X10180710Y-9150100D01*
X10178283Y-9149740D01*
X10175903Y-9149144D01*
X10173593Y-9148317D01*
X10171375Y-9147268D01*
X10169271Y-9146007D01*
X10167300Y-9144545D01*
X10165482Y-9142898D01*
X10163835Y-9141080D01*
X10162373Y-9139109D01*
X10161112Y-9137005D01*
X10160063Y-9134787D01*
X10159237Y-9132477D01*
X10158640Y-9130097D01*
X10158280Y-9127670D01*
X10158160Y-9125220D01*
X10158160Y-9000220D01*
X10158280Y-8997770D01*
X10158640Y-8995343D01*
X10159237Y-8992963D01*
X10160063Y-8990653D01*
X10161112Y-8988435D01*
X10162373Y-8986331D01*
X10163835Y-8984360D01*
X10165482Y-8982542D01*
X10167300Y-8980895D01*
X10169271Y-8979433D01*
X10171375Y-8978172D01*
X10173593Y-8977123D01*
X10175903Y-8976297D01*
X10178283Y-8975700D01*
X10180710Y-8975340D01*
X10183160Y-8975220D01*
X10258160Y-8975220D01*
X10260610Y-8975340D01*
G37*
G36*
X12445610Y-8975340D02*
G01*
X12448037Y-8975700D01*
X12450417Y-8976297D01*
X12452727Y-8977123D01*
X12454945Y-8978172D01*
X12457049Y-8979433D01*
X12459020Y-8980895D01*
X12460838Y-8982542D01*
X12462485Y-8984360D01*
X12463947Y-8986331D01*
X12465208Y-8988435D01*
X12466257Y-8990653D01*
X12467083Y-8992963D01*
X12467680Y-8995343D01*
X12468040Y-8997770D01*
X12468160Y-9000220D01*
X12468160Y-9125220D01*
X12468040Y-9127670D01*
X12467680Y-9130097D01*
X12467083Y-9132477D01*
X12466257Y-9134787D01*
X12465208Y-9137005D01*
X12463947Y-9139109D01*
X12462485Y-9141080D01*
X12460838Y-9142898D01*
X12459020Y-9144545D01*
X12457049Y-9146007D01*
X12454945Y-9147268D01*
X12452727Y-9148317D01*
X12450417Y-9149144D01*
X12448037Y-9149740D01*
X12445610Y-9150100D01*
X12443160Y-9150220D01*
X12368160Y-9150220D01*
X12365710Y-9150100D01*
X12363283Y-9149740D01*
X12360903Y-9149144D01*
X12358593Y-9148317D01*
X12356375Y-9147268D01*
X12354271Y-9146007D01*
X12352300Y-9144545D01*
X12350482Y-9142898D01*
X12348835Y-9141080D01*
X12347373Y-9139109D01*
X12346112Y-9137005D01*
X12345063Y-9134787D01*
X12344236Y-9132477D01*
X12343640Y-9130097D01*
X12343280Y-9127670D01*
X12343160Y-9125220D01*
X12343160Y-9000220D01*
X12343280Y-8997770D01*
X12343640Y-8995343D01*
X12344236Y-8992963D01*
X12345063Y-8990653D01*
X12346112Y-8988435D01*
X12347373Y-8986331D01*
X12348835Y-8984360D01*
X12350482Y-8982542D01*
X12352300Y-8980895D01*
X12354271Y-8979433D01*
X12356375Y-8978172D01*
X12358593Y-8977123D01*
X12360903Y-8976297D01*
X12363283Y-8975700D01*
X12365710Y-8975340D01*
X12368160Y-8975220D01*
X12443160Y-8975220D01*
X12445610Y-8975340D01*
G37*
G36*
X12165610Y-8975340D02*
G01*
X12168037Y-8975700D01*
X12170417Y-8976297D01*
X12172727Y-8977123D01*
X12174945Y-8978172D01*
X12177049Y-8979433D01*
X12179020Y-8980895D01*
X12180838Y-8982542D01*
X12182485Y-8984360D01*
X12183947Y-8986331D01*
X12185208Y-8988435D01*
X12186257Y-8990653D01*
X12187083Y-8992963D01*
X12187680Y-8995343D01*
X12188040Y-8997770D01*
X12188160Y-9000220D01*
X12188160Y-9125220D01*
X12188040Y-9127670D01*
X12187680Y-9130097D01*
X12187083Y-9132477D01*
X12186257Y-9134787D01*
X12185208Y-9137005D01*
X12183947Y-9139109D01*
X12182485Y-9141080D01*
X12180838Y-9142898D01*
X12179020Y-9144545D01*
X12177049Y-9146007D01*
X12174945Y-9147268D01*
X12172727Y-9148317D01*
X12170417Y-9149144D01*
X12168037Y-9149740D01*
X12165610Y-9150100D01*
X12163160Y-9150220D01*
X12088160Y-9150220D01*
X12085710Y-9150100D01*
X12083283Y-9149740D01*
X12080903Y-9149144D01*
X12078593Y-9148317D01*
X12076375Y-9147268D01*
X12074271Y-9146007D01*
X12072300Y-9144545D01*
X12070482Y-9142898D01*
X12068835Y-9141080D01*
X12067373Y-9139109D01*
X12066112Y-9137005D01*
X12065063Y-9134787D01*
X12064236Y-9132477D01*
X12063640Y-9130097D01*
X12063280Y-9127670D01*
X12063160Y-9125220D01*
X12063160Y-9000220D01*
X12063280Y-8997770D01*
X12063640Y-8995343D01*
X12064236Y-8992963D01*
X12065063Y-8990653D01*
X12066112Y-8988435D01*
X12067373Y-8986331D01*
X12068835Y-8984360D01*
X12070482Y-8982542D01*
X12072300Y-8980895D01*
X12074271Y-8979433D01*
X12076375Y-8978172D01*
X12078593Y-8977123D01*
X12080903Y-8976297D01*
X12083283Y-8975700D01*
X12085710Y-8975340D01*
X12088160Y-8975220D01*
X12163160Y-8975220D01*
X12165610Y-8975340D01*
G37*
G36*
X14070610Y-8975340D02*
G01*
X14073037Y-8975700D01*
X14075417Y-8976297D01*
X14077727Y-8977123D01*
X14079945Y-8978172D01*
X14082049Y-8979433D01*
X14084020Y-8980895D01*
X14085838Y-8982542D01*
X14087485Y-8984360D01*
X14088947Y-8986331D01*
X14090208Y-8988435D01*
X14091257Y-8990653D01*
X14092083Y-8992963D01*
X14092680Y-8995343D01*
X14093040Y-8997770D01*
X14093160Y-9000220D01*
X14093160Y-9125220D01*
X14093040Y-9127670D01*
X14092680Y-9130097D01*
X14092083Y-9132477D01*
X14091257Y-9134787D01*
X14090208Y-9137005D01*
X14088947Y-9139109D01*
X14087485Y-9141080D01*
X14085838Y-9142898D01*
X14084020Y-9144545D01*
X14082049Y-9146007D01*
X14079945Y-9147268D01*
X14077727Y-9148317D01*
X14075417Y-9149144D01*
X14073037Y-9149740D01*
X14070610Y-9150100D01*
X14068160Y-9150220D01*
X13993160Y-9150220D01*
X13990710Y-9150100D01*
X13988283Y-9149740D01*
X13985903Y-9149144D01*
X13983593Y-9148317D01*
X13981375Y-9147268D01*
X13979271Y-9146007D01*
X13977300Y-9144545D01*
X13975482Y-9142898D01*
X13973835Y-9141080D01*
X13972373Y-9139109D01*
X13971112Y-9137005D01*
X13970063Y-9134787D01*
X13969236Y-9132477D01*
X13968640Y-9130097D01*
X13968280Y-9127670D01*
X13968160Y-9125220D01*
X13968160Y-9000220D01*
X13968280Y-8997770D01*
X13968640Y-8995343D01*
X13969236Y-8992963D01*
X13970063Y-8990653D01*
X13971112Y-8988435D01*
X13972373Y-8986331D01*
X13973835Y-8984360D01*
X13975482Y-8982542D01*
X13977300Y-8980895D01*
X13979271Y-8979433D01*
X13981375Y-8978172D01*
X13983593Y-8977123D01*
X13985903Y-8976297D01*
X13988283Y-8975700D01*
X13990710Y-8975340D01*
X13993160Y-8975220D01*
X14068160Y-8975220D01*
X14070610Y-8975340D01*
G37*
G36*
X14350610Y-8975340D02*
G01*
X14353037Y-8975700D01*
X14355417Y-8976297D01*
X14357727Y-8977123D01*
X14359945Y-8978172D01*
X14362049Y-8979433D01*
X14364020Y-8980895D01*
X14365838Y-8982542D01*
X14367485Y-8984360D01*
X14368947Y-8986331D01*
X14370208Y-8988435D01*
X14371257Y-8990653D01*
X14372083Y-8992963D01*
X14372680Y-8995343D01*
X14373040Y-8997770D01*
X14373160Y-9000220D01*
X14373160Y-9125220D01*
X14373040Y-9127670D01*
X14372680Y-9130097D01*
X14372083Y-9132477D01*
X14371257Y-9134787D01*
X14370208Y-9137005D01*
X14368947Y-9139109D01*
X14367485Y-9141080D01*
X14365838Y-9142898D01*
X14364020Y-9144545D01*
X14362049Y-9146007D01*
X14359945Y-9147268D01*
X14357727Y-9148317D01*
X14355417Y-9149144D01*
X14353037Y-9149740D01*
X14350610Y-9150100D01*
X14348160Y-9150220D01*
X14273160Y-9150220D01*
X14270710Y-9150100D01*
X14268283Y-9149740D01*
X14265903Y-9149144D01*
X14263593Y-9148317D01*
X14261375Y-9147268D01*
X14259271Y-9146007D01*
X14257300Y-9144545D01*
X14255482Y-9142898D01*
X14253835Y-9141080D01*
X14252373Y-9139109D01*
X14251112Y-9137005D01*
X14250063Y-9134787D01*
X14249236Y-9132477D01*
X14248640Y-9130097D01*
X14248280Y-9127670D01*
X14248160Y-9125220D01*
X14248160Y-9000220D01*
X14248280Y-8997770D01*
X14248640Y-8995343D01*
X14249236Y-8992963D01*
X14250063Y-8990653D01*
X14251112Y-8988435D01*
X14252373Y-8986331D01*
X14253835Y-8984360D01*
X14255482Y-8982542D01*
X14257300Y-8980895D01*
X14259271Y-8979433D01*
X14261375Y-8978172D01*
X14263593Y-8977123D01*
X14265903Y-8976297D01*
X14268283Y-8975700D01*
X14270710Y-8975340D01*
X14273160Y-8975220D01*
X14348160Y-8975220D01*
X14350610Y-8975340D01*
G37*
G36*
X15975610Y-8975340D02*
G01*
X15978037Y-8975700D01*
X15980417Y-8976297D01*
X15982727Y-8977123D01*
X15984945Y-8978172D01*
X15987049Y-8979433D01*
X15989020Y-8980895D01*
X15990838Y-8982542D01*
X15992485Y-8984360D01*
X15993947Y-8986331D01*
X15995208Y-8988435D01*
X15996257Y-8990653D01*
X15997083Y-8992963D01*
X15997680Y-8995343D01*
X15998040Y-8997770D01*
X15998160Y-9000220D01*
X15998160Y-9125220D01*
X15998040Y-9127670D01*
X15997680Y-9130097D01*
X15997083Y-9132477D01*
X15996257Y-9134787D01*
X15995208Y-9137005D01*
X15993947Y-9139109D01*
X15992485Y-9141080D01*
X15990838Y-9142898D01*
X15989020Y-9144545D01*
X15987049Y-9146007D01*
X15984945Y-9147268D01*
X15982727Y-9148317D01*
X15980417Y-9149144D01*
X15978037Y-9149740D01*
X15975610Y-9150100D01*
X15973160Y-9150220D01*
X15898160Y-9150220D01*
X15895710Y-9150100D01*
X15893283Y-9149740D01*
X15890903Y-9149144D01*
X15888593Y-9148317D01*
X15886375Y-9147268D01*
X15884271Y-9146007D01*
X15882300Y-9144545D01*
X15880482Y-9142898D01*
X15878835Y-9141080D01*
X15877373Y-9139109D01*
X15876112Y-9137005D01*
X15875063Y-9134787D01*
X15874236Y-9132477D01*
X15873640Y-9130097D01*
X15873280Y-9127670D01*
X15873160Y-9125220D01*
X15873160Y-9000220D01*
X15873280Y-8997770D01*
X15873640Y-8995343D01*
X15874236Y-8992963D01*
X15875063Y-8990653D01*
X15876112Y-8988435D01*
X15877373Y-8986331D01*
X15878835Y-8984360D01*
X15880482Y-8982542D01*
X15882300Y-8980895D01*
X15884271Y-8979433D01*
X15886375Y-8978172D01*
X15888593Y-8977123D01*
X15890903Y-8976297D01*
X15893283Y-8975700D01*
X15895710Y-8975340D01*
X15898160Y-8975220D01*
X15973160Y-8975220D01*
X15975610Y-8975340D01*
G37*
G36*
X16255610Y-8975340D02*
G01*
X16258037Y-8975700D01*
X16260417Y-8976297D01*
X16262727Y-8977123D01*
X16264945Y-8978172D01*
X16267049Y-8979433D01*
X16269020Y-8980895D01*
X16270838Y-8982542D01*
X16272485Y-8984360D01*
X16273947Y-8986331D01*
X16275208Y-8988435D01*
X16276257Y-8990653D01*
X16277083Y-8992963D01*
X16277680Y-8995343D01*
X16278040Y-8997770D01*
X16278160Y-9000220D01*
X16278160Y-9125220D01*
X16278040Y-9127670D01*
X16277680Y-9130097D01*
X16277083Y-9132477D01*
X16276257Y-9134787D01*
X16275208Y-9137005D01*
X16273947Y-9139109D01*
X16272485Y-9141080D01*
X16270838Y-9142898D01*
X16269020Y-9144545D01*
X16267049Y-9146007D01*
X16264945Y-9147268D01*
X16262727Y-9148317D01*
X16260417Y-9149144D01*
X16258037Y-9149740D01*
X16255610Y-9150100D01*
X16253160Y-9150220D01*
X16178160Y-9150220D01*
X16175710Y-9150100D01*
X16173283Y-9149740D01*
X16170903Y-9149144D01*
X16168593Y-9148317D01*
X16166375Y-9147268D01*
X16164271Y-9146007D01*
X16162300Y-9144545D01*
X16160482Y-9142898D01*
X16158835Y-9141080D01*
X16157373Y-9139109D01*
X16156112Y-9137005D01*
X16155063Y-9134787D01*
X16154236Y-9132477D01*
X16153640Y-9130097D01*
X16153280Y-9127670D01*
X16153160Y-9125220D01*
X16153160Y-9000220D01*
X16153280Y-8997770D01*
X16153640Y-8995343D01*
X16154236Y-8992963D01*
X16155063Y-8990653D01*
X16156112Y-8988435D01*
X16157373Y-8986331D01*
X16158835Y-8984360D01*
X16160482Y-8982542D01*
X16162300Y-8980895D01*
X16164271Y-8979433D01*
X16166375Y-8978172D01*
X16168593Y-8977123D01*
X16170903Y-8976297D01*
X16173283Y-8975700D01*
X16175710Y-8975340D01*
X16178160Y-8975220D01*
X16253160Y-8975220D01*
X16255610Y-8975340D01*
G37*
G36*
X17880610Y-8975340D02*
G01*
X17883037Y-8975700D01*
X17885417Y-8976297D01*
X17887727Y-8977123D01*
X17889945Y-8978172D01*
X17892049Y-8979433D01*
X17894020Y-8980895D01*
X17895838Y-8982542D01*
X17897485Y-8984360D01*
X17898947Y-8986331D01*
X17900208Y-8988435D01*
X17901257Y-8990653D01*
X17902084Y-8992963D01*
X17902680Y-8995343D01*
X17903040Y-8997770D01*
X17903160Y-9000220D01*
X17903160Y-9125220D01*
X17903040Y-9127670D01*
X17902680Y-9130097D01*
X17902084Y-9132477D01*
X17901257Y-9134787D01*
X17900208Y-9137005D01*
X17898947Y-9139109D01*
X17897485Y-9141080D01*
X17895838Y-9142898D01*
X17894020Y-9144545D01*
X17892049Y-9146007D01*
X17889945Y-9147268D01*
X17887727Y-9148317D01*
X17885417Y-9149144D01*
X17883037Y-9149740D01*
X17880610Y-9150100D01*
X17878160Y-9150220D01*
X17803160Y-9150220D01*
X17800710Y-9150100D01*
X17798283Y-9149740D01*
X17795903Y-9149144D01*
X17793593Y-9148317D01*
X17791375Y-9147268D01*
X17789271Y-9146007D01*
X17787300Y-9144545D01*
X17785482Y-9142898D01*
X17783835Y-9141080D01*
X17782373Y-9139109D01*
X17781112Y-9137005D01*
X17780063Y-9134787D01*
X17779237Y-9132477D01*
X17778640Y-9130097D01*
X17778280Y-9127670D01*
X17778160Y-9125220D01*
X17778160Y-9000220D01*
X17778280Y-8997770D01*
X17778640Y-8995343D01*
X17779237Y-8992963D01*
X17780063Y-8990653D01*
X17781112Y-8988435D01*
X17782373Y-8986331D01*
X17783835Y-8984360D01*
X17785482Y-8982542D01*
X17787300Y-8980895D01*
X17789271Y-8979433D01*
X17791375Y-8978172D01*
X17793593Y-8977123D01*
X17795903Y-8976297D01*
X17798283Y-8975700D01*
X17800710Y-8975340D01*
X17803160Y-8975220D01*
X17878160Y-8975220D01*
X17880610Y-8975340D01*
G37*
G36*
X18160610Y-8975340D02*
G01*
X18163037Y-8975700D01*
X18165417Y-8976297D01*
X18167727Y-8977123D01*
X18169945Y-8978172D01*
X18172049Y-8979433D01*
X18174020Y-8980895D01*
X18175838Y-8982542D01*
X18177485Y-8984360D01*
X18178947Y-8986331D01*
X18180208Y-8988435D01*
X18181257Y-8990653D01*
X18182084Y-8992963D01*
X18182680Y-8995343D01*
X18183040Y-8997770D01*
X18183160Y-9000220D01*
X18183160Y-9125220D01*
X18183040Y-9127670D01*
X18182680Y-9130097D01*
X18182084Y-9132477D01*
X18181257Y-9134787D01*
X18180208Y-9137005D01*
X18178947Y-9139109D01*
X18177485Y-9141080D01*
X18175838Y-9142898D01*
X18174020Y-9144545D01*
X18172049Y-9146007D01*
X18169945Y-9147268D01*
X18167727Y-9148317D01*
X18165417Y-9149144D01*
X18163037Y-9149740D01*
X18160610Y-9150100D01*
X18158160Y-9150220D01*
X18083160Y-9150220D01*
X18080710Y-9150100D01*
X18078283Y-9149740D01*
X18075903Y-9149144D01*
X18073593Y-9148317D01*
X18071375Y-9147268D01*
X18069271Y-9146007D01*
X18067300Y-9144545D01*
X18065482Y-9142898D01*
X18063835Y-9141080D01*
X18062373Y-9139109D01*
X18061112Y-9137005D01*
X18060063Y-9134787D01*
X18059237Y-9132477D01*
X18058640Y-9130097D01*
X18058280Y-9127670D01*
X18058160Y-9125220D01*
X18058160Y-9000220D01*
X18058280Y-8997770D01*
X18058640Y-8995343D01*
X18059237Y-8992963D01*
X18060063Y-8990653D01*
X18061112Y-8988435D01*
X18062373Y-8986331D01*
X18063835Y-8984360D01*
X18065482Y-8982542D01*
X18067300Y-8980895D01*
X18069271Y-8979433D01*
X18071375Y-8978172D01*
X18073593Y-8977123D01*
X18075903Y-8976297D01*
X18078283Y-8975700D01*
X18080710Y-8975340D01*
X18083160Y-8975220D01*
X18158160Y-8975220D01*
X18160610Y-8975340D01*
G37*
G36*
X4545610Y-10880340D02*
G01*
X4548037Y-10880700D01*
X4550417Y-10881297D01*
X4552727Y-10882123D01*
X4554945Y-10883172D01*
X4557049Y-10884433D01*
X4559020Y-10885895D01*
X4560838Y-10887542D01*
X4562485Y-10889360D01*
X4563947Y-10891331D01*
X4565208Y-10893435D01*
X4566257Y-10895653D01*
X4567084Y-10897963D01*
X4567680Y-10900343D01*
X4568040Y-10902770D01*
X4568160Y-10905220D01*
X4568160Y-11030220D01*
X4568040Y-11032670D01*
X4567680Y-11035097D01*
X4567084Y-11037477D01*
X4566257Y-11039787D01*
X4565208Y-11042005D01*
X4563947Y-11044109D01*
X4562485Y-11046080D01*
X4560838Y-11047898D01*
X4559020Y-11049545D01*
X4557049Y-11051007D01*
X4554945Y-11052268D01*
X4552727Y-11053317D01*
X4550417Y-11054144D01*
X4548037Y-11054740D01*
X4545610Y-11055100D01*
X4543160Y-11055220D01*
X4468160Y-11055220D01*
X4465710Y-11055100D01*
X4463283Y-11054740D01*
X4460903Y-11054144D01*
X4458593Y-11053317D01*
X4456375Y-11052268D01*
X4454271Y-11051007D01*
X4452300Y-11049545D01*
X4450482Y-11047898D01*
X4448835Y-11046080D01*
X4447373Y-11044109D01*
X4446112Y-11042005D01*
X4445063Y-11039787D01*
X4444237Y-11037477D01*
X4443640Y-11035097D01*
X4443280Y-11032670D01*
X4443160Y-11030220D01*
X4443160Y-10905220D01*
X4443280Y-10902770D01*
X4443640Y-10900343D01*
X4444237Y-10897963D01*
X4445063Y-10895653D01*
X4446112Y-10893435D01*
X4447373Y-10891331D01*
X4448835Y-10889360D01*
X4450482Y-10887542D01*
X4452300Y-10885895D01*
X4454271Y-10884433D01*
X4456375Y-10883172D01*
X4458593Y-10882123D01*
X4460903Y-10881297D01*
X4463283Y-10880700D01*
X4465710Y-10880340D01*
X4468160Y-10880220D01*
X4543160Y-10880220D01*
X4545610Y-10880340D01*
G37*
G36*
X4825610Y-10880340D02*
G01*
X4828037Y-10880700D01*
X4830417Y-10881297D01*
X4832727Y-10882123D01*
X4834945Y-10883172D01*
X4837049Y-10884433D01*
X4839020Y-10885895D01*
X4840838Y-10887542D01*
X4842485Y-10889360D01*
X4843947Y-10891331D01*
X4845208Y-10893435D01*
X4846257Y-10895653D01*
X4847084Y-10897963D01*
X4847680Y-10900343D01*
X4848040Y-10902770D01*
X4848160Y-10905220D01*
X4848160Y-11030220D01*
X4848040Y-11032670D01*
X4847680Y-11035097D01*
X4847084Y-11037477D01*
X4846257Y-11039787D01*
X4845208Y-11042005D01*
X4843947Y-11044109D01*
X4842485Y-11046080D01*
X4840838Y-11047898D01*
X4839020Y-11049545D01*
X4837049Y-11051007D01*
X4834945Y-11052268D01*
X4832727Y-11053317D01*
X4830417Y-11054144D01*
X4828037Y-11054740D01*
X4825610Y-11055100D01*
X4823160Y-11055220D01*
X4748160Y-11055220D01*
X4745710Y-11055100D01*
X4743283Y-11054740D01*
X4740903Y-11054144D01*
X4738593Y-11053317D01*
X4736375Y-11052268D01*
X4734271Y-11051007D01*
X4732300Y-11049545D01*
X4730482Y-11047898D01*
X4728835Y-11046080D01*
X4727373Y-11044109D01*
X4726112Y-11042005D01*
X4725063Y-11039787D01*
X4724237Y-11037477D01*
X4723640Y-11035097D01*
X4723280Y-11032670D01*
X4723160Y-11030220D01*
X4723160Y-10905220D01*
X4723280Y-10902770D01*
X4723640Y-10900343D01*
X4724237Y-10897963D01*
X4725063Y-10895653D01*
X4726112Y-10893435D01*
X4727373Y-10891331D01*
X4728835Y-10889360D01*
X4730482Y-10887542D01*
X4732300Y-10885895D01*
X4734271Y-10884433D01*
X4736375Y-10883172D01*
X4738593Y-10882123D01*
X4740903Y-10881297D01*
X4743283Y-10880700D01*
X4745710Y-10880340D01*
X4748160Y-10880220D01*
X4823160Y-10880220D01*
X4825610Y-10880340D01*
G37*
G36*
X6730610Y-10880340D02*
G01*
X6733037Y-10880700D01*
X6735417Y-10881297D01*
X6737727Y-10882123D01*
X6739945Y-10883172D01*
X6742049Y-10884433D01*
X6744020Y-10885895D01*
X6745838Y-10887542D01*
X6747485Y-10889360D01*
X6748947Y-10891331D01*
X6750208Y-10893435D01*
X6751257Y-10895653D01*
X6752083Y-10897963D01*
X6752680Y-10900343D01*
X6753040Y-10902770D01*
X6753160Y-10905220D01*
X6753160Y-11030220D01*
X6753040Y-11032670D01*
X6752680Y-11035097D01*
X6752083Y-11037477D01*
X6751257Y-11039787D01*
X6750208Y-11042005D01*
X6748947Y-11044109D01*
X6747485Y-11046080D01*
X6745838Y-11047898D01*
X6744020Y-11049545D01*
X6742049Y-11051007D01*
X6739945Y-11052268D01*
X6737727Y-11053317D01*
X6735417Y-11054144D01*
X6733037Y-11054740D01*
X6730610Y-11055100D01*
X6728160Y-11055220D01*
X6653160Y-11055220D01*
X6650710Y-11055100D01*
X6648283Y-11054740D01*
X6645903Y-11054144D01*
X6643593Y-11053317D01*
X6641375Y-11052268D01*
X6639271Y-11051007D01*
X6637300Y-11049545D01*
X6635482Y-11047898D01*
X6633835Y-11046080D01*
X6632373Y-11044109D01*
X6631112Y-11042005D01*
X6630063Y-11039787D01*
X6629236Y-11037477D01*
X6628640Y-11035097D01*
X6628280Y-11032670D01*
X6628160Y-11030220D01*
X6628160Y-10905220D01*
X6628280Y-10902770D01*
X6628640Y-10900343D01*
X6629236Y-10897963D01*
X6630063Y-10895653D01*
X6631112Y-10893435D01*
X6632373Y-10891331D01*
X6633835Y-10889360D01*
X6635482Y-10887542D01*
X6637300Y-10885895D01*
X6639271Y-10884433D01*
X6641375Y-10883172D01*
X6643593Y-10882123D01*
X6645903Y-10881297D01*
X6648283Y-10880700D01*
X6650710Y-10880340D01*
X6653160Y-10880220D01*
X6728160Y-10880220D01*
X6730610Y-10880340D01*
G37*
G36*
X6450610Y-10880340D02*
G01*
X6453037Y-10880700D01*
X6455417Y-10881297D01*
X6457727Y-10882123D01*
X6459945Y-10883172D01*
X6462049Y-10884433D01*
X6464020Y-10885895D01*
X6465838Y-10887542D01*
X6467485Y-10889360D01*
X6468947Y-10891331D01*
X6470208Y-10893435D01*
X6471257Y-10895653D01*
X6472083Y-10897963D01*
X6472680Y-10900343D01*
X6473040Y-10902770D01*
X6473160Y-10905220D01*
X6473160Y-11030220D01*
X6473040Y-11032670D01*
X6472680Y-11035097D01*
X6472083Y-11037477D01*
X6471257Y-11039787D01*
X6470208Y-11042005D01*
X6468947Y-11044109D01*
X6467485Y-11046080D01*
X6465838Y-11047898D01*
X6464020Y-11049545D01*
X6462049Y-11051007D01*
X6459945Y-11052268D01*
X6457727Y-11053317D01*
X6455417Y-11054144D01*
X6453037Y-11054740D01*
X6450610Y-11055100D01*
X6448160Y-11055220D01*
X6373160Y-11055220D01*
X6370710Y-11055100D01*
X6368283Y-11054740D01*
X6365903Y-11054144D01*
X6363593Y-11053317D01*
X6361375Y-11052268D01*
X6359271Y-11051007D01*
X6357300Y-11049545D01*
X6355482Y-11047898D01*
X6353835Y-11046080D01*
X6352373Y-11044109D01*
X6351112Y-11042005D01*
X6350063Y-11039787D01*
X6349236Y-11037477D01*
X6348640Y-11035097D01*
X6348280Y-11032670D01*
X6348160Y-11030220D01*
X6348160Y-10905220D01*
X6348280Y-10902770D01*
X6348640Y-10900343D01*
X6349236Y-10897963D01*
X6350063Y-10895653D01*
X6351112Y-10893435D01*
X6352373Y-10891331D01*
X6353835Y-10889360D01*
X6355482Y-10887542D01*
X6357300Y-10885895D01*
X6359271Y-10884433D01*
X6361375Y-10883172D01*
X6363593Y-10882123D01*
X6365903Y-10881297D01*
X6368283Y-10880700D01*
X6370710Y-10880340D01*
X6373160Y-10880220D01*
X6448160Y-10880220D01*
X6450610Y-10880340D01*
G37*
G36*
X8635610Y-10880340D02*
G01*
X8638037Y-10880700D01*
X8640417Y-10881297D01*
X8642727Y-10882123D01*
X8644945Y-10883172D01*
X8647049Y-10884433D01*
X8649020Y-10885895D01*
X8650838Y-10887542D01*
X8652485Y-10889360D01*
X8653947Y-10891331D01*
X8655208Y-10893435D01*
X8656257Y-10895653D01*
X8657084Y-10897963D01*
X8657680Y-10900343D01*
X8658040Y-10902770D01*
X8658160Y-10905220D01*
X8658160Y-11030220D01*
X8658040Y-11032670D01*
X8657680Y-11035097D01*
X8657084Y-11037477D01*
X8656257Y-11039787D01*
X8655208Y-11042005D01*
X8653947Y-11044109D01*
X8652485Y-11046080D01*
X8650838Y-11047898D01*
X8649020Y-11049545D01*
X8647049Y-11051007D01*
X8644945Y-11052268D01*
X8642727Y-11053317D01*
X8640417Y-11054144D01*
X8638037Y-11054740D01*
X8635610Y-11055100D01*
X8633160Y-11055220D01*
X8558160Y-11055220D01*
X8555710Y-11055100D01*
X8553283Y-11054740D01*
X8550903Y-11054144D01*
X8548593Y-11053317D01*
X8546375Y-11052268D01*
X8544271Y-11051007D01*
X8542300Y-11049545D01*
X8540482Y-11047898D01*
X8538835Y-11046080D01*
X8537373Y-11044109D01*
X8536112Y-11042005D01*
X8535063Y-11039787D01*
X8534237Y-11037477D01*
X8533640Y-11035097D01*
X8533280Y-11032670D01*
X8533160Y-11030220D01*
X8533160Y-10905220D01*
X8533280Y-10902770D01*
X8533640Y-10900343D01*
X8534237Y-10897963D01*
X8535063Y-10895653D01*
X8536112Y-10893435D01*
X8537373Y-10891331D01*
X8538835Y-10889360D01*
X8540482Y-10887542D01*
X8542300Y-10885895D01*
X8544271Y-10884433D01*
X8546375Y-10883172D01*
X8548593Y-10882123D01*
X8550903Y-10881297D01*
X8553283Y-10880700D01*
X8555710Y-10880340D01*
X8558160Y-10880220D01*
X8633160Y-10880220D01*
X8635610Y-10880340D01*
G37*
G36*
X8355610Y-10880340D02*
G01*
X8358037Y-10880700D01*
X8360417Y-10881297D01*
X8362727Y-10882123D01*
X8364945Y-10883172D01*
X8367049Y-10884433D01*
X8369020Y-10885895D01*
X8370838Y-10887542D01*
X8372485Y-10889360D01*
X8373947Y-10891331D01*
X8375208Y-10893435D01*
X8376257Y-10895653D01*
X8377083Y-10897963D01*
X8377680Y-10900343D01*
X8378040Y-10902770D01*
X8378160Y-10905220D01*
X8378160Y-11030220D01*
X8378040Y-11032670D01*
X8377680Y-11035097D01*
X8377083Y-11037477D01*
X8376257Y-11039787D01*
X8375208Y-11042005D01*
X8373947Y-11044109D01*
X8372485Y-11046080D01*
X8370838Y-11047898D01*
X8369020Y-11049545D01*
X8367049Y-11051007D01*
X8364945Y-11052268D01*
X8362727Y-11053317D01*
X8360417Y-11054144D01*
X8358037Y-11054740D01*
X8355610Y-11055100D01*
X8353160Y-11055220D01*
X8278160Y-11055220D01*
X8275710Y-11055100D01*
X8273283Y-11054740D01*
X8270903Y-11054144D01*
X8268593Y-11053317D01*
X8266375Y-11052268D01*
X8264271Y-11051007D01*
X8262300Y-11049545D01*
X8260482Y-11047898D01*
X8258835Y-11046080D01*
X8257373Y-11044109D01*
X8256112Y-11042005D01*
X8255063Y-11039787D01*
X8254236Y-11037477D01*
X8253640Y-11035097D01*
X8253280Y-11032670D01*
X8253160Y-11030220D01*
X8253160Y-10905220D01*
X8253280Y-10902770D01*
X8253640Y-10900343D01*
X8254236Y-10897963D01*
X8255063Y-10895653D01*
X8256112Y-10893435D01*
X8257373Y-10891331D01*
X8258835Y-10889360D01*
X8260482Y-10887542D01*
X8262300Y-10885895D01*
X8264271Y-10884433D01*
X8266375Y-10883172D01*
X8268593Y-10882123D01*
X8270903Y-10881297D01*
X8273283Y-10880700D01*
X8275710Y-10880340D01*
X8278160Y-10880220D01*
X8353160Y-10880220D01*
X8355610Y-10880340D01*
G37*
G36*
X10540610Y-10880340D02*
G01*
X10543037Y-10880700D01*
X10545417Y-10881297D01*
X10547727Y-10882123D01*
X10549945Y-10883172D01*
X10552049Y-10884433D01*
X10554020Y-10885895D01*
X10555838Y-10887542D01*
X10557485Y-10889360D01*
X10558947Y-10891331D01*
X10560208Y-10893435D01*
X10561257Y-10895653D01*
X10562084Y-10897963D01*
X10562680Y-10900343D01*
X10563040Y-10902770D01*
X10563160Y-10905220D01*
X10563160Y-11030220D01*
X10563040Y-11032670D01*
X10562680Y-11035097D01*
X10562084Y-11037477D01*
X10561257Y-11039787D01*
X10560208Y-11042005D01*
X10558947Y-11044109D01*
X10557485Y-11046080D01*
X10555838Y-11047898D01*
X10554020Y-11049545D01*
X10552049Y-11051007D01*
X10549945Y-11052268D01*
X10547727Y-11053317D01*
X10545417Y-11054144D01*
X10543037Y-11054740D01*
X10540610Y-11055100D01*
X10538160Y-11055220D01*
X10463160Y-11055220D01*
X10460710Y-11055100D01*
X10458283Y-11054740D01*
X10455903Y-11054144D01*
X10453593Y-11053317D01*
X10451375Y-11052268D01*
X10449271Y-11051007D01*
X10447300Y-11049545D01*
X10445482Y-11047898D01*
X10443835Y-11046080D01*
X10442373Y-11044109D01*
X10441112Y-11042005D01*
X10440063Y-11039787D01*
X10439237Y-11037477D01*
X10438640Y-11035097D01*
X10438280Y-11032670D01*
X10438160Y-11030220D01*
X10438160Y-10905220D01*
X10438280Y-10902770D01*
X10438640Y-10900343D01*
X10439237Y-10897963D01*
X10440063Y-10895653D01*
X10441112Y-10893435D01*
X10442373Y-10891331D01*
X10443835Y-10889360D01*
X10445482Y-10887542D01*
X10447300Y-10885895D01*
X10449271Y-10884433D01*
X10451375Y-10883172D01*
X10453593Y-10882123D01*
X10455903Y-10881297D01*
X10458283Y-10880700D01*
X10460710Y-10880340D01*
X10463160Y-10880220D01*
X10538160Y-10880220D01*
X10540610Y-10880340D01*
G37*
G36*
X10260610Y-10880340D02*
G01*
X10263037Y-10880700D01*
X10265417Y-10881297D01*
X10267727Y-10882123D01*
X10269945Y-10883172D01*
X10272049Y-10884433D01*
X10274020Y-10885895D01*
X10275838Y-10887542D01*
X10277485Y-10889360D01*
X10278947Y-10891331D01*
X10280208Y-10893435D01*
X10281257Y-10895653D01*
X10282084Y-10897963D01*
X10282680Y-10900343D01*
X10283040Y-10902770D01*
X10283160Y-10905220D01*
X10283160Y-11030220D01*
X10283040Y-11032670D01*
X10282680Y-11035097D01*
X10282084Y-11037477D01*
X10281257Y-11039787D01*
X10280208Y-11042005D01*
X10278947Y-11044109D01*
X10277485Y-11046080D01*
X10275838Y-11047898D01*
X10274020Y-11049545D01*
X10272049Y-11051007D01*
X10269945Y-11052268D01*
X10267727Y-11053317D01*
X10265417Y-11054144D01*
X10263037Y-11054740D01*
X10260610Y-11055100D01*
X10258160Y-11055220D01*
X10183160Y-11055220D01*
X10180710Y-11055100D01*
X10178283Y-11054740D01*
X10175903Y-11054144D01*
X10173593Y-11053317D01*
X10171375Y-11052268D01*
X10169271Y-11051007D01*
X10167300Y-11049545D01*
X10165482Y-11047898D01*
X10163835Y-11046080D01*
X10162373Y-11044109D01*
X10161112Y-11042005D01*
X10160063Y-11039787D01*
X10159237Y-11037477D01*
X10158640Y-11035097D01*
X10158280Y-11032670D01*
X10158160Y-11030220D01*
X10158160Y-10905220D01*
X10158280Y-10902770D01*
X10158640Y-10900343D01*
X10159237Y-10897963D01*
X10160063Y-10895653D01*
X10161112Y-10893435D01*
X10162373Y-10891331D01*
X10163835Y-10889360D01*
X10165482Y-10887542D01*
X10167300Y-10885895D01*
X10169271Y-10884433D01*
X10171375Y-10883172D01*
X10173593Y-10882123D01*
X10175903Y-10881297D01*
X10178283Y-10880700D01*
X10180710Y-10880340D01*
X10183160Y-10880220D01*
X10258160Y-10880220D01*
X10260610Y-10880340D01*
G37*
G36*
X12445610Y-10880340D02*
G01*
X12448037Y-10880700D01*
X12450417Y-10881297D01*
X12452727Y-10882123D01*
X12454945Y-10883172D01*
X12457049Y-10884433D01*
X12459020Y-10885895D01*
X12460838Y-10887542D01*
X12462485Y-10889360D01*
X12463947Y-10891331D01*
X12465208Y-10893435D01*
X12466257Y-10895653D01*
X12467083Y-10897963D01*
X12467680Y-10900343D01*
X12468040Y-10902770D01*
X12468160Y-10905220D01*
X12468160Y-11030220D01*
X12468040Y-11032670D01*
X12467680Y-11035097D01*
X12467083Y-11037477D01*
X12466257Y-11039787D01*
X12465208Y-11042005D01*
X12463947Y-11044109D01*
X12462485Y-11046080D01*
X12460838Y-11047898D01*
X12459020Y-11049545D01*
X12457049Y-11051007D01*
X12454945Y-11052268D01*
X12452727Y-11053317D01*
X12450417Y-11054144D01*
X12448037Y-11054740D01*
X12445610Y-11055100D01*
X12443160Y-11055220D01*
X12368160Y-11055220D01*
X12365710Y-11055100D01*
X12363283Y-11054740D01*
X12360903Y-11054144D01*
X12358593Y-11053317D01*
X12356375Y-11052268D01*
X12354271Y-11051007D01*
X12352300Y-11049545D01*
X12350482Y-11047898D01*
X12348835Y-11046080D01*
X12347373Y-11044109D01*
X12346112Y-11042005D01*
X12345063Y-11039787D01*
X12344236Y-11037477D01*
X12343640Y-11035097D01*
X12343280Y-11032670D01*
X12343160Y-11030220D01*
X12343160Y-10905220D01*
X12343280Y-10902770D01*
X12343640Y-10900343D01*
X12344236Y-10897963D01*
X12345063Y-10895653D01*
X12346112Y-10893435D01*
X12347373Y-10891331D01*
X12348835Y-10889360D01*
X12350482Y-10887542D01*
X12352300Y-10885895D01*
X12354271Y-10884433D01*
X12356375Y-10883172D01*
X12358593Y-10882123D01*
X12360903Y-10881297D01*
X12363283Y-10880700D01*
X12365710Y-10880340D01*
X12368160Y-10880220D01*
X12443160Y-10880220D01*
X12445610Y-10880340D01*
G37*
G36*
X12165610Y-10880340D02*
G01*
X12168037Y-10880700D01*
X12170417Y-10881297D01*
X12172727Y-10882123D01*
X12174945Y-10883172D01*
X12177049Y-10884433D01*
X12179020Y-10885895D01*
X12180838Y-10887542D01*
X12182485Y-10889360D01*
X12183947Y-10891331D01*
X12185208Y-10893435D01*
X12186257Y-10895653D01*
X12187083Y-10897963D01*
X12187680Y-10900343D01*
X12188040Y-10902770D01*
X12188160Y-10905220D01*
X12188160Y-11030220D01*
X12188040Y-11032670D01*
X12187680Y-11035097D01*
X12187083Y-11037477D01*
X12186257Y-11039787D01*
X12185208Y-11042005D01*
X12183947Y-11044109D01*
X12182485Y-11046080D01*
X12180838Y-11047898D01*
X12179020Y-11049545D01*
X12177049Y-11051007D01*
X12174945Y-11052268D01*
X12172727Y-11053317D01*
X12170417Y-11054144D01*
X12168037Y-11054740D01*
X12165610Y-11055100D01*
X12163160Y-11055220D01*
X12088160Y-11055220D01*
X12085710Y-11055100D01*
X12083283Y-11054740D01*
X12080903Y-11054144D01*
X12078593Y-11053317D01*
X12076375Y-11052268D01*
X12074271Y-11051007D01*
X12072300Y-11049545D01*
X12070482Y-11047898D01*
X12068835Y-11046080D01*
X12067373Y-11044109D01*
X12066112Y-11042005D01*
X12065063Y-11039787D01*
X12064236Y-11037477D01*
X12063640Y-11035097D01*
X12063280Y-11032670D01*
X12063160Y-11030220D01*
X12063160Y-10905220D01*
X12063280Y-10902770D01*
X12063640Y-10900343D01*
X12064236Y-10897963D01*
X12065063Y-10895653D01*
X12066112Y-10893435D01*
X12067373Y-10891331D01*
X12068835Y-10889360D01*
X12070482Y-10887542D01*
X12072300Y-10885895D01*
X12074271Y-10884433D01*
X12076375Y-10883172D01*
X12078593Y-10882123D01*
X12080903Y-10881297D01*
X12083283Y-10880700D01*
X12085710Y-10880340D01*
X12088160Y-10880220D01*
X12163160Y-10880220D01*
X12165610Y-10880340D01*
G37*
G36*
X14070610Y-10880340D02*
G01*
X14073037Y-10880700D01*
X14075417Y-10881297D01*
X14077727Y-10882123D01*
X14079945Y-10883172D01*
X14082049Y-10884433D01*
X14084020Y-10885895D01*
X14085838Y-10887542D01*
X14087485Y-10889360D01*
X14088947Y-10891331D01*
X14090208Y-10893435D01*
X14091257Y-10895653D01*
X14092083Y-10897963D01*
X14092680Y-10900343D01*
X14093040Y-10902770D01*
X14093160Y-10905220D01*
X14093160Y-11030220D01*
X14093040Y-11032670D01*
X14092680Y-11035097D01*
X14092083Y-11037477D01*
X14091257Y-11039787D01*
X14090208Y-11042005D01*
X14088947Y-11044109D01*
X14087485Y-11046080D01*
X14085838Y-11047898D01*
X14084020Y-11049545D01*
X14082049Y-11051007D01*
X14079945Y-11052268D01*
X14077727Y-11053317D01*
X14075417Y-11054144D01*
X14073037Y-11054740D01*
X14070610Y-11055100D01*
X14068160Y-11055220D01*
X13993160Y-11055220D01*
X13990710Y-11055100D01*
X13988283Y-11054740D01*
X13985903Y-11054144D01*
X13983593Y-11053317D01*
X13981375Y-11052268D01*
X13979271Y-11051007D01*
X13977300Y-11049545D01*
X13975482Y-11047898D01*
X13973835Y-11046080D01*
X13972373Y-11044109D01*
X13971112Y-11042005D01*
X13970063Y-11039787D01*
X13969236Y-11037477D01*
X13968640Y-11035097D01*
X13968280Y-11032670D01*
X13968160Y-11030220D01*
X13968160Y-10905220D01*
X13968280Y-10902770D01*
X13968640Y-10900343D01*
X13969236Y-10897963D01*
X13970063Y-10895653D01*
X13971112Y-10893435D01*
X13972373Y-10891331D01*
X13973835Y-10889360D01*
X13975482Y-10887542D01*
X13977300Y-10885895D01*
X13979271Y-10884433D01*
X13981375Y-10883172D01*
X13983593Y-10882123D01*
X13985903Y-10881297D01*
X13988283Y-10880700D01*
X13990710Y-10880340D01*
X13993160Y-10880220D01*
X14068160Y-10880220D01*
X14070610Y-10880340D01*
G37*
G36*
X14350610Y-10880340D02*
G01*
X14353037Y-10880700D01*
X14355417Y-10881297D01*
X14357727Y-10882123D01*
X14359945Y-10883172D01*
X14362049Y-10884433D01*
X14364020Y-10885895D01*
X14365838Y-10887542D01*
X14367485Y-10889360D01*
X14368947Y-10891331D01*
X14370208Y-10893435D01*
X14371257Y-10895653D01*
X14372083Y-10897963D01*
X14372680Y-10900343D01*
X14373040Y-10902770D01*
X14373160Y-10905220D01*
X14373160Y-11030220D01*
X14373040Y-11032670D01*
X14372680Y-11035097D01*
X14372083Y-11037477D01*
X14371257Y-11039787D01*
X14370208Y-11042005D01*
X14368947Y-11044109D01*
X14367485Y-11046080D01*
X14365838Y-11047898D01*
X14364020Y-11049545D01*
X14362049Y-11051007D01*
X14359945Y-11052268D01*
X14357727Y-11053317D01*
X14355417Y-11054144D01*
X14353037Y-11054740D01*
X14350610Y-11055100D01*
X14348160Y-11055220D01*
X14273160Y-11055220D01*
X14270710Y-11055100D01*
X14268283Y-11054740D01*
X14265903Y-11054144D01*
X14263593Y-11053317D01*
X14261375Y-11052268D01*
X14259271Y-11051007D01*
X14257300Y-11049545D01*
X14255482Y-11047898D01*
X14253835Y-11046080D01*
X14252373Y-11044109D01*
X14251112Y-11042005D01*
X14250063Y-11039787D01*
X14249236Y-11037477D01*
X14248640Y-11035097D01*
X14248280Y-11032670D01*
X14248160Y-11030220D01*
X14248160Y-10905220D01*
X14248280Y-10902770D01*
X14248640Y-10900343D01*
X14249236Y-10897963D01*
X14250063Y-10895653D01*
X14251112Y-10893435D01*
X14252373Y-10891331D01*
X14253835Y-10889360D01*
X14255482Y-10887542D01*
X14257300Y-10885895D01*
X14259271Y-10884433D01*
X14261375Y-10883172D01*
X14263593Y-10882123D01*
X14265903Y-10881297D01*
X14268283Y-10880700D01*
X14270710Y-10880340D01*
X14273160Y-10880220D01*
X14348160Y-10880220D01*
X14350610Y-10880340D01*
G37*
G36*
X15975610Y-10880340D02*
G01*
X15978037Y-10880700D01*
X15980417Y-10881297D01*
X15982727Y-10882123D01*
X15984945Y-10883172D01*
X15987049Y-10884433D01*
X15989020Y-10885895D01*
X15990838Y-10887542D01*
X15992485Y-10889360D01*
X15993947Y-10891331D01*
X15995208Y-10893435D01*
X15996257Y-10895653D01*
X15997083Y-10897963D01*
X15997680Y-10900343D01*
X15998040Y-10902770D01*
X15998160Y-10905220D01*
X15998160Y-11030220D01*
X15998040Y-11032670D01*
X15997680Y-11035097D01*
X15997083Y-11037477D01*
X15996257Y-11039787D01*
X15995208Y-11042005D01*
X15993947Y-11044109D01*
X15992485Y-11046080D01*
X15990838Y-11047898D01*
X15989020Y-11049545D01*
X15987049Y-11051007D01*
X15984945Y-11052268D01*
X15982727Y-11053317D01*
X15980417Y-11054144D01*
X15978037Y-11054740D01*
X15975610Y-11055100D01*
X15973160Y-11055220D01*
X15898160Y-11055220D01*
X15895710Y-11055100D01*
X15893283Y-11054740D01*
X15890903Y-11054144D01*
X15888593Y-11053317D01*
X15886375Y-11052268D01*
X15884271Y-11051007D01*
X15882300Y-11049545D01*
X15880482Y-11047898D01*
X15878835Y-11046080D01*
X15877373Y-11044109D01*
X15876112Y-11042005D01*
X15875063Y-11039787D01*
X15874236Y-11037477D01*
X15873640Y-11035097D01*
X15873280Y-11032670D01*
X15873160Y-11030220D01*
X15873160Y-10905220D01*
X15873280Y-10902770D01*
X15873640Y-10900343D01*
X15874236Y-10897963D01*
X15875063Y-10895653D01*
X15876112Y-10893435D01*
X15877373Y-10891331D01*
X15878835Y-10889360D01*
X15880482Y-10887542D01*
X15882300Y-10885895D01*
X15884271Y-10884433D01*
X15886375Y-10883172D01*
X15888593Y-10882123D01*
X15890903Y-10881297D01*
X15893283Y-10880700D01*
X15895710Y-10880340D01*
X15898160Y-10880220D01*
X15973160Y-10880220D01*
X15975610Y-10880340D01*
G37*
G36*
X16255610Y-10880340D02*
G01*
X16258037Y-10880700D01*
X16260417Y-10881297D01*
X16262727Y-10882123D01*
X16264945Y-10883172D01*
X16267049Y-10884433D01*
X16269020Y-10885895D01*
X16270838Y-10887542D01*
X16272485Y-10889360D01*
X16273947Y-10891331D01*
X16275208Y-10893435D01*
X16276257Y-10895653D01*
X16277083Y-10897963D01*
X16277680Y-10900343D01*
X16278040Y-10902770D01*
X16278160Y-10905220D01*
X16278160Y-11030220D01*
X16278040Y-11032670D01*
X16277680Y-11035097D01*
X16277083Y-11037477D01*
X16276257Y-11039787D01*
X16275208Y-11042005D01*
X16273947Y-11044109D01*
X16272485Y-11046080D01*
X16270838Y-11047898D01*
X16269020Y-11049545D01*
X16267049Y-11051007D01*
X16264945Y-11052268D01*
X16262727Y-11053317D01*
X16260417Y-11054144D01*
X16258037Y-11054740D01*
X16255610Y-11055100D01*
X16253160Y-11055220D01*
X16178160Y-11055220D01*
X16175710Y-11055100D01*
X16173283Y-11054740D01*
X16170903Y-11054144D01*
X16168593Y-11053317D01*
X16166375Y-11052268D01*
X16164271Y-11051007D01*
X16162300Y-11049545D01*
X16160482Y-11047898D01*
X16158835Y-11046080D01*
X16157373Y-11044109D01*
X16156112Y-11042005D01*
X16155063Y-11039787D01*
X16154236Y-11037477D01*
X16153640Y-11035097D01*
X16153280Y-11032670D01*
X16153160Y-11030220D01*
X16153160Y-10905220D01*
X16153280Y-10902770D01*
X16153640Y-10900343D01*
X16154236Y-10897963D01*
X16155063Y-10895653D01*
X16156112Y-10893435D01*
X16157373Y-10891331D01*
X16158835Y-10889360D01*
X16160482Y-10887542D01*
X16162300Y-10885895D01*
X16164271Y-10884433D01*
X16166375Y-10883172D01*
X16168593Y-10882123D01*
X16170903Y-10881297D01*
X16173283Y-10880700D01*
X16175710Y-10880340D01*
X16178160Y-10880220D01*
X16253160Y-10880220D01*
X16255610Y-10880340D01*
G37*
G36*
X17880610Y-10880340D02*
G01*
X17883037Y-10880700D01*
X17885417Y-10881297D01*
X17887727Y-10882123D01*
X17889945Y-10883172D01*
X17892049Y-10884433D01*
X17894020Y-10885895D01*
X17895838Y-10887542D01*
X17897485Y-10889360D01*
X17898947Y-10891331D01*
X17900208Y-10893435D01*
X17901257Y-10895653D01*
X17902084Y-10897963D01*
X17902680Y-10900343D01*
X17903040Y-10902770D01*
X17903160Y-10905220D01*
X17903160Y-11030220D01*
X17903040Y-11032670D01*
X17902680Y-11035097D01*
X17902084Y-11037477D01*
X17901257Y-11039787D01*
X17900208Y-11042005D01*
X17898947Y-11044109D01*
X17897485Y-11046080D01*
X17895838Y-11047898D01*
X17894020Y-11049545D01*
X17892049Y-11051007D01*
X17889945Y-11052268D01*
X17887727Y-11053317D01*
X17885417Y-11054144D01*
X17883037Y-11054740D01*
X17880610Y-11055100D01*
X17878160Y-11055220D01*
X17803160Y-11055220D01*
X17800710Y-11055100D01*
X17798283Y-11054740D01*
X17795903Y-11054144D01*
X17793593Y-11053317D01*
X17791375Y-11052268D01*
X17789271Y-11051007D01*
X17787300Y-11049545D01*
X17785482Y-11047898D01*
X17783835Y-11046080D01*
X17782373Y-11044109D01*
X17781112Y-11042005D01*
X17780063Y-11039787D01*
X17779237Y-11037477D01*
X17778640Y-11035097D01*
X17778280Y-11032670D01*
X17778160Y-11030220D01*
X17778160Y-10905220D01*
X17778280Y-10902770D01*
X17778640Y-10900343D01*
X17779237Y-10897963D01*
X17780063Y-10895653D01*
X17781112Y-10893435D01*
X17782373Y-10891331D01*
X17783835Y-10889360D01*
X17785482Y-10887542D01*
X17787300Y-10885895D01*
X17789271Y-10884433D01*
X17791375Y-10883172D01*
X17793593Y-10882123D01*
X17795903Y-10881297D01*
X17798283Y-10880700D01*
X17800710Y-10880340D01*
X17803160Y-10880220D01*
X17878160Y-10880220D01*
X17880610Y-10880340D01*
G37*
G36*
X18160610Y-10880340D02*
G01*
X18163037Y-10880700D01*
X18165417Y-10881297D01*
X18167727Y-10882123D01*
X18169945Y-10883172D01*
X18172049Y-10884433D01*
X18174020Y-10885895D01*
X18175838Y-10887542D01*
X18177485Y-10889360D01*
X18178947Y-10891331D01*
X18180208Y-10893435D01*
X18181257Y-10895653D01*
X18182084Y-10897963D01*
X18182680Y-10900343D01*
X18183040Y-10902770D01*
X18183160Y-10905220D01*
X18183160Y-11030220D01*
X18183040Y-11032670D01*
X18182680Y-11035097D01*
X18182084Y-11037477D01*
X18181257Y-11039787D01*
X18180208Y-11042005D01*
X18178947Y-11044109D01*
X18177485Y-11046080D01*
X18175838Y-11047898D01*
X18174020Y-11049545D01*
X18172049Y-11051007D01*
X18169945Y-11052268D01*
X18167727Y-11053317D01*
X18165417Y-11054144D01*
X18163037Y-11054740D01*
X18160610Y-11055100D01*
X18158160Y-11055220D01*
X18083160Y-11055220D01*
X18080710Y-11055100D01*
X18078283Y-11054740D01*
X18075903Y-11054144D01*
X18073593Y-11053317D01*
X18071375Y-11052268D01*
X18069271Y-11051007D01*
X18067300Y-11049545D01*
X18065482Y-11047898D01*
X18063835Y-11046080D01*
X18062373Y-11044109D01*
X18061112Y-11042005D01*
X18060063Y-11039787D01*
X18059237Y-11037477D01*
X18058640Y-11035097D01*
X18058280Y-11032670D01*
X18058160Y-11030220D01*
X18058160Y-10905220D01*
X18058280Y-10902770D01*
X18058640Y-10900343D01*
X18059237Y-10897963D01*
X18060063Y-10895653D01*
X18061112Y-10893435D01*
X18062373Y-10891331D01*
X18063835Y-10889360D01*
X18065482Y-10887542D01*
X18067300Y-10885895D01*
X18069271Y-10884433D01*
X18071375Y-10883172D01*
X18073593Y-10882123D01*
X18075903Y-10881297D01*
X18078283Y-10880700D01*
X18080710Y-10880340D01*
X18083160Y-10880220D01*
X18158160Y-10880220D01*
X18160610Y-10880340D01*
G37*
G36*
X4545610Y-12785340D02*
G01*
X4548037Y-12785700D01*
X4550417Y-12786296D01*
X4552727Y-12787123D01*
X4554945Y-12788172D01*
X4557049Y-12789433D01*
X4559020Y-12790895D01*
X4560838Y-12792542D01*
X4562485Y-12794360D01*
X4563947Y-12796331D01*
X4565208Y-12798435D01*
X4566257Y-12800653D01*
X4567084Y-12802963D01*
X4567680Y-12805343D01*
X4568040Y-12807770D01*
X4568160Y-12810220D01*
X4568160Y-12935220D01*
X4568040Y-12937670D01*
X4567680Y-12940097D01*
X4567084Y-12942477D01*
X4566257Y-12944787D01*
X4565208Y-12947005D01*
X4563947Y-12949109D01*
X4562485Y-12951080D01*
X4560838Y-12952898D01*
X4559020Y-12954545D01*
X4557049Y-12956007D01*
X4554945Y-12957268D01*
X4552727Y-12958317D01*
X4550417Y-12959143D01*
X4548037Y-12959740D01*
X4545610Y-12960100D01*
X4543160Y-12960220D01*
X4468160Y-12960220D01*
X4465710Y-12960100D01*
X4463283Y-12959740D01*
X4460903Y-12959143D01*
X4458593Y-12958317D01*
X4456375Y-12957268D01*
X4454271Y-12956007D01*
X4452300Y-12954545D01*
X4450482Y-12952898D01*
X4448835Y-12951080D01*
X4447373Y-12949109D01*
X4446112Y-12947005D01*
X4445063Y-12944787D01*
X4444237Y-12942477D01*
X4443640Y-12940097D01*
X4443280Y-12937670D01*
X4443160Y-12935220D01*
X4443160Y-12810220D01*
X4443280Y-12807770D01*
X4443640Y-12805343D01*
X4444237Y-12802963D01*
X4445063Y-12800653D01*
X4446112Y-12798435D01*
X4447373Y-12796331D01*
X4448835Y-12794360D01*
X4450482Y-12792542D01*
X4452300Y-12790895D01*
X4454271Y-12789433D01*
X4456375Y-12788172D01*
X4458593Y-12787123D01*
X4460903Y-12786296D01*
X4463283Y-12785700D01*
X4465710Y-12785340D01*
X4468160Y-12785220D01*
X4543160Y-12785220D01*
X4545610Y-12785340D01*
G37*
G36*
X4825610Y-12785340D02*
G01*
X4828037Y-12785700D01*
X4830417Y-12786296D01*
X4832727Y-12787123D01*
X4834945Y-12788172D01*
X4837049Y-12789433D01*
X4839020Y-12790895D01*
X4840838Y-12792542D01*
X4842485Y-12794360D01*
X4843947Y-12796331D01*
X4845208Y-12798435D01*
X4846257Y-12800653D01*
X4847084Y-12802963D01*
X4847680Y-12805343D01*
X4848040Y-12807770D01*
X4848160Y-12810220D01*
X4848160Y-12935220D01*
X4848040Y-12937670D01*
X4847680Y-12940097D01*
X4847084Y-12942477D01*
X4846257Y-12944787D01*
X4845208Y-12947005D01*
X4843947Y-12949109D01*
X4842485Y-12951080D01*
X4840838Y-12952898D01*
X4839020Y-12954545D01*
X4837049Y-12956007D01*
X4834945Y-12957268D01*
X4832727Y-12958317D01*
X4830417Y-12959143D01*
X4828037Y-12959740D01*
X4825610Y-12960100D01*
X4823160Y-12960220D01*
X4748160Y-12960220D01*
X4745710Y-12960100D01*
X4743283Y-12959740D01*
X4740903Y-12959143D01*
X4738593Y-12958317D01*
X4736375Y-12957268D01*
X4734271Y-12956007D01*
X4732300Y-12954545D01*
X4730482Y-12952898D01*
X4728835Y-12951080D01*
X4727373Y-12949109D01*
X4726112Y-12947005D01*
X4725063Y-12944787D01*
X4724237Y-12942477D01*
X4723640Y-12940097D01*
X4723280Y-12937670D01*
X4723160Y-12935220D01*
X4723160Y-12810220D01*
X4723280Y-12807770D01*
X4723640Y-12805343D01*
X4724237Y-12802963D01*
X4725063Y-12800653D01*
X4726112Y-12798435D01*
X4727373Y-12796331D01*
X4728835Y-12794360D01*
X4730482Y-12792542D01*
X4732300Y-12790895D01*
X4734271Y-12789433D01*
X4736375Y-12788172D01*
X4738593Y-12787123D01*
X4740903Y-12786296D01*
X4743283Y-12785700D01*
X4745710Y-12785340D01*
X4748160Y-12785220D01*
X4823160Y-12785220D01*
X4825610Y-12785340D01*
G37*
G36*
X6730610Y-12785340D02*
G01*
X6733037Y-12785700D01*
X6735417Y-12786296D01*
X6737727Y-12787123D01*
X6739945Y-12788172D01*
X6742049Y-12789433D01*
X6744020Y-12790895D01*
X6745838Y-12792542D01*
X6747485Y-12794360D01*
X6748947Y-12796331D01*
X6750208Y-12798435D01*
X6751257Y-12800653D01*
X6752083Y-12802963D01*
X6752680Y-12805343D01*
X6753040Y-12807770D01*
X6753160Y-12810220D01*
X6753160Y-12935220D01*
X6753040Y-12937670D01*
X6752680Y-12940097D01*
X6752083Y-12942477D01*
X6751257Y-12944787D01*
X6750208Y-12947005D01*
X6748947Y-12949109D01*
X6747485Y-12951080D01*
X6745838Y-12952898D01*
X6744020Y-12954545D01*
X6742049Y-12956007D01*
X6739945Y-12957268D01*
X6737727Y-12958317D01*
X6735417Y-12959143D01*
X6733037Y-12959740D01*
X6730610Y-12960100D01*
X6728160Y-12960220D01*
X6653160Y-12960220D01*
X6650710Y-12960100D01*
X6648283Y-12959740D01*
X6645903Y-12959143D01*
X6643593Y-12958317D01*
X6641375Y-12957268D01*
X6639271Y-12956007D01*
X6637300Y-12954545D01*
X6635482Y-12952898D01*
X6633835Y-12951080D01*
X6632373Y-12949109D01*
X6631112Y-12947005D01*
X6630063Y-12944787D01*
X6629236Y-12942477D01*
X6628640Y-12940097D01*
X6628280Y-12937670D01*
X6628160Y-12935220D01*
X6628160Y-12810220D01*
X6628280Y-12807770D01*
X6628640Y-12805343D01*
X6629236Y-12802963D01*
X6630063Y-12800653D01*
X6631112Y-12798435D01*
X6632373Y-12796331D01*
X6633835Y-12794360D01*
X6635482Y-12792542D01*
X6637300Y-12790895D01*
X6639271Y-12789433D01*
X6641375Y-12788172D01*
X6643593Y-12787123D01*
X6645903Y-12786296D01*
X6648283Y-12785700D01*
X6650710Y-12785340D01*
X6653160Y-12785220D01*
X6728160Y-12785220D01*
X6730610Y-12785340D01*
G37*
G36*
X6450610Y-12785340D02*
G01*
X6453037Y-12785700D01*
X6455417Y-12786296D01*
X6457727Y-12787123D01*
X6459945Y-12788172D01*
X6462049Y-12789433D01*
X6464020Y-12790895D01*
X6465838Y-12792542D01*
X6467485Y-12794360D01*
X6468947Y-12796331D01*
X6470208Y-12798435D01*
X6471257Y-12800653D01*
X6472083Y-12802963D01*
X6472680Y-12805343D01*
X6473040Y-12807770D01*
X6473160Y-12810220D01*
X6473160Y-12935220D01*
X6473040Y-12937670D01*
X6472680Y-12940097D01*
X6472083Y-12942477D01*
X6471257Y-12944787D01*
X6470208Y-12947005D01*
X6468947Y-12949109D01*
X6467485Y-12951080D01*
X6465838Y-12952898D01*
X6464020Y-12954545D01*
X6462049Y-12956007D01*
X6459945Y-12957268D01*
X6457727Y-12958317D01*
X6455417Y-12959143D01*
X6453037Y-12959740D01*
X6450610Y-12960100D01*
X6448160Y-12960220D01*
X6373160Y-12960220D01*
X6370710Y-12960100D01*
X6368283Y-12959740D01*
X6365903Y-12959143D01*
X6363593Y-12958317D01*
X6361375Y-12957268D01*
X6359271Y-12956007D01*
X6357300Y-12954545D01*
X6355482Y-12952898D01*
X6353835Y-12951080D01*
X6352373Y-12949109D01*
X6351112Y-12947005D01*
X6350063Y-12944787D01*
X6349236Y-12942477D01*
X6348640Y-12940097D01*
X6348280Y-12937670D01*
X6348160Y-12935220D01*
X6348160Y-12810220D01*
X6348280Y-12807770D01*
X6348640Y-12805343D01*
X6349236Y-12802963D01*
X6350063Y-12800653D01*
X6351112Y-12798435D01*
X6352373Y-12796331D01*
X6353835Y-12794360D01*
X6355482Y-12792542D01*
X6357300Y-12790895D01*
X6359271Y-12789433D01*
X6361375Y-12788172D01*
X6363593Y-12787123D01*
X6365903Y-12786296D01*
X6368283Y-12785700D01*
X6370710Y-12785340D01*
X6373160Y-12785220D01*
X6448160Y-12785220D01*
X6450610Y-12785340D01*
G37*
G36*
X8635610Y-12785340D02*
G01*
X8638037Y-12785700D01*
X8640417Y-12786296D01*
X8642727Y-12787123D01*
X8644945Y-12788172D01*
X8647049Y-12789433D01*
X8649020Y-12790895D01*
X8650838Y-12792542D01*
X8652485Y-12794360D01*
X8653947Y-12796331D01*
X8655208Y-12798435D01*
X8656257Y-12800653D01*
X8657084Y-12802963D01*
X8657680Y-12805343D01*
X8658040Y-12807770D01*
X8658160Y-12810220D01*
X8658160Y-12935220D01*
X8658040Y-12937670D01*
X8657680Y-12940097D01*
X8657084Y-12942477D01*
X8656257Y-12944787D01*
X8655208Y-12947005D01*
X8653947Y-12949109D01*
X8652485Y-12951080D01*
X8650838Y-12952898D01*
X8649020Y-12954545D01*
X8647049Y-12956007D01*
X8644945Y-12957268D01*
X8642727Y-12958317D01*
X8640417Y-12959143D01*
X8638037Y-12959740D01*
X8635610Y-12960100D01*
X8633160Y-12960220D01*
X8558160Y-12960220D01*
X8555710Y-12960100D01*
X8553283Y-12959740D01*
X8550903Y-12959143D01*
X8548593Y-12958317D01*
X8546375Y-12957268D01*
X8544271Y-12956007D01*
X8542300Y-12954545D01*
X8540482Y-12952898D01*
X8538835Y-12951080D01*
X8537373Y-12949109D01*
X8536112Y-12947005D01*
X8535063Y-12944787D01*
X8534237Y-12942477D01*
X8533640Y-12940097D01*
X8533280Y-12937670D01*
X8533160Y-12935220D01*
X8533160Y-12810220D01*
X8533280Y-12807770D01*
X8533640Y-12805343D01*
X8534237Y-12802963D01*
X8535063Y-12800653D01*
X8536112Y-12798435D01*
X8537373Y-12796331D01*
X8538835Y-12794360D01*
X8540482Y-12792542D01*
X8542300Y-12790895D01*
X8544271Y-12789433D01*
X8546375Y-12788172D01*
X8548593Y-12787123D01*
X8550903Y-12786296D01*
X8553283Y-12785700D01*
X8555710Y-12785340D01*
X8558160Y-12785220D01*
X8633160Y-12785220D01*
X8635610Y-12785340D01*
G37*
G36*
X8355610Y-12785340D02*
G01*
X8358037Y-12785700D01*
X8360417Y-12786296D01*
X8362727Y-12787123D01*
X8364945Y-12788172D01*
X8367049Y-12789433D01*
X8369020Y-12790895D01*
X8370838Y-12792542D01*
X8372485Y-12794360D01*
X8373947Y-12796331D01*
X8375208Y-12798435D01*
X8376257Y-12800653D01*
X8377083Y-12802963D01*
X8377680Y-12805343D01*
X8378040Y-12807770D01*
X8378160Y-12810220D01*
X8378160Y-12935220D01*
X8378040Y-12937670D01*
X8377680Y-12940097D01*
X8377083Y-12942477D01*
X8376257Y-12944787D01*
X8375208Y-12947005D01*
X8373947Y-12949109D01*
X8372485Y-12951080D01*
X8370838Y-12952898D01*
X8369020Y-12954545D01*
X8367049Y-12956007D01*
X8364945Y-12957268D01*
X8362727Y-12958317D01*
X8360417Y-12959143D01*
X8358037Y-12959740D01*
X8355610Y-12960100D01*
X8353160Y-12960220D01*
X8278160Y-12960220D01*
X8275710Y-12960100D01*
X8273283Y-12959740D01*
X8270903Y-12959143D01*
X8268593Y-12958317D01*
X8266375Y-12957268D01*
X8264271Y-12956007D01*
X8262300Y-12954545D01*
X8260482Y-12952898D01*
X8258835Y-12951080D01*
X8257373Y-12949109D01*
X8256112Y-12947005D01*
X8255063Y-12944787D01*
X8254236Y-12942477D01*
X8253640Y-12940097D01*
X8253280Y-12937670D01*
X8253160Y-12935220D01*
X8253160Y-12810220D01*
X8253280Y-12807770D01*
X8253640Y-12805343D01*
X8254236Y-12802963D01*
X8255063Y-12800653D01*
X8256112Y-12798435D01*
X8257373Y-12796331D01*
X8258835Y-12794360D01*
X8260482Y-12792542D01*
X8262300Y-12790895D01*
X8264271Y-12789433D01*
X8266375Y-12788172D01*
X8268593Y-12787123D01*
X8270903Y-12786296D01*
X8273283Y-12785700D01*
X8275710Y-12785340D01*
X8278160Y-12785220D01*
X8353160Y-12785220D01*
X8355610Y-12785340D01*
G37*
G36*
X10540610Y-12785340D02*
G01*
X10543037Y-12785700D01*
X10545417Y-12786296D01*
X10547727Y-12787123D01*
X10549945Y-12788172D01*
X10552049Y-12789433D01*
X10554020Y-12790895D01*
X10555838Y-12792542D01*
X10557485Y-12794360D01*
X10558947Y-12796331D01*
X10560208Y-12798435D01*
X10561257Y-12800653D01*
X10562084Y-12802963D01*
X10562680Y-12805343D01*
X10563040Y-12807770D01*
X10563160Y-12810220D01*
X10563160Y-12935220D01*
X10563040Y-12937670D01*
X10562680Y-12940097D01*
X10562084Y-12942477D01*
X10561257Y-12944787D01*
X10560208Y-12947005D01*
X10558947Y-12949109D01*
X10557485Y-12951080D01*
X10555838Y-12952898D01*
X10554020Y-12954545D01*
X10552049Y-12956007D01*
X10549945Y-12957268D01*
X10547727Y-12958317D01*
X10545417Y-12959143D01*
X10543037Y-12959740D01*
X10540610Y-12960100D01*
X10538160Y-12960220D01*
X10463160Y-12960220D01*
X10460710Y-12960100D01*
X10458283Y-12959740D01*
X10455903Y-12959143D01*
X10453593Y-12958317D01*
X10451375Y-12957268D01*
X10449271Y-12956007D01*
X10447300Y-12954545D01*
X10445482Y-12952898D01*
X10443835Y-12951080D01*
X10442373Y-12949109D01*
X10441112Y-12947005D01*
X10440063Y-12944787D01*
X10439237Y-12942477D01*
X10438640Y-12940097D01*
X10438280Y-12937670D01*
X10438160Y-12935220D01*
X10438160Y-12810220D01*
X10438280Y-12807770D01*
X10438640Y-12805343D01*
X10439237Y-12802963D01*
X10440063Y-12800653D01*
X10441112Y-12798435D01*
X10442373Y-12796331D01*
X10443835Y-12794360D01*
X10445482Y-12792542D01*
X10447300Y-12790895D01*
X10449271Y-12789433D01*
X10451375Y-12788172D01*
X10453593Y-12787123D01*
X10455903Y-12786296D01*
X10458283Y-12785700D01*
X10460710Y-12785340D01*
X10463160Y-12785220D01*
X10538160Y-12785220D01*
X10540610Y-12785340D01*
G37*
G36*
X10260610Y-12785340D02*
G01*
X10263037Y-12785700D01*
X10265417Y-12786296D01*
X10267727Y-12787123D01*
X10269945Y-12788172D01*
X10272049Y-12789433D01*
X10274020Y-12790895D01*
X10275838Y-12792542D01*
X10277485Y-12794360D01*
X10278947Y-12796331D01*
X10280208Y-12798435D01*
X10281257Y-12800653D01*
X10282084Y-12802963D01*
X10282680Y-12805343D01*
X10283040Y-12807770D01*
X10283160Y-12810220D01*
X10283160Y-12935220D01*
X10283040Y-12937670D01*
X10282680Y-12940097D01*
X10282084Y-12942477D01*
X10281257Y-12944787D01*
X10280208Y-12947005D01*
X10278947Y-12949109D01*
X10277485Y-12951080D01*
X10275838Y-12952898D01*
X10274020Y-12954545D01*
X10272049Y-12956007D01*
X10269945Y-12957268D01*
X10267727Y-12958317D01*
X10265417Y-12959143D01*
X10263037Y-12959740D01*
X10260610Y-12960100D01*
X10258160Y-12960220D01*
X10183160Y-12960220D01*
X10180710Y-12960100D01*
X10178283Y-12959740D01*
X10175903Y-12959143D01*
X10173593Y-12958317D01*
X10171375Y-12957268D01*
X10169271Y-12956007D01*
X10167300Y-12954545D01*
X10165482Y-12952898D01*
X10163835Y-12951080D01*
X10162373Y-12949109D01*
X10161112Y-12947005D01*
X10160063Y-12944787D01*
X10159237Y-12942477D01*
X10158640Y-12940097D01*
X10158280Y-12937670D01*
X10158160Y-12935220D01*
X10158160Y-12810220D01*
X10158280Y-12807770D01*
X10158640Y-12805343D01*
X10159237Y-12802963D01*
X10160063Y-12800653D01*
X10161112Y-12798435D01*
X10162373Y-12796331D01*
X10163835Y-12794360D01*
X10165482Y-12792542D01*
X10167300Y-12790895D01*
X10169271Y-12789433D01*
X10171375Y-12788172D01*
X10173593Y-12787123D01*
X10175903Y-12786296D01*
X10178283Y-12785700D01*
X10180710Y-12785340D01*
X10183160Y-12785220D01*
X10258160Y-12785220D01*
X10260610Y-12785340D01*
G37*
G36*
X12165610Y-12785340D02*
G01*
X12168037Y-12785700D01*
X12170417Y-12786296D01*
X12172727Y-12787123D01*
X12174945Y-12788172D01*
X12177049Y-12789433D01*
X12179020Y-12790895D01*
X12180838Y-12792542D01*
X12182485Y-12794360D01*
X12183947Y-12796331D01*
X12185208Y-12798435D01*
X12186257Y-12800653D01*
X12187083Y-12802963D01*
X12187680Y-12805343D01*
X12188040Y-12807770D01*
X12188160Y-12810220D01*
X12188160Y-12935220D01*
X12188040Y-12937670D01*
X12187680Y-12940097D01*
X12187083Y-12942477D01*
X12186257Y-12944787D01*
X12185208Y-12947005D01*
X12183947Y-12949109D01*
X12182485Y-12951080D01*
X12180838Y-12952898D01*
X12179020Y-12954545D01*
X12177049Y-12956007D01*
X12174945Y-12957268D01*
X12172727Y-12958317D01*
X12170417Y-12959143D01*
X12168037Y-12959740D01*
X12165610Y-12960100D01*
X12163160Y-12960220D01*
X12088160Y-12960220D01*
X12085710Y-12960100D01*
X12083283Y-12959740D01*
X12080903Y-12959143D01*
X12078593Y-12958317D01*
X12076375Y-12957268D01*
X12074271Y-12956007D01*
X12072300Y-12954545D01*
X12070482Y-12952898D01*
X12068835Y-12951080D01*
X12067373Y-12949109D01*
X12066112Y-12947005D01*
X12065063Y-12944787D01*
X12064236Y-12942477D01*
X12063640Y-12940097D01*
X12063280Y-12937670D01*
X12063160Y-12935220D01*
X12063160Y-12810220D01*
X12063280Y-12807770D01*
X12063640Y-12805343D01*
X12064236Y-12802963D01*
X12065063Y-12800653D01*
X12066112Y-12798435D01*
X12067373Y-12796331D01*
X12068835Y-12794360D01*
X12070482Y-12792542D01*
X12072300Y-12790895D01*
X12074271Y-12789433D01*
X12076375Y-12788172D01*
X12078593Y-12787123D01*
X12080903Y-12786296D01*
X12083283Y-12785700D01*
X12085710Y-12785340D01*
X12088160Y-12785220D01*
X12163160Y-12785220D01*
X12165610Y-12785340D01*
G37*
G36*
X12445610Y-12785340D02*
G01*
X12448037Y-12785700D01*
X12450417Y-12786296D01*
X12452727Y-12787123D01*
X12454945Y-12788172D01*
X12457049Y-12789433D01*
X12459020Y-12790895D01*
X12460838Y-12792542D01*
X12462485Y-12794360D01*
X12463947Y-12796331D01*
X12465208Y-12798435D01*
X12466257Y-12800653D01*
X12467083Y-12802963D01*
X12467680Y-12805343D01*
X12468040Y-12807770D01*
X12468160Y-12810220D01*
X12468160Y-12935220D01*
X12468040Y-12937670D01*
X12467680Y-12940097D01*
X12467083Y-12942477D01*
X12466257Y-12944787D01*
X12465208Y-12947005D01*
X12463947Y-12949109D01*
X12462485Y-12951080D01*
X12460838Y-12952898D01*
X12459020Y-12954545D01*
X12457049Y-12956007D01*
X12454945Y-12957268D01*
X12452727Y-12958317D01*
X12450417Y-12959143D01*
X12448037Y-12959740D01*
X12445610Y-12960100D01*
X12443160Y-12960220D01*
X12368160Y-12960220D01*
X12365710Y-12960100D01*
X12363283Y-12959740D01*
X12360903Y-12959143D01*
X12358593Y-12958317D01*
X12356375Y-12957268D01*
X12354271Y-12956007D01*
X12352300Y-12954545D01*
X12350482Y-12952898D01*
X12348835Y-12951080D01*
X12347373Y-12949109D01*
X12346112Y-12947005D01*
X12345063Y-12944787D01*
X12344236Y-12942477D01*
X12343640Y-12940097D01*
X12343280Y-12937670D01*
X12343160Y-12935220D01*
X12343160Y-12810220D01*
X12343280Y-12807770D01*
X12343640Y-12805343D01*
X12344236Y-12802963D01*
X12345063Y-12800653D01*
X12346112Y-12798435D01*
X12347373Y-12796331D01*
X12348835Y-12794360D01*
X12350482Y-12792542D01*
X12352300Y-12790895D01*
X12354271Y-12789433D01*
X12356375Y-12788172D01*
X12358593Y-12787123D01*
X12360903Y-12786296D01*
X12363283Y-12785700D01*
X12365710Y-12785340D01*
X12368160Y-12785220D01*
X12443160Y-12785220D01*
X12445610Y-12785340D01*
G37*
G36*
X14070610Y-12785340D02*
G01*
X14073037Y-12785700D01*
X14075417Y-12786296D01*
X14077727Y-12787123D01*
X14079945Y-12788172D01*
X14082049Y-12789433D01*
X14084020Y-12790895D01*
X14085838Y-12792542D01*
X14087485Y-12794360D01*
X14088947Y-12796331D01*
X14090208Y-12798435D01*
X14091257Y-12800653D01*
X14092083Y-12802963D01*
X14092680Y-12805343D01*
X14093040Y-12807770D01*
X14093160Y-12810220D01*
X14093160Y-12935220D01*
X14093040Y-12937670D01*
X14092680Y-12940097D01*
X14092083Y-12942477D01*
X14091257Y-12944787D01*
X14090208Y-12947005D01*
X14088947Y-12949109D01*
X14087485Y-12951080D01*
X14085838Y-12952898D01*
X14084020Y-12954545D01*
X14082049Y-12956007D01*
X14079945Y-12957268D01*
X14077727Y-12958317D01*
X14075417Y-12959143D01*
X14073037Y-12959740D01*
X14070610Y-12960100D01*
X14068160Y-12960220D01*
X13993160Y-12960220D01*
X13990710Y-12960100D01*
X13988283Y-12959740D01*
X13985903Y-12959143D01*
X13983593Y-12958317D01*
X13981375Y-12957268D01*
X13979271Y-12956007D01*
X13977300Y-12954545D01*
X13975482Y-12952898D01*
X13973835Y-12951080D01*
X13972373Y-12949109D01*
X13971112Y-12947005D01*
X13970063Y-12944787D01*
X13969236Y-12942477D01*
X13968640Y-12940097D01*
X13968280Y-12937670D01*
X13968160Y-12935220D01*
X13968160Y-12810220D01*
X13968280Y-12807770D01*
X13968640Y-12805343D01*
X13969236Y-12802963D01*
X13970063Y-12800653D01*
X13971112Y-12798435D01*
X13972373Y-12796331D01*
X13973835Y-12794360D01*
X13975482Y-12792542D01*
X13977300Y-12790895D01*
X13979271Y-12789433D01*
X13981375Y-12788172D01*
X13983593Y-12787123D01*
X13985903Y-12786296D01*
X13988283Y-12785700D01*
X13990710Y-12785340D01*
X13993160Y-12785220D01*
X14068160Y-12785220D01*
X14070610Y-12785340D01*
G37*
G36*
X14350610Y-12785340D02*
G01*
X14353037Y-12785700D01*
X14355417Y-12786296D01*
X14357727Y-12787123D01*
X14359945Y-12788172D01*
X14362049Y-12789433D01*
X14364020Y-12790895D01*
X14365838Y-12792542D01*
X14367485Y-12794360D01*
X14368947Y-12796331D01*
X14370208Y-12798435D01*
X14371257Y-12800653D01*
X14372083Y-12802963D01*
X14372680Y-12805343D01*
X14373040Y-12807770D01*
X14373160Y-12810220D01*
X14373160Y-12935220D01*
X14373040Y-12937670D01*
X14372680Y-12940097D01*
X14372083Y-12942477D01*
X14371257Y-12944787D01*
X14370208Y-12947005D01*
X14368947Y-12949109D01*
X14367485Y-12951080D01*
X14365838Y-12952898D01*
X14364020Y-12954545D01*
X14362049Y-12956007D01*
X14359945Y-12957268D01*
X14357727Y-12958317D01*
X14355417Y-12959143D01*
X14353037Y-12959740D01*
X14350610Y-12960100D01*
X14348160Y-12960220D01*
X14273160Y-12960220D01*
X14270710Y-12960100D01*
X14268283Y-12959740D01*
X14265903Y-12959143D01*
X14263593Y-12958317D01*
X14261375Y-12957268D01*
X14259271Y-12956007D01*
X14257300Y-12954545D01*
X14255482Y-12952898D01*
X14253835Y-12951080D01*
X14252373Y-12949109D01*
X14251112Y-12947005D01*
X14250063Y-12944787D01*
X14249236Y-12942477D01*
X14248640Y-12940097D01*
X14248280Y-12937670D01*
X14248160Y-12935220D01*
X14248160Y-12810220D01*
X14248280Y-12807770D01*
X14248640Y-12805343D01*
X14249236Y-12802963D01*
X14250063Y-12800653D01*
X14251112Y-12798435D01*
X14252373Y-12796331D01*
X14253835Y-12794360D01*
X14255482Y-12792542D01*
X14257300Y-12790895D01*
X14259271Y-12789433D01*
X14261375Y-12788172D01*
X14263593Y-12787123D01*
X14265903Y-12786296D01*
X14268283Y-12785700D01*
X14270710Y-12785340D01*
X14273160Y-12785220D01*
X14348160Y-12785220D01*
X14350610Y-12785340D01*
G37*
G36*
X15975610Y-12785340D02*
G01*
X15978037Y-12785700D01*
X15980417Y-12786296D01*
X15982727Y-12787123D01*
X15984945Y-12788172D01*
X15987049Y-12789433D01*
X15989020Y-12790895D01*
X15990838Y-12792542D01*
X15992485Y-12794360D01*
X15993947Y-12796331D01*
X15995208Y-12798435D01*
X15996257Y-12800653D01*
X15997083Y-12802963D01*
X15997680Y-12805343D01*
X15998040Y-12807770D01*
X15998160Y-12810220D01*
X15998160Y-12935220D01*
X15998040Y-12937670D01*
X15997680Y-12940097D01*
X15997083Y-12942477D01*
X15996257Y-12944787D01*
X15995208Y-12947005D01*
X15993947Y-12949109D01*
X15992485Y-12951080D01*
X15990838Y-12952898D01*
X15989020Y-12954545D01*
X15987049Y-12956007D01*
X15984945Y-12957268D01*
X15982727Y-12958317D01*
X15980417Y-12959143D01*
X15978037Y-12959740D01*
X15975610Y-12960100D01*
X15973160Y-12960220D01*
X15898160Y-12960220D01*
X15895710Y-12960100D01*
X15893283Y-12959740D01*
X15890903Y-12959143D01*
X15888593Y-12958317D01*
X15886375Y-12957268D01*
X15884271Y-12956007D01*
X15882300Y-12954545D01*
X15880482Y-12952898D01*
X15878835Y-12951080D01*
X15877373Y-12949109D01*
X15876112Y-12947005D01*
X15875063Y-12944787D01*
X15874236Y-12942477D01*
X15873640Y-12940097D01*
X15873280Y-12937670D01*
X15873160Y-12935220D01*
X15873160Y-12810220D01*
X15873280Y-12807770D01*
X15873640Y-12805343D01*
X15874236Y-12802963D01*
X15875063Y-12800653D01*
X15876112Y-12798435D01*
X15877373Y-12796331D01*
X15878835Y-12794360D01*
X15880482Y-12792542D01*
X15882300Y-12790895D01*
X15884271Y-12789433D01*
X15886375Y-12788172D01*
X15888593Y-12787123D01*
X15890903Y-12786296D01*
X15893283Y-12785700D01*
X15895710Y-12785340D01*
X15898160Y-12785220D01*
X15973160Y-12785220D01*
X15975610Y-12785340D01*
G37*
G36*
X16255610Y-12785340D02*
G01*
X16258037Y-12785700D01*
X16260417Y-12786296D01*
X16262727Y-12787123D01*
X16264945Y-12788172D01*
X16267049Y-12789433D01*
X16269020Y-12790895D01*
X16270838Y-12792542D01*
X16272485Y-12794360D01*
X16273947Y-12796331D01*
X16275208Y-12798435D01*
X16276257Y-12800653D01*
X16277083Y-12802963D01*
X16277680Y-12805343D01*
X16278040Y-12807770D01*
X16278160Y-12810220D01*
X16278160Y-12935220D01*
X16278040Y-12937670D01*
X16277680Y-12940097D01*
X16277083Y-12942477D01*
X16276257Y-12944787D01*
X16275208Y-12947005D01*
X16273947Y-12949109D01*
X16272485Y-12951080D01*
X16270838Y-12952898D01*
X16269020Y-12954545D01*
X16267049Y-12956007D01*
X16264945Y-12957268D01*
X16262727Y-12958317D01*
X16260417Y-12959143D01*
X16258037Y-12959740D01*
X16255610Y-12960100D01*
X16253160Y-12960220D01*
X16178160Y-12960220D01*
X16175710Y-12960100D01*
X16173283Y-12959740D01*
X16170903Y-12959143D01*
X16168593Y-12958317D01*
X16166375Y-12957268D01*
X16164271Y-12956007D01*
X16162300Y-12954545D01*
X16160482Y-12952898D01*
X16158835Y-12951080D01*
X16157373Y-12949109D01*
X16156112Y-12947005D01*
X16155063Y-12944787D01*
X16154236Y-12942477D01*
X16153640Y-12940097D01*
X16153280Y-12937670D01*
X16153160Y-12935220D01*
X16153160Y-12810220D01*
X16153280Y-12807770D01*
X16153640Y-12805343D01*
X16154236Y-12802963D01*
X16155063Y-12800653D01*
X16156112Y-12798435D01*
X16157373Y-12796331D01*
X16158835Y-12794360D01*
X16160482Y-12792542D01*
X16162300Y-12790895D01*
X16164271Y-12789433D01*
X16166375Y-12788172D01*
X16168593Y-12787123D01*
X16170903Y-12786296D01*
X16173283Y-12785700D01*
X16175710Y-12785340D01*
X16178160Y-12785220D01*
X16253160Y-12785220D01*
X16255610Y-12785340D01*
G37*
G36*
X17880610Y-12785340D02*
G01*
X17883037Y-12785700D01*
X17885417Y-12786296D01*
X17887727Y-12787123D01*
X17889945Y-12788172D01*
X17892049Y-12789433D01*
X17894020Y-12790895D01*
X17895838Y-12792542D01*
X17897485Y-12794360D01*
X17898947Y-12796331D01*
X17900208Y-12798435D01*
X17901257Y-12800653D01*
X17902084Y-12802963D01*
X17902680Y-12805343D01*
X17903040Y-12807770D01*
X17903160Y-12810220D01*
X17903160Y-12935220D01*
X17903040Y-12937670D01*
X17902680Y-12940097D01*
X17902084Y-12942477D01*
X17901257Y-12944787D01*
X17900208Y-12947005D01*
X17898947Y-12949109D01*
X17897485Y-12951080D01*
X17895838Y-12952898D01*
X17894020Y-12954545D01*
X17892049Y-12956007D01*
X17889945Y-12957268D01*
X17887727Y-12958317D01*
X17885417Y-12959143D01*
X17883037Y-12959740D01*
X17880610Y-12960100D01*
X17878160Y-12960220D01*
X17803160Y-12960220D01*
X17800710Y-12960100D01*
X17798283Y-12959740D01*
X17795903Y-12959143D01*
X17793593Y-12958317D01*
X17791375Y-12957268D01*
X17789271Y-12956007D01*
X17787300Y-12954545D01*
X17785482Y-12952898D01*
X17783835Y-12951080D01*
X17782373Y-12949109D01*
X17781112Y-12947005D01*
X17780063Y-12944787D01*
X17779237Y-12942477D01*
X17778640Y-12940097D01*
X17778280Y-12937670D01*
X17778160Y-12935220D01*
X17778160Y-12810220D01*
X17778280Y-12807770D01*
X17778640Y-12805343D01*
X17779237Y-12802963D01*
X17780063Y-12800653D01*
X17781112Y-12798435D01*
X17782373Y-12796331D01*
X17783835Y-12794360D01*
X17785482Y-12792542D01*
X17787300Y-12790895D01*
X17789271Y-12789433D01*
X17791375Y-12788172D01*
X17793593Y-12787123D01*
X17795903Y-12786296D01*
X17798283Y-12785700D01*
X17800710Y-12785340D01*
X17803160Y-12785220D01*
X17878160Y-12785220D01*
X17880610Y-12785340D01*
G37*
G36*
X18160610Y-12785340D02*
G01*
X18163037Y-12785700D01*
X18165417Y-12786296D01*
X18167727Y-12787123D01*
X18169945Y-12788172D01*
X18172049Y-12789433D01*
X18174020Y-12790895D01*
X18175838Y-12792542D01*
X18177485Y-12794360D01*
X18178947Y-12796331D01*
X18180208Y-12798435D01*
X18181257Y-12800653D01*
X18182084Y-12802963D01*
X18182680Y-12805343D01*
X18183040Y-12807770D01*
X18183160Y-12810220D01*
X18183160Y-12935220D01*
X18183040Y-12937670D01*
X18182680Y-12940097D01*
X18182084Y-12942477D01*
X18181257Y-12944787D01*
X18180208Y-12947005D01*
X18178947Y-12949109D01*
X18177485Y-12951080D01*
X18175838Y-12952898D01*
X18174020Y-12954545D01*
X18172049Y-12956007D01*
X18169945Y-12957268D01*
X18167727Y-12958317D01*
X18165417Y-12959143D01*
X18163037Y-12959740D01*
X18160610Y-12960100D01*
X18158160Y-12960220D01*
X18083160Y-12960220D01*
X18080710Y-12960100D01*
X18078283Y-12959740D01*
X18075903Y-12959143D01*
X18073593Y-12958317D01*
X18071375Y-12957268D01*
X18069271Y-12956007D01*
X18067300Y-12954545D01*
X18065482Y-12952898D01*
X18063835Y-12951080D01*
X18062373Y-12949109D01*
X18061112Y-12947005D01*
X18060063Y-12944787D01*
X18059237Y-12942477D01*
X18058640Y-12940097D01*
X18058280Y-12937670D01*
X18058160Y-12935220D01*
X18058160Y-12810220D01*
X18058280Y-12807770D01*
X18058640Y-12805343D01*
X18059237Y-12802963D01*
X18060063Y-12800653D01*
X18061112Y-12798435D01*
X18062373Y-12796331D01*
X18063835Y-12794360D01*
X18065482Y-12792542D01*
X18067300Y-12790895D01*
X18069271Y-12789433D01*
X18071375Y-12788172D01*
X18073593Y-12787123D01*
X18075903Y-12786296D01*
X18078283Y-12785700D01*
X18080710Y-12785340D01*
X18083160Y-12785220D01*
X18158160Y-12785220D01*
X18160610Y-12785340D01*
G37*
G36*
X4825610Y-14690340D02*
G01*
X4828037Y-14690700D01*
X4830417Y-14691296D01*
X4832727Y-14692123D01*
X4834945Y-14693172D01*
X4837049Y-14694433D01*
X4839020Y-14695895D01*
X4840838Y-14697542D01*
X4842485Y-14699360D01*
X4843947Y-14701331D01*
X4845208Y-14703435D01*
X4846257Y-14705653D01*
X4847084Y-14707963D01*
X4847680Y-14710343D01*
X4848040Y-14712770D01*
X4848160Y-14715220D01*
X4848160Y-14840220D01*
X4848040Y-14842670D01*
X4847680Y-14845097D01*
X4847084Y-14847477D01*
X4846257Y-14849787D01*
X4845208Y-14852005D01*
X4843947Y-14854109D01*
X4842485Y-14856080D01*
X4840838Y-14857898D01*
X4839020Y-14859545D01*
X4837049Y-14861007D01*
X4834945Y-14862268D01*
X4832727Y-14863317D01*
X4830417Y-14864143D01*
X4828037Y-14864740D01*
X4825610Y-14865100D01*
X4823160Y-14865220D01*
X4748160Y-14865220D01*
X4745710Y-14865100D01*
X4743283Y-14864740D01*
X4740903Y-14864143D01*
X4738593Y-14863317D01*
X4736375Y-14862268D01*
X4734271Y-14861007D01*
X4732300Y-14859545D01*
X4730482Y-14857898D01*
X4728835Y-14856080D01*
X4727373Y-14854109D01*
X4726112Y-14852005D01*
X4725063Y-14849787D01*
X4724237Y-14847477D01*
X4723640Y-14845097D01*
X4723280Y-14842670D01*
X4723160Y-14840220D01*
X4723160Y-14715220D01*
X4723280Y-14712770D01*
X4723640Y-14710343D01*
X4724237Y-14707963D01*
X4725063Y-14705653D01*
X4726112Y-14703435D01*
X4727373Y-14701331D01*
X4728835Y-14699360D01*
X4730482Y-14697542D01*
X4732300Y-14695895D01*
X4734271Y-14694433D01*
X4736375Y-14693172D01*
X4738593Y-14692123D01*
X4740903Y-14691296D01*
X4743283Y-14690700D01*
X4745710Y-14690340D01*
X4748160Y-14690220D01*
X4823160Y-14690220D01*
X4825610Y-14690340D01*
G37*
G36*
X4545610Y-14690340D02*
G01*
X4548037Y-14690700D01*
X4550417Y-14691296D01*
X4552727Y-14692123D01*
X4554945Y-14693172D01*
X4557049Y-14694433D01*
X4559020Y-14695895D01*
X4560838Y-14697542D01*
X4562485Y-14699360D01*
X4563947Y-14701331D01*
X4565208Y-14703435D01*
X4566257Y-14705653D01*
X4567084Y-14707963D01*
X4567680Y-14710343D01*
X4568040Y-14712770D01*
X4568160Y-14715220D01*
X4568160Y-14840220D01*
X4568040Y-14842670D01*
X4567680Y-14845097D01*
X4567084Y-14847477D01*
X4566257Y-14849787D01*
X4565208Y-14852005D01*
X4563947Y-14854109D01*
X4562485Y-14856080D01*
X4560838Y-14857898D01*
X4559020Y-14859545D01*
X4557049Y-14861007D01*
X4554945Y-14862268D01*
X4552727Y-14863317D01*
X4550417Y-14864143D01*
X4548037Y-14864740D01*
X4545610Y-14865100D01*
X4543160Y-14865220D01*
X4468160Y-14865220D01*
X4465710Y-14865100D01*
X4463283Y-14864740D01*
X4460903Y-14864143D01*
X4458593Y-14863317D01*
X4456375Y-14862268D01*
X4454271Y-14861007D01*
X4452300Y-14859545D01*
X4450482Y-14857898D01*
X4448835Y-14856080D01*
X4447373Y-14854109D01*
X4446112Y-14852005D01*
X4445063Y-14849787D01*
X4444237Y-14847477D01*
X4443640Y-14845097D01*
X4443280Y-14842670D01*
X4443160Y-14840220D01*
X4443160Y-14715220D01*
X4443280Y-14712770D01*
X4443640Y-14710343D01*
X4444237Y-14707963D01*
X4445063Y-14705653D01*
X4446112Y-14703435D01*
X4447373Y-14701331D01*
X4448835Y-14699360D01*
X4450482Y-14697542D01*
X4452300Y-14695895D01*
X4454271Y-14694433D01*
X4456375Y-14693172D01*
X4458593Y-14692123D01*
X4460903Y-14691296D01*
X4463283Y-14690700D01*
X4465710Y-14690340D01*
X4468160Y-14690220D01*
X4543160Y-14690220D01*
X4545610Y-14690340D01*
G37*
G36*
X6730610Y-14690340D02*
G01*
X6733037Y-14690700D01*
X6735417Y-14691296D01*
X6737727Y-14692123D01*
X6739945Y-14693172D01*
X6742049Y-14694433D01*
X6744020Y-14695895D01*
X6745838Y-14697542D01*
X6747485Y-14699360D01*
X6748947Y-14701331D01*
X6750208Y-14703435D01*
X6751257Y-14705653D01*
X6752083Y-14707963D01*
X6752680Y-14710343D01*
X6753040Y-14712770D01*
X6753160Y-14715220D01*
X6753160Y-14840220D01*
X6753040Y-14842670D01*
X6752680Y-14845097D01*
X6752083Y-14847477D01*
X6751257Y-14849787D01*
X6750208Y-14852005D01*
X6748947Y-14854109D01*
X6747485Y-14856080D01*
X6745838Y-14857898D01*
X6744020Y-14859545D01*
X6742049Y-14861007D01*
X6739945Y-14862268D01*
X6737727Y-14863317D01*
X6735417Y-14864143D01*
X6733037Y-14864740D01*
X6730610Y-14865100D01*
X6728160Y-14865220D01*
X6653160Y-14865220D01*
X6650710Y-14865100D01*
X6648283Y-14864740D01*
X6645903Y-14864143D01*
X6643593Y-14863317D01*
X6641375Y-14862268D01*
X6639271Y-14861007D01*
X6637300Y-14859545D01*
X6635482Y-14857898D01*
X6633835Y-14856080D01*
X6632373Y-14854109D01*
X6631112Y-14852005D01*
X6630063Y-14849787D01*
X6629236Y-14847477D01*
X6628640Y-14845097D01*
X6628280Y-14842670D01*
X6628160Y-14840220D01*
X6628160Y-14715220D01*
X6628280Y-14712770D01*
X6628640Y-14710343D01*
X6629236Y-14707963D01*
X6630063Y-14705653D01*
X6631112Y-14703435D01*
X6632373Y-14701331D01*
X6633835Y-14699360D01*
X6635482Y-14697542D01*
X6637300Y-14695895D01*
X6639271Y-14694433D01*
X6641375Y-14693172D01*
X6643593Y-14692123D01*
X6645903Y-14691296D01*
X6648283Y-14690700D01*
X6650710Y-14690340D01*
X6653160Y-14690220D01*
X6728160Y-14690220D01*
X6730610Y-14690340D01*
G37*
G36*
X6450610Y-14690340D02*
G01*
X6453037Y-14690700D01*
X6455417Y-14691296D01*
X6457727Y-14692123D01*
X6459945Y-14693172D01*
X6462049Y-14694433D01*
X6464020Y-14695895D01*
X6465838Y-14697542D01*
X6467485Y-14699360D01*
X6468947Y-14701331D01*
X6470208Y-14703435D01*
X6471257Y-14705653D01*
X6472083Y-14707963D01*
X6472680Y-14710343D01*
X6473040Y-14712770D01*
X6473160Y-14715220D01*
X6473160Y-14840220D01*
X6473040Y-14842670D01*
X6472680Y-14845097D01*
X6472083Y-14847477D01*
X6471257Y-14849787D01*
X6470208Y-14852005D01*
X6468947Y-14854109D01*
X6467485Y-14856080D01*
X6465838Y-14857898D01*
X6464020Y-14859545D01*
X6462049Y-14861007D01*
X6459945Y-14862268D01*
X6457727Y-14863317D01*
X6455417Y-14864143D01*
X6453037Y-14864740D01*
X6450610Y-14865100D01*
X6448160Y-14865220D01*
X6373160Y-14865220D01*
X6370710Y-14865100D01*
X6368283Y-14864740D01*
X6365903Y-14864143D01*
X6363593Y-14863317D01*
X6361375Y-14862268D01*
X6359271Y-14861007D01*
X6357300Y-14859545D01*
X6355482Y-14857898D01*
X6353835Y-14856080D01*
X6352373Y-14854109D01*
X6351112Y-14852005D01*
X6350063Y-14849787D01*
X6349236Y-14847477D01*
X6348640Y-14845097D01*
X6348280Y-14842670D01*
X6348160Y-14840220D01*
X6348160Y-14715220D01*
X6348280Y-14712770D01*
X6348640Y-14710343D01*
X6349236Y-14707963D01*
X6350063Y-14705653D01*
X6351112Y-14703435D01*
X6352373Y-14701331D01*
X6353835Y-14699360D01*
X6355482Y-14697542D01*
X6357300Y-14695895D01*
X6359271Y-14694433D01*
X6361375Y-14693172D01*
X6363593Y-14692123D01*
X6365903Y-14691296D01*
X6368283Y-14690700D01*
X6370710Y-14690340D01*
X6373160Y-14690220D01*
X6448160Y-14690220D01*
X6450610Y-14690340D01*
G37*
G36*
X8635610Y-14690340D02*
G01*
X8638037Y-14690700D01*
X8640417Y-14691296D01*
X8642727Y-14692123D01*
X8644945Y-14693172D01*
X8647049Y-14694433D01*
X8649020Y-14695895D01*
X8650838Y-14697542D01*
X8652485Y-14699360D01*
X8653947Y-14701331D01*
X8655208Y-14703435D01*
X8656257Y-14705653D01*
X8657084Y-14707963D01*
X8657680Y-14710343D01*
X8658040Y-14712770D01*
X8658160Y-14715220D01*
X8658160Y-14840220D01*
X8658040Y-14842670D01*
X8657680Y-14845097D01*
X8657084Y-14847477D01*
X8656257Y-14849787D01*
X8655208Y-14852005D01*
X8653947Y-14854109D01*
X8652485Y-14856080D01*
X8650838Y-14857898D01*
X8649020Y-14859545D01*
X8647049Y-14861007D01*
X8644945Y-14862268D01*
X8642727Y-14863317D01*
X8640417Y-14864143D01*
X8638037Y-14864740D01*
X8635610Y-14865100D01*
X8633160Y-14865220D01*
X8558160Y-14865220D01*
X8555710Y-14865100D01*
X8553283Y-14864740D01*
X8550903Y-14864143D01*
X8548593Y-14863317D01*
X8546375Y-14862268D01*
X8544271Y-14861007D01*
X8542300Y-14859545D01*
X8540482Y-14857898D01*
X8538835Y-14856080D01*
X8537373Y-14854109D01*
X8536112Y-14852005D01*
X8535063Y-14849787D01*
X8534237Y-14847477D01*
X8533640Y-14845097D01*
X8533280Y-14842670D01*
X8533160Y-14840220D01*
X8533160Y-14715220D01*
X8533280Y-14712770D01*
X8533640Y-14710343D01*
X8534237Y-14707963D01*
X8535063Y-14705653D01*
X8536112Y-14703435D01*
X8537373Y-14701331D01*
X8538835Y-14699360D01*
X8540482Y-14697542D01*
X8542300Y-14695895D01*
X8544271Y-14694433D01*
X8546375Y-14693172D01*
X8548593Y-14692123D01*
X8550903Y-14691296D01*
X8553283Y-14690700D01*
X8555710Y-14690340D01*
X8558160Y-14690220D01*
X8633160Y-14690220D01*
X8635610Y-14690340D01*
G37*
G36*
X8355610Y-14690340D02*
G01*
X8358037Y-14690700D01*
X8360417Y-14691296D01*
X8362727Y-14692123D01*
X8364945Y-14693172D01*
X8367049Y-14694433D01*
X8369020Y-14695895D01*
X8370838Y-14697542D01*
X8372485Y-14699360D01*
X8373947Y-14701331D01*
X8375208Y-14703435D01*
X8376257Y-14705653D01*
X8377083Y-14707963D01*
X8377680Y-14710343D01*
X8378040Y-14712770D01*
X8378160Y-14715220D01*
X8378160Y-14840220D01*
X8378040Y-14842670D01*
X8377680Y-14845097D01*
X8377083Y-14847477D01*
X8376257Y-14849787D01*
X8375208Y-14852005D01*
X8373947Y-14854109D01*
X8372485Y-14856080D01*
X8370838Y-14857898D01*
X8369020Y-14859545D01*
X8367049Y-14861007D01*
X8364945Y-14862268D01*
X8362727Y-14863317D01*
X8360417Y-14864143D01*
X8358037Y-14864740D01*
X8355610Y-14865100D01*
X8353160Y-14865220D01*
X8278160Y-14865220D01*
X8275710Y-14865100D01*
X8273283Y-14864740D01*
X8270903Y-14864143D01*
X8268593Y-14863317D01*
X8266375Y-14862268D01*
X8264271Y-14861007D01*
X8262300Y-14859545D01*
X8260482Y-14857898D01*
X8258835Y-14856080D01*
X8257373Y-14854109D01*
X8256112Y-14852005D01*
X8255063Y-14849787D01*
X8254236Y-14847477D01*
X8253640Y-14845097D01*
X8253280Y-14842670D01*
X8253160Y-14840220D01*
X8253160Y-14715220D01*
X8253280Y-14712770D01*
X8253640Y-14710343D01*
X8254236Y-14707963D01*
X8255063Y-14705653D01*
X8256112Y-14703435D01*
X8257373Y-14701331D01*
X8258835Y-14699360D01*
X8260482Y-14697542D01*
X8262300Y-14695895D01*
X8264271Y-14694433D01*
X8266375Y-14693172D01*
X8268593Y-14692123D01*
X8270903Y-14691296D01*
X8273283Y-14690700D01*
X8275710Y-14690340D01*
X8278160Y-14690220D01*
X8353160Y-14690220D01*
X8355610Y-14690340D01*
G37*
G36*
X10540610Y-14690340D02*
G01*
X10543037Y-14690700D01*
X10545417Y-14691296D01*
X10547727Y-14692123D01*
X10549945Y-14693172D01*
X10552049Y-14694433D01*
X10554020Y-14695895D01*
X10555838Y-14697542D01*
X10557485Y-14699360D01*
X10558947Y-14701331D01*
X10560208Y-14703435D01*
X10561257Y-14705653D01*
X10562084Y-14707963D01*
X10562680Y-14710343D01*
X10563040Y-14712770D01*
X10563160Y-14715220D01*
X10563160Y-14840220D01*
X10563040Y-14842670D01*
X10562680Y-14845097D01*
X10562084Y-14847477D01*
X10561257Y-14849787D01*
X10560208Y-14852005D01*
X10558947Y-14854109D01*
X10557485Y-14856080D01*
X10555838Y-14857898D01*
X10554020Y-14859545D01*
X10552049Y-14861007D01*
X10549945Y-14862268D01*
X10547727Y-14863317D01*
X10545417Y-14864143D01*
X10543037Y-14864740D01*
X10540610Y-14865100D01*
X10538160Y-14865220D01*
X10463160Y-14865220D01*
X10460710Y-14865100D01*
X10458283Y-14864740D01*
X10455903Y-14864143D01*
X10453593Y-14863317D01*
X10451375Y-14862268D01*
X10449271Y-14861007D01*
X10447300Y-14859545D01*
X10445482Y-14857898D01*
X10443835Y-14856080D01*
X10442373Y-14854109D01*
X10441112Y-14852005D01*
X10440063Y-14849787D01*
X10439237Y-14847477D01*
X10438640Y-14845097D01*
X10438280Y-14842670D01*
X10438160Y-14840220D01*
X10438160Y-14715220D01*
X10438280Y-14712770D01*
X10438640Y-14710343D01*
X10439237Y-14707963D01*
X10440063Y-14705653D01*
X10441112Y-14703435D01*
X10442373Y-14701331D01*
X10443835Y-14699360D01*
X10445482Y-14697542D01*
X10447300Y-14695895D01*
X10449271Y-14694433D01*
X10451375Y-14693172D01*
X10453593Y-14692123D01*
X10455903Y-14691296D01*
X10458283Y-14690700D01*
X10460710Y-14690340D01*
X10463160Y-14690220D01*
X10538160Y-14690220D01*
X10540610Y-14690340D01*
G37*
G36*
X10260610Y-14690340D02*
G01*
X10263037Y-14690700D01*
X10265417Y-14691296D01*
X10267727Y-14692123D01*
X10269945Y-14693172D01*
X10272049Y-14694433D01*
X10274020Y-14695895D01*
X10275838Y-14697542D01*
X10277485Y-14699360D01*
X10278947Y-14701331D01*
X10280208Y-14703435D01*
X10281257Y-14705653D01*
X10282084Y-14707963D01*
X10282680Y-14710343D01*
X10283040Y-14712770D01*
X10283160Y-14715220D01*
X10283160Y-14840220D01*
X10283040Y-14842670D01*
X10282680Y-14845097D01*
X10282084Y-14847477D01*
X10281257Y-14849787D01*
X10280208Y-14852005D01*
X10278947Y-14854109D01*
X10277485Y-14856080D01*
X10275838Y-14857898D01*
X10274020Y-14859545D01*
X10272049Y-14861007D01*
X10269945Y-14862268D01*
X10267727Y-14863317D01*
X10265417Y-14864143D01*
X10263037Y-14864740D01*
X10260610Y-14865100D01*
X10258160Y-14865220D01*
X10183160Y-14865220D01*
X10180710Y-14865100D01*
X10178283Y-14864740D01*
X10175903Y-14864143D01*
X10173593Y-14863317D01*
X10171375Y-14862268D01*
X10169271Y-14861007D01*
X10167300Y-14859545D01*
X10165482Y-14857898D01*
X10163835Y-14856080D01*
X10162373Y-14854109D01*
X10161112Y-14852005D01*
X10160063Y-14849787D01*
X10159237Y-14847477D01*
X10158640Y-14845097D01*
X10158280Y-14842670D01*
X10158160Y-14840220D01*
X10158160Y-14715220D01*
X10158280Y-14712770D01*
X10158640Y-14710343D01*
X10159237Y-14707963D01*
X10160063Y-14705653D01*
X10161112Y-14703435D01*
X10162373Y-14701331D01*
X10163835Y-14699360D01*
X10165482Y-14697542D01*
X10167300Y-14695895D01*
X10169271Y-14694433D01*
X10171375Y-14693172D01*
X10173593Y-14692123D01*
X10175903Y-14691296D01*
X10178283Y-14690700D01*
X10180710Y-14690340D01*
X10183160Y-14690220D01*
X10258160Y-14690220D01*
X10260610Y-14690340D01*
G37*
G36*
X12165610Y-14690340D02*
G01*
X12168037Y-14690700D01*
X12170417Y-14691296D01*
X12172727Y-14692123D01*
X12174945Y-14693172D01*
X12177049Y-14694433D01*
X12179020Y-14695895D01*
X12180838Y-14697542D01*
X12182485Y-14699360D01*
X12183947Y-14701331D01*
X12185208Y-14703435D01*
X12186257Y-14705653D01*
X12187083Y-14707963D01*
X12187680Y-14710343D01*
X12188040Y-14712770D01*
X12188160Y-14715220D01*
X12188160Y-14840220D01*
X12188040Y-14842670D01*
X12187680Y-14845097D01*
X12187083Y-14847477D01*
X12186257Y-14849787D01*
X12185208Y-14852005D01*
X12183947Y-14854109D01*
X12182485Y-14856080D01*
X12180838Y-14857898D01*
X12179020Y-14859545D01*
X12177049Y-14861007D01*
X12174945Y-14862268D01*
X12172727Y-14863317D01*
X12170417Y-14864143D01*
X12168037Y-14864740D01*
X12165610Y-14865100D01*
X12163160Y-14865220D01*
X12088160Y-14865220D01*
X12085710Y-14865100D01*
X12083283Y-14864740D01*
X12080903Y-14864143D01*
X12078593Y-14863317D01*
X12076375Y-14862268D01*
X12074271Y-14861007D01*
X12072300Y-14859545D01*
X12070482Y-14857898D01*
X12068835Y-14856080D01*
X12067373Y-14854109D01*
X12066112Y-14852005D01*
X12065063Y-14849787D01*
X12064236Y-14847477D01*
X12063640Y-14845097D01*
X12063280Y-14842670D01*
X12063160Y-14840220D01*
X12063160Y-14715220D01*
X12063280Y-14712770D01*
X12063640Y-14710343D01*
X12064236Y-14707963D01*
X12065063Y-14705653D01*
X12066112Y-14703435D01*
X12067373Y-14701331D01*
X12068835Y-14699360D01*
X12070482Y-14697542D01*
X12072300Y-14695895D01*
X12074271Y-14694433D01*
X12076375Y-14693172D01*
X12078593Y-14692123D01*
X12080903Y-14691296D01*
X12083283Y-14690700D01*
X12085710Y-14690340D01*
X12088160Y-14690220D01*
X12163160Y-14690220D01*
X12165610Y-14690340D01*
G37*
G36*
X12445610Y-14690340D02*
G01*
X12448037Y-14690700D01*
X12450417Y-14691296D01*
X12452727Y-14692123D01*
X12454945Y-14693172D01*
X12457049Y-14694433D01*
X12459020Y-14695895D01*
X12460838Y-14697542D01*
X12462485Y-14699360D01*
X12463947Y-14701331D01*
X12465208Y-14703435D01*
X12466257Y-14705653D01*
X12467083Y-14707963D01*
X12467680Y-14710343D01*
X12468040Y-14712770D01*
X12468160Y-14715220D01*
X12468160Y-14840220D01*
X12468040Y-14842670D01*
X12467680Y-14845097D01*
X12467083Y-14847477D01*
X12466257Y-14849787D01*
X12465208Y-14852005D01*
X12463947Y-14854109D01*
X12462485Y-14856080D01*
X12460838Y-14857898D01*
X12459020Y-14859545D01*
X12457049Y-14861007D01*
X12454945Y-14862268D01*
X12452727Y-14863317D01*
X12450417Y-14864143D01*
X12448037Y-14864740D01*
X12445610Y-14865100D01*
X12443160Y-14865220D01*
X12368160Y-14865220D01*
X12365710Y-14865100D01*
X12363283Y-14864740D01*
X12360903Y-14864143D01*
X12358593Y-14863317D01*
X12356375Y-14862268D01*
X12354271Y-14861007D01*
X12352300Y-14859545D01*
X12350482Y-14857898D01*
X12348835Y-14856080D01*
X12347373Y-14854109D01*
X12346112Y-14852005D01*
X12345063Y-14849787D01*
X12344236Y-14847477D01*
X12343640Y-14845097D01*
X12343280Y-14842670D01*
X12343160Y-14840220D01*
X12343160Y-14715220D01*
X12343280Y-14712770D01*
X12343640Y-14710343D01*
X12344236Y-14707963D01*
X12345063Y-14705653D01*
X12346112Y-14703435D01*
X12347373Y-14701331D01*
X12348835Y-14699360D01*
X12350482Y-14697542D01*
X12352300Y-14695895D01*
X12354271Y-14694433D01*
X12356375Y-14693172D01*
X12358593Y-14692123D01*
X12360903Y-14691296D01*
X12363283Y-14690700D01*
X12365710Y-14690340D01*
X12368160Y-14690220D01*
X12443160Y-14690220D01*
X12445610Y-14690340D01*
G37*
G36*
X14070610Y-14690340D02*
G01*
X14073037Y-14690700D01*
X14075417Y-14691296D01*
X14077727Y-14692123D01*
X14079945Y-14693172D01*
X14082049Y-14694433D01*
X14084020Y-14695895D01*
X14085838Y-14697542D01*
X14087485Y-14699360D01*
X14088947Y-14701331D01*
X14090208Y-14703435D01*
X14091257Y-14705653D01*
X14092083Y-14707963D01*
X14092680Y-14710343D01*
X14093040Y-14712770D01*
X14093160Y-14715220D01*
X14093160Y-14840220D01*
X14093040Y-14842670D01*
X14092680Y-14845097D01*
X14092083Y-14847477D01*
X14091257Y-14849787D01*
X14090208Y-14852005D01*
X14088947Y-14854109D01*
X14087485Y-14856080D01*
X14085838Y-14857898D01*
X14084020Y-14859545D01*
X14082049Y-14861007D01*
X14079945Y-14862268D01*
X14077727Y-14863317D01*
X14075417Y-14864143D01*
X14073037Y-14864740D01*
X14070610Y-14865100D01*
X14068160Y-14865220D01*
X13993160Y-14865220D01*
X13990710Y-14865100D01*
X13988283Y-14864740D01*
X13985903Y-14864143D01*
X13983593Y-14863317D01*
X13981375Y-14862268D01*
X13979271Y-14861007D01*
X13977300Y-14859545D01*
X13975482Y-14857898D01*
X13973835Y-14856080D01*
X13972373Y-14854109D01*
X13971112Y-14852005D01*
X13970063Y-14849787D01*
X13969236Y-14847477D01*
X13968640Y-14845097D01*
X13968280Y-14842670D01*
X13968160Y-14840220D01*
X13968160Y-14715220D01*
X13968280Y-14712770D01*
X13968640Y-14710343D01*
X13969236Y-14707963D01*
X13970063Y-14705653D01*
X13971112Y-14703435D01*
X13972373Y-14701331D01*
X13973835Y-14699360D01*
X13975482Y-14697542D01*
X13977300Y-14695895D01*
X13979271Y-14694433D01*
X13981375Y-14693172D01*
X13983593Y-14692123D01*
X13985903Y-14691296D01*
X13988283Y-14690700D01*
X13990710Y-14690340D01*
X13993160Y-14690220D01*
X14068160Y-14690220D01*
X14070610Y-14690340D01*
G37*
G36*
X14350610Y-14690340D02*
G01*
X14353037Y-14690700D01*
X14355417Y-14691296D01*
X14357727Y-14692123D01*
X14359945Y-14693172D01*
X14362049Y-14694433D01*
X14364020Y-14695895D01*
X14365838Y-14697542D01*
X14367485Y-14699360D01*
X14368947Y-14701331D01*
X14370208Y-14703435D01*
X14371257Y-14705653D01*
X14372083Y-14707963D01*
X14372680Y-14710343D01*
X14373040Y-14712770D01*
X14373160Y-14715220D01*
X14373160Y-14840220D01*
X14373040Y-14842670D01*
X14372680Y-14845097D01*
X14372083Y-14847477D01*
X14371257Y-14849787D01*
X14370208Y-14852005D01*
X14368947Y-14854109D01*
X14367485Y-14856080D01*
X14365838Y-14857898D01*
X14364020Y-14859545D01*
X14362049Y-14861007D01*
X14359945Y-14862268D01*
X14357727Y-14863317D01*
X14355417Y-14864143D01*
X14353037Y-14864740D01*
X14350610Y-14865100D01*
X14348160Y-14865220D01*
X14273160Y-14865220D01*
X14270710Y-14865100D01*
X14268283Y-14864740D01*
X14265903Y-14864143D01*
X14263593Y-14863317D01*
X14261375Y-14862268D01*
X14259271Y-14861007D01*
X14257300Y-14859545D01*
X14255482Y-14857898D01*
X14253835Y-14856080D01*
X14252373Y-14854109D01*
X14251112Y-14852005D01*
X14250063Y-14849787D01*
X14249236Y-14847477D01*
X14248640Y-14845097D01*
X14248280Y-14842670D01*
X14248160Y-14840220D01*
X14248160Y-14715220D01*
X14248280Y-14712770D01*
X14248640Y-14710343D01*
X14249236Y-14707963D01*
X14250063Y-14705653D01*
X14251112Y-14703435D01*
X14252373Y-14701331D01*
X14253835Y-14699360D01*
X14255482Y-14697542D01*
X14257300Y-14695895D01*
X14259271Y-14694433D01*
X14261375Y-14693172D01*
X14263593Y-14692123D01*
X14265903Y-14691296D01*
X14268283Y-14690700D01*
X14270710Y-14690340D01*
X14273160Y-14690220D01*
X14348160Y-14690220D01*
X14350610Y-14690340D01*
G37*
G36*
X15975610Y-14690340D02*
G01*
X15978037Y-14690700D01*
X15980417Y-14691296D01*
X15982727Y-14692123D01*
X15984945Y-14693172D01*
X15987049Y-14694433D01*
X15989020Y-14695895D01*
X15990838Y-14697542D01*
X15992485Y-14699360D01*
X15993947Y-14701331D01*
X15995208Y-14703435D01*
X15996257Y-14705653D01*
X15997083Y-14707963D01*
X15997680Y-14710343D01*
X15998040Y-14712770D01*
X15998160Y-14715220D01*
X15998160Y-14840220D01*
X15998040Y-14842670D01*
X15997680Y-14845097D01*
X15997083Y-14847477D01*
X15996257Y-14849787D01*
X15995208Y-14852005D01*
X15993947Y-14854109D01*
X15992485Y-14856080D01*
X15990838Y-14857898D01*
X15989020Y-14859545D01*
X15987049Y-14861007D01*
X15984945Y-14862268D01*
X15982727Y-14863317D01*
X15980417Y-14864143D01*
X15978037Y-14864740D01*
X15975610Y-14865100D01*
X15973160Y-14865220D01*
X15898160Y-14865220D01*
X15895710Y-14865100D01*
X15893283Y-14864740D01*
X15890903Y-14864143D01*
X15888593Y-14863317D01*
X15886375Y-14862268D01*
X15884271Y-14861007D01*
X15882300Y-14859545D01*
X15880482Y-14857898D01*
X15878835Y-14856080D01*
X15877373Y-14854109D01*
X15876112Y-14852005D01*
X15875063Y-14849787D01*
X15874236Y-14847477D01*
X15873640Y-14845097D01*
X15873280Y-14842670D01*
X15873160Y-14840220D01*
X15873160Y-14715220D01*
X15873280Y-14712770D01*
X15873640Y-14710343D01*
X15874236Y-14707963D01*
X15875063Y-14705653D01*
X15876112Y-14703435D01*
X15877373Y-14701331D01*
X15878835Y-14699360D01*
X15880482Y-14697542D01*
X15882300Y-14695895D01*
X15884271Y-14694433D01*
X15886375Y-14693172D01*
X15888593Y-14692123D01*
X15890903Y-14691296D01*
X15893283Y-14690700D01*
X15895710Y-14690340D01*
X15898160Y-14690220D01*
X15973160Y-14690220D01*
X15975610Y-14690340D01*
G37*
G36*
X16255610Y-14690340D02*
G01*
X16258037Y-14690700D01*
X16260417Y-14691296D01*
X16262727Y-14692123D01*
X16264945Y-14693172D01*
X16267049Y-14694433D01*
X16269020Y-14695895D01*
X16270838Y-14697542D01*
X16272485Y-14699360D01*
X16273947Y-14701331D01*
X16275208Y-14703435D01*
X16276257Y-14705653D01*
X16277083Y-14707963D01*
X16277680Y-14710343D01*
X16278040Y-14712770D01*
X16278160Y-14715220D01*
X16278160Y-14840220D01*
X16278040Y-14842670D01*
X16277680Y-14845097D01*
X16277083Y-14847477D01*
X16276257Y-14849787D01*
X16275208Y-14852005D01*
X16273947Y-14854109D01*
X16272485Y-14856080D01*
X16270838Y-14857898D01*
X16269020Y-14859545D01*
X16267049Y-14861007D01*
X16264945Y-14862268D01*
X16262727Y-14863317D01*
X16260417Y-14864143D01*
X16258037Y-14864740D01*
X16255610Y-14865100D01*
X16253160Y-14865220D01*
X16178160Y-14865220D01*
X16175710Y-14865100D01*
X16173283Y-14864740D01*
X16170903Y-14864143D01*
X16168593Y-14863317D01*
X16166375Y-14862268D01*
X16164271Y-14861007D01*
X16162300Y-14859545D01*
X16160482Y-14857898D01*
X16158835Y-14856080D01*
X16157373Y-14854109D01*
X16156112Y-14852005D01*
X16155063Y-14849787D01*
X16154236Y-14847477D01*
X16153640Y-14845097D01*
X16153280Y-14842670D01*
X16153160Y-14840220D01*
X16153160Y-14715220D01*
X16153280Y-14712770D01*
X16153640Y-14710343D01*
X16154236Y-14707963D01*
X16155063Y-14705653D01*
X16156112Y-14703435D01*
X16157373Y-14701331D01*
X16158835Y-14699360D01*
X16160482Y-14697542D01*
X16162300Y-14695895D01*
X16164271Y-14694433D01*
X16166375Y-14693172D01*
X16168593Y-14692123D01*
X16170903Y-14691296D01*
X16173283Y-14690700D01*
X16175710Y-14690340D01*
X16178160Y-14690220D01*
X16253160Y-14690220D01*
X16255610Y-14690340D01*
G37*
G36*
X17880610Y-14690340D02*
G01*
X17883037Y-14690700D01*
X17885417Y-14691296D01*
X17887727Y-14692123D01*
X17889945Y-14693172D01*
X17892049Y-14694433D01*
X17894020Y-14695895D01*
X17895838Y-14697542D01*
X17897485Y-14699360D01*
X17898947Y-14701331D01*
X17900208Y-14703435D01*
X17901257Y-14705653D01*
X17902084Y-14707963D01*
X17902680Y-14710343D01*
X17903040Y-14712770D01*
X17903160Y-14715220D01*
X17903160Y-14840220D01*
X17903040Y-14842670D01*
X17902680Y-14845097D01*
X17902084Y-14847477D01*
X17901257Y-14849787D01*
X17900208Y-14852005D01*
X17898947Y-14854109D01*
X17897485Y-14856080D01*
X17895838Y-14857898D01*
X17894020Y-14859545D01*
X17892049Y-14861007D01*
X17889945Y-14862268D01*
X17887727Y-14863317D01*
X17885417Y-14864143D01*
X17883037Y-14864740D01*
X17880610Y-14865100D01*
X17878160Y-14865220D01*
X17803160Y-14865220D01*
X17800710Y-14865100D01*
X17798283Y-14864740D01*
X17795903Y-14864143D01*
X17793593Y-14863317D01*
X17791375Y-14862268D01*
X17789271Y-14861007D01*
X17787300Y-14859545D01*
X17785482Y-14857898D01*
X17783835Y-14856080D01*
X17782373Y-14854109D01*
X17781112Y-14852005D01*
X17780063Y-14849787D01*
X17779237Y-14847477D01*
X17778640Y-14845097D01*
X17778280Y-14842670D01*
X17778160Y-14840220D01*
X17778160Y-14715220D01*
X17778280Y-14712770D01*
X17778640Y-14710343D01*
X17779237Y-14707963D01*
X17780063Y-14705653D01*
X17781112Y-14703435D01*
X17782373Y-14701331D01*
X17783835Y-14699360D01*
X17785482Y-14697542D01*
X17787300Y-14695895D01*
X17789271Y-14694433D01*
X17791375Y-14693172D01*
X17793593Y-14692123D01*
X17795903Y-14691296D01*
X17798283Y-14690700D01*
X17800710Y-14690340D01*
X17803160Y-14690220D01*
X17878160Y-14690220D01*
X17880610Y-14690340D01*
G37*
G36*
X18160610Y-14690340D02*
G01*
X18163037Y-14690700D01*
X18165417Y-14691296D01*
X18167727Y-14692123D01*
X18169945Y-14693172D01*
X18172049Y-14694433D01*
X18174020Y-14695895D01*
X18175838Y-14697542D01*
X18177485Y-14699360D01*
X18178947Y-14701331D01*
X18180208Y-14703435D01*
X18181257Y-14705653D01*
X18182084Y-14707963D01*
X18182680Y-14710343D01*
X18183040Y-14712770D01*
X18183160Y-14715220D01*
X18183160Y-14840220D01*
X18183040Y-14842670D01*
X18182680Y-14845097D01*
X18182084Y-14847477D01*
X18181257Y-14849787D01*
X18180208Y-14852005D01*
X18178947Y-14854109D01*
X18177485Y-14856080D01*
X18175838Y-14857898D01*
X18174020Y-14859545D01*
X18172049Y-14861007D01*
X18169945Y-14862268D01*
X18167727Y-14863317D01*
X18165417Y-14864143D01*
X18163037Y-14864740D01*
X18160610Y-14865100D01*
X18158160Y-14865220D01*
X18083160Y-14865220D01*
X18080710Y-14865100D01*
X18078283Y-14864740D01*
X18075903Y-14864143D01*
X18073593Y-14863317D01*
X18071375Y-14862268D01*
X18069271Y-14861007D01*
X18067300Y-14859545D01*
X18065482Y-14857898D01*
X18063835Y-14856080D01*
X18062373Y-14854109D01*
X18061112Y-14852005D01*
X18060063Y-14849787D01*
X18059237Y-14847477D01*
X18058640Y-14845097D01*
X18058280Y-14842670D01*
X18058160Y-14840220D01*
X18058160Y-14715220D01*
X18058280Y-14712770D01*
X18058640Y-14710343D01*
X18059237Y-14707963D01*
X18060063Y-14705653D01*
X18061112Y-14703435D01*
X18062373Y-14701331D01*
X18063835Y-14699360D01*
X18065482Y-14697542D01*
X18067300Y-14695895D01*
X18069271Y-14694433D01*
X18071375Y-14693172D01*
X18073593Y-14692123D01*
X18075903Y-14691296D01*
X18078283Y-14690700D01*
X18080710Y-14690340D01*
X18083160Y-14690220D01*
X18158160Y-14690220D01*
X18160610Y-14690340D01*
G37*
D13*
X15482824Y-5474208D03*
X15812824Y-5474208D03*
X14976956Y-5474208D03*
X15306956Y-5474208D03*
D14*
X3608940Y-4769760D03*
X3673940Y-4769760D03*
X3738940Y-4769760D03*
X3803940Y-4769760D03*
X3868940Y-4769760D03*
X3933940Y-4769760D03*
X3998940Y-4769760D03*
X4063940Y-4769760D03*
X4128940Y-4769760D03*
X4193940Y-4769760D03*
X4193940Y-5359760D03*
X4128940Y-5359760D03*
X4063940Y-5359760D03*
X3998940Y-5359760D03*
X3933940Y-5359760D03*
X3868940Y-5359760D03*
X3803940Y-5359760D03*
X3738940Y-5359760D03*
X3673940Y-5359760D03*
X3608940Y-5359760D03*
D12*
G36*
X16112450Y-5063452D02*
G01*
X16113906Y-5063668D01*
X16115334Y-5064026D01*
X16116720Y-5064522D01*
X16118051Y-5065151D01*
X16119314Y-5065908D01*
X16120496Y-5066785D01*
X16121587Y-5067773D01*
X16122575Y-5068864D01*
X16123452Y-5070046D01*
X16124209Y-5071309D01*
X16124838Y-5072640D01*
X16125334Y-5074026D01*
X16125692Y-5075454D01*
X16125908Y-5076910D01*
X16125980Y-5078380D01*
X16125980Y-5208380D01*
X16125908Y-5209850D01*
X16125692Y-5211306D01*
X16125334Y-5212734D01*
X16124838Y-5214120D01*
X16124209Y-5215451D01*
X16123452Y-5216714D01*
X16122575Y-5217896D01*
X16121587Y-5218987D01*
X16120496Y-5219975D01*
X16119314Y-5220852D01*
X16118051Y-5221609D01*
X16116720Y-5222238D01*
X16115334Y-5222734D01*
X16113906Y-5223092D01*
X16112450Y-5223308D01*
X16110980Y-5223380D01*
X16080980Y-5223380D01*
X16079510Y-5223308D01*
X16078054Y-5223092D01*
X16076626Y-5222734D01*
X16075240Y-5222238D01*
X16073909Y-5221609D01*
X16072646Y-5220852D01*
X16071464Y-5219975D01*
X16070373Y-5218987D01*
X16069385Y-5217896D01*
X16068508Y-5216714D01*
X16067751Y-5215451D01*
X16067122Y-5214120D01*
X16066626Y-5212734D01*
X16066268Y-5211306D01*
X16066052Y-5209850D01*
X16065980Y-5208380D01*
X16065980Y-5078380D01*
X16066052Y-5076910D01*
X16066268Y-5075454D01*
X16066626Y-5074026D01*
X16067122Y-5072640D01*
X16067751Y-5071309D01*
X16068508Y-5070046D01*
X16069385Y-5068864D01*
X16070373Y-5067773D01*
X16071464Y-5066785D01*
X16072646Y-5065908D01*
X16073909Y-5065151D01*
X16075240Y-5064522D01*
X16076626Y-5064026D01*
X16078054Y-5063668D01*
X16079510Y-5063452D01*
X16080980Y-5063380D01*
X16110980Y-5063380D01*
X16112450Y-5063452D01*
G37*
G36*
X15985450Y-5063452D02*
G01*
X15986906Y-5063668D01*
X15988334Y-5064026D01*
X15989720Y-5064522D01*
X15991051Y-5065151D01*
X15992314Y-5065908D01*
X15993496Y-5066785D01*
X15994587Y-5067773D01*
X15995575Y-5068864D01*
X15996452Y-5070046D01*
X15997209Y-5071309D01*
X15997838Y-5072640D01*
X15998334Y-5074026D01*
X15998692Y-5075454D01*
X15998908Y-5076910D01*
X15998980Y-5078380D01*
X15998980Y-5208380D01*
X15998908Y-5209850D01*
X15998692Y-5211306D01*
X15998334Y-5212734D01*
X15997838Y-5214120D01*
X15997209Y-5215451D01*
X15996452Y-5216714D01*
X15995575Y-5217896D01*
X15994587Y-5218987D01*
X15993496Y-5219975D01*
X15992314Y-5220852D01*
X15991051Y-5221609D01*
X15989720Y-5222238D01*
X15988334Y-5222734D01*
X15986906Y-5223092D01*
X15985450Y-5223308D01*
X15983980Y-5223380D01*
X15953980Y-5223380D01*
X15952510Y-5223308D01*
X15951054Y-5223092D01*
X15949626Y-5222734D01*
X15948240Y-5222238D01*
X15946909Y-5221609D01*
X15945646Y-5220852D01*
X15944464Y-5219975D01*
X15943373Y-5218987D01*
X15942385Y-5217896D01*
X15941508Y-5216714D01*
X15940751Y-5215451D01*
X15940122Y-5214120D01*
X15939626Y-5212734D01*
X15939268Y-5211306D01*
X15939052Y-5209850D01*
X15938980Y-5208380D01*
X15938980Y-5078380D01*
X15939052Y-5076910D01*
X15939268Y-5075454D01*
X15939626Y-5074026D01*
X15940122Y-5072640D01*
X15940751Y-5071309D01*
X15941508Y-5070046D01*
X15942385Y-5068864D01*
X15943373Y-5067773D01*
X15944464Y-5066785D01*
X15945646Y-5065908D01*
X15946909Y-5065151D01*
X15948240Y-5064522D01*
X15949626Y-5064026D01*
X15951054Y-5063668D01*
X15952510Y-5063452D01*
X15953980Y-5063380D01*
X15983980Y-5063380D01*
X15985450Y-5063452D01*
G37*
G36*
X15858450Y-5063452D02*
G01*
X15859906Y-5063668D01*
X15861334Y-5064026D01*
X15862720Y-5064522D01*
X15864051Y-5065151D01*
X15865314Y-5065908D01*
X15866496Y-5066785D01*
X15867587Y-5067773D01*
X15868575Y-5068864D01*
X15869452Y-5070046D01*
X15870209Y-5071309D01*
X15870838Y-5072640D01*
X15871334Y-5074026D01*
X15871692Y-5075454D01*
X15871908Y-5076910D01*
X15871980Y-5078380D01*
X15871980Y-5208380D01*
X15871908Y-5209850D01*
X15871692Y-5211306D01*
X15871334Y-5212734D01*
X15870838Y-5214120D01*
X15870209Y-5215451D01*
X15869452Y-5216714D01*
X15868575Y-5217896D01*
X15867587Y-5218987D01*
X15866496Y-5219975D01*
X15865314Y-5220852D01*
X15864051Y-5221609D01*
X15862720Y-5222238D01*
X15861334Y-5222734D01*
X15859906Y-5223092D01*
X15858450Y-5223308D01*
X15856980Y-5223380D01*
X15826980Y-5223380D01*
X15825510Y-5223308D01*
X15824054Y-5223092D01*
X15822626Y-5222734D01*
X15821240Y-5222238D01*
X15819909Y-5221609D01*
X15818646Y-5220852D01*
X15817464Y-5219975D01*
X15816373Y-5218987D01*
X15815385Y-5217896D01*
X15814508Y-5216714D01*
X15813751Y-5215451D01*
X15813122Y-5214120D01*
X15812626Y-5212734D01*
X15812268Y-5211306D01*
X15812052Y-5209850D01*
X15811980Y-5208380D01*
X15811980Y-5078380D01*
X15812052Y-5076910D01*
X15812268Y-5075454D01*
X15812626Y-5074026D01*
X15813122Y-5072640D01*
X15813751Y-5071309D01*
X15814508Y-5070046D01*
X15815385Y-5068864D01*
X15816373Y-5067773D01*
X15817464Y-5066785D01*
X15818646Y-5065908D01*
X15819909Y-5065151D01*
X15821240Y-5064522D01*
X15822626Y-5064026D01*
X15824054Y-5063668D01*
X15825510Y-5063452D01*
X15826980Y-5063380D01*
X15856980Y-5063380D01*
X15858450Y-5063452D01*
G37*
G36*
X15731450Y-5063452D02*
G01*
X15732906Y-5063668D01*
X15734334Y-5064026D01*
X15735720Y-5064522D01*
X15737051Y-5065151D01*
X15738314Y-5065908D01*
X15739496Y-5066785D01*
X15740587Y-5067773D01*
X15741575Y-5068864D01*
X15742452Y-5070046D01*
X15743209Y-5071309D01*
X15743838Y-5072640D01*
X15744334Y-5074026D01*
X15744692Y-5075454D01*
X15744908Y-5076910D01*
X15744980Y-5078380D01*
X15744980Y-5208380D01*
X15744908Y-5209850D01*
X15744692Y-5211306D01*
X15744334Y-5212734D01*
X15743838Y-5214120D01*
X15743209Y-5215451D01*
X15742452Y-5216714D01*
X15741575Y-5217896D01*
X15740587Y-5218987D01*
X15739496Y-5219975D01*
X15738314Y-5220852D01*
X15737051Y-5221609D01*
X15735720Y-5222238D01*
X15734334Y-5222734D01*
X15732906Y-5223092D01*
X15731450Y-5223308D01*
X15729980Y-5223380D01*
X15699980Y-5223380D01*
X15698510Y-5223308D01*
X15697054Y-5223092D01*
X15695626Y-5222734D01*
X15694240Y-5222238D01*
X15692909Y-5221609D01*
X15691646Y-5220852D01*
X15690464Y-5219975D01*
X15689373Y-5218987D01*
X15688385Y-5217896D01*
X15687508Y-5216714D01*
X15686751Y-5215451D01*
X15686122Y-5214120D01*
X15685626Y-5212734D01*
X15685268Y-5211306D01*
X15685052Y-5209850D01*
X15684980Y-5208380D01*
X15684980Y-5078380D01*
X15685052Y-5076910D01*
X15685268Y-5075454D01*
X15685626Y-5074026D01*
X15686122Y-5072640D01*
X15686751Y-5071309D01*
X15687508Y-5070046D01*
X15688385Y-5068864D01*
X15689373Y-5067773D01*
X15690464Y-5066785D01*
X15691646Y-5065908D01*
X15692909Y-5065151D01*
X15694240Y-5064522D01*
X15695626Y-5064026D01*
X15697054Y-5063668D01*
X15698510Y-5063452D01*
X15699980Y-5063380D01*
X15729980Y-5063380D01*
X15731450Y-5063452D01*
G37*
G36*
X15604450Y-5063452D02*
G01*
X15605906Y-5063668D01*
X15607334Y-5064026D01*
X15608720Y-5064522D01*
X15610051Y-5065151D01*
X15611314Y-5065908D01*
X15612496Y-5066785D01*
X15613587Y-5067773D01*
X15614575Y-5068864D01*
X15615452Y-5070046D01*
X15616209Y-5071309D01*
X15616838Y-5072640D01*
X15617334Y-5074026D01*
X15617692Y-5075454D01*
X15617908Y-5076910D01*
X15617980Y-5078380D01*
X15617980Y-5208380D01*
X15617908Y-5209850D01*
X15617692Y-5211306D01*
X15617334Y-5212734D01*
X15616838Y-5214120D01*
X15616209Y-5215451D01*
X15615452Y-5216714D01*
X15614575Y-5217896D01*
X15613587Y-5218987D01*
X15612496Y-5219975D01*
X15611314Y-5220852D01*
X15610051Y-5221609D01*
X15608720Y-5222238D01*
X15607334Y-5222734D01*
X15605906Y-5223092D01*
X15604450Y-5223308D01*
X15602980Y-5223380D01*
X15572980Y-5223380D01*
X15571510Y-5223308D01*
X15570054Y-5223092D01*
X15568626Y-5222734D01*
X15567240Y-5222238D01*
X15565909Y-5221609D01*
X15564646Y-5220852D01*
X15563464Y-5219975D01*
X15562373Y-5218987D01*
X15561385Y-5217896D01*
X15560508Y-5216714D01*
X15559751Y-5215451D01*
X15559122Y-5214120D01*
X15558626Y-5212734D01*
X15558268Y-5211306D01*
X15558052Y-5209850D01*
X15557980Y-5208380D01*
X15557980Y-5078380D01*
X15558052Y-5076910D01*
X15558268Y-5075454D01*
X15558626Y-5074026D01*
X15559122Y-5072640D01*
X15559751Y-5071309D01*
X15560508Y-5070046D01*
X15561385Y-5068864D01*
X15562373Y-5067773D01*
X15563464Y-5066785D01*
X15564646Y-5065908D01*
X15565909Y-5065151D01*
X15567240Y-5064522D01*
X15568626Y-5064026D01*
X15570054Y-5063668D01*
X15571510Y-5063452D01*
X15572980Y-5063380D01*
X15602980Y-5063380D01*
X15604450Y-5063452D01*
G37*
G36*
X15477450Y-5063452D02*
G01*
X15478906Y-5063668D01*
X15480334Y-5064026D01*
X15481720Y-5064522D01*
X15483051Y-5065151D01*
X15484314Y-5065908D01*
X15485496Y-5066785D01*
X15486587Y-5067773D01*
X15487575Y-5068864D01*
X15488452Y-5070046D01*
X15489209Y-5071309D01*
X15489838Y-5072640D01*
X15490334Y-5074026D01*
X15490692Y-5075454D01*
X15490908Y-5076910D01*
X15490980Y-5078380D01*
X15490980Y-5208380D01*
X15490908Y-5209850D01*
X15490692Y-5211306D01*
X15490334Y-5212734D01*
X15489838Y-5214120D01*
X15489209Y-5215451D01*
X15488452Y-5216714D01*
X15487575Y-5217896D01*
X15486587Y-5218987D01*
X15485496Y-5219975D01*
X15484314Y-5220852D01*
X15483051Y-5221609D01*
X15481720Y-5222238D01*
X15480334Y-5222734D01*
X15478906Y-5223092D01*
X15477450Y-5223308D01*
X15475980Y-5223380D01*
X15445980Y-5223380D01*
X15444510Y-5223308D01*
X15443054Y-5223092D01*
X15441626Y-5222734D01*
X15440240Y-5222238D01*
X15438909Y-5221609D01*
X15437646Y-5220852D01*
X15436464Y-5219975D01*
X15435373Y-5218987D01*
X15434385Y-5217896D01*
X15433508Y-5216714D01*
X15432751Y-5215451D01*
X15432122Y-5214120D01*
X15431626Y-5212734D01*
X15431268Y-5211306D01*
X15431052Y-5209850D01*
X15430980Y-5208380D01*
X15430980Y-5078380D01*
X15431052Y-5076910D01*
X15431268Y-5075454D01*
X15431626Y-5074026D01*
X15432122Y-5072640D01*
X15432751Y-5071309D01*
X15433508Y-5070046D01*
X15434385Y-5068864D01*
X15435373Y-5067773D01*
X15436464Y-5066785D01*
X15437646Y-5065908D01*
X15438909Y-5065151D01*
X15440240Y-5064522D01*
X15441626Y-5064026D01*
X15443054Y-5063668D01*
X15444510Y-5063452D01*
X15445980Y-5063380D01*
X15475980Y-5063380D01*
X15477450Y-5063452D01*
G37*
G36*
X15350450Y-5063452D02*
G01*
X15351906Y-5063668D01*
X15353334Y-5064026D01*
X15354720Y-5064522D01*
X15356051Y-5065151D01*
X15357314Y-5065908D01*
X15358496Y-5066785D01*
X15359587Y-5067773D01*
X15360575Y-5068864D01*
X15361452Y-5070046D01*
X15362209Y-5071309D01*
X15362838Y-5072640D01*
X15363334Y-5074026D01*
X15363692Y-5075454D01*
X15363908Y-5076910D01*
X15363980Y-5078380D01*
X15363980Y-5208380D01*
X15363908Y-5209850D01*
X15363692Y-5211306D01*
X15363334Y-5212734D01*
X15362838Y-5214120D01*
X15362209Y-5215451D01*
X15361452Y-5216714D01*
X15360575Y-5217896D01*
X15359587Y-5218987D01*
X15358496Y-5219975D01*
X15357314Y-5220852D01*
X15356051Y-5221609D01*
X15354720Y-5222238D01*
X15353334Y-5222734D01*
X15351906Y-5223092D01*
X15350450Y-5223308D01*
X15348980Y-5223380D01*
X15318980Y-5223380D01*
X15317510Y-5223308D01*
X15316054Y-5223092D01*
X15314626Y-5222734D01*
X15313240Y-5222238D01*
X15311909Y-5221609D01*
X15310646Y-5220852D01*
X15309464Y-5219975D01*
X15308373Y-5218987D01*
X15307385Y-5217896D01*
X15306508Y-5216714D01*
X15305751Y-5215451D01*
X15305122Y-5214120D01*
X15304626Y-5212734D01*
X15304268Y-5211306D01*
X15304052Y-5209850D01*
X15303980Y-5208380D01*
X15303980Y-5078380D01*
X15304052Y-5076910D01*
X15304268Y-5075454D01*
X15304626Y-5074026D01*
X15305122Y-5072640D01*
X15305751Y-5071309D01*
X15306508Y-5070046D01*
X15307385Y-5068864D01*
X15308373Y-5067773D01*
X15309464Y-5066785D01*
X15310646Y-5065908D01*
X15311909Y-5065151D01*
X15313240Y-5064522D01*
X15314626Y-5064026D01*
X15316054Y-5063668D01*
X15317510Y-5063452D01*
X15318980Y-5063380D01*
X15348980Y-5063380D01*
X15350450Y-5063452D01*
G37*
G36*
X15223450Y-5063452D02*
G01*
X15224906Y-5063668D01*
X15226334Y-5064026D01*
X15227720Y-5064522D01*
X15229051Y-5065151D01*
X15230314Y-5065908D01*
X15231496Y-5066785D01*
X15232587Y-5067773D01*
X15233575Y-5068864D01*
X15234452Y-5070046D01*
X15235209Y-5071309D01*
X15235838Y-5072640D01*
X15236334Y-5074026D01*
X15236692Y-5075454D01*
X15236908Y-5076910D01*
X15236980Y-5078380D01*
X15236980Y-5208380D01*
X15236908Y-5209850D01*
X15236692Y-5211306D01*
X15236334Y-5212734D01*
X15235838Y-5214120D01*
X15235209Y-5215451D01*
X15234452Y-5216714D01*
X15233575Y-5217896D01*
X15232587Y-5218987D01*
X15231496Y-5219975D01*
X15230314Y-5220852D01*
X15229051Y-5221609D01*
X15227720Y-5222238D01*
X15226334Y-5222734D01*
X15224906Y-5223092D01*
X15223450Y-5223308D01*
X15221980Y-5223380D01*
X15191980Y-5223380D01*
X15190510Y-5223308D01*
X15189054Y-5223092D01*
X15187626Y-5222734D01*
X15186240Y-5222238D01*
X15184909Y-5221609D01*
X15183646Y-5220852D01*
X15182464Y-5219975D01*
X15181373Y-5218987D01*
X15180385Y-5217896D01*
X15179508Y-5216714D01*
X15178751Y-5215451D01*
X15178122Y-5214120D01*
X15177626Y-5212734D01*
X15177268Y-5211306D01*
X15177052Y-5209850D01*
X15176980Y-5208380D01*
X15176980Y-5078380D01*
X15177052Y-5076910D01*
X15177268Y-5075454D01*
X15177626Y-5074026D01*
X15178122Y-5072640D01*
X15178751Y-5071309D01*
X15179508Y-5070046D01*
X15180385Y-5068864D01*
X15181373Y-5067773D01*
X15182464Y-5066785D01*
X15183646Y-5065908D01*
X15184909Y-5065151D01*
X15186240Y-5064522D01*
X15187626Y-5064026D01*
X15189054Y-5063668D01*
X15190510Y-5063452D01*
X15191980Y-5063380D01*
X15221980Y-5063380D01*
X15223450Y-5063452D01*
G37*
G36*
X15223450Y-4413452D02*
G01*
X15224906Y-4413668D01*
X15226334Y-4414026D01*
X15227720Y-4414522D01*
X15229051Y-4415151D01*
X15230314Y-4415908D01*
X15231496Y-4416785D01*
X15232587Y-4417773D01*
X15233575Y-4418864D01*
X15234452Y-4420046D01*
X15235209Y-4421309D01*
X15235838Y-4422640D01*
X15236334Y-4424026D01*
X15236692Y-4425454D01*
X15236908Y-4426910D01*
X15236980Y-4428380D01*
X15236980Y-4558380D01*
X15236908Y-4559850D01*
X15236692Y-4561306D01*
X15236334Y-4562734D01*
X15235838Y-4564120D01*
X15235209Y-4565451D01*
X15234452Y-4566714D01*
X15233575Y-4567896D01*
X15232587Y-4568987D01*
X15231496Y-4569975D01*
X15230314Y-4570852D01*
X15229051Y-4571609D01*
X15227720Y-4572238D01*
X15226334Y-4572734D01*
X15224906Y-4573092D01*
X15223450Y-4573308D01*
X15221980Y-4573380D01*
X15191980Y-4573380D01*
X15190510Y-4573308D01*
X15189054Y-4573092D01*
X15187626Y-4572734D01*
X15186240Y-4572238D01*
X15184909Y-4571609D01*
X15183646Y-4570852D01*
X15182464Y-4569975D01*
X15181373Y-4568987D01*
X15180385Y-4567896D01*
X15179508Y-4566714D01*
X15178751Y-4565451D01*
X15178122Y-4564120D01*
X15177626Y-4562734D01*
X15177268Y-4561306D01*
X15177052Y-4559850D01*
X15176980Y-4558380D01*
X15176980Y-4428380D01*
X15177052Y-4426910D01*
X15177268Y-4425454D01*
X15177626Y-4424026D01*
X15178122Y-4422640D01*
X15178751Y-4421309D01*
X15179508Y-4420046D01*
X15180385Y-4418864D01*
X15181373Y-4417773D01*
X15182464Y-4416785D01*
X15183646Y-4415908D01*
X15184909Y-4415151D01*
X15186240Y-4414522D01*
X15187626Y-4414026D01*
X15189054Y-4413668D01*
X15190510Y-4413452D01*
X15191980Y-4413380D01*
X15221980Y-4413380D01*
X15223450Y-4413452D01*
G37*
G36*
X15350450Y-4413452D02*
G01*
X15351906Y-4413668D01*
X15353334Y-4414026D01*
X15354720Y-4414522D01*
X15356051Y-4415151D01*
X15357314Y-4415908D01*
X15358496Y-4416785D01*
X15359587Y-4417773D01*
X15360575Y-4418864D01*
X15361452Y-4420046D01*
X15362209Y-4421309D01*
X15362838Y-4422640D01*
X15363334Y-4424026D01*
X15363692Y-4425454D01*
X15363908Y-4426910D01*
X15363980Y-4428380D01*
X15363980Y-4558380D01*
X15363908Y-4559850D01*
X15363692Y-4561306D01*
X15363334Y-4562734D01*
X15362838Y-4564120D01*
X15362209Y-4565451D01*
X15361452Y-4566714D01*
X15360575Y-4567896D01*
X15359587Y-4568987D01*
X15358496Y-4569975D01*
X15357314Y-4570852D01*
X15356051Y-4571609D01*
X15354720Y-4572238D01*
X15353334Y-4572734D01*
X15351906Y-4573092D01*
X15350450Y-4573308D01*
X15348980Y-4573380D01*
X15318980Y-4573380D01*
X15317510Y-4573308D01*
X15316054Y-4573092D01*
X15314626Y-4572734D01*
X15313240Y-4572238D01*
X15311909Y-4571609D01*
X15310646Y-4570852D01*
X15309464Y-4569975D01*
X15308373Y-4568987D01*
X15307385Y-4567896D01*
X15306508Y-4566714D01*
X15305751Y-4565451D01*
X15305122Y-4564120D01*
X15304626Y-4562734D01*
X15304268Y-4561306D01*
X15304052Y-4559850D01*
X15303980Y-4558380D01*
X15303980Y-4428380D01*
X15304052Y-4426910D01*
X15304268Y-4425454D01*
X15304626Y-4424026D01*
X15305122Y-4422640D01*
X15305751Y-4421309D01*
X15306508Y-4420046D01*
X15307385Y-4418864D01*
X15308373Y-4417773D01*
X15309464Y-4416785D01*
X15310646Y-4415908D01*
X15311909Y-4415151D01*
X15313240Y-4414522D01*
X15314626Y-4414026D01*
X15316054Y-4413668D01*
X15317510Y-4413452D01*
X15318980Y-4413380D01*
X15348980Y-4413380D01*
X15350450Y-4413452D01*
G37*
G36*
X15477450Y-4413452D02*
G01*
X15478906Y-4413668D01*
X15480334Y-4414026D01*
X15481720Y-4414522D01*
X15483051Y-4415151D01*
X15484314Y-4415908D01*
X15485496Y-4416785D01*
X15486587Y-4417773D01*
X15487575Y-4418864D01*
X15488452Y-4420046D01*
X15489209Y-4421309D01*
X15489838Y-4422640D01*
X15490334Y-4424026D01*
X15490692Y-4425454D01*
X15490908Y-4426910D01*
X15490980Y-4428380D01*
X15490980Y-4558380D01*
X15490908Y-4559850D01*
X15490692Y-4561306D01*
X15490334Y-4562734D01*
X15489838Y-4564120D01*
X15489209Y-4565451D01*
X15488452Y-4566714D01*
X15487575Y-4567896D01*
X15486587Y-4568987D01*
X15485496Y-4569975D01*
X15484314Y-4570852D01*
X15483051Y-4571609D01*
X15481720Y-4572238D01*
X15480334Y-4572734D01*
X15478906Y-4573092D01*
X15477450Y-4573308D01*
X15475980Y-4573380D01*
X15445980Y-4573380D01*
X15444510Y-4573308D01*
X15443054Y-4573092D01*
X15441626Y-4572734D01*
X15440240Y-4572238D01*
X15438909Y-4571609D01*
X15437646Y-4570852D01*
X15436464Y-4569975D01*
X15435373Y-4568987D01*
X15434385Y-4567896D01*
X15433508Y-4566714D01*
X15432751Y-4565451D01*
X15432122Y-4564120D01*
X15431626Y-4562734D01*
X15431268Y-4561306D01*
X15431052Y-4559850D01*
X15430980Y-4558380D01*
X15430980Y-4428380D01*
X15431052Y-4426910D01*
X15431268Y-4425454D01*
X15431626Y-4424026D01*
X15432122Y-4422640D01*
X15432751Y-4421309D01*
X15433508Y-4420046D01*
X15434385Y-4418864D01*
X15435373Y-4417773D01*
X15436464Y-4416785D01*
X15437646Y-4415908D01*
X15438909Y-4415151D01*
X15440240Y-4414522D01*
X15441626Y-4414026D01*
X15443054Y-4413668D01*
X15444510Y-4413452D01*
X15445980Y-4413380D01*
X15475980Y-4413380D01*
X15477450Y-4413452D01*
G37*
G36*
X15604450Y-4413452D02*
G01*
X15605906Y-4413668D01*
X15607334Y-4414026D01*
X15608720Y-4414522D01*
X15610051Y-4415151D01*
X15611314Y-4415908D01*
X15612496Y-4416785D01*
X15613587Y-4417773D01*
X15614575Y-4418864D01*
X15615452Y-4420046D01*
X15616209Y-4421309D01*
X15616838Y-4422640D01*
X15617334Y-4424026D01*
X15617692Y-4425454D01*
X15617908Y-4426910D01*
X15617980Y-4428380D01*
X15617980Y-4558380D01*
X15617908Y-4559850D01*
X15617692Y-4561306D01*
X15617334Y-4562734D01*
X15616838Y-4564120D01*
X15616209Y-4565451D01*
X15615452Y-4566714D01*
X15614575Y-4567896D01*
X15613587Y-4568987D01*
X15612496Y-4569975D01*
X15611314Y-4570852D01*
X15610051Y-4571609D01*
X15608720Y-4572238D01*
X15607334Y-4572734D01*
X15605906Y-4573092D01*
X15604450Y-4573308D01*
X15602980Y-4573380D01*
X15572980Y-4573380D01*
X15571510Y-4573308D01*
X15570054Y-4573092D01*
X15568626Y-4572734D01*
X15567240Y-4572238D01*
X15565909Y-4571609D01*
X15564646Y-4570852D01*
X15563464Y-4569975D01*
X15562373Y-4568987D01*
X15561385Y-4567896D01*
X15560508Y-4566714D01*
X15559751Y-4565451D01*
X15559122Y-4564120D01*
X15558626Y-4562734D01*
X15558268Y-4561306D01*
X15558052Y-4559850D01*
X15557980Y-4558380D01*
X15557980Y-4428380D01*
X15558052Y-4426910D01*
X15558268Y-4425454D01*
X15558626Y-4424026D01*
X15559122Y-4422640D01*
X15559751Y-4421309D01*
X15560508Y-4420046D01*
X15561385Y-4418864D01*
X15562373Y-4417773D01*
X15563464Y-4416785D01*
X15564646Y-4415908D01*
X15565909Y-4415151D01*
X15567240Y-4414522D01*
X15568626Y-4414026D01*
X15570054Y-4413668D01*
X15571510Y-4413452D01*
X15572980Y-4413380D01*
X15602980Y-4413380D01*
X15604450Y-4413452D01*
G37*
G36*
X15731450Y-4413452D02*
G01*
X15732906Y-4413668D01*
X15734334Y-4414026D01*
X15735720Y-4414522D01*
X15737051Y-4415151D01*
X15738314Y-4415908D01*
X15739496Y-4416785D01*
X15740587Y-4417773D01*
X15741575Y-4418864D01*
X15742452Y-4420046D01*
X15743209Y-4421309D01*
X15743838Y-4422640D01*
X15744334Y-4424026D01*
X15744692Y-4425454D01*
X15744908Y-4426910D01*
X15744980Y-4428380D01*
X15744980Y-4558380D01*
X15744908Y-4559850D01*
X15744692Y-4561306D01*
X15744334Y-4562734D01*
X15743838Y-4564120D01*
X15743209Y-4565451D01*
X15742452Y-4566714D01*
X15741575Y-4567896D01*
X15740587Y-4568987D01*
X15739496Y-4569975D01*
X15738314Y-4570852D01*
X15737051Y-4571609D01*
X15735720Y-4572238D01*
X15734334Y-4572734D01*
X15732906Y-4573092D01*
X15731450Y-4573308D01*
X15729980Y-4573380D01*
X15699980Y-4573380D01*
X15698510Y-4573308D01*
X15697054Y-4573092D01*
X15695626Y-4572734D01*
X15694240Y-4572238D01*
X15692909Y-4571609D01*
X15691646Y-4570852D01*
X15690464Y-4569975D01*
X15689373Y-4568987D01*
X15688385Y-4567896D01*
X15687508Y-4566714D01*
X15686751Y-4565451D01*
X15686122Y-4564120D01*
X15685626Y-4562734D01*
X15685268Y-4561306D01*
X15685052Y-4559850D01*
X15684980Y-4558380D01*
X15684980Y-4428380D01*
X15685052Y-4426910D01*
X15685268Y-4425454D01*
X15685626Y-4424026D01*
X15686122Y-4422640D01*
X15686751Y-4421309D01*
X15687508Y-4420046D01*
X15688385Y-4418864D01*
X15689373Y-4417773D01*
X15690464Y-4416785D01*
X15691646Y-4415908D01*
X15692909Y-4415151D01*
X15694240Y-4414522D01*
X15695626Y-4414026D01*
X15697054Y-4413668D01*
X15698510Y-4413452D01*
X15699980Y-4413380D01*
X15729980Y-4413380D01*
X15731450Y-4413452D01*
G37*
G36*
X15858450Y-4413452D02*
G01*
X15859906Y-4413668D01*
X15861334Y-4414026D01*
X15862720Y-4414522D01*
X15864051Y-4415151D01*
X15865314Y-4415908D01*
X15866496Y-4416785D01*
X15867587Y-4417773D01*
X15868575Y-4418864D01*
X15869452Y-4420046D01*
X15870209Y-4421309D01*
X15870838Y-4422640D01*
X15871334Y-4424026D01*
X15871692Y-4425454D01*
X15871908Y-4426910D01*
X15871980Y-4428380D01*
X15871980Y-4558380D01*
X15871908Y-4559850D01*
X15871692Y-4561306D01*
X15871334Y-4562734D01*
X15870838Y-4564120D01*
X15870209Y-4565451D01*
X15869452Y-4566714D01*
X15868575Y-4567896D01*
X15867587Y-4568987D01*
X15866496Y-4569975D01*
X15865314Y-4570852D01*
X15864051Y-4571609D01*
X15862720Y-4572238D01*
X15861334Y-4572734D01*
X15859906Y-4573092D01*
X15858450Y-4573308D01*
X15856980Y-4573380D01*
X15826980Y-4573380D01*
X15825510Y-4573308D01*
X15824054Y-4573092D01*
X15822626Y-4572734D01*
X15821240Y-4572238D01*
X15819909Y-4571609D01*
X15818646Y-4570852D01*
X15817464Y-4569975D01*
X15816373Y-4568987D01*
X15815385Y-4567896D01*
X15814508Y-4566714D01*
X15813751Y-4565451D01*
X15813122Y-4564120D01*
X15812626Y-4562734D01*
X15812268Y-4561306D01*
X15812052Y-4559850D01*
X15811980Y-4558380D01*
X15811980Y-4428380D01*
X15812052Y-4426910D01*
X15812268Y-4425454D01*
X15812626Y-4424026D01*
X15813122Y-4422640D01*
X15813751Y-4421309D01*
X15814508Y-4420046D01*
X15815385Y-4418864D01*
X15816373Y-4417773D01*
X15817464Y-4416785D01*
X15818646Y-4415908D01*
X15819909Y-4415151D01*
X15821240Y-4414522D01*
X15822626Y-4414026D01*
X15824054Y-4413668D01*
X15825510Y-4413452D01*
X15826980Y-4413380D01*
X15856980Y-4413380D01*
X15858450Y-4413452D01*
G37*
G36*
X15985450Y-4413452D02*
G01*
X15986906Y-4413668D01*
X15988334Y-4414026D01*
X15989720Y-4414522D01*
X15991051Y-4415151D01*
X15992314Y-4415908D01*
X15993496Y-4416785D01*
X15994587Y-4417773D01*
X15995575Y-4418864D01*
X15996452Y-4420046D01*
X15997209Y-4421309D01*
X15997838Y-4422640D01*
X15998334Y-4424026D01*
X15998692Y-4425454D01*
X15998908Y-4426910D01*
X15998980Y-4428380D01*
X15998980Y-4558380D01*
X15998908Y-4559850D01*
X15998692Y-4561306D01*
X15998334Y-4562734D01*
X15997838Y-4564120D01*
X15997209Y-4565451D01*
X15996452Y-4566714D01*
X15995575Y-4567896D01*
X15994587Y-4568987D01*
X15993496Y-4569975D01*
X15992314Y-4570852D01*
X15991051Y-4571609D01*
X15989720Y-4572238D01*
X15988334Y-4572734D01*
X15986906Y-4573092D01*
X15985450Y-4573308D01*
X15983980Y-4573380D01*
X15953980Y-4573380D01*
X15952510Y-4573308D01*
X15951054Y-4573092D01*
X15949626Y-4572734D01*
X15948240Y-4572238D01*
X15946909Y-4571609D01*
X15945646Y-4570852D01*
X15944464Y-4569975D01*
X15943373Y-4568987D01*
X15942385Y-4567896D01*
X15941508Y-4566714D01*
X15940751Y-4565451D01*
X15940122Y-4564120D01*
X15939626Y-4562734D01*
X15939268Y-4561306D01*
X15939052Y-4559850D01*
X15938980Y-4558380D01*
X15938980Y-4428380D01*
X15939052Y-4426910D01*
X15939268Y-4425454D01*
X15939626Y-4424026D01*
X15940122Y-4422640D01*
X15940751Y-4421309D01*
X15941508Y-4420046D01*
X15942385Y-4418864D01*
X15943373Y-4417773D01*
X15944464Y-4416785D01*
X15945646Y-4415908D01*
X15946909Y-4415151D01*
X15948240Y-4414522D01*
X15949626Y-4414026D01*
X15951054Y-4413668D01*
X15952510Y-4413452D01*
X15953980Y-4413380D01*
X15983980Y-4413380D01*
X15985450Y-4413452D01*
G37*
G36*
X16112450Y-4413452D02*
G01*
X16113906Y-4413668D01*
X16115334Y-4414026D01*
X16116720Y-4414522D01*
X16118051Y-4415151D01*
X16119314Y-4415908D01*
X16120496Y-4416785D01*
X16121587Y-4417773D01*
X16122575Y-4418864D01*
X16123452Y-4420046D01*
X16124209Y-4421309D01*
X16124838Y-4422640D01*
X16125334Y-4424026D01*
X16125692Y-4425454D01*
X16125908Y-4426910D01*
X16125980Y-4428380D01*
X16125980Y-4558380D01*
X16125908Y-4559850D01*
X16125692Y-4561306D01*
X16125334Y-4562734D01*
X16124838Y-4564120D01*
X16124209Y-4565451D01*
X16123452Y-4566714D01*
X16122575Y-4567896D01*
X16121587Y-4568987D01*
X16120496Y-4569975D01*
X16119314Y-4570852D01*
X16118051Y-4571609D01*
X16116720Y-4572238D01*
X16115334Y-4572734D01*
X16113906Y-4573092D01*
X16112450Y-4573308D01*
X16110980Y-4573380D01*
X16080980Y-4573380D01*
X16079510Y-4573308D01*
X16078054Y-4573092D01*
X16076626Y-4572734D01*
X16075240Y-4572238D01*
X16073909Y-4571609D01*
X16072646Y-4570852D01*
X16071464Y-4569975D01*
X16070373Y-4568987D01*
X16069385Y-4567896D01*
X16068508Y-4566714D01*
X16067751Y-4565451D01*
X16067122Y-4564120D01*
X16066626Y-4562734D01*
X16066268Y-4561306D01*
X16066052Y-4559850D01*
X16065980Y-4558380D01*
X16065980Y-4428380D01*
X16066052Y-4426910D01*
X16066268Y-4425454D01*
X16066626Y-4424026D01*
X16067122Y-4422640D01*
X16067751Y-4421309D01*
X16068508Y-4420046D01*
X16069385Y-4418864D01*
X16070373Y-4417773D01*
X16071464Y-4416785D01*
X16072646Y-4415908D01*
X16073909Y-4415151D01*
X16075240Y-4414522D01*
X16076626Y-4414026D01*
X16078054Y-4413668D01*
X16079510Y-4413452D01*
X16080980Y-4413380D01*
X16110980Y-4413380D01*
X16112450Y-4413452D01*
G37*
M02*
